# Blender v2.79 (sub 0) OBJ File: ''
# www.blender.org
mtllib Door.mtl
o Door_Cube.010
v 0.379546 0.000000 2.000000
v 0.379546 5.690961 2.000000
v 0.379546 0.000000 -2.000000
v 0.379546 5.690961 -2.000000
v -0.360476 0.000000 2.000000
v -0.360476 5.690961 2.000000
v -0.360476 0.000000 -2.000000
v -0.360476 5.690961 -2.000000
v 0.009535 0.000000 2.000000
v 0.009535 5.690961 2.000000
v 0.009535 0.000000 -2.000000
v 0.009535 5.690961 -2.000000
v 1.016719 2.633094 1.477870
v 1.016719 3.195885 1.477870
v 0.620435 2.633094 1.477870
v 0.620435 3.195885 1.477870
v 1.016719 2.633094 0.915080
v 1.016719 3.195885 0.915080
v 0.620435 2.633094 0.915080
v 0.620435 3.195885 0.915080
v 0.620435 2.791637 1.319327
v 0.620435 3.037342 1.319327
v 0.620435 2.791637 1.073623
v 0.620435 3.037342 1.073623
v 0.139392 2.791637 1.319327
v 0.139392 3.037342 1.319327
v 0.139392 2.791637 1.073623
v 0.139392 3.037342 1.073623
v 0.531353 4.382925 0.170659
v 0.531353 4.707029 0.170659
v 0.116294 4.382925 0.170659
v 0.116294 4.707029 0.170659
v 0.531353 4.382925 -0.170658
v 0.531353 4.707029 -0.170658
v 0.116294 4.382925 -0.170658
v 0.116294 4.707029 -0.170658
v 0.420212 4.473209 0.075579
v 0.420212 4.616745 0.075579
v 0.420212 4.473209 -0.075579
v 0.420212 4.616745 -0.075579
v -1.051996 2.633094 0.915081
v -1.051996 3.195885 0.915081
v -0.655712 2.633094 0.915081
v -0.655712 3.195885 0.915081
v -1.051996 2.633094 1.477871
v -1.051996 3.195885 1.477871
v -0.655712 2.633094 1.477871
v -0.655712 3.195885 1.477871
v -0.655712 2.791637 1.073624
v -0.655712 3.037342 1.073624
v -0.655712 2.791637 1.319328
v -0.655712 3.037342 1.319328
v -0.174669 2.791637 1.073624
v -0.174669 3.037342 1.073624
v -0.174669 2.791637 1.319328
v -0.174669 3.037342 1.319328
vn 0.0000 0.0000 -1.0000
vn 1.0000 0.0000 0.0000
vn 0.0000 -1.0000 0.0000
vn 0.0000 1.0000 0.0000
vn 0.0000 0.0000 1.0000
vn -1.0000 0.0000 0.0000
vn 0.6305 -0.7762 0.0000
vn 0.6501 0.0000 0.7599
vn 0.6501 0.0000 -0.7599
vn 0.6305 0.7762 0.0000
usemtl Door
s off
f 11//1 12//1 4//1 3//1
f 3//2 4//2 2//2 1//2
f 9//3 11//3 3//3 1//3
f 12//4 10//4 2//4 4//4
f 1//5 2//5 10//5 9//5
f 11//1 7//1 8//1 12//1
f 7//6 5//6 6//6 8//6
f 9//3 5//3 7//3 11//3
f 12//4 8//4 6//4 10//4
f 5//5 9//5 10//5 6//5
usemtl DoorKnob
f 13//5 14//5 16//5 15//5
f 20//6 19//6 23//6 24//6
f 19//1 20//1 18//1 17//1
f 17//2 18//2 14//2 13//2
f 15//3 19//3 17//3 13//3
f 20//4 16//4 14//4 18//4
f 24//1 23//1 27//1 28//1
f 19//6 15//6 21//6 23//6
f 16//6 20//6 24//6 22//6
f 15//6 16//6 22//6 21//6
f 25//6 26//6 28//6 27//6
f 23//3 21//3 25//3 27//3
f 22//4 24//4 28//4 26//4
f 21//5 22//5 26//5 25//5
f 41//1 42//1 44//1 43//1
f 48//2 47//2 51//2 52//2
f 47//5 48//5 46//5 45//5
f 45//6 46//6 42//6 41//6
f 43//3 47//3 45//3 41//3
f 48//4 44//4 42//4 46//4
f 52//5 51//5 55//5 56//5
f 47//2 43//2 49//2 51//2
f 44//2 48//2 52//2 50//2
f 43//2 44//2 50//2 49//2
f 53//2 54//2 56//2 55//2
f 51//3 49//3 53//3 55//3
f 50//4 52//4 56//4 54//4
f 49//1 50//1 54//1 53//1
usemtl Peephole
f 29//5 30//5 32//5 31//5
f 31//6 32//6 36//6 35//6
f 35//1 36//1 34//1 33//1
f 34//7 30//7 38//7 40//7
f 31//3 35//3 33//3 29//3
f 36//4 32//4 30//4 34//4
f 33//8 34//8 40//8 39//8
f 30//9 29//9 37//9 38//9
f 29//10 33//10 39//10 37//10
usemtl PeepholeInnard
f 39//2 40//2 38//2 37//2
