# Blender v2.79 (sub 0) OBJ File: ''
# www.blender.org
mtllib Wall.mtl
o Wall_Cube.008
v 1.000000 0.000000 10.000000
v 1.000000 11.000000 10.000000
v -1.000000 0.000000 10.000000
v -1.000000 11.000000 10.000000
v 1.000000 0.000000 -10.000000
v 1.000000 11.000000 -10.000000
v -1.000000 0.000000 -10.000000
v -1.000000 11.000000 -10.000000
v 0.000000 0.000000 10.000000
v 0.000000 11.000000 10.000000
v 0.000000 0.000000 -10.000000
v 0.000000 11.000000 -10.000000
vn 0.0000 0.0000 1.0000
vn 0.0000 0.0000 -1.0000
vn 1.0000 0.0000 0.0000
vn 0.0000 -1.0000 0.0000
vn 0.0000 1.0000 0.0000
vn -1.0000 0.0000 0.0000
usemtl Outside
s off
f 9//1 10//1 4//1 3//1
f 11//2 12//2 6//2 5//2
f 5//3 6//3 2//3 1//3
f 9//4 11//4 5//4 1//4
f 12//5 10//5 2//5 6//5
f 8//5 4//5 10//5 12//5
f 3//4 7//4 11//4 9//4
f 7//2 8//2 12//2 11//2
f 1//1 2//1 10//1 9//1
usemtl Inside
f 3//6 4//6 8//6 7//6
