# MagicaVoxel @ Ephtracy

# group
g Bathroom_Sink

# material
mtllib Bathroom_Sink.mtl
usemtl palette

# normals
vn -1 0 0
vn 1 0 0
vn 0 0 1
vn 0 0 -1
vn 0 -1 0
vn 0 1 0

# texcoords
vt 0.537109 0.5
vt 0.962891 0.5
vt 0.978516 0.5

# verts
v -5 0 4
v -5 0 -4
v -5 8 4
v -5 8 -4
v -5 10 1
v -5 10 -1
v -5 11 2
v -5 11 1
v -5 11 -1
v -5 11 -2
v -5 12 2
v -5 12 1
v -5 12 -1
v -5 12 -2
v -5 16 1
v -5 16 -1
v -4 9 2
v -4 9 -2
v -4 10 3
v -4 10 2
v -4 10 1
v -4 10 -1
v -4 10 -2
v -4 10 -3
v -4 11 2
v -4 11 1
v -4 11 -1
v -4 11 -2
v -4 12 3
v -4 12 2
v -4 12 -2
v -4 12 -3
v -3 8 1
v -3 8 -1
v -3 9 3
v -3 9 2
v -3 9 1
v -3 9 -1
v -3 9 -2
v -3 9 -3
v -3 10 3
v -3 10 2
v -3 10 -2
v -3 10 -3
v -3 11 4
v -3 11 3
v -3 11 -3
v -3 11 -4
v -3 12 4
v -3 12 3
v -3 12 -3
v -3 12 -4
v -2 8 2
v -2 8 1
v -2 8 -1
v -2 8 -2
v -2 9 2
v -2 9 1
v -2 9 -1
v -2 9 -2
v -2 10 4
v -2 10 3
v -2 10 -3
v -2 10 -4
v -2 11 4
v -2 11 3
v -2 11 -3
v -2 11 -4
v -2 14 1
v -2 14 -1
v -2 15 1
v -2 15 -1
v 0 10 1
v 0 10 -1
v 0 11 3
v 0 11 2
v 0 11 1
v 0 11 -1
v 0 11 -2
v 0 11 -3
v 0 12 3
v 0 12 2
v 0 12 -2
v 0 12 -3
v 1 11 2
v 1 11 1
v 1 11 -1
v 1 11 -2
v 1 12 2
v 1 12 1
v 1 12 -1
v 1 12 -2
v 2 11 1
v 2 11 -1
v 2 12 1
v 2 12 -1
v -4 11 1
v -4 11 -1
v -4 12 1
v -4 12 -1
v -4 15 1
v -4 15 -1
v -3 11 2
v -3 11 1
v -3 11 -1
v -3 11 -2
v -3 12 2
v -3 12 1
v -3 12 -1
v -3 12 -2
v -2 10 1
v -2 10 -1
v -2 11 3
v -2 11 2
v -2 11 1
v -2 11 -1
v -2 11 -2
v -2 11 -3
v -2 12 3
v -2 12 2
v -2 12 -2
v -2 12 -3
v -1 14 1
v -1 14 -1
v -1 16 1
v -1 16 -1
v 0 8 2
v 0 8 1
v 0 8 -1
v 0 8 -2
v 0 9 2
v 0 9 1
v 0 9 -1
v 0 9 -2
v 0 10 4
v 0 10 3
v 0 10 -3
v 0 10 -4
v 0 11 4
v 0 11 3
v 0 11 -3
v 0 11 -4
v 1 8 1
v 1 8 -1
v 1 9 3
v 1 9 2
v 1 9 1
v 1 9 -1
v 1 9 -2
v 1 9 -3
v 1 10 3
v 1 10 2
v 1 10 -2
v 1 10 -3
v 1 11 4
v 1 11 3
v 1 11 -3
v 1 11 -4
v 1 12 4
v 1 12 3
v 1 12 -3
v 1 12 -4
v 2 1 3
v 2 1 -3
v 2 2 2
v 2 2 -2
v 2 3 -2
v 2 3 -3
v 2 5 -2
v 2 5 -3
v 2 6 2
v 2 6 -2
v 2 7 3
v 2 7 -3
v 2 9 2
v 2 9 -2
v 2 10 3
v 2 10 2
v 2 10 1
v 2 10 -1
v 2 10 -2
v 2 10 -3
v 2 11 2
v 2 11 1
v 2 11 -1
v 2 11 -2
v 2 12 3
v 2 12 2
v 2 12 -2
v 2 12 -3
v 3 0 4
v 3 0 -4
v 3 1 3
v 3 1 -3
v 3 2 2
v 3 2 -2
v 3 3 -1
v 3 3 -2
v 3 3 -3
v 3 5 -1
v 3 5 -2
v 3 5 -3
v 3 6 2
v 3 6 -2
v 3 7 3
v 3 7 -3
v 3 8 4
v 3 8 -4
v 3 10 1
v 3 10 -1
v 3 11 2
v 3 11 1
v 3 11 -1
v 3 11 -2
v 3 12 2
v 3 12 -2
v 4 3 -1
v 4 3 -3
v 4 5 -1
v 4 5 -3
v -5 0 4
v -5 8 4
v -3 11 4
v -3 12 4
v -2 10 4
v -2 11 4
v 0 10 4
v 0 11 4
v 1 11 4
v 1 12 4
v 3 0 4
v 3 8 4
v -4 10 3
v -4 12 3
v -3 9 3
v -3 10 3
v -3 11 3
v -3 12 3
v -2 10 3
v -2 11 3
v 0 10 3
v 0 11 3
v 1 9 3
v 1 10 3
v 1 11 3
v 1 12 3
v 2 10 3
v 2 12 3
v -5 11 2
v -5 12 2
v -4 9 2
v -4 10 2
v -4 11 2
v -4 12 2
v -3 9 2
v -3 10 2
v -2 8 2
v -2 9 2
v 0 8 2
v 0 9 2
v 1 9 2
v 1 10 2
v 2 2 2
v 2 6 2
v 2 9 2
v 2 10 2
v 2 11 2
v 2 12 2
v 3 2 2
v 3 6 2
v 3 11 2
v 3 12 2
v -5 10 1
v -5 11 1
v -5 12 1
v -5 16 1
v -4 10 1
v -4 11 1
v -4 12 1
v -4 15 1
v -3 8 1
v -3 9 1
v -2 8 1
v -2 9 1
v -2 14 1
v -2 15 1
v -1 14 1
v -1 16 1
v 0 8 1
v 0 9 1
v 1 8 1
v 1 9 1
v 2 10 1
v 2 11 1
v 3 10 1
v 3 11 1
v -4 11 -1
v -4 12 -1
v -3 11 -1
v -3 12 -1
v -2 10 -1
v -2 11 -1
v 0 10 -1
v 0 11 -1
v 1 11 -1
v 1 12 -1
v 2 11 -1
v 2 12 -1
v 3 3 -1
v 3 5 -1
v 4 3 -1
v 4 5 -1
v -3 11 -2
v -3 12 -2
v -2 11 -2
v -2 12 -2
v 0 11 -2
v 0 12 -2
v 1 11 -2
v 1 12 -2
v -2 11 -3
v -2 12 -3
v 0 11 -3
v 0 12 -3
v 2 1 -3
v 2 3 -3
v 2 5 -3
v 2 7 -3
v 3 1 -3
v 3 3 -3
v 3 5 -3
v 3 7 -3
v -2 11 3
v -2 12 3
v 0 11 3
v 0 12 3
v 2 1 3
v 2 7 3
v 3 1 3
v 3 7 3
v -3 11 2
v -3 12 2
v -2 11 2
v -2 12 2
v 0 11 2
v 0 12 2
v 1 11 2
v 1 12 2
v -4 11 1
v -4 12 1
v -3 11 1
v -3 12 1
v -2 10 1
v -2 11 1
v 0 10 1
v 0 11 1
v 1 11 1
v 1 12 1
v 2 11 1
v 2 12 1
v -5 10 -1
v -5 11 -1
v -5 12 -1
v -5 16 -1
v -4 10 -1
v -4 11 -1
v -4 12 -1
v -4 15 -1
v -3 8 -1
v -3 9 -1
v -2 8 -1
v -2 9 -1
v -2 14 -1
v -2 15 -1
v -1 14 -1
v -1 16 -1
v 0 8 -1
v 0 9 -1
v 1 8 -1
v 1 9 -1
v 2 10 -1
v 2 11 -1
v 3 10 -1
v 3 11 -1
v -5 11 -2
v -5 12 -2
v -4 9 -2
v -4 10 -2
v -4 11 -2
v -4 12 -2
v -3 9 -2
v -3 10 -2
v -2 8 -2
v -2 9 -2
v 0 8 -2
v 0 9 -2
v 1 9 -2
v 1 10 -2
v 2 2 -2
v 2 3 -2
v 2 5 -2
v 2 6 -2
v 2 9 -2
v 2 10 -2
v 2 11 -2
v 2 12 -2
v 3 2 -2
v 3 3 -2
v 3 5 -2
v 3 6 -2
v 3 11 -2
v 3 12 -2
v -4 10 -3
v -4 12 -3
v -3 9 -3
v -3 10 -3
v -3 11 -3
v -3 12 -3
v -2 10 -3
v -2 11 -3
v 0 10 -3
v 0 11 -3
v 1 9 -3
v 1 10 -3
v 1 11 -3
v 1 12 -3
v 2 10 -3
v 2 12 -3
v 3 3 -3
v 3 5 -3
v 4 3 -3
v 4 5 -3
v -5 0 -4
v -5 8 -4
v -3 11 -4
v -3 12 -4
v -2 10 -4
v -2 11 -4
v 0 10 -4
v 0 11 -4
v 1 11 -4
v 1 12 -4
v 3 0 -4
v 3 8 -4
v -5 0 4
v 3 0 4
v -5 0 -4
v 3 0 -4
v 2 2 2
v 3 2 2
v 2 2 -2
v 3 2 -2
v 3 3 -1
v 4 3 -1
v 2 3 -2
v 3 3 -2
v 2 3 -3
v 3 3 -3
v 4 3 -3
v 2 7 3
v 3 7 3
v 2 7 -3
v 3 7 -3
v -3 9 3
v 1 9 3
v -4 9 2
v -3 9 2
v -2 9 2
v 0 9 2
v 1 9 2
v 2 9 2
v -3 9 1
v -2 9 1
v 0 9 1
v 1 9 1
v -3 9 -1
v -2 9 -1
v 0 9 -1
v 1 9 -1
v -4 9 -2
v -3 9 -2
v -2 9 -2
v 0 9 -2
v 1 9 -2
v 2 9 -2
v -3 9 -3
v 1 9 -3
v -2 10 4
v 0 10 4
v -4 10 3
v -3 10 3
v -2 10 3
v 0 10 3
v 1 10 3
v 2 10 3
v -4 10 2
v -3 10 2
v 1 10 2
v 2 10 2
v -5 10 1
v -4 10 1
v 2 10 1
v 3 10 1
v -5 10 -1
v -4 10 -1
v 2 10 -1
v 3 10 -1
v -4 10 -2
v -3 10 -2
v 1 10 -2
v 2 10 -2
v -4 10 -3
v -3 10 -3
v -2 10 -3
v 0 10 -3
v 1 10 -3
v 2 10 -3
v -2 10 -4
v 0 10 -4
v -3 11 4
v -2 11 4
v 0 11 4
v 1 11 4
v -3 11 3
v -2 11 3
v 0 11 3
v 1 11 3
v -5 11 2
v -4 11 2
v 2 11 2
v 3 11 2
v -5 11 1
v -4 11 1
v 2 11 1
v 3 11 1
v -5 11 -1
v -4 11 -1
v 2 11 -1
v 3 11 -1
v -5 11 -2
v -4 11 -2
v 2 11 -2
v 3 11 -2
v -3 11 -3
v -2 11 -3
v 0 11 -3
v 1 11 -3
v -3 11 -4
v -2 11 -4
v 0 11 -4
v 1 11 -4
v -2 14 1
v -1 14 1
v -2 14 -1
v -1 14 -1
v -4 15 1
v -2 15 1
v -4 15 -1
v -2 15 -1
v 2 1 3
v 3 1 3
v 2 1 -3
v 3 1 -3
v 3 5 -1
v 4 5 -1
v 2 5 -2
v 3 5 -2
v 2 5 -3
v 3 5 -3
v 4 5 -3
v 2 6 2
v 3 6 2
v 2 6 -2
v 3 6 -2
v -5 8 4
v 3 8 4
v -2 8 2
v 0 8 2
v -3 8 1
v -2 8 1
v 0 8 1
v 1 8 1
v -3 8 -1
v -2 8 -1
v 0 8 -1
v 1 8 -1
v -2 8 -2
v 0 8 -2
v -5 8 -4
v 3 8 -4
v -2 10 1
v 0 10 1
v -2 10 -1
v 0 10 -1
v -2 11 3
v 0 11 3
v -3 11 2
v -2 11 2
v 0 11 2
v 1 11 2
v -4 11 1
v -3 11 1
v -2 11 1
v 0 11 1
v 1 11 1
v 2 11 1
v -4 11 -1
v -3 11 -1
v -2 11 -1
v 0 11 -1
v 1 11 -1
v 2 11 -1
v -3 11 -2
v -2 11 -2
v 0 11 -2
v 1 11 -2
v -2 11 -3
v 0 11 -3
v -3 12 4
v 1 12 4
v -4 12 3
v -3 12 3
v -2 12 3
v 0 12 3
v 1 12 3
v 2 12 3
v -5 12 2
v -4 12 2
v -3 12 2
v -2 12 2
v 0 12 2
v 1 12 2
v 2 12 2
v 3 12 2
v -5 12 1
v -4 12 1
v -3 12 1
v 1 12 1
v 2 12 1
v -5 12 -1
v -4 12 -1
v -3 12 -1
v 1 12 -1
v 2 12 -1
v -5 12 -2
v -4 12 -2
v -3 12 -2
v -2 12 -2
v 0 12 -2
v 1 12 -2
v 2 12 -2
v 3 12 -2
v -4 12 -3
v -3 12 -3
v -2 12 -3
v 0 12 -3
v 1 12 -3
v 2 12 -3
v -3 12 -4
v 1 12 -4
v -5 16 1
v -1 16 1
v -5 16 -1
v -1 16 -1

# faces
f 3/1/1 2/1/1 1/1/1
f 4/1/1 2/1/1 3/1/1
f 8/2/1 6/2/1 5/2/1
f 9/2/1 6/2/1 8/2/1
f 11/2/1 8/2/1 7/2/1
f 11/2/1 10/2/1 9/2/1
f 11/2/1 9/2/1 8/2/1
f 12/2/1 10/2/1 11/2/1
f 13/2/1 10/2/1 12/2/1
f 14/2/1 10/2/1 13/2/1
f 15/3/1 13/3/1 12/3/1
f 16/3/1 13/3/1 15/3/1
f 20/2/1 18/2/1 17/2/1
f 21/2/1 18/2/1 20/2/1
f 22/2/1 18/2/1 21/2/1
f 23/2/1 18/2/1 22/2/1
f 25/2/1 20/2/1 19/2/1
f 25/2/1 21/2/1 20/2/1
f 26/2/1 21/2/1 25/2/1
f 27/2/1 24/2/1 23/2/1
f 27/2/1 23/2/1 22/2/1
f 28/2/1 24/2/1 27/2/1
f 29/2/1 25/2/1 19/2/1
f 30/2/1 25/2/1 29/2/1
f 31/2/1 24/2/1 28/2/1
f 32/2/1 24/2/1 31/2/1
f 37/2/1 34/2/1 33/2/1
f 38/2/1 34/2/1 37/2/1
f 41/2/1 36/2/1 35/2/1
f 42/2/1 36/2/1 41/2/1
f 43/2/1 40/2/1 39/2/1
f 44/2/1 40/2/1 43/2/1
f 49/2/1 46/2/1 45/2/1
f 50/2/1 46/2/1 49/2/1
f 51/2/1 48/2/1 47/2/1
f 52/2/1 48/2/1 51/2/1
f 57/2/1 54/2/1 53/2/1
f 58/2/1 54/2/1 57/2/1
f 59/2/1 56/2/1 55/2/1
f 60/2/1 56/2/1 59/2/1
f 65/2/1 62/2/1 61/2/1
f 66/2/1 62/2/1 65/2/1
f 67/2/1 64/2/1 63/2/1
f 68/2/1 64/2/1 67/2/1
f 71/3/1 70/3/1 69/3/1
f 72/3/1 70/3/1 71/3/1
f 77/2/1 74/2/1 73/2/1
f 78/2/1 74/2/1 77/2/1
f 81/2/1 76/2/1 75/2/1
f 82/2/1 76/2/1 81/2/1
f 83/2/1 80/2/1 79/2/1
f 84/2/1 80/2/1 83/2/1
f 89/2/1 86/2/1 85/2/1
f 90/2/1 86/2/1 89/2/1
f 91/2/1 88/2/1 87/2/1
f 92/2/1 88/2/1 91/2/1
f 95/2/1 94/2/1 93/2/1
f 96/2/1 94/2/1 95/2/1
f 97/2/2 98/2/2 99/2/2
f 99/2/2 98/2/2 100/2/2
f 99/3/2 100/3/2 101/3/2
f 101/3/2 100/3/2 102/3/2
f 103/2/2 104/2/2 107/2/2
f 107/2/2 104/2/2 108/2/2
f 105/2/2 106/2/2 109/2/2
f 109/2/2 106/2/2 110/2/2
f 111/2/2 112/2/2 115/2/2
f 115/2/2 112/2/2 116/2/2
f 113/2/2 114/2/2 119/2/2
f 119/2/2 114/2/2 120/2/2
f 117/2/2 118/2/2 121/2/2
f 121/2/2 118/2/2 122/2/2
f 123/3/2 124/3/2 125/3/2
f 125/3/2 124/3/2 126/3/2
f 127/2/2 128/2/2 131/2/2
f 131/2/2 128/2/2 132/2/2
f 129/2/2 130/2/2 133/2/2
f 133/2/2 130/2/2 134/2/2
f 135/2/2 136/2/2 139/2/2
f 139/2/2 136/2/2 140/2/2
f 137/2/2 138/2/2 141/2/2
f 141/2/2 138/2/2 142/2/2
f 143/2/2 144/2/2 147/2/2
f 147/2/2 144/2/2 148/2/2
f 145/2/2 146/2/2 151/2/2
f 151/2/2 146/2/2 152/2/2
f 149/2/2 150/2/2 153/2/2
f 153/2/2 150/2/2 154/2/2
f 155/2/2 156/2/2 159/2/2
f 159/2/2 156/2/2 160/2/2
f 157/2/2 158/2/2 161/2/2
f 161/2/2 158/2/2 162/2/2
f 163/1/2 164/1/2 165/1/2
f 165/1/2 164/1/2 166/1/2
f 166/1/2 164/1/2 167/1/2
f 167/1/2 164/1/2 168/1/2
f 163/1/2 165/1/2 171/1/2
f 169/1/2 170/1/2 172/1/2
f 163/1/2 171/1/2 173/1/2
f 171/1/2 172/1/2 173/1/2
f 172/1/2 170/1/2 174/1/2
f 173/1/2 172/1/2 174/1/2
f 175/2/2 176/2/2 178/2/2
f 178/2/2 176/2/2 179/2/2
f 179/2/2 176/2/2 180/2/2
f 180/2/2 176/2/2 181/2/2
f 177/2/2 178/2/2 183/2/2
f 178/2/2 179/2/2 183/2/2
f 183/2/2 179/2/2 184/2/2
f 181/2/2 182/2/2 185/2/2
f 180/2/2 181/2/2 185/2/2
f 185/2/2 182/2/2 186/2/2
f 177/2/2 183/2/2 187/2/2
f 187/2/2 183/2/2 188/2/2
f 186/2/2 182/2/2 189/2/2
f 189/2/2 182/2/2 190/2/2
f 191/1/2 192/1/2 193/1/2
f 193/1/2 192/1/2 194/1/2
f 195/1/2 196/1/2 197/1/2
f 197/1/2 196/1/2 198/1/2
f 194/1/2 192/1/2 199/1/2
f 195/1/2 197/1/2 200/1/2
f 199/1/2 192/1/2 202/1/2
f 200/1/2 201/1/2 203/1/2
f 195/1/2 200/1/2 203/1/2
f 203/1/2 201/1/2 204/1/2
f 191/1/2 193/1/2 205/1/2
f 202/1/2 192/1/2 206/1/2
f 191/1/2 205/1/2 207/1/2
f 205/1/2 206/1/2 207/1/2
f 206/1/2 192/1/2 208/1/2
f 207/1/2 206/1/2 208/1/2
f 209/2/2 210/2/2 212/2/2
f 212/2/2 210/2/2 213/2/2
f 211/2/2 212/2/2 215/2/2
f 213/2/2 214/2/2 215/2/2
f 212/2/2 213/2/2 215/2/2
f 215/2/2 214/2/2 216/2/2
f 217/3/2 218/3/2 219/3/2
f 219/3/2 218/3/2 220/3/2
f 226/2/3 224/2/3 223/2/3
f 227/2/3 226/2/3 225/2/3
f 228/2/3 224/2/3 226/2/3
f 228/2/3 226/2/3 227/2/3
f 229/2/3 224/2/3 228/2/3
f 230/2/3 224/2/3 229/2/3
f 231/1/3 222/1/3 221/1/3
f 232/1/3 222/1/3 231/1/3
f 236/2/3 234/2/3 233/2/3
f 237/2/3 234/2/3 236/2/3
f 238/2/3 234/2/3 237/2/3
f 239/2/3 236/2/3 235/2/3
f 239/2/3 237/2/3 236/2/3
f 240/2/3 237/2/3 239/2/3
f 241/2/3 239/2/3 235/2/3
f 243/2/3 241/2/3 235/2/3
f 243/2/3 242/2/3 241/2/3
f 244/2/3 242/2/3 243/2/3
f 245/2/3 242/2/3 244/2/3
f 247/2/3 245/2/3 244/2/3
f 247/2/3 246/2/3 245/2/3
f 248/2/3 246/2/3 247/2/3
f 253/2/3 250/2/3 249/2/3
f 254/2/3 250/2/3 253/2/3
f 255/2/3 252/2/3 251/2/3
f 256/2/3 252/2/3 255/2/3
f 259/2/3 258/2/3 257/2/3
f 260/2/3 258/2/3 259/2/3
f 265/2/3 262/2/3 261/2/3
f 266/2/3 262/2/3 265/2/3
f 269/1/3 264/1/3 263/1/3
f 270/1/3 264/1/3 269/1/3
f 271/2/3 268/2/3 267/2/3
f 272/2/3 268/2/3 271/2/3
f 277/2/3 274/2/3 273/2/3
f 278/2/3 274/2/3 277/2/3
f 279/3/3 276/3/3 275/3/3
f 280/3/3 276/3/3 279/3/3
f 283/2/3 282/2/3 281/2/3
f 284/2/3 282/2/3 283/2/3
f 286/3/3 276/3/3 280/3/3
f 287/3/3 286/3/3 285/3/3
f 288/3/3 276/3/3 286/3/3
f 288/3/3 286/3/3 287/3/3
f 291/2/3 290/2/3 289/2/3
f 292/2/3 290/2/3 291/2/3
f 295/2/3 294/2/3 293/2/3
f 296/2/3 294/2/3 295/2/3
f 299/2/3 298/2/3 297/2/3
f 300/2/3 298/2/3 299/2/3
f 303/2/3 302/2/3 301/2/3
f 304/2/3 302/2/3 303/2/3
f 307/2/3 306/2/3 305/2/3
f 308/2/3 306/2/3 307/2/3
f 311/3/3 310/3/3 309/3/3
f 312/3/3 310/3/3 311/3/3
f 315/2/3 314/2/3 313/2/3
f 316/2/3 314/2/3 315/2/3
f 319/2/3 318/2/3 317/2/3
f 320/2/3 318/2/3 319/2/3
f 323/2/3 322/2/3 321/2/3
f 324/2/3 322/2/3 323/2/3
f 329/1/3 326/1/3 325/1/3
f 330/1/3 326/1/3 329/1/3
f 331/1/3 328/1/3 327/1/3
f 332/1/3 328/1/3 331/1/3
f 333/2/4 334/2/4 335/2/4
f 335/2/4 334/2/4 336/2/4
f 337/1/4 338/1/4 339/1/4
f 339/1/4 338/1/4 340/1/4
f 341/2/4 342/2/4 343/2/4
f 343/2/4 342/2/4 344/2/4
f 345/2/4 346/2/4 347/2/4
f 347/2/4 346/2/4 348/2/4
f 349/2/4 350/2/4 351/2/4
f 351/2/4 350/2/4 352/2/4
f 353/2/4 354/2/4 355/2/4
f 355/2/4 354/2/4 356/2/4
f 357/2/4 358/2/4 359/2/4
f 359/2/4 358/2/4 360/2/4
f 361/2/4 362/2/4 365/2/4
f 365/2/4 362/2/4 366/2/4
f 363/3/4 364/3/4 367/3/4
f 367/3/4 364/3/4 368/3/4
f 369/2/4 370/2/4 371/2/4
f 371/2/4 370/2/4 372/2/4
f 368/3/4 364/3/4 374/3/4
f 373/3/4 374/3/4 375/3/4
f 374/3/4 364/3/4 376/3/4
f 375/3/4 374/3/4 376/3/4
f 377/2/4 378/2/4 379/2/4
f 379/2/4 378/2/4 380/2/4
f 381/2/4 382/2/4 383/2/4
f 383/2/4 382/2/4 384/2/4
f 385/2/4 386/2/4 389/2/4
f 389/2/4 386/2/4 390/2/4
f 387/2/4 388/2/4 391/2/4
f 391/2/4 388/2/4 392/2/4
f 393/2/4 394/2/4 395/2/4
f 395/2/4 394/2/4 396/2/4
f 397/2/4 398/2/4 403/2/4
f 403/2/4 398/2/4 404/2/4
f 399/1/4 400/1/4 407/1/4
f 407/1/4 400/1/4 408/1/4
f 401/1/4 402/1/4 409/1/4
f 409/1/4 402/1/4 410/1/4
f 405/2/4 406/2/4 411/2/4
f 411/2/4 406/2/4 412/2/4
f 413/2/4 414/2/4 416/2/4
f 416/2/4 414/2/4 417/2/4
f 417/2/4 414/2/4 418/2/4
f 415/2/4 416/2/4 419/2/4
f 416/2/4 417/2/4 419/2/4
f 419/2/4 417/2/4 420/2/4
f 415/2/4 419/2/4 421/2/4
f 415/2/4 421/2/4 423/2/4
f 421/2/4 422/2/4 423/2/4
f 423/2/4 422/2/4 424/2/4
f 424/2/4 422/2/4 425/2/4
f 424/2/4 425/2/4 427/2/4
f 425/2/4 426/2/4 427/2/4
f 427/2/4 426/2/4 428/2/4
f 429/3/4 430/3/4 431/3/4
f 431/3/4 430/3/4 432/3/4
f 435/2/4 436/2/4 438/2/4
f 437/2/4 438/2/4 439/2/4
f 438/2/4 436/2/4 440/2/4
f 439/2/4 438/2/4 440/2/4
f 440/2/4 436/2/4 441/2/4
f 441/2/4 436/2/4 442/2/4
f 433/1/4 434/1/4 443/1/4
f 443/1/4 434/1/4 444/1/4
f 447/1/5 446/1/5 445/1/5
f 448/1/5 446/1/5 447/1/5
f 451/1/5 450/1/5 449/1/5
f 452/1/5 450/1/5 451/1/5
f 456/3/5 454/3/5 453/3/5
f 457/3/5 456/3/5 455/3/5
f 458/3/5 454/3/5 456/3/5
f 458/3/5 456/3/5 457/3/5
f 459/3/5 454/3/5 458/3/5
f 462/1/5 461/1/5 460/1/5
f 463/1/5 461/1/5 462/1/5
f 467/2/5 465/2/5 464/2/5
f 468/2/5 465/2/5 467/2/5
f 469/2/5 465/2/5 468/2/5
f 470/2/5 465/2/5 469/2/5
f 472/2/5 467/2/5 466/2/5
f 472/2/5 468/2/5 467/2/5
f 473/2/5 468/2/5 472/2/5
f 474/2/5 471/2/5 470/2/5
f 474/2/5 470/2/5 469/2/5
f 475/2/5 471/2/5 474/2/5
f 476/2/5 472/2/5 466/2/5
f 479/2/5 471/2/5 475/2/5
f 480/2/5 477/2/5 476/2/5
f 480/2/5 476/2/5 466/2/5
f 481/2/5 477/2/5 480/2/5
f 482/2/5 477/2/5 481/2/5
f 483/2/5 479/2/5 478/2/5
f 484/2/5 471/2/5 479/2/5
f 484/2/5 479/2/5 483/2/5
f 485/2/5 471/2/5 484/2/5
f 486/2/5 482/2/5 481/2/5
f 486/2/5 483/2/5 482/2/5
f 486/2/5 484/2/5 483/2/5
f 487/2/5 484/2/5 486/2/5
f 492/2/5 489/2/5 488/2/5
f 493/2/5 489/2/5 492/2/5
f 496/2/5 491/2/5 490/2/5
f 497/2/5 491/2/5 496/2/5
f 498/2/5 495/2/5 494/2/5
f 499/2/5 495/2/5 498/2/5
f 504/2/5 501/2/5 500/2/5
f 505/2/5 501/2/5 504/2/5
f 506/2/5 503/2/5 502/2/5
f 507/2/5 503/2/5 506/2/5
f 512/2/5 509/2/5 508/2/5
f 513/2/5 509/2/5 512/2/5
f 516/2/5 511/2/5 510/2/5
f 517/2/5 511/2/5 516/2/5
f 518/2/5 515/2/5 514/2/5
f 519/2/5 515/2/5 518/2/5
f 524/2/5 521/2/5 520/2/5
f 525/2/5 521/2/5 524/2/5
f 526/2/5 523/2/5 522/2/5
f 527/2/5 523/2/5 526/2/5
f 532/2/5 529/2/5 528/2/5
f 533/2/5 529/2/5 532/2/5
f 534/2/5 531/2/5 530/2/5
f 535/2/5 531/2/5 534/2/5
f 540/2/5 537/2/5 536/2/5
f 541/2/5 537/2/5 540/2/5
f 542/2/5 539/2/5 538/2/5
f 543/2/5 539/2/5 542/2/5
f 548/2/5 545/2/5 544/2/5
f 549/2/5 545/2/5 548/2/5
f 550/2/5 547/2/5 546/2/5
f 551/2/5 547/2/5 550/2/5
f 554/3/5 553/3/5 552/3/5
f 555/3/5 553/3/5 554/3/5
f 558/3/5 557/3/5 556/3/5
f 559/3/5 557/3/5 558/3/5
f 560/1/6 561/1/6 562/1/6
f 562/1/6 561/1/6 563/1/6
f 564/3/6 565/3/6 567/3/6
f 566/3/6 567/3/6 568/3/6
f 567/3/6 565/3/6 569/3/6
f 568/3/6 567/3/6 569/3/6
f 569/3/6 565/3/6 570/3/6
f 571/1/6 572/1/6 573/1/6
f 573/1/6 572/1/6 574/1/6
f 575/1/6 576/1/6 577/1/6
f 577/1/6 576/1/6 578/1/6
f 575/1/6 577/1/6 579/1/6
f 579/1/6 577/1/6 580/1/6
f 578/1/6 576/1/6 581/1/6
f 581/1/6 576/1/6 582/1/6
f 575/1/6 579/1/6 583/1/6
f 582/1/6 576/1/6 586/1/6
f 583/1/6 584/1/6 587/1/6
f 585/1/6 586/1/6 588/1/6
f 583/1/6 587/1/6 589/1/6
f 587/1/6 588/1/6 589/1/6
f 575/1/6 583/1/6 589/1/6
f 588/1/6 586/1/6 590/1/6
f 589/1/6 588/1/6 590/1/6
f 586/1/6 576/1/6 590/1/6
f 591/2/6 592/2/6 593/2/6
f 593/2/6 592/2/6 594/2/6
f 595/2/6 596/2/6 598/2/6
f 598/2/6 596/2/6 599/2/6
f 597/2/6 598/2/6 602/2/6
f 599/2/6 600/2/6 602/2/6
f 598/2/6 599/2/6 602/2/6
f 602/2/6 600/2/6 603/2/6
f 603/2/6 600/2/6 604/2/6
f 604/2/6 600/2/6 605/2/6
f 601/2/6 602/2/6 607/2/6
f 602/2/6 603/2/6 607/2/6
f 607/2/6 603/2/6 608/2/6
f 608/2/6 603/2/6 609/2/6
f 605/2/6 606/2/6 610/2/6
f 604/2/6 605/2/6 610/2/6
f 610/2/6 606/2/6 611/2/6
f 611/2/6 606/2/6 612/2/6
f 608/2/6 609/2/6 613/2/6
f 610/2/6 611/2/6 613/2/6
f 609/2/6 610/2/6 613/2/6
f 613/2/6 611/2/6 614/2/6
f 614/2/6 611/2/6 615/2/6
f 615/2/6 611/2/6 616/2/6
f 614/2/6 615/2/6 617/2/6
f 617/2/6 615/2/6 618/2/6
f 619/2/6 620/2/6 622/2/6
f 622/2/6 620/2/6 623/2/6
f 623/2/6 620/2/6 624/2/6
f 624/2/6 620/2/6 625/2/6
f 621/2/6 622/2/6 628/2/6
f 622/2/6 623/2/6 628/2/6
f 628/2/6 623/2/6 629/2/6
f 629/2/6 623/2/6 630/2/6
f 624/2/6 625/2/6 631/2/6
f 625/2/6 626/2/6 631/2/6
f 631/2/6 626/2/6 632/2/6
f 632/2/6 626/2/6 633/2/6
f 628/2/6 629/2/6 635/2/6
f 627/2/6 628/2/6 635/2/6
f 635/2/6 629/2/6 636/2/6
f 636/2/6 629/2/6 637/2/6
f 633/2/6 634/2/6 638/2/6
f 632/2/6 633/2/6 638/2/6
f 638/2/6 634/2/6 639/2/6
f 639/2/6 634/2/6 644/2/6
f 641/2/6 642/2/6 645/2/6
f 640/2/6 641/2/6 645/2/6
f 645/2/6 642/2/6 646/2/6
f 646/2/6 642/2/6 647/2/6
f 643/2/6 644/2/6 650/2/6
f 644/2/6 634/2/6 651/2/6
f 650/2/6 644/2/6 651/2/6
f 651/2/6 634/2/6 652/2/6
f 647/2/6 648/2/6 653/2/6
f 646/2/6 647/2/6 653/2/6
f 653/2/6 648/2/6 654/2/6
f 654/2/6 648/2/6 655/2/6
f 649/2/6 650/2/6 656/2/6
f 650/2/6 651/2/6 656/2/6
f 656/2/6 651/2/6 657/2/6
f 657/2/6 651/2/6 658/2/6
f 654/2/6 655/2/6 659/2/6
f 656/2/6 657/2/6 659/2/6
f 655/2/6 656/2/6 659/2/6
f 659/2/6 657/2/6 660/2/6
f 661/3/6 662/3/6 663/3/6
f 663/3/6 662/3/6 664/3/6
