# MagicaVoxel @ Ephtracy

# group
g Bed_Luxury

# material
mtllib Bed_Luxury.mtl
usemtl palette

# normals
vn -1 0 0
vn 1 0 0
vn 0 0 1
vn 0 0 -1
vn 0 -1 0
vn 0 1 0

# texcoords
vt 0.0410156 0.5
vt 0.224609 0.5
vt 0.251953 0.5
vt 0.537109 0.5
vt 0.560547 0.5
vt 0.958984 0.5

# verts
v -6 0 7
v -6 0 5
v -6 0 -6
v -6 0 -8
v -6 1 5
v -6 1 -6
v -6 2 5
v -6 2 -2
v -6 2 -4
v -6 2 -6
v -6 3 5
v -6 3 -2
v -6 3 -4
v -6 3 -6
v -6 4 -2
v -6 4 -4
v -6 10 5
v -6 10 3
v -6 10 2
v -6 10 -0
v -6 10 -1
v -6 10 -3
v -6 10 -4
v -6 10 -6
v -6 11 7
v -6 11 5
v -6 11 3
v -6 11 2
v -6 11 -0
v -6 11 -1
v -6 11 -3
v -6 11 -4
v -6 11 -6
v -6 11 -8
v -6 13 7
v -6 13 -8
v -4 2 6
v -4 2 5
v -4 3 6
v -4 3 5
v -4 3 -4
v -4 3 -6
v -4 4 -4
v -4 4 -6
v -3 4 -4
v -3 4 -7
v -3 5 -4
v -3 5 -7
v -3 6 -7
v -3 6 -8
v -3 7 -7
v -3 7 -8
v -2 4 7
v -2 4 6
v -2 5 7
v -2 5 6
v -1 10 7
v -1 10 6
v -1 10 -7
v -1 10 -8
v -1 11 7
v -1 11 6
v -1 11 -7
v -1 11 -8
v 1 3 7
v 1 3 6
v 1 5 7
v 1 5 6
v 1 5 -7
v 1 5 -8
v 1 6 -7
v 1 6 -8
v 2 6 -7
v 2 6 -8
v 2 7 -7
v 2 7 -8
v 2 10 7
v 2 10 6
v 2 10 -7
v 2 10 -8
v 2 11 7
v 2 11 6
v 2 11 -7
v 2 11 -8
v 3 4 7
v 3 4 6
v 3 5 7
v 3 5 6
v 3 6 7
v 3 6 6
v 3 7 7
v 3 7 6
v 3 8 -7
v 3 8 -8
v 3 9 -7
v 3 9 -8
v 4 0 7
v 4 0 5
v 4 0 -6
v 4 0 -8
v 4 1 7
v 4 1 5
v 4 1 -6
v 4 1 -8
v 4 4 -6
v 4 4 -7
v 4 6 -7
v 4 6 -8
v 4 7 7
v 4 7 6
v 4 7 -7
v 4 7 -8
v 4 9 -7
v 4 9 -8
v 4 10 7
v 4 10 6
v 4 10 -7
v 4 10 -8
v 4 11 -7
v 4 12 -6
v 4 12 -7
v 5 2 6
v 5 2 5
v 5 3 5
v 5 10 5
v 5 10 3
v 5 10 2
v 5 10 -0
v 5 10 -1
v 5 10 -3
v 5 10 -4
v 5 10 -6
v 5 11 6
v 5 11 5
v 5 11 3
v 5 11 2
v 5 11 -0
v 5 11 -1
v 5 11 -3
v 5 11 -4
v 5 11 -6
v 5 12 6
v 5 12 -6
v -5 2 6
v -5 2 5
v -5 3 5
v -5 10 5
v -5 10 3
v -5 10 2
v -5 10 -0
v -5 10 -1
v -5 10 -3
v -5 10 -4
v -5 10 -6
v -5 11 6
v -5 11 5
v -5 11 3
v -5 11 2
v -5 11 -0
v -5 11 -1
v -5 11 -3
v -5 11 -4
v -5 11 -6
v -5 12 5
v -5 12 -6
v -4 0 7
v -4 0 5
v -4 0 -6
v -4 0 -8
v -4 1 7
v -4 1 5
v -4 1 -6
v -4 1 -8
v -4 4 -6
v -4 4 -7
v -4 6 -7
v -4 6 -8
v -4 7 7
v -4 7 6
v -4 7 -7
v -4 7 -8
v -4 9 -7
v -4 9 -8
v -4 10 7
v -4 10 6
v -4 10 -7
v -4 10 -8
v -4 11 6
v -4 11 5
v -4 11 -7
v -4 12 6
v -4 12 5
v -4 12 -6
v -4 12 -7
v -3 4 7
v -3 4 6
v -3 5 7
v -3 5 6
v -3 6 7
v -3 6 6
v -3 7 7
v -3 7 6
v -3 8 -7
v -3 8 -8
v -3 9 -7
v -3 9 -8
v -2 6 -7
v -2 6 -8
v -2 7 -7
v -2 7 -8
v -2 10 7
v -2 10 6
v -2 10 -7
v -2 10 -8
v -2 11 7
v -2 11 6
v -2 11 -7
v -2 11 -8
v -1 3 7
v -1 3 6
v -1 5 7
v -1 5 6
v -1 5 -7
v -1 5 -8
v -1 6 -7
v -1 6 -8
v 1 10 7
v 1 10 6
v 1 10 -7
v 1 10 -8
v 1 11 7
v 1 11 6
v 1 11 -7
v 1 11 -8
v 2 4 7
v 2 4 6
v 2 5 7
v 2 5 6
v 3 4 -4
v 3 4 -7
v 3 5 -4
v 3 5 -7
v 3 6 -7
v 3 6 -8
v 3 7 -7
v 3 7 -8
v 4 2 6
v 4 2 5
v 4 3 6
v 4 3 5
v 4 3 -4
v 4 3 -6
v 4 4 -4
v 4 4 -6
v 6 0 7
v 6 0 5
v 6 0 -6
v 6 0 -8
v 6 1 5
v 6 1 -6
v 6 2 5
v 6 2 -2
v 6 2 -4
v 6 2 -6
v 6 3 5
v 6 3 -2
v 6 3 -4
v 6 3 -6
v 6 4 -2
v 6 4 -4
v 6 10 5
v 6 10 3
v 6 10 2
v 6 10 -0
v 6 10 -1
v 6 10 -3
v 6 10 -4
v 6 10 -6
v 6 11 7
v 6 11 5
v 6 11 3
v 6 11 2
v 6 11 -0
v 6 11 -1
v 6 11 -3
v 6 11 -4
v 6 11 -6
v 6 11 -8
v 6 13 7
v 6 13 -8
v -6 0 7
v -6 11 7
v -6 13 7
v -4 0 7
v -4 1 7
v -4 7 7
v -4 10 7
v -4 11 7
v -3 4 7
v -3 5 7
v -3 6 7
v -3 7 7
v -2 4 7
v -2 5 7
v -2 10 7
v -2 11 7
v -1 3 7
v -1 5 7
v -1 10 7
v -1 11 7
v 1 3 7
v 1 5 7
v 1 10 7
v 1 11 7
v 2 4 7
v 2 5 7
v 2 10 7
v 2 11 7
v 3 4 7
v 3 5 7
v 3 6 7
v 3 7 7
v 4 0 7
v 4 1 7
v 4 7 7
v 4 10 7
v 4 11 7
v 6 0 7
v 6 11 7
v 6 13 7
v -5 2 5
v -5 3 5
v -4 2 5
v -4 3 5
v 4 2 5
v 4 3 5
v 5 2 5
v 5 3 5
v -6 10 2
v -6 11 2
v -5 10 2
v -5 11 2
v 5 10 2
v 5 11 2
v 6 10 2
v 6 11 2
v -6 10 -1
v -6 11 -1
v -5 10 -1
v -5 11 -1
v 5 10 -1
v 5 11 -1
v 6 10 -1
v 6 11 -1
v -6 3 -2
v -6 4 -2
v 6 3 -2
v 6 4 -2
v -6 10 -4
v -6 11 -4
v -5 10 -4
v -5 11 -4
v -3 4 -4
v -3 5 -4
v 3 4 -4
v 3 5 -4
v 5 10 -4
v 5 11 -4
v 6 10 -4
v 6 11 -4
v -6 0 -6
v -6 1 -6
v -6 3 -6
v -6 10 -6
v -5 10 -6
v -5 11 -6
v -5 12 -6
v -4 0 -6
v -4 1 -6
v -4 3 -6
v -4 4 -6
v -4 12 -6
v 4 0 -6
v 4 1 -6
v 4 3 -6
v 4 4 -6
v 4 12 -6
v 5 10 -6
v 5 11 -6
v 5 12 -6
v 6 0 -6
v 6 1 -6
v 6 3 -6
v 6 10 -6
v -4 4 -7
v -4 6 -7
v -4 7 -7
v -4 9 -7
v -4 10 -7
v -4 11 -7
v -4 12 -7
v -3 4 -7
v -3 5 -7
v -3 6 -7
v -3 7 -7
v -3 8 -7
v -3 9 -7
v -2 6 -7
v -2 7 -7
v -2 10 -7
v -2 11 -7
v -1 5 -7
v -1 6 -7
v -1 10 -7
v -1 11 -7
v 1 5 -7
v 1 6 -7
v 1 10 -7
v 1 11 -7
v 2 6 -7
v 2 7 -7
v 2 10 -7
v 2 11 -7
v 3 4 -7
v 3 5 -7
v 3 6 -7
v 3 7 -7
v 3 8 -7
v 3 9 -7
v 4 4 -7
v 4 6 -7
v 4 7 -7
v 4 9 -7
v 4 10 -7
v 4 11 -7
v 4 12 -7
v -5 2 6
v -5 11 6
v -4 2 6
v -4 3 6
v -4 7 6
v -4 10 6
v -4 11 6
v -4 12 6
v -3 4 6
v -3 5 6
v -3 6 6
v -3 7 6
v -2 4 6
v -2 5 6
v -2 10 6
v -2 11 6
v -1 3 6
v -1 5 6
v -1 10 6
v -1 11 6
v 1 3 6
v 1 5 6
v 1 10 6
v 1 11 6
v 2 4 6
v 2 5 6
v 2 10 6
v 2 11 6
v 3 4 6
v 3 5 6
v 3 6 6
v 3 7 6
v 4 2 6
v 4 3 6
v 4 7 6
v 4 10 6
v 4 11 6
v 5 2 6
v 5 11 6
v 5 12 6
v -6 0 5
v -6 1 5
v -6 3 5
v -6 10 5
v -5 3 5
v -5 10 5
v -5 11 5
v -5 12 5
v -4 0 5
v -4 1 5
v -4 11 5
v -4 12 5
v 4 0 5
v 4 1 5
v 5 3 5
v 5 10 5
v 6 0 5
v 6 1 5
v 6 3 5
v 6 10 5
v -6 10 3
v -6 11 3
v -5 10 3
v -5 11 3
v 5 10 3
v 5 11 3
v 6 10 3
v 6 11 3
v -6 10 -0
v -6 11 -0
v -5 10 -0
v -5 11 -0
v 5 10 -0
v 5 11 -0
v 6 10 -0
v 6 11 -0
v -6 10 -3
v -6 11 -3
v -5 10 -3
v -5 11 -3
v 5 10 -3
v 5 11 -3
v 6 10 -3
v 6 11 -3
v -6 3 -4
v -6 4 -4
v -4 3 -4
v -4 4 -4
v 4 3 -4
v 4 4 -4
v 6 3 -4
v 6 4 -4
v -6 0 -8
v -6 11 -8
v -6 13 -8
v -4 0 -8
v -4 1 -8
v -4 6 -8
v -4 7 -8
v -4 9 -8
v -4 10 -8
v -4 11 -8
v -3 6 -8
v -3 7 -8
v -3 8 -8
v -3 9 -8
v -2 6 -8
v -2 7 -8
v -2 10 -8
v -2 11 -8
v -1 5 -8
v -1 6 -8
v -1 10 -8
v -1 11 -8
v 1 5 -8
v 1 6 -8
v 1 10 -8
v 1 11 -8
v 2 6 -8
v 2 7 -8
v 2 10 -8
v 2 11 -8
v 3 6 -8
v 3 7 -8
v 3 8 -8
v 3 9 -8
v 4 0 -8
v 4 1 -8
v 4 6 -8
v 4 7 -8
v 4 9 -8
v 4 10 -8
v 4 11 -8
v 6 0 -8
v 6 11 -8
v 6 13 -8
v -6 0 7
v -4 0 7
v 4 0 7
v 6 0 7
v -6 0 5
v -4 0 5
v 4 0 5
v 6 0 5
v -6 0 -6
v -4 0 -6
v 4 0 -6
v 6 0 -6
v -6 0 -8
v -4 0 -8
v 4 0 -8
v 6 0 -8
v -4 1 7
v 4 1 7
v -6 1 5
v -4 1 5
v 4 1 5
v 6 1 5
v -6 1 -6
v -4 1 -6
v 4 1 -6
v 6 1 -6
v -4 1 -8
v 4 1 -8
v -3 5 7
v -2 5 7
v -1 5 7
v 1 5 7
v 2 5 7
v 3 5 7
v -3 5 6
v -2 5 6
v -1 5 6
v 1 5 6
v 2 5 6
v 3 5 6
v -4 7 -7
v -3 7 -7
v -2 7 -7
v 2 7 -7
v 3 7 -7
v 4 7 -7
v -4 7 -8
v -3 7 -8
v -2 7 -8
v 2 7 -8
v 3 7 -8
v 4 7 -8
v -4 10 7
v -2 10 7
v -1 10 7
v 1 10 7
v 2 10 7
v 4 10 7
v -4 10 6
v -2 10 6
v -1 10 6
v 1 10 6
v 2 10 6
v 4 10 6
v -6 10 5
v -5 10 5
v 5 10 5
v 6 10 5
v -6 10 3
v -5 10 3
v 5 10 3
v 6 10 3
v -6 10 2
v -5 10 2
v 5 10 2
v 6 10 2
v -6 10 -0
v -5 10 -0
v 5 10 -0
v 6 10 -0
v -6 10 -1
v -5 10 -1
v 5 10 -1
v 6 10 -1
v -6 10 -3
v -5 10 -3
v 5 10 -3
v 6 10 -3
v -6 10 -4
v -5 10 -4
v 5 10 -4
v 6 10 -4
v -6 10 -6
v -5 10 -6
v 5 10 -6
v 6 10 -6
v -4 10 -7
v -2 10 -7
v -1 10 -7
v 1 10 -7
v 2 10 -7
v 4 10 -7
v -4 10 -8
v -2 10 -8
v -1 10 -8
v 1 10 -8
v 2 10 -8
v 4 10 -8
v -2 11 7
v -1 11 7
v 1 11 7
v 2 11 7
v -5 11 6
v -4 11 6
v -2 11 6
v -1 11 6
v 1 11 6
v 2 11 6
v -5 11 5
v -4 11 5
v -6 11 3
v -5 11 3
v 5 11 3
v 6 11 3
v -6 11 2
v -5 11 2
v 5 11 2
v 6 11 2
v -6 11 -0
v -5 11 -0
v 5 11 -0
v 6 11 -0
v -6 11 -1
v -5 11 -1
v 5 11 -1
v 6 11 -1
v -6 11 -3
v -5 11 -3
v 5 11 -3
v 6 11 -3
v -6 11 -4
v -5 11 -4
v 5 11 -4
v 6 11 -4
v -2 11 -7
v -1 11 -7
v 1 11 -7
v 2 11 -7
v -2 11 -8
v -1 11 -8
v 1 11 -8
v 2 11 -8
v -4 12 6
v 5 12 6
v -5 12 5
v -4 12 5
v -5 12 -6
v -4 12 -6
v 4 12 -6
v 5 12 -6
v -4 12 -7
v 4 12 -7
v -5 2 6
v -4 2 6
v 4 2 6
v 5 2 6
v -5 2 5
v -4 2 5
v 4 2 5
v 5 2 5
v -1 3 7
v 1 3 7
v -4 3 6
v -1 3 6
v 1 3 6
v 4 3 6
v -6 3 5
v -5 3 5
v -4 3 5
v 4 3 5
v 5 3 5
v 6 3 5
v -6 3 -2
v 6 3 -2
v -6 3 -4
v -4 3 -4
v 4 3 -4
v 6 3 -4
v -6 3 -6
v -4 3 -6
v 4 3 -6
v 6 3 -6
v -3 4 7
v -2 4 7
v 2 4 7
v 3 4 7
v -3 4 6
v -2 4 6
v 2 4 6
v 3 4 6
v -6 4 -2
v 6 4 -2
v -6 4 -4
v -4 4 -4
v -3 4 -4
v 3 4 -4
v 4 4 -4
v 6 4 -4
v -4 4 -6
v 4 4 -6
v -4 4 -7
v -3 4 -7
v 3 4 -7
v 4 4 -7
v -3 5 -4
v 3 5 -4
v -3 5 -7
v -1 5 -7
v 1 5 -7
v 3 5 -7
v -1 5 -8
v 1 5 -8
v -3 6 7
v 3 6 7
v -3 6 6
v 3 6 6
v -4 6 -7
v -3 6 -7
v -2 6 -7
v -1 6 -7
v 1 6 -7
v 2 6 -7
v 3 6 -7
v 4 6 -7
v -4 6 -8
v -3 6 -8
v -2 6 -8
v -1 6 -8
v 1 6 -8
v 2 6 -8
v 3 6 -8
v 4 6 -8
v -4 7 7
v -3 7 7
v 3 7 7
v 4 7 7
v -4 7 6
v -3 7 6
v 3 7 6
v 4 7 6
v -3 8 -7
v 3 8 -7
v -3 8 -8
v 3 8 -8
v -4 9 -7
v -3 9 -7
v 3 9 -7
v 4 9 -7
v -4 9 -8
v -3 9 -8
v 3 9 -8
v 4 9 -8
v -6 13 7
v 6 13 7
v -6 13 -8
v 6 13 -8

# faces
f 5/4/1 2/4/1 1/4/1
f 6/4/1 4/4/1 3/4/1
f 7/4/1 5/4/1 1/4/1
f 7/4/1 6/4/1 5/4/1
f 8/4/1 6/4/1 7/4/1
f 9/4/1 6/4/1 8/4/1
f 10/4/1 4/4/1 6/4/1
f 10/4/1 6/4/1 9/4/1
f 11/4/1 7/4/1 1/4/1
f 11/5/1 8/5/1 7/5/1
f 12/6/1 9/6/1 8/6/1
f 12/5/1 8/5/1 11/5/1
f 13/2/1 10/2/1 9/2/1
f 13/6/1 9/6/1 12/6/1
f 14/4/1 4/4/1 10/4/1
f 14/2/1 10/2/1 13/2/1
f 15/6/1 13/6/1 12/6/1
f 16/6/1 13/6/1 15/6/1
f 17/4/1 11/4/1 1/4/1
f 24/4/1 4/4/1 14/4/1
f 25/4/1 17/4/1 1/4/1
f 26/1/1 18/1/1 17/1/1
f 26/4/1 17/4/1 25/4/1
f 27/1/1 18/1/1 26/1/1
f 28/1/1 20/1/1 19/1/1
f 29/1/1 20/1/1 28/1/1
f 30/1/1 22/1/1 21/1/1
f 31/1/1 22/1/1 30/1/1
f 32/1/1 24/1/1 23/1/1
f 33/4/1 4/4/1 24/4/1
f 33/1/1 24/1/1 32/1/1
f 34/4/1 4/4/1 33/4/1
f 35/5/1 29/5/1 28/5/1
f 35/5/1 27/5/1 26/5/1
f 35/5/1 34/5/1 33/5/1
f 35/5/1 33/5/1 32/5/1
f 35/5/1 31/5/1 30/5/1
f 35/5/1 30/5/1 29/5/1
f 35/5/1 32/5/1 31/5/1
f 35/5/1 28/5/1 27/5/1
f 35/5/1 26/5/1 25/5/1
f 36/5/1 34/5/1 35/5/1
f 39/5/1 38/5/1 37/5/1
f 40/5/1 38/5/1 39/5/1
f 43/3/1 42/3/1 41/3/1
f 44/3/1 42/3/1 43/3/1
f 47/3/1 46/3/1 45/3/1
f 48/3/1 46/3/1 47/3/1
f 51/4/1 50/4/1 49/4/1
f 52/4/1 50/4/1 51/4/1
f 55/4/1 54/4/1 53/4/1
f 56/4/1 54/4/1 55/4/1
f 61/1/1 58/1/1 57/1/1
f 62/1/1 58/1/1 61/1/1
f 63/1/1 60/1/1 59/1/1
f 64/1/1 60/1/1 63/1/1
f 67/4/1 66/4/1 65/4/1
f 68/4/1 66/4/1 67/4/1
f 71/4/1 70/4/1 69/4/1
f 72/4/1 70/4/1 71/4/1
f 75/4/1 74/4/1 73/4/1
f 76/4/1 74/4/1 75/4/1
f 81/1/1 78/1/1 77/1/1
f 82/1/1 78/1/1 81/1/1
f 83/1/1 80/1/1 79/1/1
f 84/1/1 80/1/1 83/1/1
f 87/4/1 86/4/1 85/4/1
f 88/4/1 86/4/1 87/4/1
f 91/4/1 90/4/1 89/4/1
f 92/4/1 90/4/1 91/4/1
f 95/4/1 94/4/1 93/4/1
f 96/4/1 94/4/1 95/4/1
f 101/4/1 98/4/1 97/4/1
f 102/4/1 98/4/1 101/4/1
f 103/4/1 100/4/1 99/4/1
f 104/4/1 100/4/1 103/4/1
f 107/4/1 106/4/1 105/4/1
f 111/4/1 107/4/1 105/4/1
f 111/4/1 108/4/1 107/4/1
f 112/4/1 108/4/1 111/4/1
f 113/4/1 111/4/1 105/4/1
f 115/4/1 110/4/1 109/4/1
f 116/4/1 110/4/1 115/4/1
f 117/4/1 114/4/1 113/4/1
f 117/4/1 113/4/1 105/4/1
f 118/4/1 114/4/1 117/4/1
f 119/4/1 117/4/1 105/4/1
f 120/4/1 119/4/1 105/4/1
f 121/4/1 119/4/1 120/4/1
f 124/4/1 123/4/1 122/4/1
f 125/4/1 124/4/1 122/4/1
f 133/4/1 125/4/1 122/4/1
f 134/1/1 126/1/1 125/1/1
f 134/4/1 125/4/1 133/4/1
f 135/1/1 126/1/1 134/1/1
f 136/1/1 128/1/1 127/1/1
f 137/1/1 128/1/1 136/1/1
f 138/1/1 130/1/1 129/1/1
f 139/1/1 130/1/1 138/1/1
f 140/1/1 132/1/1 131/1/1
f 141/1/1 132/1/1 140/1/1
f 142/5/1 139/5/1 138/5/1
f 142/5/1 135/5/1 134/5/1
f 142/5/1 141/5/1 140/5/1
f 142/5/1 140/5/1 139/5/1
f 142/5/1 137/5/1 136/5/1
f 142/5/1 138/5/1 137/5/1
f 142/5/1 134/5/1 133/5/1
f 142/5/1 136/5/1 135/5/1
f 143/5/1 141/5/1 142/5/1
f 144/4/2 145/4/2 146/4/2
f 144/4/2 146/4/2 147/4/2
f 144/4/2 147/4/2 155/4/2
f 147/1/2 148/1/2 156/1/2
f 155/4/2 147/4/2 156/4/2
f 156/1/2 148/1/2 157/1/2
f 149/1/2 150/1/2 158/1/2
f 158/1/2 150/1/2 159/1/2
f 151/1/2 152/1/2 160/1/2
f 160/1/2 152/1/2 161/1/2
f 153/1/2 154/1/2 162/1/2
f 162/1/2 154/1/2 163/1/2
f 160/5/2 161/5/2 164/5/2
f 156/5/2 157/5/2 164/5/2
f 162/5/2 163/5/2 164/5/2
f 161/5/2 162/5/2 164/5/2
f 158/5/2 159/5/2 164/5/2
f 159/5/2 160/5/2 164/5/2
f 157/5/2 158/5/2 164/5/2
f 164/5/2 163/5/2 165/5/2
f 166/4/2 167/4/2 170/4/2
f 170/4/2 167/4/2 171/4/2
f 168/4/2 169/4/2 172/4/2
f 172/4/2 169/4/2 173/4/2
f 174/4/2 175/4/2 176/4/2
f 174/4/2 176/4/2 180/4/2
f 176/4/2 177/4/2 180/4/2
f 180/4/2 177/4/2 181/4/2
f 174/4/2 180/4/2 182/4/2
f 178/4/2 179/4/2 184/4/2
f 184/4/2 179/4/2 185/4/2
f 182/4/2 183/4/2 186/4/2
f 174/4/2 182/4/2 186/4/2
f 186/4/2 183/4/2 187/4/2
f 174/4/2 186/4/2 190/4/2
f 188/4/2 189/4/2 191/4/2
f 191/4/2 189/4/2 192/4/2
f 174/4/2 190/4/2 193/4/2
f 193/4/2 190/4/2 194/4/2
f 195/4/2 196/4/2 197/4/2
f 197/4/2 196/4/2 198/4/2
f 199/4/2 200/4/2 201/4/2
f 201/4/2 200/4/2 202/4/2
f 203/4/2 204/4/2 205/4/2
f 205/4/2 204/4/2 206/4/2
f 207/4/2 208/4/2 209/4/2
f 209/4/2 208/4/2 210/4/2
f 211/1/2 212/1/2 215/1/2
f 215/1/2 212/1/2 216/1/2
f 213/1/2 214/1/2 217/1/2
f 217/1/2 214/1/2 218/1/2
f 219/4/2 220/4/2 221/4/2
f 221/4/2 220/4/2 222/4/2
f 223/4/2 224/4/2 225/4/2
f 225/4/2 224/4/2 226/4/2
f 227/1/2 228/1/2 231/1/2
f 231/1/2 228/1/2 232/1/2
f 229/1/2 230/1/2 233/1/2
f 233/1/2 230/1/2 234/1/2
f 235/4/2 236/4/2 237/4/2
f 237/4/2 236/4/2 238/4/2
f 239/3/2 240/3/2 241/3/2
f 241/3/2 240/3/2 242/3/2
f 243/4/2 244/4/2 245/4/2
f 245/4/2 244/4/2 246/4/2
f 247/5/2 248/5/2 249/5/2
f 249/5/2 248/5/2 250/5/2
f 251/3/2 252/3/2 253/3/2
f 253/3/2 252/3/2 254/3/2
f 255/4/2 256/4/2 259/4/2
f 257/4/2 258/4/2 260/4/2
f 255/4/2 259/4/2 261/4/2
f 259/4/2 260/4/2 261/4/2
f 261/4/2 260/4/2 262/4/2
f 262/4/2 260/4/2 263/4/2
f 260/4/2 258/4/2 264/4/2
f 263/4/2 260/4/2 264/4/2
f 255/4/2 261/4/2 265/4/2
f 261/5/2 262/5/2 265/5/2
f 262/6/2 263/6/2 266/6/2
f 265/5/2 262/5/2 266/5/2
f 263/2/2 264/2/2 267/2/2
f 266/6/2 263/6/2 267/6/2
f 264/4/2 258/4/2 268/4/2
f 267/2/2 264/2/2 268/2/2
f 266/6/2 267/6/2 269/6/2
f 269/6/2 267/6/2 270/6/2
f 255/4/2 265/4/2 271/4/2
f 268/4/2 258/4/2 278/4/2
f 255/4/2 271/4/2 279/4/2
f 271/1/2 272/1/2 280/1/2
f 279/4/2 271/4/2 280/4/2
f 280/1/2 272/1/2 281/1/2
f 273/1/2 274/1/2 282/1/2
f 282/1/2 274/1/2 283/1/2
f 275/1/2 276/1/2 284/1/2
f 284/1/2 276/1/2 285/1/2
f 277/1/2 278/1/2 286/1/2
f 278/4/2 258/4/2 287/4/2
f 286/1/2 278/1/2 287/1/2
f 287/4/2 258/4/2 288/4/2
f 282/5/2 283/5/2 289/5/2
f 280/5/2 281/5/2 289/5/2
f 287/5/2 288/5/2 289/5/2
f 286/5/2 287/5/2 289/5/2
f 284/5/2 285/5/2 289/5/2
f 283/5/2 284/5/2 289/5/2
f 285/5/2 286/5/2 289/5/2
f 281/5/2 282/5/2 289/5/2
f 279/5/2 280/5/2 289/5/2
f 289/5/2 288/5/2 290/5/2
f 294/4/3 292/4/3 291/4/3
f 295/4/3 292/4/3 294/4/3
f 296/4/3 292/4/3 295/4/3
f 297/4/3 292/4/3 296/4/3
f 298/5/3 293/5/3 292/5/3
f 298/4/3 292/4/3 297/4/3
f 299/4/3 296/4/3 295/4/3
f 300/4/3 296/4/3 299/4/3
f 301/4/3 296/4/3 300/4/3
f 302/4/3 296/4/3 301/4/3
f 303/4/3 299/4/3 295/4/3
f 304/4/3 301/4/3 300/4/3
f 305/1/3 298/1/3 297/1/3
f 306/5/3 293/5/3 298/5/3
f 306/1/3 298/1/3 305/1/3
f 307/4/3 304/4/3 303/4/3
f 307/4/3 303/4/3 295/4/3
f 308/4/3 301/4/3 304/4/3
f 308/4/3 304/4/3 307/4/3
f 310/5/3 293/5/3 306/5/3
f 311/4/3 307/4/3 295/4/3
f 312/4/3 301/4/3 308/4/3
f 313/1/3 310/1/3 309/1/3
f 314/5/3 293/5/3 310/5/3
f 314/1/3 310/1/3 313/1/3
f 315/4/3 312/4/3 311/4/3
f 316/4/3 301/4/3 312/4/3
f 316/4/3 312/4/3 315/4/3
f 318/5/3 293/5/3 314/5/3
f 319/4/3 315/4/3 311/4/3
f 320/4/3 301/4/3 316/4/3
f 321/4/3 301/4/3 320/4/3
f 324/4/3 311/4/3 295/4/3
f 324/4/3 322/4/3 321/4/3
f 324/4/3 321/4/3 320/4/3
f 324/4/3 320/4/3 319/4/3
f 324/4/3 319/4/3 311/4/3
f 325/4/3 322/4/3 324/4/3
f 326/1/3 318/1/3 317/1/3
f 327/5/3 293/5/3 318/5/3
f 327/1/3 318/1/3 326/1/3
f 328/4/3 325/4/3 324/4/3
f 328/4/3 326/4/3 325/4/3
f 328/4/3 327/4/3 326/4/3
f 328/4/3 324/4/3 323/4/3
f 329/5/3 293/5/3 327/5/3
f 329/4/3 327/4/3 328/4/3
f 330/5/3 293/5/3 329/5/3
f 333/5/3 332/5/3 331/5/3
f 334/5/3 332/5/3 333/5/3
f 337/5/3 336/5/3 335/5/3
f 338/5/3 336/5/3 337/5/3
f 341/1/3 340/1/3 339/1/3
f 342/1/3 340/1/3 341/1/3
f 345/1/3 344/1/3 343/1/3
f 346/1/3 344/1/3 345/1/3
f 349/1/3 348/1/3 347/1/3
f 350/1/3 348/1/3 349/1/3
f 353/1/3 352/1/3 351/1/3
f 354/1/3 352/1/3 353/1/3
f 357/6/3 356/6/3 355/6/3
f 358/6/3 356/6/3 357/6/3
f 361/1/3 360/1/3 359/1/3
f 362/1/3 360/1/3 361/1/3
f 365/3/3 364/3/3 363/3/3
f 366/3/3 364/3/3 365/3/3
f 369/1/3 368/1/3 367/1/3
f 370/1/3 368/1/3 369/1/3
f 375/4/3 374/4/3 373/4/3
f 378/4/3 372/4/3 371/4/3
f 379/4/3 372/4/3 378/4/3
f 380/4/3 377/4/3 376/4/3
f 380/4/3 375/4/3 373/4/3
f 380/4/3 376/4/3 375/4/3
f 381/4/3 377/4/3 380/4/3
f 382/4/3 377/4/3 381/4/3
f 388/4/3 386/4/3 385/4/3
f 388/4/3 387/4/3 386/4/3
f 389/4/3 387/4/3 388/4/3
f 390/4/3 387/4/3 389/4/3
f 391/4/3 384/4/3 383/4/3
f 392/4/3 384/4/3 391/4/3
f 393/4/3 388/4/3 385/4/3
f 394/4/3 388/4/3 393/4/3
f 402/4/3 396/4/3 395/4/3
f 403/4/3 396/4/3 402/4/3
f 404/4/3 396/4/3 403/4/3
f 405/4/3 398/4/3 397/4/3
f 406/4/3 398/4/3 405/4/3
f 407/4/3 398/4/3 406/4/3
f 408/4/3 404/4/3 403/4/3
f 408/4/3 406/4/3 405/4/3
f 408/4/3 405/4/3 404/4/3
f 409/4/3 406/4/3 408/4/3
f 410/1/3 400/1/3 399/1/3
f 411/5/3 401/5/3 400/5/3
f 411/1/3 400/1/3 410/1/3
f 412/4/3 408/4/3 403/4/3
f 413/4/3 408/4/3 412/4/3
f 415/5/3 401/5/3 411/5/3
f 418/1/3 415/1/3 414/1/3
f 419/5/3 401/5/3 415/5/3
f 419/1/3 415/1/3 418/1/3
f 420/4/3 417/4/3 416/4/3
f 421/4/3 406/4/3 409/4/3
f 423/5/3 401/5/3 419/5/3
f 425/4/3 420/4/3 416/4/3
f 425/4/3 421/4/3 420/4/3
f 426/4/3 421/4/3 425/4/3
f 427/4/3 406/4/3 421/4/3
f 427/4/3 421/4/3 426/4/3
f 428/4/3 406/4/3 427/4/3
f 430/4/3 426/4/3 425/4/3
f 430/4/3 425/4/3 424/4/3
f 431/4/3 426/4/3 430/4/3
f 432/4/3 429/4/3 428/4/3
f 432/4/3 428/4/3 427/4/3
f 433/4/3 429/4/3 432/4/3
f 434/1/3 423/1/3 422/1/3
f 435/5/3 401/5/3 423/5/3
f 435/1/3 423/1/3 434/1/3
f 436/5/3 401/5/3 435/5/3
f 437/4/4 438/4/4 439/4/4
f 439/4/4 438/4/4 440/4/4
f 440/4/4 438/4/4 441/4/4
f 441/4/4 438/4/4 442/4/4
f 442/4/4 438/4/4 443/4/4
f 440/4/4 441/4/4 445/4/4
f 445/4/4 441/4/4 446/4/4
f 446/4/4 441/4/4 447/4/4
f 447/4/4 441/4/4 448/4/4
f 440/4/4 445/4/4 449/4/4
f 446/4/4 447/4/4 450/4/4
f 442/1/4 443/1/4 451/1/4
f 443/5/4 444/5/4 452/5/4
f 451/1/4 443/1/4 452/1/4
f 449/4/4 450/4/4 453/4/4
f 440/4/4 449/4/4 453/4/4
f 450/4/4 447/4/4 454/4/4
f 453/4/4 450/4/4 454/4/4
f 452/5/4 444/5/4 456/5/4
f 454/4/4 447/4/4 458/4/4
f 455/1/4 456/1/4 459/1/4
f 456/5/4 444/5/4 460/5/4
f 459/1/4 456/1/4 460/1/4
f 457/4/4 458/4/4 461/4/4
f 458/4/4 447/4/4 462/4/4
f 461/4/4 458/4/4 462/4/4
f 460/5/4 444/5/4 464/5/4
f 457/4/4 461/4/4 465/4/4
f 462/4/4 447/4/4 466/4/4
f 466/4/4 447/4/4 467/4/4
f 457/4/4 465/4/4 470/4/4
f 467/4/4 468/4/4 470/4/4
f 466/4/4 467/4/4 470/4/4
f 465/4/4 466/4/4 470/4/4
f 470/4/4 468/4/4 471/4/4
f 463/1/4 464/1/4 472/1/4
f 464/5/4 444/5/4 473/5/4
f 472/1/4 464/1/4 473/1/4
f 470/4/4 471/4/4 474/4/4
f 471/4/4 472/4/4 474/4/4
f 472/4/4 473/4/4 474/4/4
f 469/4/4 470/4/4 474/4/4
f 473/5/4 444/5/4 475/5/4
f 474/4/4 473/4/4 475/4/4
f 475/5/4 444/5/4 476/5/4
f 479/4/4 480/4/4 481/4/4
f 481/4/4 480/4/4 482/4/4
f 477/4/4 478/4/4 485/4/4
f 485/4/4 478/4/4 486/4/4
f 483/4/4 484/4/4 487/4/4
f 487/4/4 484/4/4 488/4/4
f 489/4/4 490/4/4 493/4/4
f 493/4/4 490/4/4 494/4/4
f 491/4/4 492/4/4 495/4/4
f 495/4/4 492/4/4 496/4/4
f 497/1/4 498/1/4 499/1/4
f 499/1/4 498/1/4 500/1/4
f 501/1/4 502/1/4 503/1/4
f 503/1/4 502/1/4 504/1/4
f 505/1/4 506/1/4 507/1/4
f 507/1/4 506/1/4 508/1/4
f 509/1/4 510/1/4 511/1/4
f 511/1/4 510/1/4 512/1/4
f 513/1/4 514/1/4 515/1/4
f 515/1/4 514/1/4 516/1/4
f 517/1/4 518/1/4 519/1/4
f 519/1/4 518/1/4 520/1/4
f 521/6/4 522/6/4 523/6/4
f 523/6/4 522/6/4 524/6/4
f 525/6/4 526/6/4 527/6/4
f 527/6/4 526/6/4 528/6/4
f 529/4/4 530/4/4 532/4/4
f 532/4/4 530/4/4 533/4/4
f 533/4/4 530/4/4 534/4/4
f 534/4/4 530/4/4 535/4/4
f 535/4/4 530/4/4 536/4/4
f 536/4/4 530/4/4 537/4/4
f 530/5/4 531/5/4 538/5/4
f 537/4/4 530/4/4 538/4/4
f 533/4/4 534/4/4 539/4/4
f 535/4/4 536/4/4 540/4/4
f 540/4/4 536/4/4 541/4/4
f 541/4/4 536/4/4 542/4/4
f 533/4/4 539/4/4 543/4/4
f 539/4/4 540/4/4 543/4/4
f 540/4/4 541/4/4 543/4/4
f 543/4/4 541/4/4 544/4/4
f 537/1/4 538/1/4 545/1/4
f 538/5/4 531/5/4 546/5/4
f 545/1/4 538/1/4 546/1/4
f 533/4/4 543/4/4 547/4/4
f 547/4/4 543/4/4 548/4/4
f 546/5/4 531/5/4 550/5/4
f 533/4/4 547/4/4 551/4/4
f 549/1/4 550/1/4 553/1/4
f 550/5/4 531/5/4 554/5/4
f 553/1/4 550/1/4 554/1/4
f 551/4/4 552/4/4 555/4/4
f 544/4/4 541/4/4 556/4/4
f 554/5/4 531/5/4 558/5/4
f 551/4/4 555/4/4 559/4/4
f 555/4/4 556/4/4 559/4/4
f 556/4/4 541/4/4 560/4/4
f 559/4/4 556/4/4 560/4/4
f 560/4/4 541/4/4 561/4/4
f 533/4/4 551/4/4 564/4/4
f 551/4/4 559/4/4 564/4/4
f 564/4/4 559/4/4 565/4/4
f 560/4/4 561/4/4 566/4/4
f 561/4/4 562/4/4 566/4/4
f 566/4/4 562/4/4 567/4/4
f 557/1/4 558/1/4 568/1/4
f 558/5/4 531/5/4 569/5/4
f 568/1/4 558/1/4 569/1/4
f 566/4/4 567/4/4 570/4/4
f 567/4/4 568/4/4 570/4/4
f 568/4/4 569/4/4 570/4/4
f 564/4/4 565/4/4 570/4/4
f 565/4/4 566/4/4 570/4/4
f 563/4/4 564/4/4 570/4/4
f 569/5/4 531/5/4 571/5/4
f 570/4/4 569/4/4 571/4/4
f 571/5/4 531/5/4 572/5/4
f 577/4/5 574/4/5 573/4/5
f 578/4/5 574/4/5 577/4/5
f 579/4/5 576/4/5 575/4/5
f 580/4/5 576/4/5 579/4/5
f 585/4/5 582/4/5 581/4/5
f 586/4/5 582/4/5 585/4/5
f 587/4/5 584/4/5 583/4/5
f 588/4/5 584/4/5 587/4/5
f 592/4/5 590/4/5 589/4/5
f 593/4/5 590/4/5 592/4/5
f 595/4/5 592/4/5 591/4/5
f 595/4/5 594/4/5 593/4/5
f 595/4/5 593/4/5 592/4/5
f 596/4/5 594/4/5 595/4/5
f 597/4/5 594/4/5 596/4/5
f 598/4/5 594/4/5 597/4/5
f 599/4/5 597/4/5 596/4/5
f 600/4/5 597/4/5 599/4/5
f 607/4/5 602/4/5 601/4/5
f 608/4/5 602/4/5 607/4/5
f 609/4/5 604/4/5 603/4/5
f 610/4/5 604/4/5 609/4/5
f 611/4/5 606/4/5 605/4/5
f 612/4/5 606/4/5 611/4/5
f 619/4/5 614/4/5 613/4/5
f 620/4/5 614/4/5 619/4/5
f 621/4/5 616/4/5 615/4/5
f 622/4/5 616/4/5 621/4/5
f 623/4/5 618/4/5 617/4/5
f 624/4/5 618/4/5 623/4/5
f 631/1/5 626/1/5 625/1/5
f 632/1/5 626/1/5 631/1/5
f 633/1/5 628/1/5 627/1/5
f 634/1/5 628/1/5 633/1/5
f 635/1/5 630/1/5 629/1/5
f 636/1/5 630/1/5 635/1/5
f 641/1/5 638/1/5 637/1/5
f 642/1/5 638/1/5 641/1/5
f 643/1/5 640/1/5 639/1/5
f 644/1/5 640/1/5 643/1/5
f 649/1/5 646/1/5 645/1/5
f 650/1/5 646/1/5 649/1/5
f 651/1/5 648/1/5 647/1/5
f 652/1/5 648/1/5 651/1/5
f 657/1/5 654/1/5 653/1/5
f 658/1/5 654/1/5 657/1/5
f 659/1/5 656/1/5 655/1/5
f 660/1/5 656/1/5 659/1/5
f 665/1/5 662/1/5 661/1/5
f 666/1/5 662/1/5 665/1/5
f 667/1/5 664/1/5 663/1/5
f 668/1/5 664/1/5 667/1/5
f 675/1/5 670/1/5 669/1/5
f 676/1/5 670/1/5 675/1/5
f 677/1/5 672/1/5 671/1/5
f 678/1/5 672/1/5 677/1/5
f 679/1/5 674/1/5 673/1/5
f 680/1/5 674/1/5 679/1/5
f 687/5/5 682/5/5 681/5/5
f 688/5/5 682/5/5 687/5/5
f 689/5/5 684/5/5 683/5/5
f 690/5/5 684/5/5 689/5/5
f 691/4/5 686/4/5 685/4/5
f 692/4/5 686/4/5 691/4/5
f 697/5/5 694/5/5 693/5/5
f 698/5/5 694/5/5 697/5/5
f 699/5/5 696/5/5 695/5/5
f 700/5/5 696/5/5 699/5/5
f 705/5/5 702/5/5 701/5/5
f 706/5/5 702/5/5 705/5/5
f 707/5/5 704/5/5 703/5/5
f 708/5/5 704/5/5 707/5/5
f 713/5/5 710/5/5 709/5/5
f 714/5/5 710/5/5 713/5/5
f 715/5/5 712/5/5 711/5/5
f 716/5/5 712/5/5 715/5/5
f 721/5/5 718/5/5 717/5/5
f 722/5/5 718/5/5 721/5/5
f 723/5/5 720/5/5 719/5/5
f 724/5/5 720/5/5 723/5/5
f 728/5/5 726/5/5 725/5/5
f 729/5/5 728/5/5 727/5/5
f 730/5/5 726/5/5 728/5/5
f 730/5/5 728/5/5 729/5/5
f 731/5/5 726/5/5 730/5/5
f 732/5/5 726/5/5 731/5/5
f 733/5/5 731/5/5 730/5/5
f 734/5/5 731/5/5 733/5/5
f 735/6/6 736/6/6 739/6/6
f 739/6/6 736/6/6 740/6/6
f 737/6/6 738/6/6 741/6/6
f 741/6/6 738/6/6 742/6/6
f 743/4/6 744/4/6 746/4/6
f 746/4/6 744/4/6 747/4/6
f 745/5/6 746/5/6 751/5/6
f 746/5/6 747/5/6 751/5/6
f 747/5/6 748/5/6 751/5/6
f 751/5/6 748/5/6 752/5/6
f 749/5/6 750/5/6 755/5/6
f 753/5/6 754/5/6 755/5/6
f 752/5/6 753/5/6 755/5/6
f 751/5/6 752/5/6 755/5/6
f 750/5/6 751/5/6 755/5/6
f 755/5/6 754/5/6 756/5/6
f 757/2/6 758/2/6 761/2/6
f 761/2/6 758/2/6 762/2/6
f 759/2/6 760/2/6 763/2/6
f 763/2/6 760/2/6 764/2/6
f 765/4/6 766/4/6 769/4/6
f 769/4/6 766/4/6 770/4/6
f 767/4/6 768/4/6 771/4/6
f 771/4/6 768/4/6 772/4/6
f 773/6/6 774/6/6 775/6/6
f 775/6/6 774/6/6 776/6/6
f 776/6/6 774/6/6 777/6/6
f 777/6/6 774/6/6 778/6/6
f 778/6/6 774/6/6 779/6/6
f 779/6/6 774/6/6 780/6/6
f 776/3/6 777/3/6 781/3/6
f 778/3/6 779/3/6 782/3/6
f 781/3/6 777/3/6 783/3/6
f 783/3/6 777/3/6 784/3/6
f 778/3/6 782/3/6 785/3/6
f 785/3/6 782/3/6 786/3/6
f 787/3/6 788/3/6 789/3/6
f 789/3/6 788/3/6 790/3/6
f 790/3/6 788/3/6 791/3/6
f 791/3/6 788/3/6 792/3/6
f 790/4/6 791/4/6 793/4/6
f 793/4/6 791/4/6 794/4/6
f 795/4/6 796/4/6 797/4/6
f 797/4/6 796/4/6 798/4/6
f 799/4/6 800/4/6 807/4/6
f 807/4/6 800/4/6 808/4/6
f 801/4/6 802/4/6 809/4/6
f 809/4/6 802/4/6 810/4/6
f 803/4/6 804/4/6 811/4/6
f 811/4/6 804/4/6 812/4/6
f 805/4/6 806/4/6 813/4/6
f 813/4/6 806/4/6 814/4/6
f 815/4/6 816/4/6 819/4/6
f 819/4/6 816/4/6 820/4/6
f 817/4/6 818/4/6 821/4/6
f 821/4/6 818/4/6 822/4/6
f 823/4/6 824/4/6 825/4/6
f 825/4/6 824/4/6 826/4/6
f 827/4/6 828/4/6 831/4/6
f 831/4/6 828/4/6 832/4/6
f 829/4/6 830/4/6 833/4/6
f 833/4/6 830/4/6 834/4/6
f 835/5/6 836/5/6 837/5/6
f 837/5/6 836/5/6 838/5/6
