# MagicaVoxel @ Ephtracy

# group
g candle_holder_tall

# material
mtllib candle_holder_tall.mtl
usemtl palette

# normals
vn -1 0 0
vn 1 0 0
vn 0 0 1
vn 0 0 -1
vn 0 -1 0
vn 0 1 0

# texcoords
vt 0.00585938 0.5
vt 0.185547 0.5
vt 0.255859 0.5

# verts
v -9 25 -1
v -9 25 -2
v -9 27 -1
v -9 27 -2
v -7 22 -1
v -7 22 -2
v -7 25 1
v -7 25 -1
v -7 25 -2
v -7 25 -4
v -7 26 -0
v -7 26 -1
v -7 26 -2
v -7 26 -3
v -7 27 1
v -7 27 -0
v -7 27 -3
v -7 27 -4
v -7 28 -1
v -7 28 -2
v -7 29 -1
v -7 29 -2
v -6 0 -0
v -6 0 -2
v -6 1 -0
v -6 1 -2
v -5 1 -0
v -5 1 -2
v -5 2 -0
v -5 2 -2
v -5 25 4
v -5 25 3
v -5 26 -1
v -5 26 -2
v -5 27 4
v -5 27 3
v -5 27 -1
v -5 27 -2
v -4 2 -0
v -4 2 -2
v -4 3 -0
v -4 3 -2
v -4 25 -5
v -4 25 -6
v -4 27 -5
v -4 27 -6
v -3 0 3
v -3 0 1
v -3 0 -3
v -3 0 -5
v -3 1 3
v -3 1 2
v -3 1 1
v -3 1 -0
v -3 1 -2
v -3 1 -3
v -3 1 -4
v -3 1 -5
v -3 2 2
v -3 2 1
v -3 2 -3
v -3 2 -4
v -3 3 1
v -3 3 -0
v -3 3 -2
v -3 3 -3
v -3 22 4
v -3 22 -0
v -3 22 -1
v -3 22 -2
v -3 23 3
v -3 23 -1
v -3 25 6
v -3 25 4
v -3 25 3
v -3 25 1
v -3 26 5
v -3 26 4
v -3 26 3
v -3 26 2
v -3 27 6
v -3 27 5
v -3 27 2
v -3 27 1
v -3 28 4
v -3 28 3
v -3 29 4
v -3 29 3
v -2 22 -2
v -2 22 -6
v -2 23 -2
v -2 23 -5
v -2 25 -3
v -2 25 -5
v -2 25 -6
v -2 25 -8
v -2 26 -4
v -2 26 -5
v -2 26 -6
v -2 26 -7
v -2 27 -3
v -2 27 -4
v -2 27 -7
v -2 27 -8
v -2 28 -5
v -2 28 -6
v -2 29 -5
v -2 29 -6
v -1 1 -0
v -1 1 -2
v -1 2 -0
v -1 2 -2
v -1 26 4
v -1 26 3
v -1 27 4
v -1 27 3
v 0 0 -0
v 0 0 -2
v 0 1 -0
v 0 1 -2
v 0 25 -0
v 0 25 -1
v 0 26 -5
v 0 26 -6
v 0 27 -0
v 0 27 -1
v 0 27 -5
v 0 27 -6
v 2 23 -0
v 2 23 -1
v 2 25 2
v 2 25 -0
v 2 25 -1
v 2 25 -3
v 2 26 1
v 2 26 -0
v 2 26 -1
v 2 26 -2
v 2 27 2
v 2 27 1
v 2 27 -2
v 2 27 -3
v 2 28 -0
v 2 28 -1
v 2 29 -0
v 2 29 -1
v 4 26 -0
v 4 26 -1
v 4 27 -0
v 4 27 -1
v -8 26 -1
v -8 26 -2
v -8 27 -1
v -8 27 -2
v -6 23 -1
v -6 23 -2
v -6 25 1
v -6 25 -1
v -6 25 -2
v -6 25 -4
v -6 26 -0
v -6 26 -1
v -6 26 -2
v -6 26 -3
v -6 27 1
v -6 27 -0
v -6 27 -3
v -6 27 -4
v -6 28 -1
v -6 28 -2
v -6 29 -1
v -6 29 -2
v -4 0 -0
v -4 0 -2
v -4 1 -0
v -4 1 -2
v -4 25 -1
v -4 25 -2
v -4 26 4
v -4 26 3
v -4 27 4
v -4 27 3
v -4 27 -1
v -4 27 -2
v -3 1 -0
v -3 1 -2
v -3 2 -0
v -3 2 -2
v -3 26 -5
v -3 26 -6
v -3 27 -5
v -3 27 -6
v -2 22 4
v -2 22 -0
v -2 23 3
v -2 23 -0
v -2 25 6
v -2 25 4
v -2 25 3
v -2 25 1
v -2 26 5
v -2 26 4
v -2 26 3
v -2 26 2
v -2 27 6
v -2 27 5
v -2 27 2
v -2 27 1
v -2 28 4
v -2 28 3
v -2 29 4
v -2 29 3
v -1 0 3
v -1 0 1
v -1 0 -3
v -1 0 -5
v -1 1 3
v -1 1 2
v -1 1 1
v -1 1 -0
v -1 1 -2
v -1 1 -3
v -1 1 -4
v -1 1 -5
v -1 2 2
v -1 2 1
v -1 2 -3
v -1 2 -4
v -1 3 1
v -1 3 -0
v -1 3 -2
v -1 3 -3
v -1 22 -0
v -1 22 -1
v -1 22 -2
v -1 22 -6
v -1 23 -1
v -1 23 -5
v -1 25 -3
v -1 25 -5
v -1 25 -6
v -1 25 -8
v -1 26 -4
v -1 26 -5
v -1 26 -6
v -1 26 -7
v -1 27 -3
v -1 27 -4
v -1 27 -7
v -1 27 -8
v -1 28 -5
v -1 28 -6
v -1 29 -5
v -1 29 -6
v 0 2 -0
v 0 2 -2
v 0 3 -0
v 0 3 -2
v 0 25 4
v 0 25 3
v 0 27 4
v 0 27 3
v 1 1 -0
v 1 1 -2
v 1 2 -0
v 1 2 -2
v 1 25 -5
v 1 25 -6
v 1 26 -0
v 1 26 -1
v 1 27 -0
v 1 27 -1
v 1 27 -5
v 1 27 -6
v 2 0 -0
v 2 0 -2
v 2 1 -0
v 2 1 -2
v 3 22 -0
v 3 22 -1
v 3 25 2
v 3 25 -0
v 3 25 -1
v 3 25 -3
v 3 26 1
v 3 26 -0
v 3 26 -1
v 3 26 -2
v 3 27 2
v 3 27 1
v 3 27 -2
v 3 27 -3
v 3 28 -0
v 3 28 -1
v 3 29 -0
v 3 29 -1
v 5 25 -0
v 5 25 -1
v 5 27 -0
v 5 27 -1
v -3 25 6
v -3 27 6
v -2 25 6
v -2 27 6
v -5 25 4
v -5 27 4
v -4 26 4
v -4 27 4
v -3 22 4
v -3 25 4
v -3 26 4
v -3 28 4
v -3 29 4
v -2 22 4
v -2 25 4
v -2 26 4
v -2 28 4
v -2 29 4
v -1 26 4
v -1 27 4
v 0 25 4
v 0 27 4
v -3 0 3
v -3 1 3
v -1 0 3
v -1 1 3
v -3 1 2
v -3 2 2
v -3 26 2
v -3 27 2
v -2 26 2
v -2 27 2
v -1 1 2
v -1 2 2
v 2 25 2
v 2 27 2
v 3 25 2
v 3 27 2
v -7 25 1
v -7 27 1
v -6 25 1
v -6 27 1
v -3 2 1
v -3 3 1
v -1 2 1
v -1 3 1
v -6 0 -0
v -6 1 -0
v -5 1 -0
v -5 2 -0
v -4 0 -0
v -4 1 -0
v -4 2 -0
v -4 3 -0
v -3 1 -0
v -3 3 -0
v -3 22 -0
v -2 22 -0
v -2 23 -0
v -1 1 -0
v -1 3 -0
v -1 22 -0
v 0 0 -0
v 0 1 -0
v 0 2 -0
v 0 3 -0
v 0 25 -0
v 0 27 -0
v 1 1 -0
v 1 2 -0
v 1 26 -0
v 1 27 -0
v 2 0 -0
v 2 1 -0
v 2 23 -0
v 2 25 -0
v 2 26 -0
v 2 28 -0
v 2 29 -0
v 3 22 -0
v 3 25 -0
v 3 26 -0
v 3 28 -0
v 3 29 -0
v 4 26 -0
v 4 27 -0
v 5 25 -0
v 5 27 -0
v -9 25 -1
v -9 27 -1
v -8 26 -1
v -8 27 -1
v -7 22 -1
v -7 25 -1
v -7 26 -1
v -7 28 -1
v -7 29 -1
v -6 23 -1
v -6 25 -1
v -6 26 -1
v -6 28 -1
v -6 29 -1
v -5 26 -1
v -5 27 -1
v -4 25 -1
v -4 27 -1
v -3 22 -1
v -3 23 -1
v -3 1 -2
v -3 2 -2
v -1 1 -2
v -1 2 -2
v 2 26 -2
v 2 27 -2
v 3 26 -2
v 3 27 -2
v -7 26 -3
v -7 27 -3
v -6 26 -3
v -6 27 -3
v -3 0 -3
v -3 1 -3
v -2 25 -3
v -2 27 -3
v -1 0 -3
v -1 1 -3
v -1 25 -3
v -1 27 -3
v -4 25 -5
v -4 27 -5
v -3 26 -5
v -3 27 -5
v -2 23 -5
v -2 25 -5
v -2 26 -5
v -2 28 -5
v -2 29 -5
v -1 23 -5
v -1 25 -5
v -1 26 -5
v -1 28 -5
v -1 29 -5
v 0 26 -5
v 0 27 -5
v 1 25 -5
v 1 27 -5
v -2 26 -7
v -2 27 -7
v -1 26 -7
v -1 27 -7
v -3 26 5
v -3 27 5
v -2 26 5
v -2 27 5
v -5 25 3
v -5 27 3
v -4 26 3
v -4 27 3
v -3 23 3
v -3 25 3
v -3 26 3
v -3 28 3
v -3 29 3
v -2 23 3
v -2 25 3
v -2 26 3
v -2 28 3
v -2 29 3
v -1 26 3
v -1 27 3
v 0 25 3
v 0 27 3
v -3 0 1
v -3 1 1
v -3 25 1
v -3 27 1
v -2 25 1
v -2 27 1
v -1 0 1
v -1 1 1
v 2 26 1
v 2 27 1
v 3 26 1
v 3 27 1
v -7 26 -0
v -7 27 -0
v -6 26 -0
v -6 27 -0
v -3 1 -0
v -3 2 -0
v -1 1 -0
v -1 2 -0
v -1 22 -1
v -1 23 -1
v 0 25 -1
v 0 27 -1
v 1 26 -1
v 1 27 -1
v 2 23 -1
v 2 25 -1
v 2 26 -1
v 2 28 -1
v 2 29 -1
v 3 22 -1
v 3 25 -1
v 3 26 -1
v 3 28 -1
v 3 29 -1
v 4 26 -1
v 4 27 -1
v 5 25 -1
v 5 27 -1
v -9 25 -2
v -9 27 -2
v -8 26 -2
v -8 27 -2
v -7 22 -2
v -7 25 -2
v -7 26 -2
v -7 28 -2
v -7 29 -2
v -6 0 -2
v -6 1 -2
v -6 23 -2
v -6 25 -2
v -6 26 -2
v -6 28 -2
v -6 29 -2
v -5 1 -2
v -5 2 -2
v -5 26 -2
v -5 27 -2
v -4 0 -2
v -4 1 -2
v -4 2 -2
v -4 3 -2
v -4 25 -2
v -4 27 -2
v -3 1 -2
v -3 3 -2
v -3 22 -2
v -2 22 -2
v -2 23 -2
v -1 1 -2
v -1 3 -2
v -1 22 -2
v 0 0 -2
v 0 1 -2
v 0 2 -2
v 0 3 -2
v 1 1 -2
v 1 2 -2
v 2 0 -2
v 2 1 -2
v -3 2 -3
v -3 3 -3
v -1 2 -3
v -1 3 -3
v 2 25 -3
v 2 27 -3
v 3 25 -3
v 3 27 -3
v -7 25 -4
v -7 27 -4
v -6 25 -4
v -6 27 -4
v -3 1 -4
v -3 2 -4
v -2 26 -4
v -2 27 -4
v -1 1 -4
v -1 2 -4
v -1 26 -4
v -1 27 -4
v -3 0 -5
v -3 1 -5
v -1 0 -5
v -1 1 -5
v -4 25 -6
v -4 27 -6
v -3 26 -6
v -3 27 -6
v -2 22 -6
v -2 25 -6
v -2 26 -6
v -2 28 -6
v -2 29 -6
v -1 22 -6
v -1 25 -6
v -1 26 -6
v -1 28 -6
v -1 29 -6
v 0 26 -6
v 0 27 -6
v 1 25 -6
v 1 27 -6
v -2 25 -8
v -2 27 -8
v -1 25 -8
v -1 27 -8
v -3 0 3
v -1 0 3
v -3 0 1
v -1 0 1
v -6 0 -0
v -4 0 -0
v 0 0 -0
v 2 0 -0
v -6 0 -2
v -4 0 -2
v 0 0 -2
v 2 0 -2
v -3 0 -3
v -1 0 -3
v -3 0 -5
v -1 0 -5
v -3 1 1
v -1 1 1
v -4 1 -0
v -3 1 -0
v -1 1 -0
v 0 1 -0
v -4 1 -2
v -3 1 -2
v -1 1 -2
v 0 1 -2
v -3 1 -3
v -1 1 -3
v -3 2 -0
v -1 2 -0
v -3 2 -2
v -1 2 -2
v -3 22 4
v -2 22 4
v -3 22 -0
v -2 22 -0
v -1 22 -0
v 3 22 -0
v -7 22 -1
v -3 22 -1
v -1 22 -1
v 3 22 -1
v -7 22 -2
v -3 22 -2
v -2 22 -2
v -1 22 -2
v -2 22 -6
v -1 22 -6
v -3 25 6
v -2 25 6
v -5 25 4
v -3 25 4
v -2 25 4
v 0 25 4
v -5 25 3
v -3 25 3
v -2 25 3
v 0 25 3
v 2 25 2
v 3 25 2
v -7 25 1
v -6 25 1
v -3 25 1
v -2 25 1
v 0 25 -0
v 2 25 -0
v 3 25 -0
v 5 25 -0
v -9 25 -1
v -7 25 -1
v -6 25 -1
v -4 25 -1
v 0 25 -1
v 2 25 -1
v 3 25 -1
v 5 25 -1
v -9 25 -2
v -7 25 -2
v -6 25 -2
v -4 25 -2
v -2 25 -3
v -1 25 -3
v 2 25 -3
v 3 25 -3
v -7 25 -4
v -6 25 -4
v -4 25 -5
v -2 25 -5
v -1 25 -5
v 1 25 -5
v -4 25 -6
v -2 25 -6
v -1 25 -6
v 1 25 -6
v -2 25 -8
v -1 25 -8
v -3 1 3
v -1 1 3
v -3 1 2
v -1 1 2
v -6 1 -0
v -5 1 -0
v 1 1 -0
v 2 1 -0
v -6 1 -2
v -5 1 -2
v 1 1 -2
v 2 1 -2
v -3 1 -4
v -1 1 -4
v -3 1 -5
v -1 1 -5
v -3 2 2
v -1 2 2
v -3 2 1
v -1 2 1
v -5 2 -0
v -4 2 -0
v 0 2 -0
v 1 2 -0
v -5 2 -2
v -4 2 -2
v 0 2 -2
v 1 2 -2
v -3 2 -3
v -1 2 -3
v -3 2 -4
v -1 2 -4
v -3 3 1
v -1 3 1
v -4 3 -0
v -3 3 -0
v -1 3 -0
v 0 3 -0
v -4 3 -2
v -3 3 -2
v -1 3 -2
v 0 3 -2
v -3 3 -3
v -1 3 -3
v -3 23 3
v -2 23 3
v -2 23 -0
v 2 23 -0
v -6 23 -1
v -3 23 -1
v -1 23 -1
v 2 23 -1
v -6 23 -2
v -2 23 -2
v -2 23 -5
v -1 23 -5
v -3 26 5
v -2 26 5
v -4 26 4
v -3 26 4
v -2 26 4
v -1 26 4
v -4 26 3
v -3 26 3
v -2 26 3
v -1 26 3
v -3 26 2
v -2 26 2
v 2 26 1
v 3 26 1
v -7 26 -0
v -6 26 -0
v 1 26 -0
v 2 26 -0
v 3 26 -0
v 4 26 -0
v -8 26 -1
v -7 26 -1
v -6 26 -1
v -5 26 -1
v 1 26 -1
v 2 26 -1
v 3 26 -1
v 4 26 -1
v -8 26 -2
v -7 26 -2
v -6 26 -2
v -5 26 -2
v 2 26 -2
v 3 26 -2
v -7 26 -3
v -6 26 -3
v -2 26 -4
v -1 26 -4
v -3 26 -5
v -2 26 -5
v -1 26 -5
v 0 26 -5
v -3 26 -6
v -2 26 -6
v -1 26 -6
v 0 26 -6
v -2 26 -7
v -1 26 -7
v -3 27 6
v -2 27 6
v -3 27 5
v -2 27 5
v -5 27 4
v -4 27 4
v -1 27 4
v 0 27 4
v -5 27 3
v -4 27 3
v -1 27 3
v 0 27 3
v -3 27 2
v -2 27 2
v 2 27 2
v 3 27 2
v -7 27 1
v -6 27 1
v -3 27 1
v -2 27 1
v 2 27 1
v 3 27 1
v -7 27 -0
v -6 27 -0
v 0 27 -0
v 1 27 -0
v 4 27 -0
v 5 27 -0
v -9 27 -1
v -8 27 -1
v -5 27 -1
v -4 27 -1
v 0 27 -1
v 1 27 -1
v 4 27 -1
v 5 27 -1
v -9 27 -2
v -8 27 -2
v -5 27 -2
v -4 27 -2
v 2 27 -2
v 3 27 -2
v -7 27 -3
v -6 27 -3
v -2 27 -3
v -1 27 -3
v 2 27 -3
v 3 27 -3
v -7 27 -4
v -6 27 -4
v -2 27 -4
v -1 27 -4
v -4 27 -5
v -3 27 -5
v 0 27 -5
v 1 27 -5
v -4 27 -6
v -3 27 -6
v 0 27 -6
v 1 27 -6
v -2 27 -7
v -1 27 -7
v -2 27 -8
v -1 27 -8
v -3 29 4
v -2 29 4
v -3 29 3
v -2 29 3
v 2 29 -0
v 3 29 -0
v -7 29 -1
v -6 29 -1
v 2 29 -1
v 3 29 -1
v -7 29 -2
v -6 29 -2
v -2 29 -5
v -1 29 -5
v -2 29 -6
v -1 29 -6

# faces
f 3/2/1 2/2/1 1/2/1
f 4/2/1 2/2/1 3/2/1
f 8/2/1 6/2/1 5/2/1
f 9/2/1 6/2/1 8/2/1
f 11/2/1 8/2/1 7/2/1
f 12/2/1 8/2/1 11/2/1
f 13/2/1 10/2/1 9/2/1
f 14/2/1 10/2/1 13/2/1
f 15/2/1 11/2/1 7/2/1
f 16/2/1 11/2/1 15/2/1
f 17/2/1 10/2/1 14/2/1
f 18/2/1 10/2/1 17/2/1
f 19/1/1 13/1/1 12/1/1
f 20/1/1 13/1/1 19/1/1
f 21/3/1 20/3/1 19/3/1
f 22/3/1 20/3/1 21/3/1
f 25/2/1 24/2/1 23/2/1
f 26/2/1 24/2/1 25/2/1
f 29/2/1 28/2/1 27/2/1
f 30/2/1 28/2/1 29/2/1
f 35/2/1 32/2/1 31/2/1
f 36/2/1 32/2/1 35/2/1
f 37/2/1 34/2/1 33/2/1
f 38/2/1 34/2/1 37/2/1
f 41/2/1 40/2/1 39/2/1
f 42/2/1 40/2/1 41/2/1
f 45/2/1 44/2/1 43/2/1
f 46/2/1 44/2/1 45/2/1
f 51/2/1 48/2/1 47/2/1
f 52/2/1 48/2/1 51/2/1
f 53/2/1 48/2/1 52/2/1
f 56/2/1 50/2/1 49/2/1
f 57/2/1 50/2/1 56/2/1
f 58/2/1 50/2/1 57/2/1
f 59/2/1 54/2/1 53/2/1
f 59/2/1 53/2/1 52/2/1
f 60/2/1 54/2/1 59/2/1
f 61/2/1 57/2/1 56/2/1
f 61/2/1 56/2/1 55/2/1
f 62/2/1 57/2/1 61/2/1
f 63/2/1 54/2/1 60/2/1
f 64/2/1 54/2/1 63/2/1
f 65/2/1 61/2/1 55/2/1
f 66/2/1 61/2/1 65/2/1
f 68/2/1 65/2/1 64/2/1
f 69/2/1 65/2/1 68/2/1
f 70/2/1 65/2/1 69/2/1
f 71/2/1 68/2/1 67/2/1
f 71/2/1 69/2/1 68/2/1
f 72/2/1 69/2/1 71/2/1
f 74/2/1 71/2/1 67/2/1
f 75/2/1 71/2/1 74/2/1
f 77/2/1 74/2/1 73/2/1
f 78/2/1 74/2/1 77/2/1
f 79/2/1 76/2/1 75/2/1
f 80/2/1 76/2/1 79/2/1
f 81/2/1 77/2/1 73/2/1
f 82/2/1 77/2/1 81/2/1
f 83/2/1 76/2/1 80/2/1
f 84/2/1 76/2/1 83/2/1
f 85/1/1 79/1/1 78/1/1
f 86/1/1 79/1/1 85/1/1
f 87/3/1 86/3/1 85/3/1
f 88/3/1 86/3/1 87/3/1
f 91/2/1 90/2/1 89/2/1
f 92/2/1 90/2/1 91/2/1
f 94/2/1 90/2/1 92/2/1
f 95/2/1 90/2/1 94/2/1
f 97/2/1 94/2/1 93/2/1
f 98/2/1 94/2/1 97/2/1
f 99/2/1 96/2/1 95/2/1
f 100/2/1 96/2/1 99/2/1
f 101/2/1 97/2/1 93/2/1
f 102/2/1 97/2/1 101/2/1
f 103/2/1 96/2/1 100/2/1
f 104/2/1 96/2/1 103/2/1
f 105/1/1 99/1/1 98/1/1
f 106/1/1 99/1/1 105/1/1
f 107/3/1 106/3/1 105/3/1
f 108/3/1 106/3/1 107/3/1
f 111/2/1 110/2/1 109/2/1
f 112/2/1 110/2/1 111/2/1
f 115/2/1 114/2/1 113/2/1
f 116/2/1 114/2/1 115/2/1
f 119/2/1 118/2/1 117/2/1
f 120/2/1 118/2/1 119/2/1
f 125/2/1 122/2/1 121/2/1
f 126/2/1 122/2/1 125/2/1
f 127/2/1 124/2/1 123/2/1
f 128/2/1 124/2/1 127/2/1
f 132/2/1 130/2/1 129/2/1
f 133/2/1 130/2/1 132/2/1
f 135/2/1 132/2/1 131/2/1
f 136/2/1 132/2/1 135/2/1
f 137/2/1 134/2/1 133/2/1
f 138/2/1 134/2/1 137/2/1
f 139/2/1 135/2/1 131/2/1
f 140/2/1 135/2/1 139/2/1
f 141/2/1 134/2/1 138/2/1
f 142/2/1 134/2/1 141/2/1
f 143/1/1 137/1/1 136/1/1
f 144/1/1 137/1/1 143/1/1
f 145/3/1 144/3/1 143/3/1
f 146/3/1 144/3/1 145/3/1
f 149/2/1 148/2/1 147/2/1
f 150/2/1 148/2/1 149/2/1
f 151/2/2 152/2/2 153/2/2
f 153/2/2 152/2/2 154/2/2
f 155/2/2 156/2/2 158/2/2
f 158/2/2 156/2/2 159/2/2
f 157/2/2 158/2/2 161/2/2
f 161/2/2 158/2/2 162/2/2
f 159/2/2 160/2/2 163/2/2
f 163/2/2 160/2/2 164/2/2
f 157/2/2 161/2/2 165/2/2
f 165/2/2 161/2/2 166/2/2
f 164/2/2 160/2/2 167/2/2
f 167/2/2 160/2/2 168/2/2
f 162/1/2 163/1/2 169/1/2
f 169/1/2 163/1/2 170/1/2
f 169/3/2 170/3/2 171/3/2
f 171/3/2 170/3/2 172/3/2
f 173/2/2 174/2/2 175/2/2
f 175/2/2 174/2/2 176/2/2
f 179/2/2 180/2/2 181/2/2
f 181/2/2 180/2/2 182/2/2
f 177/2/2 178/2/2 183/2/2
f 183/2/2 178/2/2 184/2/2
f 185/2/2 186/2/2 187/2/2
f 187/2/2 186/2/2 188/2/2
f 189/2/2 190/2/2 191/2/2
f 191/2/2 190/2/2 192/2/2
f 193/2/2 194/2/2 195/2/2
f 195/2/2 194/2/2 196/2/2
f 193/2/2 195/2/2 198/2/2
f 198/2/2 195/2/2 199/2/2
f 197/2/2 198/2/2 201/2/2
f 201/2/2 198/2/2 202/2/2
f 199/2/2 200/2/2 203/2/2
f 203/2/2 200/2/2 204/2/2
f 197/2/2 201/2/2 205/2/2
f 205/2/2 201/2/2 206/2/2
f 204/2/2 200/2/2 207/2/2
f 207/2/2 200/2/2 208/2/2
f 202/1/2 203/1/2 209/1/2
f 209/1/2 203/1/2 210/1/2
f 209/3/2 210/3/2 211/3/2
f 211/3/2 210/3/2 212/3/2
f 213/2/2 214/2/2 217/2/2
f 217/2/2 214/2/2 218/2/2
f 218/2/2 214/2/2 219/2/2
f 215/2/2 216/2/2 222/2/2
f 222/2/2 216/2/2 223/2/2
f 223/2/2 216/2/2 224/2/2
f 219/2/2 220/2/2 225/2/2
f 218/2/2 219/2/2 225/2/2
f 225/2/2 220/2/2 226/2/2
f 222/2/2 223/2/2 227/2/2
f 221/2/2 222/2/2 227/2/2
f 227/2/2 223/2/2 228/2/2
f 226/2/2 220/2/2 229/2/2
f 229/2/2 220/2/2 230/2/2
f 221/2/2 227/2/2 231/2/2
f 231/2/2 227/2/2 232/2/2
f 230/2/2 231/2/2 233/2/2
f 233/2/2 231/2/2 234/2/2
f 234/2/2 231/2/2 235/2/2
f 234/2/2 235/2/2 237/2/2
f 235/2/2 236/2/2 237/2/2
f 237/2/2 236/2/2 238/2/2
f 238/2/2 236/2/2 240/2/2
f 240/2/2 236/2/2 241/2/2
f 239/2/2 240/2/2 243/2/2
f 243/2/2 240/2/2 244/2/2
f 241/2/2 242/2/2 245/2/2
f 245/2/2 242/2/2 246/2/2
f 239/2/2 243/2/2 247/2/2
f 247/2/2 243/2/2 248/2/2
f 246/2/2 242/2/2 249/2/2
f 249/2/2 242/2/2 250/2/2
f 244/1/2 245/1/2 251/1/2
f 251/1/2 245/1/2 252/1/2
f 251/3/2 252/3/2 253/3/2
f 253/3/2 252/3/2 254/3/2
f 255/2/2 256/2/2 257/2/2
f 257/2/2 256/2/2 258/2/2
f 259/2/2 260/2/2 261/2/2
f 261/2/2 260/2/2 262/2/2
f 263/2/2 264/2/2 265/2/2
f 265/2/2 264/2/2 266/2/2
f 269/2/2 270/2/2 271/2/2
f 271/2/2 270/2/2 272/2/2
f 267/2/2 268/2/2 273/2/2
f 273/2/2 268/2/2 274/2/2
f 275/2/2 276/2/2 277/2/2
f 277/2/2 276/2/2 278/2/2
f 279/2/2 280/2/2 282/2/2
f 282/2/2 280/2/2 283/2/2
f 281/2/2 282/2/2 285/2/2
f 285/2/2 282/2/2 286/2/2
f 283/2/2 284/2/2 287/2/2
f 287/2/2 284/2/2 288/2/2
f 281/2/2 285/2/2 289/2/2
f 289/2/2 285/2/2 290/2/2
f 288/2/2 284/2/2 291/2/2
f 291/2/2 284/2/2 292/2/2
f 286/1/2 287/1/2 293/1/2
f 293/1/2 287/1/2 294/1/2
f 293/3/2 294/3/2 295/3/2
f 295/3/2 294/3/2 296/3/2
f 297/2/2 298/2/2 299/2/2
f 299/2/2 298/2/2 300/2/2
f 303/2/3 302/2/3 301/2/3
f 304/2/3 302/2/3 303/2/3
f 307/2/3 306/2/3 305/2/3
f 308/2/3 306/2/3 307/2/3
f 310/2/3 307/2/3 305/2/3
f 311/2/3 307/2/3 310/2/3
f 314/2/3 310/2/3 309/2/3
f 315/2/3 310/2/3 314/2/3
f 316/1/3 312/1/3 311/1/3
f 317/3/3 313/3/3 312/3/3
f 317/1/3 312/1/3 316/1/3
f 318/3/3 313/3/3 317/3/3
f 319/2/3 316/2/3 315/2/3
f 321/2/3 319/2/3 315/2/3
f 321/2/3 320/2/3 319/2/3
f 322/2/3 320/2/3 321/2/3
f 325/2/3 324/2/3 323/2/3
f 326/2/3 324/2/3 325/2/3
f 331/2/3 330/2/3 329/2/3
f 332/2/3 330/2/3 331/2/3
f 333/2/3 328/2/3 327/2/3
f 334/2/3 328/2/3 333/2/3
f 337/2/3 336/2/3 335/2/3
f 338/2/3 336/2/3 337/2/3
f 341/2/3 340/2/3 339/2/3
f 342/2/3 340/2/3 341/2/3
f 345/2/3 344/2/3 343/2/3
f 346/2/3 344/2/3 345/2/3
f 349/2/3 348/2/3 347/2/3
f 351/2/3 349/2/3 347/2/3
f 351/2/3 350/2/3 349/2/3
f 352/2/3 350/2/3 351/2/3
f 353/2/3 350/2/3 352/2/3
f 355/2/3 354/2/3 353/2/3
f 355/2/3 353/2/3 352/2/3
f 356/2/3 354/2/3 355/2/3
f 358/2/3 357/2/3 356/2/3
f 361/2/3 358/2/3 356/2/3
f 361/2/3 359/2/3 358/2/3
f 362/2/3 359/2/3 361/2/3
f 364/2/3 361/2/3 360/2/3
f 365/2/3 361/2/3 364/2/3
f 366/2/3 361/2/3 365/2/3
f 369/2/3 364/2/3 363/2/3
f 369/2/3 365/2/3 364/2/3
f 370/2/3 365/2/3 369/2/3
f 371/2/3 368/2/3 367/2/3
f 372/2/3 368/2/3 371/2/3
f 373/2/3 369/2/3 363/2/3
f 374/2/3 369/2/3 373/2/3
f 375/2/3 359/2/3 362/2/3
f 376/2/3 371/2/3 367/2/3
f 377/2/3 371/2/3 376/2/3
f 380/2/3 375/2/3 362/2/3
f 380/2/3 376/2/3 375/2/3
f 381/2/3 376/2/3 380/2/3
f 382/1/3 378/1/3 377/1/3
f 383/3/3 379/3/3 378/3/3
f 383/1/3 378/1/3 382/1/3
f 384/3/3 379/3/3 383/3/3
f 385/2/3 382/2/3 381/2/3
f 387/2/3 385/2/3 381/2/3
f 387/2/3 386/2/3 385/2/3
f 388/2/3 386/2/3 387/2/3
f 391/2/3 390/2/3 389/2/3
f 392/2/3 390/2/3 391/2/3
f 394/2/3 391/2/3 389/2/3
f 395/2/3 391/2/3 394/2/3
f 398/2/3 394/2/3 393/2/3
f 399/2/3 394/2/3 398/2/3
f 400/1/3 396/1/3 395/1/3
f 401/3/3 397/3/3 396/3/3
f 401/1/3 396/1/3 400/1/3
f 402/3/3 397/3/3 401/3/3
f 403/2/3 400/2/3 399/2/3
f 405/2/3 403/2/3 399/2/3
f 405/2/3 404/2/3 403/2/3
f 406/2/3 404/2/3 405/2/3
f 407/2/3 398/2/3 393/2/3
f 408/2/3 398/2/3 407/2/3
f 411/2/3 410/2/3 409/2/3
f 412/2/3 410/2/3 411/2/3
f 415/2/3 414/2/3 413/2/3
f 416/2/3 414/2/3 415/2/3
f 419/2/3 418/2/3 417/2/3
f 420/2/3 418/2/3 419/2/3
f 425/2/3 422/2/3 421/2/3
f 426/2/3 422/2/3 425/2/3
f 427/2/3 424/2/3 423/2/3
f 428/2/3 424/2/3 427/2/3
f 431/2/3 430/2/3 429/2/3
f 432/2/3 430/2/3 431/2/3
f 434/2/3 431/2/3 429/2/3
f 435/2/3 431/2/3 434/2/3
f 438/2/3 434/2/3 433/2/3
f 439/2/3 434/2/3 438/2/3
f 440/1/3 436/1/3 435/1/3
f 441/3/3 437/3/3 436/3/3
f 441/1/3 436/1/3 440/1/3
f 442/3/3 437/3/3 441/3/3
f 443/2/3 440/2/3 439/2/3
f 445/2/3 443/2/3 439/2/3
f 445/2/3 444/2/3 443/2/3
f 446/2/3 444/2/3 445/2/3
f 449/2/3 448/2/3 447/2/3
f 450/2/3 448/2/3 449/2/3
f 451/2/4 452/2/4 453/2/4
f 453/2/4 452/2/4 454/2/4
f 455/2/4 456/2/4 457/2/4
f 457/2/4 456/2/4 458/2/4
f 455/2/4 457/2/4 460/2/4
f 460/2/4 457/2/4 461/2/4
f 459/2/4 460/2/4 464/2/4
f 464/2/4 460/2/4 465/2/4
f 461/1/4 462/1/4 466/1/4
f 462/3/4 463/3/4 467/3/4
f 466/1/4 462/1/4 467/1/4
f 467/3/4 463/3/4 468/3/4
f 465/2/4 466/2/4 469/2/4
f 465/2/4 469/2/4 471/2/4
f 469/2/4 470/2/4 471/2/4
f 471/2/4 470/2/4 472/2/4
f 475/2/4 476/2/4 477/2/4
f 477/2/4 476/2/4 478/2/4
f 473/2/4 474/2/4 479/2/4
f 479/2/4 474/2/4 480/2/4
f 481/2/4 482/2/4 483/2/4
f 483/2/4 482/2/4 484/2/4
f 485/2/4 486/2/4 487/2/4
f 487/2/4 486/2/4 488/2/4
f 489/2/4 490/2/4 491/2/4
f 491/2/4 490/2/4 492/2/4
f 495/2/4 496/2/4 497/2/4
f 497/2/4 496/2/4 498/2/4
f 493/2/4 494/2/4 499/2/4
f 495/2/4 497/2/4 500/2/4
f 500/2/4 497/2/4 501/2/4
f 493/2/4 499/2/4 504/2/4
f 499/2/4 500/2/4 504/2/4
f 504/2/4 500/2/4 505/2/4
f 501/1/4 502/1/4 506/1/4
f 502/3/4 503/3/4 507/3/4
f 506/1/4 502/1/4 507/1/4
f 507/3/4 503/3/4 508/3/4
f 505/2/4 506/2/4 509/2/4
f 505/2/4 509/2/4 511/2/4
f 509/2/4 510/2/4 511/2/4
f 511/2/4 510/2/4 512/2/4
f 513/2/4 514/2/4 515/2/4
f 515/2/4 514/2/4 516/2/4
f 513/2/4 515/2/4 518/2/4
f 518/2/4 515/2/4 519/2/4
f 517/2/4 518/2/4 524/2/4
f 524/2/4 518/2/4 525/2/4
f 519/1/4 520/1/4 526/1/4
f 520/3/4 521/3/4 527/3/4
f 526/1/4 520/1/4 527/1/4
f 527/3/4 521/3/4 528/3/4
f 522/2/4 523/2/4 529/2/4
f 525/2/4 526/2/4 531/2/4
f 529/2/4 530/2/4 533/2/4
f 522/2/4 529/2/4 533/2/4
f 533/2/4 530/2/4 534/2/4
f 534/2/4 530/2/4 535/2/4
f 531/2/4 532/2/4 537/2/4
f 525/2/4 531/2/4 537/2/4
f 537/2/4 532/2/4 538/2/4
f 535/2/4 536/2/4 539/2/4
f 534/2/4 535/2/4 539/2/4
f 539/2/4 536/2/4 540/2/4
f 517/2/4 524/2/4 541/2/4
f 540/2/4 541/2/4 542/2/4
f 541/2/4 524/2/4 542/2/4
f 542/2/4 524/2/4 543/2/4
f 540/2/4 542/2/4 545/2/4
f 545/2/4 542/2/4 546/2/4
f 544/2/4 545/2/4 548/2/4
f 548/2/4 545/2/4 549/2/4
f 549/2/4 545/2/4 550/2/4
f 547/2/4 548/2/4 551/2/4
f 548/2/4 549/2/4 551/2/4
f 551/2/4 549/2/4 552/2/4
f 547/2/4 551/2/4 553/2/4
f 553/2/4 551/2/4 554/2/4
f 555/2/4 556/2/4 557/2/4
f 557/2/4 556/2/4 558/2/4
f 559/2/4 560/2/4 561/2/4
f 561/2/4 560/2/4 562/2/4
f 563/2/4 564/2/4 565/2/4
f 565/2/4 564/2/4 566/2/4
f 567/2/4 568/2/4 571/2/4
f 571/2/4 568/2/4 572/2/4
f 569/2/4 570/2/4 573/2/4
f 573/2/4 570/2/4 574/2/4
f 575/2/4 576/2/4 577/2/4
f 577/2/4 576/2/4 578/2/4
f 579/2/4 580/2/4 581/2/4
f 581/2/4 580/2/4 582/2/4
f 579/2/4 581/2/4 584/2/4
f 584/2/4 581/2/4 585/2/4
f 583/2/4 584/2/4 588/2/4
f 588/2/4 584/2/4 589/2/4
f 585/1/4 586/1/4 590/1/4
f 586/3/4 587/3/4 591/3/4
f 590/1/4 586/1/4 591/1/4
f 591/3/4 587/3/4 592/3/4
f 589/2/4 590/2/4 593/2/4
f 589/2/4 593/2/4 595/2/4
f 593/2/4 594/2/4 595/2/4
f 595/2/4 594/2/4 596/2/4
f 597/2/4 598/2/4 599/2/4
f 599/2/4 598/2/4 600/2/4
f 603/2/5 602/2/5 601/2/5
f 604/2/5 602/2/5 603/2/5
f 609/2/5 606/2/5 605/2/5
f 610/2/5 606/2/5 609/2/5
f 611/2/5 608/2/5 607/2/5
f 612/2/5 608/2/5 611/2/5
f 615/2/5 614/2/5 613/2/5
f 616/2/5 614/2/5 615/2/5
f 620/2/5 618/2/5 617/2/5
f 621/2/5 618/2/5 620/2/5
f 623/2/5 620/2/5 619/2/5
f 624/2/5 620/2/5 623/2/5
f 625/2/5 622/2/5 621/2/5
f 626/2/5 622/2/5 625/2/5
f 627/2/5 625/2/5 624/2/5
f 628/2/5 625/2/5 627/2/5
f 631/2/5 630/2/5 629/2/5
f 632/2/5 630/2/5 631/2/5
f 635/2/5 634/2/5 633/2/5
f 636/2/5 634/2/5 635/2/5
f 641/2/5 638/2/5 637/2/5
f 642/2/5 638/2/5 641/2/5
f 643/2/5 640/2/5 639/2/5
f 644/2/5 640/2/5 643/2/5
f 647/2/5 646/2/5 645/2/5
f 648/2/5 646/2/5 647/2/5
f 652/2/5 650/2/5 649/2/5
f 653/2/5 650/2/5 652/2/5
f 655/2/5 652/2/5 651/2/5
f 656/2/5 652/2/5 655/2/5
f 657/2/5 654/2/5 653/2/5
f 658/2/5 654/2/5 657/2/5
f 663/2/5 657/2/5 656/2/5
f 664/2/5 657/2/5 663/2/5
f 666/2/5 660/2/5 659/2/5
f 667/2/5 660/2/5 666/2/5
f 670/2/5 662/2/5 661/2/5
f 671/2/5 662/2/5 670/2/5
f 673/2/5 666/2/5 665/2/5
f 674/2/5 666/2/5 673/2/5
f 675/2/5 668/2/5 667/2/5
f 676/2/5 668/2/5 675/2/5
f 677/2/5 670/2/5 669/2/5
f 678/2/5 670/2/5 677/2/5
f 679/2/5 672/2/5 671/2/5
f 680/2/5 672/2/5 679/2/5
f 683/2/5 675/2/5 674/2/5
f 684/2/5 675/2/5 683/2/5
f 685/2/5 679/2/5 678/2/5
f 686/2/5 679/2/5 685/2/5
f 688/2/5 682/2/5 681/2/5
f 689/2/5 682/2/5 688/2/5
f 691/2/5 688/2/5 687/2/5
f 692/2/5 688/2/5 691/2/5
f 693/2/5 690/2/5 689/2/5
f 694/2/5 690/2/5 693/2/5
f 695/2/5 693/2/5 692/2/5
f 696/2/5 693/2/5 695/2/5
f 697/2/6 698/2/6 699/2/6
f 699/2/6 698/2/6 700/2/6
f 701/2/6 702/2/6 705/2/6
f 705/2/6 702/2/6 706/2/6
f 703/2/6 704/2/6 707/2/6
f 707/2/6 704/2/6 708/2/6
f 709/2/6 710/2/6 711/2/6
f 711/2/6 710/2/6 712/2/6
f 713/2/6 714/2/6 715/2/6
f 715/2/6 714/2/6 716/2/6
f 717/2/6 718/2/6 721/2/6
f 721/2/6 718/2/6 722/2/6
f 719/2/6 720/2/6 723/2/6
f 723/2/6 720/2/6 724/2/6
f 725/2/6 726/2/6 727/2/6
f 727/2/6 726/2/6 728/2/6
f 729/2/6 730/2/6 732/2/6
f 732/2/6 730/2/6 733/2/6
f 731/2/6 732/2/6 735/2/6
f 735/2/6 732/2/6 736/2/6
f 733/2/6 734/2/6 737/2/6
f 737/2/6 734/2/6 738/2/6
f 736/2/6 737/2/6 739/2/6
f 739/2/6 737/2/6 740/2/6
f 741/2/6 742/2/6 743/2/6
f 741/2/6 743/2/6 746/2/6
f 743/2/6 744/2/6 746/2/6
f 746/2/6 744/2/6 747/2/6
f 747/2/6 744/2/6 748/2/6
f 745/2/6 746/2/6 749/2/6
f 746/2/6 747/2/6 749/2/6
f 749/2/6 747/2/6 750/2/6
f 750/2/6 747/2/6 751/2/6
f 751/2/6 747/2/6 752/2/6
f 753/2/6 754/2/6 756/2/6
f 756/2/6 754/2/6 757/2/6
f 755/2/6 756/2/6 759/2/6
f 759/2/6 756/2/6 760/2/6
f 757/2/6 758/2/6 761/2/6
f 761/2/6 758/2/6 762/2/6
f 760/2/6 761/2/6 763/2/6
f 763/2/6 761/2/6 764/2/6
f 765/2/6 766/2/6 770/2/6
f 770/2/6 766/2/6 771/2/6
f 767/2/6 768/2/6 774/2/6
f 774/2/6 768/2/6 775/2/6
f 769/2/6 770/2/6 777/2/6
f 777/2/6 770/2/6 778/2/6
f 771/2/6 772/2/6 779/2/6
f 779/2/6 772/2/6 780/2/6
f 773/2/6 774/2/6 781/2/6
f 781/2/6 774/2/6 782/2/6
f 775/2/6 776/2/6 783/2/6
f 783/2/6 776/2/6 784/2/6
f 778/2/6 779/2/6 785/2/6
f 785/2/6 779/2/6 786/2/6
f 782/2/6 783/2/6 787/2/6
f 787/2/6 783/2/6 788/2/6
f 789/2/6 790/2/6 792/2/6
f 792/2/6 790/2/6 793/2/6
f 791/2/6 792/2/6 795/2/6
f 795/2/6 792/2/6 796/2/6
f 793/2/6 794/2/6 797/2/6
f 797/2/6 794/2/6 798/2/6
f 796/2/6 797/2/6 799/2/6
f 799/2/6 797/2/6 800/2/6
f 801/2/6 802/2/6 803/2/6
f 803/2/6 802/2/6 804/2/6
f 805/2/6 806/2/6 809/2/6
f 809/2/6 806/2/6 810/2/6
f 807/2/6 808/2/6 811/2/6
f 811/2/6 808/2/6 812/2/6
f 813/2/6 814/2/6 819/2/6
f 819/2/6 814/2/6 820/2/6
f 815/2/6 816/2/6 821/2/6
f 821/2/6 816/2/6 822/2/6
f 817/2/6 818/2/6 823/2/6
f 823/2/6 818/2/6 824/2/6
f 825/2/6 826/2/6 833/2/6
f 833/2/6 826/2/6 834/2/6
f 827/2/6 828/2/6 835/2/6
f 835/2/6 828/2/6 836/2/6
f 829/2/6 830/2/6 837/2/6
f 837/2/6 830/2/6 838/2/6
f 831/2/6 832/2/6 839/2/6
f 839/2/6 832/2/6 840/2/6
f 841/2/6 842/2/6 847/2/6
f 847/2/6 842/2/6 848/2/6
f 843/2/6 844/2/6 849/2/6
f 849/2/6 844/2/6 850/2/6
f 845/2/6 846/2/6 851/2/6
f 851/2/6 846/2/6 852/2/6
f 853/2/6 854/2/6 857/2/6
f 857/2/6 854/2/6 858/2/6
f 855/2/6 856/2/6 859/2/6
f 859/2/6 856/2/6 860/2/6
f 861/2/6 862/2/6 863/2/6
f 863/2/6 862/2/6 864/2/6
f 865/3/6 866/3/6 867/3/6
f 867/3/6 866/3/6 868/3/6
f 869/3/6 870/3/6 873/3/6
f 873/3/6 870/3/6 874/3/6
f 871/3/6 872/3/6 875/3/6
f 875/3/6 872/3/6 876/3/6
f 877/3/6 878/3/6 879/3/6
f 879/3/6 878/3/6 880/3/6
