# MagicaVoxel @ Ephtracy

# group
g couch_Blue

# material
mtllib couch_Blue.mtl
usemtl palette

# normals
vn -1 0 0
vn 1 0 0
vn 0 0 1
vn 0 0 -1
vn 0 -1 0
vn 0 1 0

# texcoords
vt 0.396484 0.5
vt 0.853516 0.5
vt 0.943359 0.5
vt 0.958984 0.5
vt 0.970703 0.5

# verts
v -10 2 4
v -10 2 -5
v -10 8 4
v -10 8 -5
v -9 0 4
v -9 0 -4
v -9 2 4
v -9 2 -4
v -7 2 5
v -7 2 4
v -7 3 5
v -7 3 4
v -7 4 5
v -7 4 4
v -7 8 -1
v -7 8 -3
v -7 9 -1
v -7 9 -3
v -6 9 -1
v -6 9 -3
v -6 10 -1
v -6 10 -3
v 0 2 5
v 0 2 4
v 0 3 5
v 0 3 4
v 0 4 5
v 0 4 4
v 0 8 -1
v 0 8 -3
v 0 9 -1
v 0 9 -3
v 1 9 -1
v 1 9 -3
v 1 10 -1
v 1 10 -3
v 6 4 4
v 6 4 3
v 6 4 2
v 6 4 -0
v 6 4 -1
v 6 6 -1
v 6 7 -1
v 6 8 4
v 6 8 -1
v -7 4 4
v -7 4 3
v -7 4 2
v -7 4 -0
v -7 4 -1
v -7 6 -1
v -7 7 -1
v -7 8 4
v -7 8 -1
v -2 9 -1
v -2 9 -3
v -2 10 -1
v -2 10 -3
v -1 2 5
v -1 2 4
v -1 3 5
v -1 3 4
v -1 4 5
v -1 4 4
v -1 8 -1
v -1 8 -3
v -1 9 -1
v -1 9 -3
v 5 9 -1
v 5 9 -3
v 5 10 -1
v 5 10 -3
v 6 2 5
v 6 2 4
v 6 3 5
v 6 3 4
v 6 4 5
v 6 4 4
v 6 8 -1
v 6 8 -3
v 6 9 -1
v 6 9 -3
v 8 0 4
v 8 0 -4
v 8 2 4
v 8 2 -4
v 9 2 4
v 9 2 -5
v 9 8 4
v 9 8 -5
v -7 2 5
v -7 3 5
v -7 4 5
v -6 2 5
v -6 3 5
v -5 3 5
v -5 4 5
v -4 2 5
v -4 3 5
v -4 4 5
v -3 2 5
v -3 3 5
v -2 3 5
v -2 4 5
v -1 2 5
v -1 3 5
v -1 4 5
v 0 2 5
v 0 3 5
v 0 4 5
v 1 3 5
v 1 4 5
v 2 2 5
v 2 3 5
v 3 2 5
v 3 3 5
v 3 4 5
v 4 3 5
v 4 4 5
v 5 2 5
v 5 3 5
v 6 2 5
v 6 3 5
v 6 4 5
v -10 2 4
v -10 8 4
v -9 0 4
v -9 2 4
v -9 7 4
v -8 2 4
v -8 7 4
v -7 2 4
v -7 3 4
v -7 4 4
v -7 8 4
v -6 2 4
v -4 2 4
v -3 2 4
v -1 2 4
v -1 3 4
v -1 4 4
v 0 2 4
v 0 3 4
v 0 4 4
v 2 2 4
v 3 2 4
v 5 2 4
v 6 2 4
v 6 3 4
v 6 4 4
v 6 8 4
v 7 2 4
v 7 7 4
v 8 0 4
v 8 2 4
v 8 7 4
v 9 2 4
v 9 8 4
v -7 4 -1
v -7 6 -1
v -7 7 -1
v -7 8 -1
v -7 9 -1
v -6 4 -1
v -6 5 -1
v -6 6 -1
v -6 7 -1
v -6 8 -1
v -6 9 -1
v -6 10 -1
v -5 4 -1
v -5 5 -1
v -5 6 -1
v -5 7 -1
v -5 8 -1
v -5 9 -1
v -4 4 -1
v -4 5 -1
v -4 6 -1
v -4 7 -1
v -4 8 -1
v -4 9 -1
v -4 10 -1
v -3 4 -1
v -3 5 -1
v -3 6 -1
v -3 7 -1
v -3 8 -1
v -3 9 -1
v -3 10 -1
v -2 4 -1
v -2 5 -1
v -2 6 -1
v -2 7 -1
v -2 8 -1
v -2 9 -1
v -2 10 -1
v -1 4 -1
v -1 5 -1
v -1 6 -1
v -1 7 -1
v -1 8 -1
v -1 9 -1
v 0 4 -1
v 0 5 -1
v 0 6 -1
v 0 7 -1
v 0 8 -1
v 0 9 -1
v 1 4 -1
v 1 5 -1
v 1 6 -1
v 1 7 -1
v 1 8 -1
v 1 9 -1
v 1 10 -1
v 2 4 -1
v 2 5 -1
v 2 6 -1
v 2 7 -1
v 2 8 -1
v 2 9 -1
v 2 10 -1
v 3 4 -1
v 3 5 -1
v 3 6 -1
v 3 7 -1
v 3 8 -1
v 3 9 -1
v 3 10 -1
v 4 4 -1
v 4 5 -1
v 4 6 -1
v 4 7 -1
v 4 8 -1
v 4 9 -1
v 5 4 -1
v 5 5 -1
v 5 6 -1
v 5 7 -1
v 5 8 -1
v 5 9 -1
v 5 10 -1
v 6 4 -1
v 6 6 -1
v 6 7 -1
v 6 8 -1
v 6 9 -1
v -7 8 -3
v -7 9 -3
v -6 9 -3
v -6 10 -3
v -2 9 -3
v -2 10 -3
v -1 8 -3
v -1 9 -3
v 0 8 -3
v 0 9 -3
v 1 9 -3
v 1 10 -3
v 5 9 -3
v 5 10 -3
v 6 8 -3
v 6 9 -3
v -9 0 -4
v -9 2 -4
v 8 0 -4
v 8 2 -4
v -10 2 -5
v -10 8 -5
v 9 2 -5
v 9 8 -5
v -9 0 4
v 8 0 4
v -9 0 -4
v 8 0 -4
v -7 2 5
v -6 2 5
v -4 2 5
v -3 2 5
v -1 2 5
v 0 2 5
v 2 2 5
v 3 2 5
v 5 2 5
v 6 2 5
v -10 2 4
v -9 2 4
v -7 2 4
v -6 2 4
v -4 2 4
v -3 2 4
v -1 2 4
v 0 2 4
v 2 2 4
v 3 2 4
v 5 2 4
v 6 2 4
v 8 2 4
v 9 2 4
v -9 2 -4
v 8 2 -4
v -10 2 -5
v 9 2 -5
v -7 4 5
v -5 4 5
v -4 4 5
v -2 4 5
v -1 4 5
v 0 4 5
v 1 4 5
v 3 4 5
v 4 4 5
v 6 4 5
v -7 4 4
v -6 4 4
v -5 4 4
v -4 4 4
v -3 4 4
v -2 4 4
v -1 4 4
v 0 4 4
v 1 4 4
v 2 4 4
v 3 4 4
v 4 4 4
v 5 4 4
v 6 4 4
v -7 4 3
v -6 4 3
v -5 4 3
v -4 4 3
v -3 4 3
v -2 4 3
v -1 4 3
v 0 4 3
v 1 4 3
v 2 4 3
v 3 4 3
v 4 4 3
v 5 4 3
v 6 4 3
v -7 4 2
v -6 4 2
v -5 4 2
v -4 4 2
v -3 4 2
v -2 4 2
v -1 4 2
v 0 4 2
v 1 4 2
v 2 4 2
v 3 4 2
v 4 4 2
v 5 4 2
v 6 4 2
v -6 4 1
v -5 4 1
v -4 4 1
v -3 4 1
v -2 4 1
v -1 4 1
v 0 4 1
v 1 4 1
v 2 4 1
v 3 4 1
v 4 4 1
v 5 4 1
v -7 4 -0
v -6 4 -0
v -5 4 -0
v -4 4 -0
v -3 4 -0
v -2 4 -0
v -1 4 -0
v 0 4 -0
v 1 4 -0
v 2 4 -0
v 3 4 -0
v 4 4 -0
v 5 4 -0
v 6 4 -0
v -7 4 -1
v -6 4 -1
v -5 4 -1
v -4 4 -1
v -3 4 -1
v -2 4 -1
v -1 4 -1
v 0 4 -1
v 1 4 -1
v 2 4 -1
v 3 4 -1
v 4 4 -1
v 5 4 -1
v 6 4 -1
v -10 8 4
v -7 8 4
v 6 8 4
v 9 8 4
v -7 8 -1
v -1 8 -1
v 0 8 -1
v 6 8 -1
v -7 8 -3
v -1 8 -3
v 0 8 -3
v 6 8 -3
v -10 8 -5
v 9 8 -5
v -7 9 -1
v -6 9 -1
v -2 9 -1
v -1 9 -1
v 0 9 -1
v 1 9 -1
v 5 9 -1
v 6 9 -1
v -7 9 -3
v -6 9 -3
v -2 9 -3
v -1 9 -3
v 0 9 -3
v 1 9 -3
v 5 9 -3
v 6 9 -3
v -6 10 -1
v -4 10 -1
v -3 10 -1
v -2 10 -1
v 1 10 -1
v 2 10 -1
v 3 10 -1
v 5 10 -1
v -4 10 -2
v -3 10 -2
v 2 10 -2
v 3 10 -2
v -6 10 -3
v -2 10 -3
v 1 10 -3
v 5 10 -3

# faces
f 3/3/1 2/3/1 1/3/1
f 4/3/1 2/3/1 3/3/1
f 7/1/1 6/1/1 5/1/1
f 8/1/1 6/1/1 7/1/1
f 11/5/1 10/5/1 9/5/1
f 12/5/1 10/5/1 11/5/1
f 13/3/1 12/3/1 11/3/1
f 14/3/1 12/3/1 13/3/1
f 17/3/1 16/3/1 15/3/1
f 18/3/1 16/3/1 17/3/1
f 21/3/1 20/3/1 19/3/1
f 22/3/1 20/3/1 21/3/1
f 25/3/1 24/3/1 23/3/1
f 26/3/1 24/3/1 25/3/1
f 27/5/1 26/5/1 25/5/1
f 28/5/1 26/5/1 27/5/1
f 31/3/1 30/3/1 29/3/1
f 32/3/1 30/3/1 31/3/1
f 35/3/1 34/3/1 33/3/1
f 36/3/1 34/3/1 35/3/1
f 42/3/1 38/3/1 37/3/1
f 42/3/1 41/3/1 40/3/1
f 42/3/1 40/3/1 39/3/1
f 42/3/1 39/3/1 38/3/1
f 43/3/1 42/3/1 37/3/1
f 44/3/1 43/3/1 37/3/1
f 45/3/1 43/3/1 44/3/1
f 46/3/2 47/3/2 51/3/2
f 49/3/2 50/3/2 51/3/2
f 48/3/2 49/3/2 51/3/2
f 47/3/2 48/3/2 51/3/2
f 46/3/2 51/3/2 52/3/2
f 46/3/2 52/3/2 53/3/2
f 53/3/2 52/3/2 54/3/2
f 55/3/2 56/3/2 57/3/2
f 57/3/2 56/3/2 58/3/2
f 59/3/2 60/3/2 61/3/2
f 61/3/2 60/3/2 62/3/2
f 61/5/2 62/5/2 63/5/2
f 63/5/2 62/5/2 64/5/2
f 65/3/2 66/3/2 67/3/2
f 67/3/2 66/3/2 68/3/2
f 69/3/2 70/3/2 71/3/2
f 71/3/2 70/3/2 72/3/2
f 73/5/2 74/5/2 75/5/2
f 75/5/2 74/5/2 76/5/2
f 75/3/2 76/3/2 77/3/2
f 77/3/2 76/3/2 78/3/2
f 79/3/2 80/3/2 81/3/2
f 81/3/2 80/3/2 82/3/2
f 83/1/2 84/1/2 85/1/2
f 85/1/2 84/1/2 86/1/2
f 87/3/2 88/3/2 89/3/2
f 89/3/2 88/3/2 90/3/2
f 94/5/3 92/5/3 91/5/3
f 95/3/3 93/3/3 92/3/3
f 95/5/3 92/5/3 94/5/3
f 96/3/3 95/3/3 94/3/3
f 96/3/3 93/3/3 95/3/3
f 97/3/3 93/3/3 96/3/3
f 98/3/3 96/3/3 94/3/3
f 99/5/3 97/5/3 96/5/3
f 99/3/3 96/3/3 98/3/3
f 100/5/3 97/5/3 99/5/3
f 101/5/3 99/5/3 98/5/3
f 102/3/3 100/3/3 99/3/3
f 102/5/3 99/5/3 101/5/3
f 103/3/3 102/3/3 101/3/3
f 103/3/3 100/3/3 102/3/3
f 104/3/3 100/3/3 103/3/3
f 105/3/3 103/3/3 101/3/3
f 106/5/3 104/5/3 103/5/3
f 106/3/3 103/3/3 105/3/3
f 107/5/3 104/5/3 106/5/3
f 111/3/3 109/3/3 108/3/3
f 111/5/3 110/5/3 109/5/3
f 112/5/3 110/5/3 111/5/3
f 113/3/3 111/3/3 108/3/3
f 113/3/3 112/3/3 111/3/3
f 114/3/3 112/3/3 113/3/3
f 115/5/3 114/5/3 113/5/3
f 116/3/3 112/3/3 114/3/3
f 116/5/3 114/5/3 115/5/3
f 117/3/3 112/3/3 116/3/3
f 118/3/3 116/3/3 115/3/3
f 118/5/3 117/5/3 116/5/3
f 119/5/3 117/5/3 118/5/3
f 120/3/3 118/3/3 115/3/3
f 120/3/3 119/3/3 118/3/3
f 121/3/3 119/3/3 120/3/3
f 122/5/3 121/5/3 120/5/3
f 123/3/3 119/3/3 121/3/3
f 123/5/3 121/5/3 122/5/3
f 124/3/3 119/3/3 123/3/3
f 128/3/3 126/3/3 125/3/3
f 129/3/3 126/3/3 128/3/3
f 130/1/3 128/1/3 127/1/3
f 130/1/3 129/1/3 128/1/3
f 131/3/3 126/3/3 129/3/3
f 131/1/3 129/1/3 130/1/3
f 132/1/3 130/1/3 127/1/3
f 132/3/3 131/3/3 130/3/3
f 133/3/3 131/3/3 132/3/3
f 134/3/3 131/3/3 133/3/3
f 135/3/3 126/3/3 131/3/3
f 135/3/3 131/3/3 134/3/3
f 136/1/3 132/1/3 127/1/3
f 137/1/3 136/1/3 127/1/3
f 138/1/3 137/1/3 127/1/3
f 139/1/3 138/1/3 127/1/3
f 142/1/3 139/1/3 127/1/3
f 142/3/3 141/3/3 140/3/3
f 142/3/3 140/3/3 139/3/3
f 143/3/3 141/3/3 142/3/3
f 144/3/3 141/3/3 143/3/3
f 145/1/3 142/1/3 127/1/3
f 146/1/3 145/1/3 127/1/3
f 147/1/3 146/1/3 127/1/3
f 148/1/3 147/1/3 127/1/3
f 152/3/3 150/3/3 149/3/3
f 152/3/3 151/3/3 150/3/3
f 152/3/3 149/3/3 148/3/3
f 152/1/3 148/1/3 127/1/3
f 153/3/3 151/3/3 152/3/3
f 154/1/3 152/1/3 127/1/3
f 154/1/3 153/1/3 152/1/3
f 155/1/3 153/1/3 154/1/3
f 156/3/3 151/3/3 153/3/3
f 156/1/3 153/1/3 155/1/3
f 157/3/3 156/3/3 155/3/3
f 158/3/3 151/3/3 156/3/3
f 158/3/3 156/3/3 157/3/3
f 164/3/3 160/3/3 159/3/3
f 165/3/3 160/3/3 164/3/3
f 166/5/3 161/5/3 160/5/3
f 166/3/3 160/3/3 165/3/3
f 167/3/3 163/3/3 162/3/3
f 167/5/3 161/5/3 166/5/3
f 167/3/3 162/3/3 161/3/3
f 168/3/3 163/3/3 167/3/3
f 169/3/3 163/3/3 168/3/3
f 171/3/3 165/3/3 164/3/3
f 172/5/3 166/5/3 165/5/3
f 172/3/3 165/3/3 171/3/3
f 173/3/3 167/3/3 166/3/3
f 173/5/3 166/5/3 172/5/3
f 173/3/3 168/3/3 167/3/3
f 174/3/3 168/3/3 173/3/3
f 175/5/3 169/5/3 168/5/3
f 175/3/3 168/3/3 174/3/3
f 176/3/3 170/3/3 169/3/3
f 176/5/3 169/5/3 175/5/3
f 177/5/3 172/5/3 171/5/3
f 178/3/3 174/3/3 173/3/3
f 178/5/3 172/5/3 177/5/3
f 178/3/3 173/3/3 172/3/3
f 179/3/3 174/3/3 178/3/3
f 180/5/3 175/5/3 174/5/3
f 180/3/3 174/3/3 179/3/3
f 181/3/3 176/3/3 175/3/3
f 181/5/3 175/5/3 180/5/3
f 182/3/3 170/3/3 176/3/3
f 182/3/3 176/3/3 181/3/3
f 183/3/3 170/3/3 182/3/3
f 184/3/3 179/3/3 178/3/3
f 184/3/3 178/3/3 177/3/3
f 185/3/3 179/3/3 184/3/3
f 186/5/3 180/5/3 179/5/3
f 186/3/3 179/3/3 185/3/3
f 187/3/3 181/3/3 180/3/3
f 187/5/3 180/5/3 186/5/3
f 187/3/3 182/3/3 181/3/3
f 188/3/3 182/3/3 187/3/3
f 189/5/3 183/5/3 182/5/3
f 189/3/3 182/3/3 188/3/3
f 190/5/3 183/5/3 189/5/3
f 191/3/3 185/3/3 184/3/3
f 192/5/3 186/5/3 185/5/3
f 192/3/3 185/3/3 191/3/3
f 193/3/3 188/3/3 187/3/3
f 193/5/3 186/5/3 192/5/3
f 193/3/3 187/3/3 186/3/3
f 194/3/3 188/3/3 193/3/3
f 195/5/3 189/5/3 188/5/3
f 195/3/3 188/3/3 194/3/3
f 196/3/3 190/3/3 189/3/3
f 196/5/3 189/5/3 195/5/3
f 197/3/3 190/3/3 196/3/3
f 198/5/3 192/5/3 191/5/3
f 199/3/3 194/3/3 193/3/3
f 199/5/3 192/5/3 198/5/3
f 199/3/3 193/3/3 192/3/3
f 200/3/3 194/3/3 199/3/3
f 201/5/3 195/5/3 194/5/3
f 201/3/3 194/3/3 200/3/3
f 202/3/3 196/3/3 195/3/3
f 202/5/3 195/5/3 201/5/3
f 203/3/3 196/3/3 202/3/3
f 204/3/3 200/3/3 199/3/3
f 204/3/3 199/3/3 198/3/3
f 205/3/3 200/3/3 204/3/3
f 206/5/3 201/5/3 200/5/3
f 206/3/3 200/3/3 205/3/3
f 207/3/3 202/3/3 201/3/3
f 207/5/3 201/5/3 206/5/3
f 208/3/3 202/3/3 207/3/3
f 210/5/3 205/5/3 204/5/3
f 211/3/3 206/3/3 205/3/3
f 211/5/3 205/5/3 210/5/3
f 211/3/3 207/3/3 206/3/3
f 212/3/3 207/3/3 211/3/3
f 213/5/3 208/5/3 207/5/3
f 213/3/3 207/3/3 212/3/3
f 214/3/3 209/3/3 208/3/3
f 214/5/3 208/5/3 213/5/3
f 215/3/3 209/3/3 214/3/3
f 217/3/3 211/3/3 210/3/3
f 218/5/3 212/5/3 211/5/3
f 218/3/3 211/3/3 217/3/3
f 219/3/3 213/3/3 212/3/3
f 219/5/3 212/5/3 218/5/3
f 219/3/3 214/3/3 213/3/3
f 220/3/3 214/3/3 219/3/3
f 221/5/3 215/5/3 214/5/3
f 221/3/3 214/3/3 220/3/3
f 222/3/3 216/3/3 215/3/3
f 222/5/3 215/5/3 221/5/3
f 223/3/3 216/3/3 222/3/3
f 224/3/3 218/3/3 217/3/3
f 224/3/3 219/3/3 218/3/3
f 225/3/3 219/3/3 224/3/3
f 226/5/3 220/5/3 219/5/3
f 226/3/3 219/3/3 225/3/3
f 227/3/3 221/3/3 220/3/3
f 227/5/3 220/5/3 226/5/3
f 227/3/3 222/3/3 221/3/3
f 228/3/3 222/3/3 227/3/3
f 229/5/3 223/5/3 222/5/3
f 229/3/3 222/3/3 228/3/3
f 230/5/3 223/5/3 229/5/3
f 231/5/3 225/5/3 224/5/3
f 232/3/3 226/3/3 225/3/3
f 232/5/3 225/5/3 231/5/3
f 232/3/3 227/3/3 226/3/3
f 233/3/3 227/3/3 232/3/3
f 234/5/3 228/5/3 227/5/3
f 234/3/3 227/3/3 233/3/3
f 235/3/3 230/3/3 229/3/3
f 235/5/3 228/5/3 234/5/3
f 235/3/3 229/3/3 228/3/3
f 236/3/3 230/3/3 235/3/3
f 237/3/3 232/3/3 231/3/3
f 238/5/3 233/5/3 232/5/3
f 238/3/3 232/3/3 237/3/3
f 239/3/3 234/3/3 233/3/3
f 239/5/3 233/5/3 238/5/3
f 239/3/3 235/3/3 234/3/3
f 240/3/3 235/3/3 239/3/3
f 241/5/3 236/5/3 235/5/3
f 241/3/3 235/3/3 240/3/3
f 242/3/3 230/3/3 236/3/3
f 242/5/3 236/5/3 241/5/3
f 243/3/3 230/3/3 242/3/3
f 244/3/3 238/3/3 237/3/3
f 244/3/3 239/3/3 238/3/3
f 245/5/3 240/5/3 239/5/3
f 245/3/3 239/3/3 244/3/3
f 246/3/3 241/3/3 240/3/3
f 246/5/3 240/5/3 245/5/3
f 246/3/3 242/3/3 241/3/3
f 247/3/3 242/3/3 246/3/3
f 248/3/3 242/3/3 247/3/3
f 249/3/4 250/3/4 251/3/4
f 249/3/4 251/3/4 253/3/4
f 251/3/4 252/3/4 253/3/4
f 253/3/4 252/3/4 254/3/4
f 249/3/4 253/3/4 255/3/4
f 255/3/4 253/3/4 256/3/4
f 257/3/4 258/3/4 259/3/4
f 257/3/4 259/3/4 261/3/4
f 259/3/4 260/3/4 261/3/4
f 261/3/4 260/3/4 262/3/4
f 257/3/4 261/3/4 263/3/4
f 263/3/4 261/3/4 264/3/4
f 265/1/4 266/1/4 267/1/4
f 267/1/4 266/1/4 268/1/4
f 269/3/4 270/3/4 271/3/4
f 271/3/4 270/3/4 272/3/4
f 275/1/5 274/1/5 273/1/5
f 276/1/5 274/1/5 275/1/5
f 289/5/5 278/5/5 277/5/5
f 290/3/5 279/3/5 278/3/5
f 290/5/5 278/5/5 289/5/5
f 291/5/5 280/5/5 279/5/5
f 291/3/5 279/3/5 290/3/5
f 292/3/5 281/3/5 280/3/5
f 292/5/5 280/5/5 291/5/5
f 293/3/5 281/3/5 292/3/5
f 294/3/5 283/3/5 282/3/5
f 295/5/5 284/5/5 283/5/5
f 295/3/5 283/3/5 294/3/5
f 296/3/5 285/3/5 284/3/5
f 296/5/5 284/5/5 295/5/5
f 297/5/5 286/5/5 285/5/5
f 297/3/5 285/3/5 296/3/5
f 298/5/5 286/5/5 297/5/5
f 301/3/5 288/3/5 287/3/5
f 302/3/5 300/3/5 299/3/5
f 303/3/5 301/3/5 287/3/5
f 303/3/5 302/3/5 301/3/5
f 304/3/5 300/3/5 302/3/5
f 304/3/5 302/3/5 303/3/5
f 305/3/6 306/3/6 315/3/6
f 315/3/6 306/3/6 316/3/6
f 306/5/6 307/5/6 317/5/6
f 316/3/6 306/3/6 317/3/6
f 307/3/6 308/3/6 318/3/6
f 317/5/6 307/5/6 318/5/6
f 318/3/6 308/3/6 319/3/6
f 308/5/6 309/5/6 320/5/6
f 319/3/6 308/3/6 320/3/6
f 320/5/6 309/5/6 321/5/6
f 310/5/6 311/5/6 322/5/6
f 311/3/6 312/3/6 323/3/6
f 322/5/6 311/5/6 323/5/6
f 323/3/6 312/3/6 324/3/6
f 312/5/6 313/5/6 325/5/6
f 324/3/6 312/3/6 325/3/6
f 313/3/6 314/3/6 326/3/6
f 325/5/6 313/5/6 326/5/6
f 326/3/6 314/3/6 327/3/6
f 327/3/6 314/3/6 328/3/6
f 315/3/6 316/3/6 329/3/6
f 316/5/6 317/5/6 330/5/6
f 329/3/6 316/3/6 330/3/6
f 318/3/6 319/3/6 331/3/6
f 330/5/6 317/5/6 331/5/6
f 317/3/6 318/3/6 331/3/6
f 331/3/6 319/3/6 332/3/6
f 319/5/6 320/5/6 333/5/6
f 332/3/6 319/3/6 333/3/6
f 320/3/6 321/3/6 334/3/6
f 333/5/6 320/5/6 334/5/6
f 321/3/6 322/3/6 334/3/6
f 322/3/6 323/3/6 334/3/6
f 334/3/6 323/3/6 335/3/6
f 335/3/6 323/3/6 336/3/6
f 323/5/6 324/5/6 337/5/6
f 336/3/6 323/3/6 337/3/6
f 324/3/6 325/3/6 338/3/6
f 337/5/6 324/5/6 338/5/6
f 325/3/6 326/3/6 338/3/6
f 338/3/6 326/3/6 339/3/6
f 326/5/6 327/5/6 340/5/6
f 339/3/6 326/3/6 340/3/6
f 327/3/6 328/3/6 341/3/6
f 340/5/6 327/5/6 341/5/6
f 341/3/6 328/3/6 342/3/6
f 329/5/6 330/5/6 343/5/6
f 330/3/6 331/3/6 344/3/6
f 343/5/6 330/5/6 344/5/6
f 331/3/6 332/3/6 344/3/6
f 344/3/6 332/3/6 345/3/6
f 332/5/6 333/5/6 346/5/6
f 345/3/6 332/3/6 346/3/6
f 334/3/6 335/3/6 347/3/6
f 346/5/6 333/5/6 347/5/6
f 333/3/6 334/3/6 347/3/6
f 347/3/6 335/3/6 348/3/6
f 335/5/6 336/5/6 349/5/6
f 348/3/6 335/3/6 349/3/6
f 336/3/6 337/3/6 350/3/6
f 349/5/6 336/5/6 350/5/6
f 337/3/6 338/3/6 350/3/6
f 350/3/6 338/3/6 351/3/6
f 338/5/6 339/5/6 352/5/6
f 351/3/6 338/3/6 352/3/6
f 339/3/6 340/3/6 353/3/6
f 352/5/6 339/5/6 353/5/6
f 340/3/6 341/3/6 353/3/6
f 353/3/6 341/3/6 354/3/6
f 341/5/6 342/5/6 355/5/6
f 354/3/6 341/3/6 355/3/6
f 355/5/6 342/5/6 356/5/6
f 344/3/6 345/3/6 357/3/6
f 343/3/6 344/3/6 357/3/6
f 345/5/6 346/5/6 358/5/6
f 357/3/6 345/3/6 358/3/6
f 347/3/6 348/3/6 359/3/6
f 358/5/6 346/5/6 359/5/6
f 346/3/6 347/3/6 359/3/6
f 359/3/6 348/3/6 360/3/6
f 348/5/6 349/5/6 361/5/6
f 360/3/6 348/3/6 361/3/6
f 349/3/6 350/3/6 362/3/6
f 361/5/6 349/5/6 362/5/6
f 350/5/6 351/5/6 363/5/6
f 362/3/6 350/3/6 363/3/6
f 351/3/6 352/3/6 364/3/6
f 363/5/6 351/5/6 364/5/6
f 352/3/6 353/3/6 364/3/6
f 364/3/6 353/3/6 365/3/6
f 353/5/6 354/5/6 366/5/6
f 365/3/6 353/3/6 366/3/6
f 355/3/6 356/3/6 367/3/6
f 366/5/6 354/5/6 367/5/6
f 354/3/6 355/3/6 367/3/6
f 367/3/6 356/3/6 368/3/6
f 343/3/6 357/3/6 369/3/6
f 357/5/6 358/5/6 370/5/6
f 369/3/6 357/3/6 370/3/6
f 359/3/6 360/3/6 371/3/6
f 370/5/6 358/5/6 371/5/6
f 358/3/6 359/3/6 371/3/6
f 371/3/6 360/3/6 372/3/6
f 360/5/6 361/5/6 373/5/6
f 372/3/6 360/3/6 373/3/6
f 362/3/6 363/3/6 374/3/6
f 373/5/6 361/5/6 374/5/6
f 361/3/6 362/3/6 374/3/6
f 363/3/6 364/3/6 374/3/6
f 374/3/6 364/3/6 375/3/6
f 375/3/6 364/3/6 376/3/6
f 364/5/6 365/5/6 377/5/6
f 376/3/6 364/3/6 377/3/6
f 365/3/6 366/3/6 378/3/6
f 377/5/6 365/5/6 378/5/6
f 366/3/6 367/3/6 378/3/6
f 378/3/6 367/3/6 379/3/6
f 367/5/6 368/5/6 380/5/6
f 379/3/6 367/3/6 380/3/6
f 368/3/6 356/3/6 381/3/6
f 380/5/6 368/5/6 381/5/6
f 381/3/6 356/3/6 382/3/6
f 369/5/6 370/5/6 383/5/6
f 370/3/6 371/3/6 384/3/6
f 383/5/6 370/5/6 384/5/6
f 371/3/6 372/3/6 384/3/6
f 384/3/6 372/3/6 385/3/6
f 372/5/6 373/5/6 386/5/6
f 385/3/6 372/3/6 386/3/6
f 374/3/6 375/3/6 387/3/6
f 386/5/6 373/5/6 387/5/6
f 373/3/6 374/3/6 387/3/6
f 387/3/6 375/3/6 388/3/6
f 375/5/6 376/5/6 389/5/6
f 388/3/6 375/3/6 389/3/6
f 376/3/6 377/3/6 390/3/6
f 389/5/6 376/5/6 390/5/6
f 377/3/6 378/3/6 390/3/6
f 390/3/6 378/3/6 391/3/6
f 378/5/6 379/5/6 392/5/6
f 391/3/6 378/3/6 392/3/6
f 379/3/6 380/3/6 393/3/6
f 392/5/6 379/5/6 393/5/6
f 380/3/6 381/3/6 393/3/6
f 393/3/6 381/3/6 394/3/6
f 381/5/6 382/5/6 395/5/6
f 394/3/6 381/3/6 395/3/6
f 395/5/6 382/5/6 396/5/6
f 397/3/6 398/3/6 401/3/6
f 399/3/6 400/3/6 404/3/6
f 397/3/6 401/3/6 405/3/6
f 402/3/6 403/3/6 406/3/6
f 406/3/6 403/3/6 407/3/6
f 404/3/6 400/3/6 408/3/6
f 397/3/6 405/3/6 409/3/6
f 407/3/6 408/3/6 409/3/6
f 406/3/6 407/3/6 409/3/6
f 405/3/6 406/3/6 409/3/6
f 408/3/6 400/3/6 410/3/6
f 409/3/6 408/3/6 410/3/6
f 411/3/6 412/3/6 419/3/6
f 419/3/6 412/3/6 420/3/6
f 413/3/6 414/3/6 421/3/6
f 421/3/6 414/3/6 422/3/6
f 415/3/6 416/3/6 423/3/6
f 423/3/6 416/3/6 424/3/6
f 417/3/6 418/3/6 425/3/6
f 425/3/6 418/3/6 426/3/6
f 427/3/6 428/3/6 435/3/6
f 428/5/6 429/5/6 435/5/6
f 429/3/6 430/3/6 436/3/6
f 435/5/6 429/5/6 436/5/6
f 432/5/6 433/5/6 437/5/6
f 431/3/6 432/3/6 437/3/6
f 433/3/6 434/3/6 438/3/6
f 437/5/6 433/5/6 438/5/6
f 427/3/6 435/3/6 439/3/6
f 435/3/6 436/3/6 439/3/6
f 436/3/6 430/3/6 440/3/6
f 439/3/6 436/3/6 440/3/6
f 431/3/6 437/3/6 441/3/6
f 437/3/6 438/3/6 441/3/6
f 438/3/6 434/3/6 442/3/6
f 441/3/6 438/3/6 442/3/6
