# MagicaVoxel @ Ephtracy

# group
g customer_rich_lady

# material
mtllib customer_rich_lady.mtl
usemtl palette

# normals
vn -1 0 0
vn 1 0 0
vn 0 0 1
vn 0 0 -1
vn 0 -1 0
vn 0 1 0

# texcoords
vt 0.0332031 0.5
vt 0.0410156 0.5
vt 0.248047 0.5
vt 0.396484 0.5
vt 0.419922 0.5
vt 0.947266 0.5
vt 0.958984 0.5

# verts
v -8 4 -0
v -8 4 -1
v -8 5 -0
v -8 5 -1
v -7 4 1
v -7 4 -0
v -7 5 1
v -7 5 -0
v -7 5 -1
v -7 6 -0
v -7 6 -1
v -6 6 -0
v -6 6 -1
v -6 7 -0
v -6 7 -1
v -5 7 -0
v -5 7 -1
v -5 8 -0
v -5 8 -1
v -4 1 3
v -4 1 -3
v -4 4 3
v -4 4 2
v -4 5 3
v -4 5 2
v -4 5 -2
v -4 5 -3
v -4 6 -0
v -4 6 -1
v -4 6 -2
v -4 7 3
v -4 7 2
v -4 8 2
v -4 8 -0
v -4 10 -0
v -4 10 -1
v -4 11 1
v -4 11 -0
v -4 11 -1
v -4 11 -2
v -4 13 1
v -4 13 -2
v -3 0 1
v -3 0 -0
v -3 1 1
v -3 1 -0
v -3 4 3
v -3 4 2
v -3 5 4
v -3 5 3
v -3 5 2
v -3 5 -2
v -3 5 -3
v -3 6 -1
v -3 6 -2
v -3 6 -3
v -3 7 4
v -3 7 3
v -3 7 2
v -3 7 -1
v -3 7 -2
v -3 8 3
v -3 8 2
v -3 9 2
v -3 9 -1
v -3 10 -0
v -3 10 -1
v -3 10 -2
v -3 10 -3
v -3 11 2
v -3 11 1
v -3 11 -0
v -3 11 -1
v -3 11 -2
v -3 12 2
v -3 12 1
v -3 13 2
v -3 13 1
v -3 13 -1
v -3 13 -2
v -3 13 -3
v -3 14 1
v -3 14 -1
v -2 6 -2
v -2 6 -3
v -2 7 -1
v -2 7 -2
v -2 7 -3
v -2 8 1
v -2 8 -1
v -2 8 -2
v -2 9 1
v -2 9 -1
v -2 9 -2
v -2 9 -3
v -2 10 -1
v -2 10 -2
v -2 10 -3
v -2 10 -4
v -2 13 -1
v -2 13 -2
v -2 13 -3
v -2 13 -4
v -2 14 1
v -2 14 -1
v -2 14 -2
v -2 15 1
v -2 15 -1
v 0 0 1
v 0 0 -0
v 0 1 1
v 0 1 -0
v 0 7 3
v 0 7 2
v 0 8 3
v 0 8 2
v 3 5 -0
v 3 5 -1
v 3 6 -0
v 3 6 -1
v 4 4 1
v 4 4 -1
v 4 5 1
v 4 5 -0
v 4 5 -1
v -6 4 1
v -6 4 -1
v -6 5 1
v -6 5 -0
v -6 5 -1
v -5 5 -0
v -5 5 -1
v -5 6 -0
v -5 6 -1
v -2 0 1
v -2 0 -0
v -2 1 1
v -2 1 -0
v -2 7 3
v -2 7 2
v -2 8 3
v -2 8 2
v 0 6 -2
v 0 6 -3
v 0 7 -1
v 0 7 -2
v 0 7 -3
v 0 8 1
v 0 8 -1
v 0 8 -2
v 0 9 1
v 0 9 -1
v 0 9 -2
v 0 9 -3
v 0 10 -1
v 0 10 -2
v 0 10 -3
v 0 10 -4
v 0 13 -1
v 0 13 -2
v 0 13 -3
v 0 13 -4
v 0 14 1
v 0 14 -1
v 0 14 -2
v 0 15 1
v 0 15 -1
v 1 0 1
v 1 0 -0
v 1 1 1
v 1 1 -0
v 1 4 3
v 1 4 2
v 1 5 4
v 1 5 3
v 1 5 2
v 1 5 -2
v 1 5 -3
v 1 6 -1
v 1 6 -2
v 1 6 -3
v 1 7 4
v 1 7 3
v 1 7 2
v 1 7 -1
v 1 7 -2
v 1 8 3
v 1 8 2
v 1 9 2
v 1 9 -1
v 1 10 -0
v 1 10 -1
v 1 10 -2
v 1 10 -3
v 1 11 2
v 1 11 1
v 1 11 -0
v 1 11 -1
v 1 11 -2
v 1 12 2
v 1 12 1
v 1 13 2
v 1 13 1
v 1 13 -1
v 1 13 -2
v 1 13 -3
v 1 14 1
v 1 14 -1
v 2 1 3
v 2 1 -3
v 2 4 3
v 2 4 2
v 2 5 3
v 2 5 2
v 2 5 -2
v 2 5 -3
v 2 6 -0
v 2 6 -1
v 2 6 -2
v 2 7 3
v 2 7 2
v 2 8 2
v 2 8 -0
v 2 10 -0
v 2 10 -1
v 2 11 1
v 2 11 -0
v 2 11 -1
v 2 11 -2
v 2 13 1
v 2 13 -2
v 3 7 -0
v 3 7 -1
v 3 8 -0
v 3 8 -1
v 4 6 -0
v 4 6 -1
v 4 7 -0
v 4 7 -1
v 5 4 1
v 5 4 -0
v 5 5 1
v 5 5 -0
v 5 5 -1
v 5 6 -0
v 5 6 -1
v 6 4 -0
v 6 4 -1
v 6 5 -0
v 6 5 -1
v -3 5 4
v -3 7 4
v 1 5 4
v 1 7 4
v -4 1 3
v -4 4 3
v -4 5 3
v -4 7 3
v -3 4 3
v -3 5 3
v -3 7 3
v -3 8 3
v -2 7 3
v -2 8 3
v 0 7 3
v 0 8 3
v 1 4 3
v 1 5 3
v 1 7 3
v 1 8 3
v 2 1 3
v 2 4 3
v 2 5 3
v 2 7 3
v -4 4 2
v -4 5 2
v -4 7 2
v -4 8 2
v -3 4 2
v -3 5 2
v -3 7 2
v -3 8 2
v -3 9 2
v -3 11 2
v -3 12 2
v -3 13 2
v -2 7 2
v -2 8 2
v -2 9 2
v -2 10 2
v -2 11 2
v -2 12 2
v 0 7 2
v 0 8 2
v 0 9 2
v 0 10 2
v 0 11 2
v 0 12 2
v 1 4 2
v 1 5 2
v 1 7 2
v 1 8 2
v 1 9 2
v 1 11 2
v 1 12 2
v 1 13 2
v 2 4 2
v 2 5 2
v 2 7 2
v 2 8 2
v -7 4 1
v -7 5 1
v -6 4 1
v -6 5 1
v -4 11 1
v -4 13 1
v -3 0 1
v -3 1 1
v -3 11 1
v -3 12 1
v -3 13 1
v -3 14 1
v -2 0 1
v -2 1 1
v -2 8 1
v -2 9 1
v -2 14 1
v -2 15 1
v 0 0 1
v 0 1 1
v 0 8 1
v 0 9 1
v 0 14 1
v 0 15 1
v 1 0 1
v 1 1 1
v 1 11 1
v 1 12 1
v 1 13 1
v 1 14 1
v 2 11 1
v 2 13 1
v 4 4 1
v 4 5 1
v 5 4 1
v 5 5 1
v -8 4 -0
v -8 5 -0
v -7 4 -0
v -7 5 -0
v -7 6 -0
v -6 5 -0
v -6 6 -0
v -6 7 -0
v -5 5 -0
v -5 6 -0
v -5 7 -0
v -5 8 -0
v -4 6 -0
v -4 8 -0
v -4 10 -0
v -4 11 -0
v -3 10 -0
v -3 11 -0
v 1 10 -0
v 1 11 -0
v 2 6 -0
v 2 8 -0
v 2 10 -0
v 2 11 -0
v 3 5 -0
v 3 6 -0
v 3 7 -0
v 3 8 -0
v 4 5 -0
v 4 6 -0
v 4 7 -0
v 5 4 -0
v 5 5 -0
v 5 6 -0
v 6 4 -0
v 6 5 -0
v -3 0 -0
v -3 1 -0
v -2 0 -0
v -2 1 -0
v 0 0 -0
v 0 1 -0
v 1 0 -0
v 1 1 -0
v -8 4 -1
v -8 5 -1
v -7 5 -1
v -7 6 -1
v -6 4 -1
v -6 5 -1
v -6 6 -1
v -6 7 -1
v -5 5 -1
v -5 6 -1
v -5 7 -1
v -5 8 -1
v -4 6 -1
v -4 10 -1
v -4 11 -1
v -3 6 -1
v -3 7 -1
v -3 8 -1
v -3 9 -1
v -3 10 -1
v -3 11 -1
v -3 13 -1
v -3 14 -1
v -2 7 -1
v -2 8 -1
v -2 9 -1
v -2 10 -1
v -2 13 -1
v -2 14 -1
v -2 15 -1
v 0 7 -1
v 0 8 -1
v 0 9 -1
v 0 10 -1
v 0 13 -1
v 0 14 -1
v 0 15 -1
v 1 6 -1
v 1 7 -1
v 1 8 -1
v 1 9 -1
v 1 10 -1
v 1 11 -1
v 1 13 -1
v 1 14 -1
v 2 6 -1
v 2 10 -1
v 2 11 -1
v 3 5 -1
v 3 6 -1
v 3 7 -1
v 3 8 -1
v 4 4 -1
v 4 5 -1
v 4 6 -1
v 4 7 -1
v 5 5 -1
v 5 6 -1
v 6 4 -1
v 6 5 -1
v -4 5 -2
v -4 6 -2
v -4 11 -2
v -4 13 -2
v -3 5 -2
v -3 6 -2
v -3 7 -2
v -3 11 -2
v -3 13 -2
v -2 6 -2
v -2 7 -2
v -2 8 -2
v -2 13 -2
v -2 14 -2
v 0 6 -2
v 0 7 -2
v 0 8 -2
v 0 13 -2
v 0 14 -2
v 1 5 -2
v 1 6 -2
v 1 7 -2
v 1 11 -2
v 1 13 -2
v 2 5 -2
v 2 6 -2
v 2 11 -2
v 2 13 -2
v -4 1 -3
v -4 5 -3
v -3 5 -3
v -3 6 -3
v -3 10 -3
v -3 13 -3
v -2 6 -3
v -2 7 -3
v -2 9 -3
v -2 10 -3
v -2 13 -3
v 0 6 -3
v 0 7 -3
v 0 9 -3
v 0 10 -3
v 0 13 -3
v 1 5 -3
v 1 6 -3
v 1 10 -3
v 1 13 -3
v 2 1 -3
v 2 5 -3
v -2 10 -4
v -2 13 -4
v 0 10 -4
v 0 13 -4
v -3 0 1
v -2 0 1
v 0 0 1
v 1 0 1
v -3 0 -0
v -2 0 -0
v 0 0 -0
v 1 0 -0
v -4 1 3
v 2 1 3
v -3 1 1
v -2 1 1
v 0 1 1
v 1 1 1
v -3 1 -0
v -2 1 -0
v 0 1 -0
v 1 1 -0
v -4 1 -3
v 2 1 -3
v -7 4 1
v -6 4 1
v 4 4 1
v 5 4 1
v -8 4 -0
v -7 4 -0
v 5 4 -0
v 6 4 -0
v -8 4 -1
v -6 4 -1
v 4 4 -1
v 6 4 -1
v -3 5 4
v 1 5 4
v -4 5 3
v -3 5 3
v 1 5 3
v 2 5 3
v -4 5 2
v -3 5 2
v 1 5 2
v 2 5 2
v -6 5 -0
v -5 5 -0
v 3 5 -0
v 4 5 -0
v -6 5 -1
v -5 5 -1
v 3 5 -1
v 4 5 -1
v -5 6 -0
v -4 6 -0
v 2 6 -0
v 3 6 -0
v -5 6 -1
v -4 6 -1
v 2 6 -1
v 3 6 -1
v -3 9 2
v -2 9 2
v 0 9 2
v 1 9 2
v -2 9 1
v 0 9 1
v -3 9 -1
v -2 9 -1
v 0 9 -1
v 1 9 -1
v -2 9 -2
v 0 9 -2
v -2 9 -3
v 0 9 -3
v -4 10 -0
v -3 10 -0
v 1 10 -0
v 2 10 -0
v -4 10 -1
v -3 10 -1
v -2 10 -1
v 0 10 -1
v 1 10 -1
v 2 10 -1
v -3 10 -2
v -2 10 -2
v 0 10 -2
v 1 10 -2
v -3 10 -3
v -2 10 -3
v 0 10 -3
v 1 10 -3
v -2 10 -4
v 0 10 -4
v -4 11 1
v -3 11 1
v 1 11 1
v 2 11 1
v -4 11 -0
v -3 11 -0
v 1 11 -0
v 2 11 -0
v -4 11 -1
v -3 11 -1
v 1 11 -1
v 2 11 -1
v -4 11 -2
v -3 11 -2
v 1 11 -2
v 2 11 -2
v -4 4 3
v -3 4 3
v 1 4 3
v 2 4 3
v -4 4 2
v -3 4 2
v 1 4 2
v 2 4 2
v -7 5 1
v -6 5 1
v 4 5 1
v 5 5 1
v -8 5 -0
v -7 5 -0
v -6 5 -0
v 4 5 -0
v 5 5 -0
v 6 5 -0
v -8 5 -1
v -7 5 -1
v 5 5 -1
v 6 5 -1
v -4 5 -2
v -3 5 -2
v 1 5 -2
v 2 5 -2
v -4 5 -3
v -3 5 -3
v 1 5 -3
v 2 5 -3
v -7 6 -0
v -6 6 -0
v 4 6 -0
v 5 6 -0
v -7 6 -1
v -6 6 -1
v -4 6 -1
v -3 6 -1
v 1 6 -1
v 2 6 -1
v 4 6 -1
v 5 6 -1
v -4 6 -2
v -3 6 -2
v -2 6 -2
v 0 6 -2
v 1 6 -2
v 2 6 -2
v -3 6 -3
v -2 6 -3
v 0 6 -3
v 1 6 -3
v -3 7 4
v 1 7 4
v -4 7 3
v -3 7 3
v -2 7 3
v 0 7 3
v 1 7 3
v 2 7 3
v -4 7 2
v -3 7 2
v -2 7 2
v 0 7 2
v 1 7 2
v 2 7 2
v -6 7 -0
v -5 7 -0
v 3 7 -0
v 4 7 -0
v -6 7 -1
v -5 7 -1
v -3 7 -1
v -2 7 -1
v 0 7 -1
v 1 7 -1
v 3 7 -1
v 4 7 -1
v -3 7 -2
v -2 7 -2
v 0 7 -2
v 1 7 -2
v -2 7 -3
v 0 7 -3
v -3 8 3
v -2 8 3
v 0 8 3
v 1 8 3
v -4 8 2
v -3 8 2
v -2 8 2
v 0 8 2
v 1 8 2
v 2 8 2
v -2 8 1
v 0 8 1
v -5 8 -0
v -4 8 -0
v 2 8 -0
v 3 8 -0
v -5 8 -1
v -3 8 -1
v -2 8 -1
v 0 8 -1
v 1 8 -1
v 3 8 -1
v -2 8 -2
v 0 8 -2
v -3 13 2
v 1 13 2
v -4 13 1
v -3 13 1
v 1 13 1
v 2 13 1
v -3 13 -1
v -2 13 -1
v 0 13 -1
v 1 13 -1
v -4 13 -2
v -3 13 -2
v -2 13 -2
v 0 13 -2
v 1 13 -2
v 2 13 -2
v -3 13 -3
v -2 13 -3
v 0 13 -3
v 1 13 -3
v -2 13 -4
v 0 13 -4
v -3 14 1
v -2 14 1
v 0 14 1
v 1 14 1
v -3 14 -1
v -2 14 -1
v 0 14 -1
v 1 14 -1
v -2 14 -2
v 0 14 -2
v -2 15 1
v 0 15 1
v -2 15 -1
v 0 15 -1

# faces
f 3/7/1 2/7/1 1/7/1
f 4/7/1 2/7/1 3/7/1
f 7/7/1 6/7/1 5/7/1
f 8/7/1 6/7/1 7/7/1
f 10/7/1 9/7/1 8/7/1
f 11/7/1 9/7/1 10/7/1
f 14/3/1 13/3/1 12/3/1
f 15/3/1 13/3/1 14/3/1
f 18/3/1 17/3/1 16/3/1
f 19/3/1 17/3/1 18/3/1
f 22/3/1 21/3/1 20/3/1
f 23/3/1 21/3/1 22/3/1
f 25/3/1 21/3/1 23/3/1
f 26/3/1 21/3/1 25/3/1
f 27/3/1 21/3/1 26/3/1
f 28/3/1 25/3/1 24/3/1
f 28/3/1 26/3/1 25/3/1
f 29/3/1 26/3/1 28/3/1
f 30/3/1 26/3/1 29/3/1
f 31/3/1 28/3/1 24/3/1
f 32/3/1 28/3/1 31/3/1
f 33/3/1 28/3/1 32/3/1
f 34/3/1 28/3/1 33/3/1
f 38/2/1 36/2/1 35/2/1
f 39/2/1 36/2/1 38/2/1
f 41/4/1 38/4/1 37/4/1
f 41/4/1 40/4/1 39/4/1
f 41/4/1 39/4/1 38/4/1
f 42/4/1 40/4/1 41/4/1
f 45/7/1 44/7/1 43/7/1
f 46/7/1 44/7/1 45/7/1
f 50/3/1 48/3/1 47/3/1
f 51/3/1 48/3/1 50/3/1
f 55/3/1 53/3/1 52/3/1
f 56/3/1 53/3/1 55/3/1
f 57/3/1 50/3/1 49/3/1
f 58/3/1 50/3/1 57/3/1
f 60/3/1 55/3/1 54/3/1
f 61/3/1 55/3/1 60/3/1
f 62/3/1 59/3/1 58/3/1
f 63/3/1 59/3/1 62/3/1
f 66/1/1 65/1/1 64/1/1
f 67/1/1 65/1/1 66/1/1
f 70/1/1 66/1/1 64/1/1
f 71/1/1 66/1/1 70/1/1
f 72/1/1 66/1/1 71/1/1
f 73/1/1 68/1/1 67/1/1
f 74/4/1 69/4/1 68/4/1
f 74/1/1 68/1/1 73/1/1
f 75/6/1 71/6/1 70/6/1
f 76/6/1 71/6/1 75/6/1
f 77/4/1 76/4/1 75/4/1
f 78/4/1 76/4/1 77/4/1
f 80/4/1 69/4/1 74/4/1
f 81/4/1 69/4/1 80/4/1
f 82/4/1 79/4/1 78/4/1
f 83/4/1 79/4/1 82/4/1
f 87/3/1 85/3/1 84/3/1
f 88/3/1 85/3/1 87/3/1
f 90/7/1 87/7/1 86/7/1
f 91/7/1 87/7/1 90/7/1
f 92/1/1 90/1/1 89/1/1
f 93/1/1 90/1/1 92/1/1
f 96/1/1 94/1/1 93/1/1
f 97/4/1 95/4/1 94/4/1
f 97/1/1 94/1/1 96/1/1
f 98/4/1 95/4/1 97/4/1
f 102/4/1 99/4/1 98/4/1
f 103/4/1 99/4/1 102/4/1
f 105/4/1 101/4/1 100/4/1
f 106/4/1 101/4/1 105/4/1
f 107/4/1 105/4/1 104/4/1
f 108/4/1 105/4/1 107/4/1
f 111/7/1 110/7/1 109/7/1
f 112/7/1 110/7/1 111/7/1
f 115/3/1 114/3/1 113/3/1
f 116/3/1 114/3/1 115/3/1
f 119/7/1 118/7/1 117/7/1
f 120/7/1 118/7/1 119/7/1
f 123/7/1 122/7/1 121/7/1
f 124/7/1 122/7/1 123/7/1
f 125/7/1 122/7/1 124/7/1
f 126/7/2 127/7/2 128/7/2
f 128/7/2 127/7/2 129/7/2
f 129/7/2 127/7/2 130/7/2
f 131/7/2 132/7/2 133/7/2
f 133/7/2 132/7/2 134/7/2
f 135/7/2 136/7/2 137/7/2
f 137/7/2 136/7/2 138/7/2
f 139/3/2 140/3/2 141/3/2
f 141/3/2 140/3/2 142/3/2
f 143/3/2 144/3/2 146/3/2
f 146/3/2 144/3/2 147/3/2
f 145/7/2 146/7/2 149/7/2
f 149/7/2 146/7/2 150/7/2
f 148/1/2 149/1/2 151/1/2
f 151/1/2 149/1/2 152/1/2
f 152/1/2 153/1/2 155/1/2
f 153/4/2 154/4/2 156/4/2
f 155/1/2 153/1/2 156/1/2
f 156/4/2 154/4/2 157/4/2
f 157/4/2 158/4/2 161/4/2
f 161/4/2 158/4/2 162/4/2
f 159/4/2 160/4/2 164/4/2
f 164/4/2 160/4/2 165/4/2
f 163/4/2 164/4/2 166/4/2
f 166/4/2 164/4/2 167/4/2
f 168/7/2 169/7/2 170/7/2
f 170/7/2 169/7/2 171/7/2
f 172/3/2 173/3/2 175/3/2
f 175/3/2 173/3/2 176/3/2
f 177/3/2 178/3/2 180/3/2
f 180/3/2 178/3/2 181/3/2
f 174/3/2 175/3/2 182/3/2
f 182/3/2 175/3/2 183/3/2
f 179/3/2 180/3/2 185/3/2
f 185/3/2 180/3/2 186/3/2
f 183/3/2 184/3/2 187/3/2
f 187/3/2 184/3/2 188/3/2
f 189/1/2 190/1/2 191/1/2
f 191/1/2 190/1/2 192/1/2
f 189/1/2 191/1/2 195/1/2
f 195/1/2 191/1/2 196/1/2
f 196/1/2 191/1/2 197/1/2
f 192/1/2 193/1/2 198/1/2
f 193/4/2 194/4/2 199/4/2
f 198/1/2 193/1/2 199/1/2
f 195/6/2 196/6/2 200/6/2
f 200/6/2 196/6/2 201/6/2
f 200/4/2 201/4/2 202/4/2
f 202/4/2 201/4/2 203/4/2
f 199/4/2 194/4/2 205/4/2
f 205/4/2 194/4/2 206/4/2
f 203/4/2 204/4/2 207/4/2
f 207/4/2 204/4/2 208/4/2
f 209/3/2 210/3/2 211/3/2
f 211/3/2 210/3/2 212/3/2
f 212/3/2 210/3/2 214/3/2
f 214/3/2 210/3/2 215/3/2
f 215/3/2 210/3/2 216/3/2
f 213/3/2 214/3/2 217/3/2
f 214/3/2 215/3/2 217/3/2
f 217/3/2 215/3/2 218/3/2
f 218/3/2 215/3/2 219/3/2
f 213/3/2 217/3/2 220/3/2
f 220/3/2 217/3/2 221/3/2
f 221/3/2 217/3/2 222/3/2
f 222/3/2 217/3/2 223/3/2
f 224/2/2 225/2/2 227/2/2
f 227/2/2 225/2/2 228/2/2
f 226/4/2 227/4/2 230/4/2
f 228/4/2 229/4/2 230/4/2
f 227/4/2 228/4/2 230/4/2
f 230/4/2 229/4/2 231/4/2
f 232/3/2 233/3/2 234/3/2
f 234/3/2 233/3/2 235/3/2
f 236/3/2 237/3/2 238/3/2
f 238/3/2 237/3/2 239/3/2
f 240/7/2 241/7/2 242/7/2
f 242/7/2 241/7/2 243/7/2
f 243/7/2 244/7/2 245/7/2
f 245/7/2 244/7/2 246/7/2
f 247/7/2 248/7/2 249/7/2
f 249/7/2 248/7/2 250/7/2
f 253/3/3 252/3/3 251/3/3
f 254/3/3 252/3/3 253/3/3
f 259/3/3 256/3/3 255/3/3
f 260/3/3 258/3/3 257/3/3
f 261/3/3 258/3/3 260/3/3
f 263/3/3 262/3/3 261/3/3
f 264/3/3 262/3/3 263/3/3
f 267/3/3 259/3/3 255/3/3
f 267/3/3 260/3/3 259/3/3
f 268/3/3 260/3/3 267/3/3
f 269/3/3 266/3/3 265/3/3
f 270/3/3 266/3/3 269/3/3
f 271/3/3 267/3/3 255/3/3
f 272/3/3 267/3/3 271/3/3
f 273/3/3 269/3/3 268/3/3
f 274/3/3 269/3/3 273/3/3
f 279/3/3 276/3/3 275/3/3
f 280/3/3 276/3/3 279/3/3
f 281/3/3 278/3/3 277/3/3
f 282/3/3 278/3/3 281/3/3
f 289/1/3 284/1/3 283/1/3
f 290/1/3 284/1/3 289/1/3
f 291/6/3 285/6/3 284/6/3
f 291/1/3 284/1/3 290/1/3
f 292/4/3 286/4/3 285/4/3
f 292/6/3 285/6/3 291/6/3
f 293/7/3 288/7/3 287/7/3
f 294/7/3 288/7/3 293/7/3
f 295/5/3 290/5/3 289/5/3
f 296/1/3 291/1/3 290/1/3
f 296/5/3 290/5/3 295/5/3
f 296/1/3 292/1/3 291/1/3
f 297/1/3 292/1/3 296/1/3
f 298/4/3 286/4/3 292/4/3
f 298/1/3 292/1/3 297/1/3
f 303/1/3 297/1/3 296/1/3
f 303/1/3 296/1/3 295/1/3
f 304/6/3 298/6/3 297/6/3
f 304/1/3 297/1/3 303/1/3
f 305/4/3 286/4/3 298/4/3
f 305/6/3 298/6/3 304/6/3
f 306/4/3 286/4/3 305/4/3
f 307/3/3 300/3/3 299/3/3
f 308/3/3 300/3/3 307/3/3
f 309/3/3 302/3/3 301/3/3
f 310/3/3 302/3/3 309/3/3
f 313/7/3 312/7/3 311/7/3
f 314/7/3 312/7/3 313/7/3
f 319/4/3 316/4/3 315/4/3
f 320/4/3 316/4/3 319/4/3
f 321/4/3 316/4/3 320/4/3
f 323/7/3 318/7/3 317/7/3
f 324/7/3 318/7/3 323/7/3
f 327/4/3 322/4/3 321/4/3
f 331/1/3 326/1/3 325/1/3
f 332/1/3 326/1/3 331/1/3
f 333/4/3 328/4/3 327/4/3
f 333/4/3 327/4/3 321/4/3
f 334/4/3 328/4/3 333/4/3
f 335/7/3 330/7/3 329/7/3
f 336/7/3 330/7/3 335/7/3
f 339/4/3 333/4/3 321/4/3
f 340/4/3 333/4/3 339/4/3
f 341/4/3 338/4/3 337/4/3
f 341/4/3 339/4/3 338/4/3
f 342/4/3 339/4/3 341/4/3
f 345/7/3 344/7/3 343/7/3
f 346/7/3 344/7/3 345/7/3
f 349/7/3 348/7/3 347/7/3
f 350/7/3 348/7/3 349/7/3
f 352/7/3 351/7/3 350/7/3
f 353/7/3 351/7/3 352/7/3
f 355/7/3 353/7/3 352/7/3
f 356/3/3 354/3/3 353/3/3
f 356/7/3 353/7/3 355/7/3
f 357/3/3 354/3/3 356/3/3
f 359/3/3 358/3/3 357/3/3
f 359/3/3 357/3/3 356/3/3
f 360/3/3 358/3/3 359/3/3
f 363/2/3 362/2/3 361/2/3
f 364/2/3 362/2/3 363/2/3
f 369/2/3 366/2/3 365/2/3
f 370/2/3 366/2/3 369/2/3
f 372/3/3 368/3/3 367/3/3
f 373/3/3 368/3/3 372/3/3
f 374/3/3 368/3/3 373/3/3
f 375/7/3 372/7/3 371/7/3
f 376/3/3 373/3/3 372/3/3
f 376/7/3 372/7/3 375/7/3
f 377/3/3 373/3/3 376/3/3
f 379/7/3 376/7/3 375/7/3
f 380/7/3 376/7/3 379/7/3
f 381/7/3 379/7/3 378/7/3
f 382/7/3 379/7/3 381/7/3
f 383/7/4 384/7/4 385/7/4
f 385/7/4 384/7/4 386/7/4
f 387/7/4 388/7/4 389/7/4
f 389/7/4 388/7/4 390/7/4
f 391/7/4 392/7/4 393/7/4
f 391/7/4 393/7/4 395/7/4
f 393/7/4 394/7/4 395/7/4
f 395/7/4 394/7/4 396/7/4
f 396/7/4 394/7/4 397/7/4
f 396/7/4 397/7/4 399/7/4
f 397/3/4 398/3/4 400/3/4
f 399/7/4 397/7/4 400/7/4
f 400/3/4 398/3/4 401/3/4
f 401/3/4 402/3/4 403/3/4
f 400/3/4 401/3/4 403/3/4
f 403/3/4 402/3/4 406/3/4
f 406/3/4 402/3/4 407/3/4
f 407/3/4 402/3/4 408/3/4
f 404/2/4 405/2/4 410/2/4
f 410/2/4 405/2/4 411/2/4
f 407/7/4 408/7/4 414/7/4
f 414/7/4 408/7/4 415/7/4
f 409/1/4 410/1/4 416/1/4
f 416/1/4 410/1/4 417/1/4
f 412/4/4 413/4/4 418/4/4
f 418/4/4 413/4/4 419/4/4
f 415/1/4 416/1/4 422/1/4
f 422/1/4 416/1/4 423/1/4
f 419/4/4 420/4/4 426/4/4
f 426/4/4 420/4/4 427/4/4
f 421/7/4 422/7/4 429/7/4
f 429/7/4 422/7/4 430/7/4
f 423/1/4 424/1/4 431/1/4
f 431/1/4 424/1/4 432/1/4
f 425/4/4 426/4/4 434/4/4
f 434/4/4 426/4/4 435/4/4
f 429/3/4 430/3/4 436/3/4
f 428/3/4 429/3/4 436/3/4
f 432/2/4 433/2/4 437/2/4
f 437/2/4 433/2/4 438/2/4
f 436/3/4 430/3/4 440/3/4
f 440/3/4 430/3/4 441/3/4
f 441/3/4 430/3/4 442/3/4
f 439/7/4 440/7/4 444/7/4
f 440/3/4 441/3/4 445/3/4
f 444/7/4 440/7/4 445/7/4
f 445/3/4 441/3/4 446/3/4
f 443/7/4 444/7/4 447/7/4
f 444/7/4 445/7/4 447/7/4
f 447/7/4 445/7/4 448/7/4
f 443/7/4 447/7/4 449/7/4
f 449/7/4 447/7/4 450/7/4
f 451/3/4 452/3/4 455/3/4
f 455/3/4 452/3/4 456/3/4
f 453/4/4 454/4/4 458/4/4
f 458/4/4 454/4/4 459/4/4
f 456/3/4 457/3/4 460/3/4
f 460/3/4 457/3/4 461/3/4
f 461/7/4 462/7/4 466/7/4
f 466/7/4 462/7/4 467/7/4
f 463/4/4 464/4/4 468/4/4
f 468/4/4 464/4/4 469/4/4
f 465/3/4 466/3/4 471/3/4
f 471/3/4 466/3/4 472/3/4
f 470/3/4 471/3/4 475/3/4
f 475/3/4 471/3/4 476/3/4
f 473/4/4 474/4/4 477/4/4
f 477/4/4 474/4/4 478/4/4
f 479/3/4 480/3/4 481/3/4
f 481/3/4 482/3/4 485/3/4
f 483/4/4 484/4/4 488/4/4
f 488/4/4 484/4/4 489/4/4
f 485/3/4 486/3/4 490/3/4
f 481/3/4 485/3/4 490/3/4
f 490/3/4 486/3/4 491/3/4
f 487/4/4 488/4/4 492/4/4
f 492/4/4 488/4/4 493/4/4
f 479/3/4 481/3/4 495/3/4
f 481/3/4 490/3/4 495/3/4
f 495/3/4 490/3/4 496/3/4
f 493/4/4 494/4/4 497/4/4
f 497/4/4 494/4/4 498/4/4
f 479/3/4 495/3/4 499/3/4
f 499/3/4 495/3/4 500/3/4
f 501/4/4 502/4/4 503/4/4
f 503/4/4 502/4/4 504/4/4
f 509/7/5 506/7/5 505/7/5
f 510/7/5 506/7/5 509/7/5
f 511/7/5 508/7/5 507/7/5
f 512/7/5 508/7/5 511/7/5
f 515/3/5 514/3/5 513/3/5
f 516/3/5 514/3/5 515/3/5
f 517/3/5 514/3/5 516/3/5
f 518/3/5 514/3/5 517/3/5
f 519/3/5 515/3/5 513/3/5
f 520/3/5 517/3/5 516/3/5
f 521/3/5 517/3/5 520/3/5
f 522/3/5 514/3/5 518/3/5
f 523/3/5 521/3/5 520/3/5
f 523/3/5 522/3/5 521/3/5
f 523/3/5 519/3/5 513/3/5
f 523/3/5 520/3/5 519/3/5
f 524/3/5 514/3/5 522/3/5
f 524/3/5 522/3/5 523/3/5
f 530/7/5 526/7/5 525/7/5
f 531/7/5 528/7/5 527/7/5
f 533/7/5 530/7/5 529/7/5
f 534/7/5 526/7/5 530/7/5
f 534/7/5 530/7/5 533/7/5
f 535/7/5 532/7/5 531/7/5
f 535/7/5 531/7/5 527/7/5
f 536/7/5 532/7/5 535/7/5
f 540/3/5 538/3/5 537/3/5
f 541/3/5 538/3/5 540/3/5
f 543/3/5 540/3/5 539/3/5
f 544/3/5 540/3/5 543/3/5
f 545/3/5 542/3/5 541/3/5
f 546/3/5 542/3/5 545/3/5
f 551/7/5 548/7/5 547/7/5
f 552/7/5 548/7/5 551/7/5
f 553/7/5 550/7/5 549/7/5
f 554/7/5 550/7/5 553/7/5
f 559/3/5 556/3/5 555/3/5
f 560/3/5 556/3/5 559/3/5
f 561/3/5 558/3/5 557/3/5
f 562/3/5 558/3/5 561/3/5
f 567/1/5 564/1/5 563/1/5
f 567/5/5 565/5/5 564/5/5
f 568/1/5 566/1/5 565/1/5
f 568/5/5 565/5/5 567/5/5
f 569/1/5 567/1/5 563/1/5
f 570/1/5 567/1/5 569/1/5
f 571/1/5 566/1/5 568/1/5
f 572/1/5 566/1/5 571/1/5
f 573/1/5 571/1/5 570/1/5
f 574/1/5 571/1/5 573/1/5
f 575/4/5 574/4/5 573/4/5
f 576/4/5 574/4/5 575/4/5
f 581/2/5 578/2/5 577/2/5
f 582/2/5 578/2/5 581/2/5
f 585/2/5 580/2/5 579/2/5
f 586/2/5 580/2/5 585/2/5
f 587/1/5 583/1/5 582/1/5
f 588/1/5 583/1/5 587/1/5
f 589/1/5 585/1/5 584/1/5
f 590/1/5 585/1/5 589/1/5
f 591/4/5 588/4/5 587/4/5
f 592/4/5 588/4/5 591/4/5
f 593/4/5 590/4/5 589/4/5
f 594/4/5 590/4/5 593/4/5
f 595/4/5 593/4/5 592/4/5
f 596/4/5 593/4/5 595/4/5
f 601/4/5 598/4/5 597/4/5
f 602/4/5 598/4/5 601/4/5
f 603/4/5 600/4/5 599/4/5
f 604/4/5 600/4/5 603/4/5
f 609/4/5 606/4/5 605/4/5
f 610/4/5 606/4/5 609/4/5
f 611/4/5 608/4/5 607/4/5
f 612/4/5 608/4/5 611/4/5
f 613/3/6 614/3/6 617/3/6
f 617/3/6 614/3/6 618/3/6
f 615/3/6 616/3/6 619/3/6
f 619/3/6 616/3/6 620/3/6
f 621/7/6 622/7/6 626/7/6
f 626/7/6 622/7/6 627/7/6
f 623/7/6 624/7/6 628/7/6
f 628/7/6 624/7/6 629/7/6
f 625/7/6 626/7/6 631/7/6
f 631/7/6 626/7/6 632/7/6
f 629/7/6 630/7/6 633/7/6
f 633/7/6 630/7/6 634/7/6
f 635/3/6 636/3/6 639/3/6
f 639/3/6 636/3/6 640/3/6
f 637/3/6 638/3/6 641/3/6
f 641/3/6 638/3/6 642/3/6
f 643/7/6 644/7/6 647/7/6
f 647/7/6 644/7/6 648/7/6
f 645/7/6 646/7/6 653/7/6
f 653/7/6 646/7/6 654/7/6
f 649/3/6 650/3/6 655/3/6
f 655/3/6 650/3/6 656/3/6
f 651/3/6 652/3/6 659/3/6
f 659/3/6 652/3/6 660/3/6
f 656/3/6 657/3/6 661/3/6
f 661/3/6 657/3/6 662/3/6
f 658/3/6 659/3/6 663/3/6
f 663/3/6 659/3/6 664/3/6
f 665/3/6 666/3/6 668/3/6
f 668/3/6 666/3/6 669/3/6
f 669/3/6 666/3/6 670/3/6
f 670/3/6 666/3/6 671/3/6
f 667/3/6 668/3/6 673/3/6
f 673/3/6 668/3/6 674/3/6
f 669/3/6 670/3/6 675/3/6
f 675/3/6 670/3/6 676/3/6
f 671/3/6 672/3/6 677/3/6
f 677/3/6 672/3/6 678/3/6
f 679/3/6 680/3/6 683/3/6
f 683/3/6 680/3/6 684/3/6
f 681/3/6 682/3/6 689/3/6
f 689/3/6 682/3/6 690/3/6
f 685/3/6 686/3/6 691/3/6
f 691/3/6 686/3/6 692/3/6
f 687/3/6 688/3/6 693/3/6
f 693/3/6 688/3/6 694/3/6
f 692/3/6 693/3/6 695/3/6
f 695/3/6 693/3/6 696/3/6
f 697/3/6 698/3/6 702/3/6
f 702/3/6 698/3/6 703/3/6
f 699/3/6 700/3/6 704/3/6
f 704/3/6 700/3/6 705/3/6
f 702/7/6 703/7/6 707/7/6
f 703/7/6 704/7/6 707/7/6
f 704/7/6 705/7/6 707/7/6
f 707/7/6 705/7/6 708/7/6
f 701/3/6 702/3/6 710/3/6
f 705/3/6 706/3/6 711/3/6
f 709/3/6 710/3/6 713/3/6
f 702/7/6 707/7/6 714/7/6
f 713/3/6 710/3/6 714/3/6
f 710/3/6 702/3/6 714/3/6
f 714/7/6 707/7/6 715/7/6
f 708/7/6 705/7/6 716/7/6
f 711/3/6 712/3/6 717/3/6
f 705/3/6 711/3/6 717/3/6
f 716/7/6 705/7/6 717/7/6
f 717/3/6 712/3/6 718/3/6
f 715/7/6 716/7/6 719/7/6
f 719/7/6 716/7/6 720/7/6
f 721/4/6 722/4/6 724/4/6
f 724/4/6 722/4/6 725/4/6
f 723/4/6 724/4/6 727/4/6
f 725/4/6 726/4/6 730/4/6
f 727/4/6 728/4/6 731/4/6
f 723/4/6 727/4/6 731/4/6
f 731/4/6 728/4/6 732/4/6
f 732/4/6 728/4/6 733/4/6
f 729/4/6 730/4/6 734/4/6
f 730/4/6 726/4/6 735/4/6
f 734/4/6 730/4/6 735/4/6
f 735/4/6 726/4/6 736/4/6
f 732/4/6 733/4/6 737/4/6
f 733/4/6 734/4/6 737/4/6
f 734/4/6 735/4/6 737/4/6
f 737/4/6 735/4/6 738/4/6
f 738/4/6 735/4/6 739/4/6
f 739/4/6 735/4/6 740/4/6
f 738/4/6 739/4/6 741/4/6
f 741/4/6 739/4/6 742/4/6
f 743/4/6 744/4/6 747/4/6
f 747/4/6 744/4/6 748/4/6
f 745/4/6 746/4/6 749/4/6
f 749/4/6 746/4/6 750/4/6
f 748/4/6 749/4/6 751/4/6
f 751/4/6 749/4/6 752/4/6
f 753/4/6 754/4/6 755/4/6
f 755/4/6 754/4/6 756/4/6
