# MagicaVoxel @ Ephtracy

# group
g dog

# material
mtllib dog.mtl
usemtl palette

# normals
vn -1 0 0
vn 1 0 0
vn 0 0 1
vn 0 0 -1
vn 0 -1 0
vn 0 1 0

# texcoords
vt 0.232422 0.5
vt 0.958984 0.5
vt 0.994141 0.5

# verts
v -3 0 5
v -3 0 4
v -3 0 -0
v -3 0 -1
v -3 1 4
v -3 1 3
v -3 1 -1
v -3 1 -2
v -3 2 3
v -3 2 2
v -3 2 1
v -3 2 -0
v -3 3 6
v -3 3 5
v -3 3 2
v -3 3 1
v -3 5 6
v -3 5 5
v -3 5 1
v -3 5 -2
v -3 8 5
v -3 8 4
v -3 9 5
v -3 9 4
v -3 9 3
v -3 9 2
v -3 9 1
v -3 10 3
v -3 10 2
v -3 11 3
v -3 11 2
v -3 12 3
v -3 12 2
v -2 2 6
v -2 2 5
v -2 3 6
v -2 3 5
v -2 4 -2
v -2 4 -3
v -2 5 -2
v -2 6 7
v -2 6 5
v -2 7 7
v -2 7 6
v -2 7 5
v -2 7 -0
v -2 7 -2
v -2 7 -3
v -2 8 7
v -2 8 6
v -2 8 5
v -2 8 -0
v -2 8 -2
v 0 0 5
v 0 0 4
v 0 0 -0
v 0 0 -1
v 0 1 5
v 0 1 4
v 0 1 -0
v 0 1 -1
v 0 11 3
v 0 11 2
v 0 12 3
v 0 12 2
v -2 0 5
v -2 0 4
v -2 0 -0
v -2 0 -1
v -2 1 5
v -2 1 4
v -2 1 -0
v -2 1 -1
v -2 11 3
v -2 11 2
v -2 12 3
v -2 12 2
v 0 2 6
v 0 2 5
v 0 3 6
v 0 3 5
v 0 4 -2
v 0 4 -3
v 0 5 -2
v 0 6 7
v 0 6 5
v 0 7 7
v 0 7 6
v 0 7 5
v 0 7 -0
v 0 7 -2
v 0 7 -3
v 0 8 7
v 0 8 6
v 0 8 5
v 0 8 -0
v 0 8 -2
v 1 0 5
v 1 0 4
v 1 0 -0
v 1 0 -1
v 1 1 4
v 1 1 3
v 1 1 -1
v 1 1 -2
v 1 2 3
v 1 2 2
v 1 2 1
v 1 2 -0
v 1 3 6
v 1 3 5
v 1 3 2
v 1 3 1
v 1 5 6
v 1 5 5
v 1 5 1
v 1 5 -2
v 1 8 5
v 1 8 4
v 1 9 5
v 1 9 4
v 1 9 3
v 1 9 2
v 1 9 1
v 1 10 3
v 1 10 2
v 1 11 3
v 1 11 2
v 1 12 3
v 1 12 2
v -2 6 7
v -2 7 7
v -2 8 7
v 0 6 7
v 0 7 7
v 0 8 7
v -3 3 6
v -3 5 6
v -2 2 6
v -2 3 6
v -2 5 6
v 0 2 6
v 0 3 6
v 0 5 6
v 1 3 6
v 1 5 6
v -3 0 5
v -3 3 5
v -3 5 5
v -3 8 5
v -3 9 5
v -2 0 5
v -2 1 5
v -2 2 5
v -2 3 5
v -2 5 5
v -2 6 5
v -2 7 5
v -2 8 5
v -2 9 5
v 0 0 5
v 0 1 5
v 0 2 5
v 0 3 5
v 0 5 5
v 0 6 5
v 0 7 5
v 0 8 5
v 0 9 5
v 1 0 5
v 1 3 5
v 1 5 5
v 1 8 5
v 1 9 5
v -3 9 3
v -3 10 3
v -3 11 3
v -3 12 3
v -2 9 3
v -2 10 3
v -2 11 3
v -2 12 3
v 0 9 3
v 0 10 3
v 0 11 3
v 0 12 3
v 1 9 3
v 1 10 3
v 1 11 3
v 1 12 3
v -3 2 1
v -3 3 1
v -2 2 1
v -2 3 1
v 0 2 1
v 0 3 1
v 1 2 1
v 1 3 1
v -3 0 -0
v -3 2 -0
v -2 0 -0
v -2 1 -0
v -2 2 -0
v -2 7 -0
v -2 8 -0
v 0 0 -0
v 0 1 -0
v 0 2 -0
v 0 7 -0
v 0 8 -0
v 1 0 -0
v 1 2 -0
v -2 5 -2
v -2 7 -2
v 0 5 -2
v 0 7 -2
v -3 0 4
v -3 1 4
v -2 0 4
v -2 1 4
v 0 0 4
v 0 1 4
v 1 0 4
v 1 1 4
v -3 1 3
v -3 2 3
v -2 1 3
v -2 2 3
v 0 1 3
v 0 2 3
v 1 1 3
v 1 2 3
v -3 2 2
v -3 3 2
v -3 9 2
v -3 10 2
v -3 11 2
v -3 12 2
v -2 2 2
v -2 3 2
v -2 9 2
v -2 10 2
v -2 11 2
v -2 12 2
v 0 2 2
v 0 3 2
v 0 9 2
v 0 10 2
v 0 11 2
v 0 12 2
v 1 2 2
v 1 3 2
v 1 9 2
v 1 10 2
v 1 11 2
v 1 12 2
v -3 5 1
v -3 9 1
v 1 5 1
v 1 9 1
v -3 0 -1
v -3 1 -1
v -2 0 -1
v -2 1 -1
v 0 0 -1
v 0 1 -1
v 1 0 -1
v 1 1 -1
v -3 1 -2
v -3 5 -2
v -2 4 -2
v -2 5 -2
v -2 7 -2
v -2 8 -2
v 0 4 -2
v 0 5 -2
v 0 7 -2
v 0 8 -2
v 1 1 -2
v 1 5 -2
v -2 4 -3
v -2 7 -3
v 0 4 -3
v 0 7 -3
v -3 0 5
v -2 0 5
v 0 0 5
v 1 0 5
v -3 0 4
v -2 0 4
v 0 0 4
v 1 0 4
v -3 0 -0
v -2 0 -0
v 0 0 -0
v 1 0 -0
v -3 0 -1
v -2 0 -1
v 0 0 -1
v 1 0 -1
v -2 1 5
v 0 1 5
v -3 1 4
v -2 1 4
v 0 1 4
v 1 1 4
v -3 1 3
v -2 1 3
v 0 1 3
v 1 1 3
v -2 1 -0
v 0 1 -0
v -3 1 -1
v -2 1 -1
v 0 1 -1
v 1 1 -1
v -3 1 -2
v 1 1 -2
v -2 2 6
v 0 2 6
v -2 2 5
v 0 2 5
v -3 2 3
v -2 2 3
v 0 2 3
v 1 2 3
v -3 2 2
v -2 2 2
v 0 2 2
v 1 2 2
v -3 2 1
v -2 2 1
v 0 2 1
v 1 2 1
v -3 2 -0
v -2 2 -0
v 0 2 -0
v 1 2 -0
v -3 3 6
v -2 3 6
v 0 3 6
v 1 3 6
v -3 3 5
v -2 3 5
v 0 3 5
v 1 3 5
v -3 3 2
v -2 3 2
v 0 3 2
v 1 3 2
v -3 3 1
v -2 3 1
v 0 3 1
v 1 3 1
v -2 4 -2
v 0 4 -2
v -2 4 -3
v 0 4 -3
v -2 6 7
v 0 6 7
v -2 6 5
v 0 6 5
v -2 7 -0
v 0 7 -0
v -2 7 -2
v 0 7 -2
v -3 5 6
v -2 5 6
v 0 5 6
v 1 5 6
v -3 5 5
v -2 5 5
v 0 5 5
v 1 5 5
v -3 5 1
v 1 5 1
v -3 5 -2
v -2 5 -2
v 0 5 -2
v 1 5 -2
v -2 7 -2
v 0 7 -2
v -2 7 -3
v 0 7 -3
v -2 8 7
v 0 8 7
v -2 8 6
v 0 8 6
v -2 8 5
v 0 8 5
v -2 8 -0
v 0 8 -0
v -2 8 -2
v 0 8 -2
v -3 9 5
v -2 9 5
v 0 9 5
v 1 9 5
v -3 9 4
v -2 9 4
v 0 9 4
v 1 9 4
v -3 9 3
v -2 9 3
v 0 9 3
v 1 9 3
v -3 9 2
v -2 9 2
v 0 9 2
v 1 9 2
v -3 9 1
v 1 9 1
v -2 11 3
v 0 11 3
v -2 11 2
v 0 11 2
v -3 12 3
v -2 12 3
v 0 12 3
v 1 12 3
v -3 12 2
v -2 12 2
v 0 12 2
v 1 12 2

# faces
f 5/1/1 2/1/1 1/1/1
f 7/1/1 4/1/1 3/1/1
f 9/1/1 6/1/1 5/1/1
f 12/1/1 8/1/1 7/1/1
f 12/1/1 7/1/1 3/1/1
f 14/1/1 10/1/1 9/1/1
f 14/1/1 5/1/1 1/1/1
f 14/1/1 9/1/1 5/1/1
f 15/1/1 10/1/1 14/1/1
f 16/1/1 12/1/1 11/1/1
f 17/1/1 15/1/1 14/1/1
f 17/1/1 16/1/1 15/1/1
f 17/1/1 14/1/1 13/1/1
f 18/1/1 16/1/1 17/1/1
f 19/1/1 12/1/1 16/1/1
f 19/1/1 16/1/1 18/1/1
f 20/1/1 8/1/1 12/1/1
f 20/1/1 12/1/1 19/1/1
f 21/1/1 19/1/1 18/1/1
f 22/1/1 19/1/1 21/1/1
f 23/3/1 22/3/1 21/3/1
f 24/1/1 19/1/1 22/1/1
f 24/3/1 22/3/1 23/3/1
f 25/1/1 19/1/1 24/1/1
f 26/1/1 19/1/1 25/1/1
f 27/1/1 19/1/1 26/1/1
f 28/1/1 26/1/1 25/1/1
f 29/1/1 26/1/1 28/1/1
f 30/2/1 29/2/1 28/2/1
f 31/2/1 29/2/1 30/2/1
f 32/1/1 31/1/1 30/1/1
f 33/1/1 31/1/1 32/1/1
f 36/2/1 35/2/1 34/2/1
f 37/2/1 35/2/1 36/2/1
f 40/2/1 39/2/1 38/2/1
f 43/2/1 42/2/1 41/2/1
f 44/2/1 42/2/1 43/2/1
f 45/2/1 42/2/1 44/2/1
f 47/2/1 39/2/1 40/2/1
f 48/2/1 39/2/1 47/2/1
f 49/3/1 44/3/1 43/3/1
f 50/1/1 45/1/1 44/1/1
f 50/3/1 44/3/1 49/3/1
f 51/1/1 45/1/1 50/1/1
f 52/2/1 47/2/1 46/2/1
f 53/2/1 47/2/1 52/2/1
f 58/1/1 55/1/1 54/1/1
f 59/1/1 55/1/1 58/1/1
f 60/1/1 57/1/1 56/1/1
f 61/1/1 57/1/1 60/1/1
f 64/1/1 63/1/1 62/1/1
f 65/1/1 63/1/1 64/1/1
f 66/1/2 67/1/2 70/1/2
f 70/1/2 67/1/2 71/1/2
f 68/1/2 69/1/2 72/1/2
f 72/1/2 69/1/2 73/1/2
f 74/1/2 75/1/2 76/1/2
f 76/1/2 75/1/2 77/1/2
f 78/2/2 79/2/2 80/2/2
f 80/2/2 79/2/2 81/2/2
f 82/2/2 83/2/2 84/2/2
f 85/2/2 86/2/2 87/2/2
f 87/2/2 86/2/2 88/2/2
f 88/2/2 86/2/2 89/2/2
f 84/2/2 83/2/2 91/2/2
f 91/2/2 83/2/2 92/2/2
f 87/3/2 88/3/2 93/3/2
f 88/1/2 89/1/2 94/1/2
f 93/3/2 88/3/2 94/3/2
f 94/1/2 89/1/2 95/1/2
f 90/2/2 91/2/2 96/2/2
f 96/2/2 91/2/2 97/2/2
f 98/1/2 99/1/2 102/1/2
f 100/1/2 101/1/2 104/1/2
f 102/1/2 103/1/2 106/1/2
f 104/1/2 105/1/2 109/1/2
f 100/1/2 104/1/2 109/1/2
f 106/1/2 107/1/2 111/1/2
f 98/1/2 102/1/2 111/1/2
f 102/1/2 106/1/2 111/1/2
f 111/1/2 107/1/2 112/1/2
f 108/1/2 109/1/2 113/1/2
f 111/1/2 112/1/2 114/1/2
f 112/1/2 113/1/2 114/1/2
f 110/1/2 111/1/2 114/1/2
f 114/1/2 113/1/2 115/1/2
f 113/1/2 109/1/2 116/1/2
f 115/1/2 113/1/2 116/1/2
f 109/1/2 105/1/2 117/1/2
f 116/1/2 109/1/2 117/1/2
f 115/1/2 116/1/2 118/1/2
f 118/1/2 116/1/2 119/1/2
f 118/3/2 119/3/2 120/3/2
f 119/1/2 116/1/2 121/1/2
f 120/3/2 119/3/2 121/3/2
f 121/1/2 116/1/2 122/1/2
f 122/1/2 116/1/2 123/1/2
f 123/1/2 116/1/2 124/1/2
f 122/1/2 123/1/2 125/1/2
f 125/1/2 123/1/2 126/1/2
f 125/2/2 126/2/2 127/2/2
f 127/2/2 126/2/2 128/2/2
f 127/1/2 128/1/2 129/1/2
f 129/1/2 128/1/2 130/1/2
f 134/2/3 132/2/3 131/2/3
f 135/3/3 133/3/3 132/3/3
f 135/2/3 132/2/3 134/2/3
f 136/3/3 133/3/3 135/3/3
f 140/1/3 138/1/3 137/1/3
f 141/1/3 138/1/3 140/1/3
f 142/2/3 140/2/3 139/2/3
f 142/2/3 141/2/3 140/2/3
f 143/2/3 141/2/3 142/2/3
f 144/2/3 141/2/3 143/2/3
f 145/1/3 144/1/3 143/1/3
f 146/1/3 144/1/3 145/1/3
f 152/1/3 148/1/3 147/1/3
f 153/1/3 148/1/3 152/1/3
f 154/1/3 148/1/3 153/1/3
f 155/1/3 148/1/3 154/1/3
f 156/1/3 150/1/3 149/1/3
f 157/1/3 150/1/3 156/1/3
f 158/1/3 150/1/3 157/1/3
f 159/3/3 151/3/3 150/3/3
f 159/1/3 150/1/3 158/1/3
f 160/3/3 151/3/3 159/3/3
f 162/2/3 154/2/3 153/2/3
f 163/2/3 154/2/3 162/2/3
f 165/1/3 157/1/3 156/1/3
f 166/1/3 157/1/3 165/1/3
f 168/1/3 160/1/3 159/1/3
f 169/1/3 160/1/3 168/1/3
f 170/1/3 164/1/3 163/1/3
f 170/1/3 162/1/3 161/1/3
f 170/1/3 163/1/3 162/1/3
f 171/1/3 164/1/3 170/1/3
f 172/1/3 167/1/3 166/1/3
f 172/1/3 168/1/3 167/1/3
f 172/1/3 166/1/3 165/1/3
f 173/3/3 169/3/3 168/3/3
f 173/1/3 168/1/3 172/1/3
f 174/3/3 169/3/3 173/3/3
f 179/1/3 176/1/3 175/1/3
f 180/2/3 177/2/3 176/2/3
f 180/1/3 176/1/3 179/1/3
f 181/1/3 178/1/3 177/1/3
f 181/2/3 177/2/3 180/2/3
f 182/1/3 178/1/3 181/1/3
f 183/2/3 180/2/3 179/2/3
f 184/1/3 181/1/3 180/1/3
f 184/2/3 180/2/3 183/2/3
f 185/1/3 181/1/3 184/1/3
f 187/1/3 184/1/3 183/1/3
f 188/2/3 185/2/3 184/2/3
f 188/1/3 184/1/3 187/1/3
f 189/1/3 186/1/3 185/1/3
f 189/2/3 185/2/3 188/2/3
f 190/1/3 186/1/3 189/1/3
f 193/1/3 192/1/3 191/1/3
f 194/1/3 192/1/3 193/1/3
f 195/2/3 194/2/3 193/2/3
f 196/2/3 194/2/3 195/2/3
f 197/1/3 196/1/3 195/1/3
f 198/1/3 196/1/3 197/1/3
f 201/1/3 200/1/3 199/1/3
f 202/1/3 200/1/3 201/1/3
f 203/1/3 200/1/3 202/1/3
f 207/2/3 203/2/3 202/2/3
f 208/2/3 203/2/3 207/2/3
f 209/2/3 205/2/3 204/2/3
f 210/2/3 205/2/3 209/2/3
f 211/1/3 208/1/3 207/1/3
f 211/1/3 207/1/3 206/1/3
f 212/1/3 208/1/3 211/1/3
f 215/2/3 214/2/3 213/2/3
f 216/2/3 214/2/3 215/2/3
f 217/1/4 218/1/4 219/1/4
f 219/1/4 218/1/4 220/1/4
f 221/1/4 222/1/4 223/1/4
f 223/1/4 222/1/4 224/1/4
f 225/1/4 226/1/4 227/1/4
f 227/1/4 226/1/4 228/1/4
f 227/2/4 228/2/4 229/2/4
f 229/2/4 228/2/4 230/2/4
f 229/1/4 230/1/4 231/1/4
f 231/1/4 230/1/4 232/1/4
f 233/1/4 234/1/4 239/1/4
f 239/1/4 234/1/4 240/1/4
f 235/1/4 236/1/4 241/1/4
f 236/2/4 237/2/4 242/2/4
f 241/1/4 236/1/4 242/1/4
f 237/1/4 238/1/4 243/1/4
f 242/2/4 237/2/4 243/2/4
f 243/1/4 238/1/4 244/1/4
f 239/2/4 240/2/4 245/2/4
f 245/2/4 240/2/4 246/2/4
f 241/2/4 242/2/4 247/2/4
f 242/1/4 243/1/4 248/1/4
f 247/2/4 242/2/4 248/2/4
f 248/1/4 243/1/4 249/1/4
f 245/1/4 246/1/4 251/1/4
f 251/1/4 246/1/4 252/1/4
f 247/1/4 248/1/4 253/1/4
f 248/2/4 249/2/4 254/2/4
f 253/1/4 248/1/4 254/1/4
f 249/1/4 250/1/4 255/1/4
f 254/2/4 249/2/4 255/2/4
f 255/1/4 250/1/4 256/1/4
f 257/1/4 258/1/4 259/1/4
f 259/1/4 258/1/4 260/1/4
f 261/1/4 262/1/4 263/1/4
f 263/1/4 262/1/4 264/1/4
f 265/1/4 266/1/4 267/1/4
f 267/1/4 266/1/4 268/1/4
f 269/1/4 270/1/4 271/1/4
f 271/1/4 270/1/4 272/1/4
f 269/1/4 271/1/4 275/1/4
f 273/2/4 274/2/4 277/2/4
f 277/2/4 274/2/4 278/2/4
f 275/1/4 276/1/4 279/1/4
f 269/1/4 275/1/4 279/1/4
f 279/1/4 276/1/4 280/1/4
f 281/2/4 282/2/4 283/2/4
f 283/2/4 282/2/4 284/2/4
f 289/1/5 286/1/5 285/1/5
f 290/1/5 286/1/5 289/1/5
f 291/1/5 288/1/5 287/1/5
f 292/1/5 288/1/5 291/1/5
f 297/1/5 294/1/5 293/1/5
f 298/1/5 294/1/5 297/1/5
f 299/1/5 296/1/5 295/1/5
f 300/1/5 296/1/5 299/1/5
f 304/2/5 302/2/5 301/2/5
f 305/2/5 302/2/5 304/2/5
f 307/1/5 304/1/5 303/1/5
f 308/2/5 305/2/5 304/2/5
f 308/1/5 304/1/5 307/1/5
f 309/1/5 306/1/5 305/1/5
f 309/2/5 305/2/5 308/2/5
f 310/1/5 306/1/5 309/1/5
f 314/2/5 312/2/5 311/2/5
f 315/2/5 312/2/5 314/2/5
f 317/1/5 314/1/5 313/1/5
f 317/1/5 316/1/5 315/1/5
f 317/1/5 315/1/5 314/1/5
f 318/1/5 316/1/5 317/1/5
f 321/2/5 320/2/5 319/2/5
f 322/2/5 320/2/5 321/2/5
f 327/1/5 324/1/5 323/1/5
f 328/2/5 325/2/5 324/2/5
f 328/1/5 324/1/5 327/1/5
f 329/1/5 326/1/5 325/1/5
f 329/2/5 325/2/5 328/2/5
f 330/1/5 326/1/5 329/1/5
f 335/1/5 332/1/5 331/1/5
f 336/2/5 333/2/5 332/2/5
f 336/1/5 332/1/5 335/1/5
f 337/1/5 334/1/5 333/1/5
f 337/2/5 333/2/5 336/2/5
f 338/1/5 334/1/5 337/1/5
f 343/1/5 340/1/5 339/1/5
f 344/1/5 340/1/5 343/1/5
f 345/1/5 342/1/5 341/1/5
f 346/1/5 342/1/5 345/1/5
f 351/1/5 348/1/5 347/1/5
f 352/2/5 349/2/5 348/2/5
f 352/1/5 348/1/5 351/1/5
f 353/1/5 350/1/5 349/1/5
f 353/2/5 349/2/5 352/2/5
f 354/1/5 350/1/5 353/1/5
f 357/2/5 356/2/5 355/2/5
f 358/2/5 356/2/5 357/2/5
f 361/2/5 360/2/5 359/2/5
f 362/2/5 360/2/5 361/2/5
f 365/2/5 364/2/5 363/2/5
f 366/2/5 364/2/5 365/2/5
f 367/1/6 368/1/6 371/1/6
f 368/2/6 369/2/6 372/2/6
f 371/1/6 368/1/6 372/1/6
f 369/1/6 370/1/6 373/1/6
f 372/2/6 369/2/6 373/2/6
f 373/1/6 370/1/6 374/1/6
f 375/1/6 376/1/6 377/1/6
f 377/1/6 376/1/6 378/1/6
f 378/1/6 376/1/6 379/1/6
f 379/1/6 376/1/6 380/1/6
f 381/2/6 382/2/6 383/2/6
f 383/2/6 382/2/6 384/2/6
f 385/3/6 386/3/6 387/3/6
f 387/3/6 386/3/6 388/3/6
f 387/1/6 388/1/6 389/1/6
f 389/1/6 388/1/6 390/1/6
f 391/2/6 392/2/6 393/2/6
f 393/2/6 392/2/6 394/2/6
f 395/3/6 396/3/6 399/3/6
f 396/1/6 397/1/6 400/1/6
f 399/3/6 396/3/6 400/3/6
f 397/3/6 398/3/6 401/3/6
f 400/1/6 397/1/6 401/1/6
f 401/3/6 398/3/6 402/3/6
f 399/1/6 400/1/6 403/1/6
f 400/1/6 401/1/6 403/1/6
f 401/1/6 402/1/6 403/1/6
f 403/1/6 402/1/6 404/1/6
f 404/1/6 402/1/6 405/1/6
f 405/1/6 402/1/6 406/1/6
f 407/1/6 408/1/6 411/1/6
f 409/1/6 410/1/6 411/1/6
f 408/1/6 409/1/6 411/1/6
f 411/1/6 410/1/6 412/1/6
f 413/1/6 414/1/6 415/1/6
f 415/1/6 414/1/6 416/1/6
f 417/1/6 418/1/6 421/1/6
f 421/1/6 418/1/6 422/1/6
f 419/1/6 420/1/6 423/1/6
f 423/1/6 420/1/6 424/1/6
