# MagicaVoxel @ Ephtracy

# group
g endtable_w_light

# material
mtllib endtable_w_light.mtl
usemtl palette

# normals
vn -1 0 0
vn 1 0 0
vn 0 0 1
vn 0 0 -1
vn 0 -1 0
vn 0 1 0

# texcoords
vt 0.419922 0.5
vt 0.509766 0.5
vt 0.537109 0.5

# verts
v -3 0 3
v -3 0 -3
v -3 1 2
v -3 1 -2
v -3 2 2
v -3 2 -2
v -3 3 2
v -3 3 -2
v -3 5 2
v -3 5 -2
v -3 6 3
v -3 6 -3
v -3 9 2
v -3 9 -2
v -3 11 2
v -3 11 -2
v -2 6 1
v -2 6 -1
v -2 8 1
v -2 8 -1
v -2 9 3
v -2 9 2
v -2 9 -2
v -2 9 -3
v -2 11 3
v -2 11 2
v -2 11 1
v -2 11 -1
v -2 11 -2
v -2 11 -3
v -2 12 1
v -2 12 -1
v -1 6 2
v -1 6 1
v -1 6 -1
v -1 6 -2
v -1 8 2
v -1 8 1
v -1 8 -1
v -1 8 -2
v -1 10 1
v -1 10 -1
v -1 11 2
v -1 11 1
v -1 11 -1
v -1 11 -2
v -1 12 2
v -1 12 1
v -1 12 -1
v -1 12 -2
v -1 13 1
v -1 13 -1
v 1 6 1
v 1 6 -1
v 1 7 1
v 1 7 -1
v 1 10 1
v 1 10 -1
v 1 11 1
v 1 11 -1
v 2 1 3
v 2 1 2
v 2 1 -2
v 2 1 -3
v 2 2 3
v 2 2 2
v 2 2 -2
v 2 2 -3
v 2 3 3
v 2 3 2
v 2 3 -2
v 2 3 -3
v 2 5 3
v 2 5 2
v 2 5 -2
v 2 5 -3
v 2 9 2
v 2 9 -2
v 2 10 2
v 2 10 -2
v -2 1 3
v -2 1 2
v -2 1 -2
v -2 1 -3
v -2 2 3
v -2 2 2
v -2 2 -2
v -2 2 -3
v -2 3 3
v -2 3 2
v -2 3 -2
v -2 3 -3
v -2 5 3
v -2 5 2
v -2 5 -2
v -2 5 -3
v -2 9 2
v -2 9 -2
v -2 10 2
v -2 10 -2
v -1 6 1
v -1 6 -1
v -1 7 1
v -1 7 -1
v -1 10 1
v -1 10 -1
v -1 11 1
v -1 11 -1
v 1 6 2
v 1 6 1
v 1 6 -1
v 1 6 -2
v 1 8 2
v 1 8 1
v 1 8 -1
v 1 8 -2
v 1 10 1
v 1 10 -1
v 1 11 2
v 1 11 1
v 1 11 -1
v 1 11 -2
v 1 12 2
v 1 12 1
v 1 12 -1
v 1 12 -2
v 1 13 1
v 1 13 -1
v 2 6 1
v 2 6 -1
v 2 8 1
v 2 8 -1
v 2 9 3
v 2 9 2
v 2 9 -2
v 2 9 -3
v 2 11 3
v 2 11 2
v 2 11 1
v 2 11 -1
v 2 11 -2
v 2 11 -3
v 2 12 1
v 2 12 -1
v 3 0 3
v 3 0 -3
v 3 1 2
v 3 1 -2
v 3 2 2
v 3 2 -2
v 3 3 2
v 3 3 -2
v 3 5 2
v 3 5 -2
v 3 6 3
v 3 6 -3
v 3 9 2
v 3 9 -2
v 3 11 2
v 3 11 -2
v -3 0 3
v -3 6 3
v -2 1 3
v -2 2 3
v -2 3 3
v -2 5 3
v -2 9 3
v -2 11 3
v 2 1 3
v 2 2 3
v 2 3 3
v 2 5 3
v 2 9 3
v 2 11 3
v 3 0 3
v 3 6 3
v -3 9 2
v -3 11 2
v -2 9 2
v -2 11 2
v -1 6 2
v -1 8 2
v -1 11 2
v -1 12 2
v 1 6 2
v 1 8 2
v 1 11 2
v 1 12 2
v 2 9 2
v 2 11 2
v 3 9 2
v 3 11 2
v -2 6 1
v -2 8 1
v -2 11 1
v -2 12 1
v -1 6 1
v -1 8 1
v -1 10 1
v -1 11 1
v -1 12 1
v -1 13 1
v 1 6 1
v 1 8 1
v 1 10 1
v 1 11 1
v 1 12 1
v 1 13 1
v 2 6 1
v 2 8 1
v 2 11 1
v 2 12 1
v -1 6 -1
v -1 7 -1
v -1 10 -1
v -1 11 -1
v 1 6 -1
v 1 7 -1
v 1 10 -1
v 1 11 -1
v -3 1 -2
v -3 2 -2
v -3 3 -2
v -3 5 -2
v -2 1 -2
v -2 2 -2
v -2 3 -2
v -2 5 -2
v -2 9 -2
v -2 10 -2
v 2 1 -2
v 2 2 -2
v 2 3 -2
v 2 5 -2
v 2 9 -2
v 2 10 -2
v 3 1 -2
v 3 2 -2
v 3 3 -2
v 3 5 -2
v -3 1 2
v -3 2 2
v -3 3 2
v -3 5 2
v -2 1 2
v -2 2 2
v -2 3 2
v -2 5 2
v -2 9 2
v -2 10 2
v 2 1 2
v 2 2 2
v 2 3 2
v 2 5 2
v 2 9 2
v 2 10 2
v 3 1 2
v 3 2 2
v 3 3 2
v 3 5 2
v -1 6 1
v -1 7 1
v -1 10 1
v -1 11 1
v 1 6 1
v 1 7 1
v 1 10 1
v 1 11 1
v -2 6 -1
v -2 8 -1
v -2 11 -1
v -2 12 -1
v -1 6 -1
v -1 8 -1
v -1 10 -1
v -1 11 -1
v -1 12 -1
v -1 13 -1
v 1 6 -1
v 1 8 -1
v 1 10 -1
v 1 11 -1
v 1 12 -1
v 1 13 -1
v 2 6 -1
v 2 8 -1
v 2 11 -1
v 2 12 -1
v -3 9 -2
v -3 11 -2
v -2 9 -2
v -2 11 -2
v -1 6 -2
v -1 8 -2
v -1 11 -2
v -1 12 -2
v 1 6 -2
v 1 8 -2
v 1 11 -2
v 1 12 -2
v 2 9 -2
v 2 11 -2
v 3 9 -2
v 3 11 -2
v -3 0 -3
v -3 6 -3
v -2 1 -3
v -2 2 -3
v -2 3 -3
v -2 5 -3
v -2 9 -3
v -2 11 -3
v 2 1 -3
v 2 2 -3
v 2 3 -3
v 2 5 -3
v 2 9 -3
v 2 11 -3
v 3 0 -3
v 3 6 -3
v -3 0 3
v 3 0 3
v -3 0 -3
v 3 0 -3
v -2 2 3
v 2 2 3
v -3 2 2
v -2 2 2
v 2 2 2
v 3 2 2
v -3 2 -2
v -2 2 -2
v 2 2 -2
v 3 2 -2
v -2 2 -3
v 2 2 -3
v -2 5 3
v 2 5 3
v -3 5 2
v -2 5 2
v 2 5 2
v 3 5 2
v -3 5 -2
v -2 5 -2
v 2 5 -2
v 3 5 -2
v -2 5 -3
v 2 5 -3
v -1 7 1
v 1 7 1
v -1 7 -1
v 1 7 -1
v -2 9 3
v 2 9 3
v -3 9 2
v -2 9 2
v 2 9 2
v 3 9 2
v -3 9 -2
v -2 9 -2
v 2 9 -2
v 3 9 -2
v -2 9 -3
v 2 9 -3
v -2 10 2
v 2 10 2
v -1 10 1
v 1 10 1
v -1 10 -1
v 1 10 -1
v -2 10 -2
v 2 10 -2
v -1 11 1
v 1 11 1
v -1 11 -1
v 1 11 -1
v -2 1 3
v 2 1 3
v -3 1 2
v -2 1 2
v 2 1 2
v 3 1 2
v -3 1 -2
v -2 1 -2
v 2 1 -2
v 3 1 -2
v -2 1 -3
v 2 1 -3
v -2 3 3
v 2 3 3
v -3 3 2
v -2 3 2
v 2 3 2
v 3 3 2
v -3 3 -2
v -2 3 -2
v 2 3 -2
v 3 3 -2
v -2 3 -3
v 2 3 -3
v -3 6 3
v 3 6 3
v -1 6 2
v 1 6 2
v -2 6 1
v -1 6 1
v 1 6 1
v 2 6 1
v -2 6 -1
v -1 6 -1
v 1 6 -1
v 2 6 -1
v -1 6 -2
v 1 6 -2
v -3 6 -3
v 3 6 -3
v -1 8 2
v 1 8 2
v -2 8 1
v -1 8 1
v 1 8 1
v 2 8 1
v -2 8 -1
v -1 8 -1
v 1 8 -1
v 2 8 -1
v -1 8 -2
v 1 8 -2
v -1 10 1
v 1 10 1
v -1 10 -1
v 1 10 -1
v -2 11 3
v 2 11 3
v -3 11 2
v -2 11 2
v -1 11 2
v 1 11 2
v 2 11 2
v 3 11 2
v -2 11 1
v -1 11 1
v 1 11 1
v 2 11 1
v -2 11 -1
v -1 11 -1
v 1 11 -1
v 2 11 -1
v -3 11 -2
v -2 11 -2
v -1 11 -2
v 1 11 -2
v 2 11 -2
v 3 11 -2
v -2 11 -3
v 2 11 -3
v -1 12 2
v 1 12 2
v -2 12 1
v -1 12 1
v 1 12 1
v 2 12 1
v -2 12 -1
v -1 12 -1
v 1 12 -1
v 2 12 -1
v -1 12 -2
v 1 12 -2
v -1 13 1
v 1 13 1
v -1 13 -1
v 1 13 -1

# faces
f 3/3/1 2/3/1 1/3/1
f 4/3/1 2/3/1 3/3/1
f 5/3/1 3/3/1 1/3/1
f 6/3/1 2/3/1 4/3/1
f 7/3/1 5/3/1 1/3/1
f 7/3/1 6/3/1 5/3/1
f 8/3/1 2/3/1 6/3/1
f 8/3/1 6/3/1 7/3/1
f 9/3/1 7/3/1 1/3/1
f 10/3/1 2/3/1 8/3/1
f 11/3/1 9/3/1 1/3/1
f 11/3/1 10/3/1 9/3/1
f 12/3/1 2/3/1 10/3/1
f 12/3/1 10/3/1 11/3/1
f 15/1/1 14/1/1 13/1/1
f 16/1/1 14/1/1 15/1/1
f 19/2/1 18/2/1 17/2/1
f 20/2/1 18/2/1 19/2/1
f 25/1/1 22/1/1 21/1/1
f 26/1/1 22/1/1 25/1/1
f 29/1/1 24/1/1 23/1/1
f 30/1/1 24/1/1 29/1/1
f 31/1/1 28/1/1 27/1/1
f 32/1/1 28/1/1 31/1/1
f 37/2/1 34/2/1 33/2/1
f 38/2/1 34/2/1 37/2/1
f 39/2/1 36/2/1 35/2/1
f 40/2/1 36/2/1 39/2/1
f 41/2/1 39/2/1 38/2/1
f 42/2/1 39/2/1 41/2/1
f 47/1/1 44/1/1 43/1/1
f 48/1/1 44/1/1 47/1/1
f 49/1/1 46/1/1 45/1/1
f 50/1/1 46/1/1 49/1/1
f 51/1/1 49/1/1 48/1/1
f 52/1/1 49/1/1 51/1/1
f 55/2/1 54/2/1 53/2/1
f 56/2/1 54/2/1 55/2/1
f 59/1/1 58/1/1 57/1/1
f 60/1/1 58/1/1 59/1/1
f 65/3/1 62/3/1 61/3/1
f 66/3/1 62/3/1 65/3/1
f 67/3/1 64/3/1 63/3/1
f 68/3/1 64/3/1 67/3/1
f 73/3/1 70/3/1 69/3/1
f 74/3/1 70/3/1 73/3/1
f 75/3/1 72/3/1 71/3/1
f 76/3/1 72/3/1 75/3/1
f 79/1/1 78/1/1 77/1/1
f 80/1/1 78/1/1 79/1/1
f 81/3/2 82/3/2 85/3/2
f 85/3/2 82/3/2 86/3/2
f 83/3/2 84/3/2 87/3/2
f 87/3/2 84/3/2 88/3/2
f 89/3/2 90/3/2 93/3/2
f 93/3/2 90/3/2 94/3/2
f 91/3/2 92/3/2 95/3/2
f 95/3/2 92/3/2 96/3/2
f 97/1/2 98/1/2 99/1/2
f 99/1/2 98/1/2 100/1/2
f 101/2/2 102/2/2 103/2/2
f 103/2/2 102/2/2 104/2/2
f 105/1/2 106/1/2 107/1/2
f 107/1/2 106/1/2 108/1/2
f 109/2/2 110/2/2 113/2/2
f 113/2/2 110/2/2 114/2/2
f 111/2/2 112/2/2 115/2/2
f 115/2/2 112/2/2 116/2/2
f 114/2/2 115/2/2 117/2/2
f 117/2/2 115/2/2 118/2/2
f 119/1/2 120/1/2 123/1/2
f 123/1/2 120/1/2 124/1/2
f 121/1/2 122/1/2 125/1/2
f 125/1/2 122/1/2 126/1/2
f 124/1/2 125/1/2 127/1/2
f 127/1/2 125/1/2 128/1/2
f 129/2/2 130/2/2 131/2/2
f 131/2/2 130/2/2 132/2/2
f 133/1/2 134/1/2 137/1/2
f 137/1/2 134/1/2 138/1/2
f 135/1/2 136/1/2 141/1/2
f 141/1/2 136/1/2 142/1/2
f 139/1/2 140/1/2 143/1/2
f 143/1/2 140/1/2 144/1/2
f 145/3/2 146/3/2 147/3/2
f 147/3/2 146/3/2 148/3/2
f 145/3/2 147/3/2 149/3/2
f 148/3/2 146/3/2 150/3/2
f 145/3/2 149/3/2 151/3/2
f 149/3/2 150/3/2 151/3/2
f 150/3/2 146/3/2 152/3/2
f 151/3/2 150/3/2 152/3/2
f 145/3/2 151/3/2 153/3/2
f 152/3/2 146/3/2 154/3/2
f 145/3/2 153/3/2 155/3/2
f 153/3/2 154/3/2 155/3/2
f 154/3/2 146/3/2 156/3/2
f 155/3/2 154/3/2 156/3/2
f 157/1/2 158/1/2 159/1/2
f 159/1/2 158/1/2 160/1/2
f 163/3/3 162/3/3 161/3/3
f 164/3/3 162/3/3 163/3/3
f 165/3/3 162/3/3 164/3/3
f 166/3/3 162/3/3 165/3/3
f 169/3/3 163/3/3 161/3/3
f 170/3/3 165/3/3 164/3/3
f 171/3/3 165/3/3 170/3/3
f 172/3/3 162/3/3 166/3/3
f 173/1/3 168/1/3 167/1/3
f 174/1/3 168/1/3 173/1/3
f 175/3/3 172/3/3 171/3/3
f 175/3/3 171/3/3 170/3/3
f 175/3/3 169/3/3 161/3/3
f 175/3/3 170/3/3 169/3/3
f 176/3/3 162/3/3 172/3/3
f 176/3/3 172/3/3 175/3/3
f 179/1/3 178/1/3 177/1/3
f 180/1/3 178/1/3 179/1/3
f 185/2/3 182/2/3 181/2/3
f 186/2/3 182/2/3 185/2/3
f 187/1/3 184/1/3 183/1/3
f 188/1/3 184/1/3 187/1/3
f 191/1/3 190/1/3 189/1/3
f 192/1/3 190/1/3 191/1/3
f 197/2/3 194/2/3 193/2/3
f 198/2/3 194/2/3 197/2/3
f 200/1/3 196/1/3 195/1/3
f 201/1/3 196/1/3 200/1/3
f 204/2/3 199/2/3 198/2/3
f 205/2/3 199/2/3 204/2/3
f 207/1/3 202/1/3 201/1/3
f 208/1/3 202/1/3 207/1/3
f 209/2/3 204/2/3 203/2/3
f 210/2/3 204/2/3 209/2/3
f 211/1/3 207/1/3 206/1/3
f 212/1/3 207/1/3 211/1/3
f 217/2/3 214/2/3 213/2/3
f 218/2/3 214/2/3 217/2/3
f 219/1/3 216/1/3 215/1/3
f 220/1/3 216/1/3 219/1/3
f 225/3/3 222/3/3 221/3/3
f 226/3/3 222/3/3 225/3/3
f 227/3/3 224/3/3 223/3/3
f 228/3/3 224/3/3 227/3/3
f 235/1/3 230/1/3 229/1/3
f 236/1/3 230/1/3 235/1/3
f 237/3/3 232/3/3 231/3/3
f 238/3/3 232/3/3 237/3/3
f 239/3/3 234/3/3 233/3/3
f 240/3/3 234/3/3 239/3/3
f 241/3/4 242/3/4 245/3/4
f 245/3/4 242/3/4 246/3/4
f 243/3/4 244/3/4 247/3/4
f 247/3/4 244/3/4 248/3/4
f 249/1/4 250/1/4 255/1/4
f 255/1/4 250/1/4 256/1/4
f 251/3/4 252/3/4 257/3/4
f 257/3/4 252/3/4 258/3/4
f 253/3/4 254/3/4 259/3/4
f 259/3/4 254/3/4 260/3/4
f 261/2/4 262/2/4 265/2/4
f 265/2/4 262/2/4 266/2/4
f 263/1/4 264/1/4 267/1/4
f 267/1/4 264/1/4 268/1/4
f 269/2/4 270/2/4 273/2/4
f 273/2/4 270/2/4 274/2/4
f 271/1/4 272/1/4 276/1/4
f 276/1/4 272/1/4 277/1/4
f 274/2/4 275/2/4 280/2/4
f 280/2/4 275/2/4 281/2/4
f 277/1/4 278/1/4 283/1/4
f 283/1/4 278/1/4 284/1/4
f 279/2/4 280/2/4 285/2/4
f 285/2/4 280/2/4 286/2/4
f 282/1/4 283/1/4 287/1/4
f 287/1/4 283/1/4 288/1/4
f 289/1/4 290/1/4 291/1/4
f 291/1/4 290/1/4 292/1/4
f 293/2/4 294/2/4 297/2/4
f 297/2/4 294/2/4 298/2/4
f 295/1/4 296/1/4 299/1/4
f 299/1/4 296/1/4 300/1/4
f 301/1/4 302/1/4 303/1/4
f 303/1/4 302/1/4 304/1/4
f 305/3/4 306/3/4 307/3/4
f 307/3/4 306/3/4 308/3/4
f 308/3/4 306/3/4 309/3/4
f 309/3/4 306/3/4 310/3/4
f 305/3/4 307/3/4 313/3/4
f 308/3/4 309/3/4 314/3/4
f 314/3/4 309/3/4 315/3/4
f 310/3/4 306/3/4 316/3/4
f 311/1/4 312/1/4 317/1/4
f 317/1/4 312/1/4 318/1/4
f 315/3/4 316/3/4 319/3/4
f 314/3/4 315/3/4 319/3/4
f 305/3/4 313/3/4 319/3/4
f 313/3/4 314/3/4 319/3/4
f 316/3/4 306/3/4 320/3/4
f 319/3/4 316/3/4 320/3/4
f 323/3/5 322/3/5 321/3/5
f 324/3/5 322/3/5 323/3/5
f 328/3/5 326/3/5 325/3/5
f 329/3/5 326/3/5 328/3/5
f 331/3/5 328/3/5 327/3/5
f 331/3/5 330/3/5 329/3/5
f 331/3/5 329/3/5 328/3/5
f 332/3/5 330/3/5 331/3/5
f 333/3/5 330/3/5 332/3/5
f 334/3/5 330/3/5 333/3/5
f 335/3/5 333/3/5 332/3/5
f 336/3/5 333/3/5 335/3/5
f 340/3/5 338/3/5 337/3/5
f 341/3/5 338/3/5 340/3/5
f 343/3/5 340/3/5 339/3/5
f 343/3/5 342/3/5 341/3/5
f 343/3/5 341/3/5 340/3/5
f 344/3/5 342/3/5 343/3/5
f 345/3/5 342/3/5 344/3/5
f 346/3/5 342/3/5 345/3/5
f 347/3/5 345/3/5 344/3/5
f 348/3/5 345/3/5 347/3/5
f 351/2/5 350/2/5 349/2/5
f 352/2/5 350/2/5 351/2/5
f 356/1/5 354/1/5 353/1/5
f 357/1/5 354/1/5 356/1/5
f 359/1/5 356/1/5 355/1/5
f 360/1/5 356/1/5 359/1/5
f 361/1/5 358/1/5 357/1/5
f 362/1/5 358/1/5 361/1/5
f 363/1/5 361/1/5 360/1/5
f 364/1/5 361/1/5 363/1/5
f 367/1/5 366/1/5 365/1/5
f 368/1/5 366/1/5 367/1/5
f 369/1/5 367/1/5 365/1/5
f 370/1/5 366/1/5 368/1/5
f 371/1/5 369/1/5 365/1/5
f 371/1/5 370/1/5 369/1/5
f 372/1/5 366/1/5 370/1/5
f 372/1/5 370/1/5 371/1/5
f 375/1/5 374/1/5 373/1/5
f 376/1/5 374/1/5 375/1/5
f 377/3/6 378/3/6 380/3/6
f 380/3/6 378/3/6 381/3/6
f 379/3/6 380/3/6 383/3/6
f 381/3/6 382/3/6 383/3/6
f 380/3/6 381/3/6 383/3/6
f 383/3/6 382/3/6 384/3/6
f 384/3/6 382/3/6 385/3/6
f 385/3/6 382/3/6 386/3/6
f 384/3/6 385/3/6 387/3/6
f 387/3/6 385/3/6 388/3/6
f 389/3/6 390/3/6 392/3/6
f 392/3/6 390/3/6 393/3/6
f 391/3/6 392/3/6 395/3/6
f 393/3/6 394/3/6 395/3/6
f 392/3/6 393/3/6 395/3/6
f 395/3/6 394/3/6 396/3/6
f 396/3/6 394/3/6 397/3/6
f 397/3/6 394/3/6 398/3/6
f 396/3/6 397/3/6 399/3/6
f 399/3/6 397/3/6 400/3/6
f 401/3/6 402/3/6 403/3/6
f 403/3/6 402/3/6 404/3/6
f 401/3/6 403/3/6 405/3/6
f 405/3/6 403/3/6 406/3/6
f 404/3/6 402/3/6 407/3/6
f 407/3/6 402/3/6 408/3/6
f 401/3/6 405/3/6 409/3/6
f 406/3/6 407/3/6 410/3/6
f 410/3/6 407/3/6 411/3/6
f 408/3/6 402/3/6 412/3/6
f 409/3/6 410/3/6 413/3/6
f 411/3/6 412/3/6 414/3/6
f 409/3/6 413/3/6 415/3/6
f 413/3/6 414/3/6 415/3/6
f 401/3/6 409/3/6 415/3/6
f 414/3/6 412/3/6 416/3/6
f 415/3/6 414/3/6 416/3/6
f 412/3/6 402/3/6 416/3/6
f 417/2/6 418/2/6 420/2/6
f 420/2/6 418/2/6 421/2/6
f 419/2/6 420/2/6 423/2/6
f 423/2/6 420/2/6 424/2/6
f 421/2/6 422/2/6 425/2/6
f 425/2/6 422/2/6 426/2/6
f 424/2/6 425/2/6 427/2/6
f 427/2/6 425/2/6 428/2/6
f 429/2/6 430/2/6 431/2/6
f 431/2/6 430/2/6 432/2/6
f 433/1/6 434/1/6 436/1/6
f 436/1/6 434/1/6 437/1/6
f 437/1/6 434/1/6 438/1/6
f 438/1/6 434/1/6 439/1/6
f 435/1/6 436/1/6 441/1/6
f 436/1/6 437/1/6 441/1/6
f 441/1/6 437/1/6 442/1/6
f 439/1/6 440/1/6 443/1/6
f 438/1/6 439/1/6 443/1/6
f 443/1/6 440/1/6 444/1/6
f 435/1/6 441/1/6 445/1/6
f 444/1/6 440/1/6 448/1/6
f 445/1/6 446/1/6 449/1/6
f 435/1/6 445/1/6 449/1/6
f 449/1/6 446/1/6 450/1/6
f 450/1/6 446/1/6 451/1/6
f 447/1/6 448/1/6 452/1/6
f 448/1/6 440/1/6 453/1/6
f 452/1/6 448/1/6 453/1/6
f 453/1/6 440/1/6 454/1/6
f 450/1/6 451/1/6 455/1/6
f 451/1/6 452/1/6 455/1/6
f 452/1/6 453/1/6 455/1/6
f 455/1/6 453/1/6 456/1/6
f 457/1/6 458/1/6 460/1/6
f 460/1/6 458/1/6 461/1/6
f 459/1/6 460/1/6 463/1/6
f 463/1/6 460/1/6 464/1/6
f 461/1/6 462/1/6 465/1/6
f 465/1/6 462/1/6 466/1/6
f 464/1/6 465/1/6 467/1/6
f 467/1/6 465/1/6 468/1/6
f 469/1/6 470/1/6 471/1/6
f 471/1/6 470/1/6 472/1/6
