# MagicaVoxel @ Ephtracy

# group
g flower_pot_Cactus

# material
mtllib flower_pot_Cactus.mtl
usemtl palette

# normals
vn -1 0 0
vn 1 0 0
vn 0 0 1
vn 0 0 -1
vn 0 -1 0
vn 0 1 0

# texcoords
vt 0.369141 0.5
vt 0.396484 0.5
vt 0.818359 0.5

# verts
v -8 16 10
v -8 16 9
v -8 17 10
v -8 17 9
v -7 14 10
v -7 14 9
v -7 16 10
v -7 16 9
v -5 13 10
v -5 13 9
v -5 14 10
v -5 14 9
v -4 8 11
v -4 8 8
v -4 11 11
v -4 11 8
v -4 12 10
v -4 12 9
v -4 13 10
v -4 13 9
v -4 14 12
v -4 14 11
v -4 14 8
v -4 14 7
v -4 15 12
v -4 15 11
v -4 15 10
v -4 15 9
v -4 16 8
v -4 16 7
v -4 17 10
v -4 17 9
v -3 11 10
v -3 11 9
v -3 12 11
v -3 12 10
v -3 12 9
v -3 12 7
v -3 13 12
v -3 13 11
v -3 13 9
v -3 13 8
v -3 14 12
v -3 14 11
v -3 14 10
v -3 14 8
v -3 14 7
v -3 14 6
v -3 15 7
v -3 15 6
v -3 17 10
v -3 17 9
v -3 19 10
v -3 19 9
v -1 11 10
v -1 11 9
v -1 13 10
v -1 13 9
v -1 16 10
v -1 16 9
v -1 17 10
v -1 17 9
v 0 13 10
v 0 13 9
v 0 14 12
v 0 14 10
v 0 14 9
v 0 14 7
v 0 15 11
v 0 15 10
v 0 15 9
v 0 15 8
v 0 16 12
v 0 16 11
v 0 16 10
v 0 16 9
v 0 16 7
v 0 16 6
v 0 17 10
v 0 17 9
v 0 17 8
v 0 17 7
v 0 17 6
v 0 17 5
v 0 18 7
v 0 18 5
v 0 19 10
v 0 19 9
v 2 15 10
v 2 15 9
v 2 16 10
v 2 16 9
v 3 16 10
v 3 16 9
v 3 17 10
v 3 17 9
v -6 15 10
v -6 15 9
v -6 17 10
v -6 17 9
v -3 13 10
v -3 13 9
v -3 14 10
v -3 15 8
v -3 15 7
v -3 16 10
v -3 16 9
v -3 16 8
v -3 16 7
v -2 11 10
v -2 11 9
v -2 12 11
v -2 12 10
v -2 12 9
v -2 12 7
v -2 13 12
v -2 13 11
v -2 13 10
v -2 13 8
v -2 14 11
v -2 14 10
v -2 14 7
v -2 14 6
v -2 15 12
v -2 15 11
v -2 15 8
v -2 15 6
v -2 16 10
v -2 16 9
v -2 19 10
v -2 19 9
v 0 11 10
v 0 11 9
v 0 12 10
v 0 12 9
v 1 8 11
v 1 8 8
v 1 11 11
v 1 11 8
v 1 12 10
v 1 12 9
v 1 13 10
v 1 13 9
v 1 14 12
v 1 14 10
v 1 14 9
v 1 14 7
v 1 15 11
v 1 15 10
v 1 15 9
v 1 15 8
v 1 16 12
v 1 16 11
v 1 16 7
v 1 16 6
v 1 17 8
v 1 17 7
v 1 17 6
v 1 17 5
v 1 18 7
v 1 18 5
v 1 19 10
v 1 19 9
v 2 13 10
v 2 13 9
v 2 14 10
v 2 14 9
v 3 14 10
v 3 14 9
v 3 15 10
v 3 15 9
v 4 15 10
v 4 15 9
v 4 17 10
v 4 17 9
v -4 14 12
v -4 15 12
v -3 13 12
v -3 14 12
v -2 13 12
v -2 15 12
v 0 14 12
v 0 16 12
v 1 14 12
v 1 16 12
v -4 8 11
v -4 11 11
v -3 12 11
v -3 13 11
v -2 12 11
v -2 13 11
v 1 8 11
v 1 11 11
v -8 16 10
v -8 17 10
v -7 14 10
v -7 16 10
v -6 15 10
v -6 17 10
v -5 13 10
v -5 14 10
v -4 12 10
v -4 13 10
v -4 15 10
v -4 17 10
v -3 11 10
v -3 12 10
v -3 14 10
v -3 16 10
v -3 17 10
v -3 19 10
v -2 11 10
v -2 12 10
v -2 16 10
v -2 19 10
v -1 11 10
v -1 13 10
v -1 16 10
v -1 17 10
v 0 11 10
v 0 12 10
v 0 13 10
v 0 14 10
v 0 15 10
v 0 16 10
v 0 17 10
v 0 19 10
v 1 12 10
v 1 13 10
v 1 14 10
v 1 15 10
v 1 19 10
v 2 13 10
v 2 14 10
v 2 15 10
v 2 16 10
v 3 14 10
v 3 15 10
v 3 16 10
v 3 17 10
v 4 15 10
v 4 17 10
v -4 14 8
v -4 16 8
v -3 13 8
v -3 14 8
v -3 15 8
v -3 16 8
v -2 13 8
v -2 15 8
v 0 15 8
v 0 17 8
v 1 15 8
v 1 17 8
v 0 17 7
v 0 18 7
v 1 17 7
v 1 18 7
v -4 14 11
v -4 15 11
v -3 14 11
v -2 14 11
v -2 15 11
v 0 15 11
v 0 16 11
v 1 15 11
v 1 16 11
v -3 13 10
v -3 14 10
v -2 13 10
v -2 14 10
v -8 16 9
v -8 17 9
v -7 14 9
v -7 16 9
v -6 15 9
v -6 17 9
v -5 13 9
v -5 14 9
v -4 12 9
v -4 13 9
v -4 15 9
v -4 17 9
v -3 11 9
v -3 12 9
v -3 13 9
v -3 16 9
v -3 17 9
v -3 19 9
v -2 11 9
v -2 12 9
v -2 16 9
v -2 19 9
v -1 11 9
v -1 13 9
v -1 16 9
v -1 17 9
v 0 11 9
v 0 12 9
v 0 13 9
v 0 14 9
v 0 15 9
v 0 16 9
v 0 17 9
v 0 19 9
v 1 12 9
v 1 13 9
v 1 14 9
v 1 15 9
v 1 19 9
v 2 13 9
v 2 14 9
v 2 15 9
v 2 16 9
v 3 14 9
v 3 15 9
v 3 16 9
v 3 17 9
v 4 15 9
v 4 17 9
v -4 8 8
v -4 11 8
v 1 8 8
v 1 11 8
v -4 14 7
v -4 16 7
v -3 12 7
v -3 14 7
v -3 15 7
v -3 16 7
v -2 12 7
v -2 14 7
v 0 14 7
v 0 16 7
v 1 14 7
v 1 16 7
v -3 14 6
v -3 15 6
v -2 14 6
v -2 15 6
v 0 16 6
v 0 17 6
v 1 16 6
v 1 17 6
v 0 17 5
v 0 18 5
v 1 17 5
v 1 18 5
v -4 8 11
v 1 8 11
v -3 8 10
v 0 8 10
v -3 8 9
v 0 8 9
v -4 8 8
v 1 8 8
v -3 12 11
v -2 12 11
v -4 12 10
v -3 12 10
v -2 12 10
v 0 12 10
v 1 12 10
v -4 12 9
v -3 12 9
v -2 12 9
v 0 12 9
v 1 12 9
v -3 12 7
v -2 12 7
v -3 13 12
v -2 13 12
v -3 13 11
v -2 13 11
v -5 13 10
v -4 13 10
v 1 13 10
v 2 13 10
v -5 13 9
v -4 13 9
v 1 13 9
v 2 13 9
v -4 14 12
v -3 14 12
v 0 14 12
v 1 14 12
v -4 14 11
v -3 14 11
v -7 14 10
v -5 14 10
v 0 14 10
v 1 14 10
v 2 14 10
v 3 14 10
v -7 14 9
v -5 14 9
v 0 14 9
v 1 14 9
v 2 14 9
v 3 14 9
v -4 14 8
v -3 14 8
v -4 14 7
v -3 14 7
v -2 14 7
v 0 14 7
v 1 14 7
v -3 14 6
v -2 14 6
v 3 15 10
v 4 15 10
v 3 15 9
v 4 15 9
v -8 16 10
v -7 16 10
v -3 16 10
v -2 16 10
v -1 16 10
v 0 16 10
v -8 16 9
v -7 16 9
v -3 16 9
v -2 16 9
v -1 16 9
v 0 16 9
v 0 16 7
v 1 16 7
v 0 16 6
v 1 16 6
v 0 17 6
v 1 17 6
v 0 17 5
v 1 17 5
v -4 11 11
v 1 11 11
v -3 11 10
v -2 11 10
v -1 11 10
v 0 11 10
v -3 11 9
v -2 11 9
v -1 11 9
v 0 11 9
v -4 11 8
v 1 11 8
v -3 13 10
v -2 13 10
v -1 13 10
v 0 13 10
v -3 13 9
v -1 13 9
v 0 13 9
v -3 13 8
v -2 13 8
v -3 14 11
v -2 14 11
v -3 14 10
v -2 14 10
v -4 15 12
v -2 15 12
v -4 15 11
v -2 15 11
v 0 15 11
v 1 15 11
v -6 15 10
v -4 15 10
v 0 15 10
v 1 15 10
v 2 15 10
v -6 15 9
v -4 15 9
v 0 15 9
v 1 15 9
v 2 15 9
v -3 15 8
v -2 15 8
v 0 15 8
v 1 15 8
v -3 15 7
v -3 15 6
v -2 15 6
v 0 16 12
v 1 16 12
v 0 16 11
v 1 16 11
v 2 16 10
v 3 16 10
v 2 16 9
v 3 16 9
v -4 16 8
v -3 16 8
v -4 16 7
v -3 16 7
v -8 17 10
v -6 17 10
v -4 17 10
v -3 17 10
v -1 17 10
v 0 17 10
v 3 17 10
v 4 17 10
v -8 17 9
v -6 17 9
v -4 17 9
v -3 17 9
v -1 17 9
v 0 17 9
v 3 17 9
v 4 17 9
v 0 17 8
v 1 17 8
v 0 17 7
v 1 17 7
v 0 18 7
v 1 18 7
v 0 18 5
v 1 18 5
v -3 19 10
v -2 19 10
v 0 19 10
v 1 19 10
v -3 19 9
v -2 19 9
v 0 19 9
v 1 19 9

# faces
f 3/3/1 2/3/1 1/3/1
f 4/3/1 2/3/1 3/3/1
f 7/3/1 6/3/1 5/3/1
f 8/3/1 6/3/1 7/3/1
f 11/3/1 10/3/1 9/3/1
f 12/3/1 10/3/1 11/3/1
f 15/2/1 14/2/1 13/2/1
f 16/2/1 14/2/1 15/2/1
f 19/3/1 18/3/1 17/3/1
f 20/3/1 18/3/1 19/3/1
f 25/3/1 22/3/1 21/3/1
f 26/3/1 22/3/1 25/3/1
f 29/3/1 24/3/1 23/3/1
f 30/3/1 24/3/1 29/3/1
f 31/3/1 28/3/1 27/3/1
f 32/3/1 28/3/1 31/3/1
f 36/3/1 34/3/1 33/3/1
f 37/3/1 34/3/1 36/3/1
f 40/3/1 36/3/1 35/3/1
f 41/3/1 38/3/1 37/3/1
f 42/3/1 38/3/1 41/3/1
f 43/3/1 40/3/1 39/3/1
f 44/3/1 36/3/1 40/3/1
f 44/3/1 40/3/1 43/3/1
f 45/3/1 36/3/1 44/3/1
f 46/3/1 38/3/1 42/3/1
f 47/3/1 38/3/1 46/3/1
f 49/3/1 48/3/1 47/3/1
f 50/3/1 48/3/1 49/3/1
f 53/3/1 52/3/1 51/3/1
f 54/3/1 52/3/1 53/3/1
f 57/3/1 56/3/1 55/3/1
f 58/3/1 56/3/1 57/3/1
f 61/3/1 60/3/1 59/3/1
f 62/3/1 60/3/1 61/3/1
f 66/3/1 64/3/1 63/3/1
f 67/3/1 64/3/1 66/3/1
f 69/3/1 66/3/1 65/3/1
f 69/3/1 68/3/1 67/3/1
f 69/3/1 67/3/1 66/3/1
f 70/3/1 68/3/1 69/3/1
f 71/3/1 68/3/1 70/3/1
f 72/3/1 68/3/1 71/3/1
f 73/3/1 69/3/1 65/3/1
f 74/3/1 69/3/1 73/3/1
f 75/3/1 71/3/1 70/3/1
f 76/3/1 71/3/1 75/3/1
f 77/3/1 68/3/1 72/3/1
f 81/3/1 78/3/1 77/3/1
f 81/3/1 77/3/1 72/3/1
f 82/3/1 78/3/1 81/3/1
f 83/3/1 78/3/1 82/3/1
f 85/3/1 84/3/1 83/3/1
f 85/3/1 83/3/1 82/3/1
f 86/3/1 84/3/1 85/3/1
f 87/3/1 80/3/1 79/3/1
f 88/3/1 80/3/1 87/3/1
f 91/3/1 90/3/1 89/3/1
f 92/3/1 90/3/1 91/3/1
f 95/3/1 94/3/1 93/3/1
f 96/3/1 94/3/1 95/3/1
f 97/3/2 98/3/2 99/3/2
f 99/3/2 98/3/2 100/3/2
f 101/3/2 102/3/2 103/3/2
f 103/3/2 102/3/2 106/3/2
f 106/3/2 102/3/2 107/3/2
f 104/3/2 105/3/2 108/3/2
f 108/3/2 105/3/2 109/3/2
f 110/3/2 111/3/2 113/3/2
f 113/3/2 111/3/2 114/3/2
f 112/3/2 113/3/2 117/3/2
f 114/3/2 115/3/2 117/3/2
f 113/3/2 114/3/2 117/3/2
f 117/3/2 115/3/2 118/3/2
f 118/3/2 115/3/2 119/3/2
f 116/3/2 117/3/2 120/3/2
f 117/3/2 118/3/2 120/3/2
f 120/3/2 118/3/2 121/3/2
f 119/3/2 115/3/2 122/3/2
f 116/3/2 120/3/2 124/3/2
f 124/3/2 120/3/2 125/3/2
f 122/3/2 123/3/2 126/3/2
f 119/3/2 122/3/2 126/3/2
f 126/3/2 123/3/2 127/3/2
f 128/3/2 129/3/2 130/3/2
f 130/3/2 129/3/2 131/3/2
f 132/3/2 133/3/2 134/3/2
f 134/3/2 133/3/2 135/3/2
f 136/2/2 137/2/2 138/2/2
f 138/2/2 137/2/2 139/2/2
f 140/3/2 141/3/2 142/3/2
f 142/3/2 141/3/2 143/3/2
f 144/3/2 145/3/2 148/3/2
f 148/3/2 145/3/2 149/3/2
f 146/3/2 147/3/2 150/3/2
f 150/3/2 147/3/2 151/3/2
f 144/3/2 148/3/2 152/3/2
f 152/3/2 148/3/2 153/3/2
f 151/3/2 147/3/2 154/3/2
f 154/3/2 155/3/2 156/3/2
f 151/3/2 154/3/2 156/3/2
f 156/3/2 155/3/2 157/3/2
f 157/3/2 155/3/2 158/3/2
f 158/3/2 159/3/2 160/3/2
f 157/3/2 158/3/2 160/3/2
f 160/3/2 159/3/2 161/3/2
f 149/3/2 150/3/2 162/3/2
f 162/3/2 150/3/2 163/3/2
f 164/3/2 165/3/2 166/3/2
f 166/3/2 165/3/2 167/3/2
f 168/3/2 169/3/2 170/3/2
f 170/3/2 169/3/2 171/3/2
f 172/3/2 173/3/2 174/3/2
f 174/3/2 173/3/2 175/3/2
f 179/3/3 177/3/3 176/3/3
f 180/3/3 179/3/3 178/3/3
f 181/3/3 177/3/3 179/3/3
f 181/3/3 179/3/3 180/3/3
f 184/3/3 183/3/3 182/3/3
f 185/3/3 183/3/3 184/3/3
f 190/3/3 189/3/3 188/3/3
f 191/3/3 189/3/3 190/3/3
f 192/2/3 187/2/3 186/2/3
f 193/2/3 187/2/3 192/2/3
f 197/3/3 195/3/3 194/3/3
f 198/3/3 197/3/3 196/3/3
f 199/3/3 195/3/3 197/3/3
f 199/3/3 197/3/3 198/3/3
f 201/3/3 198/3/3 196/3/3
f 203/3/3 201/3/3 200/3/3
f 204/3/3 198/3/3 201/3/3
f 204/3/3 201/3/3 203/3/3
f 207/3/3 203/3/3 202/3/3
f 207/3/3 205/3/3 204/3/3
f 207/3/3 204/3/3 203/3/3
f 208/3/3 205/3/3 207/3/3
f 209/3/3 205/3/3 208/3/3
f 210/3/3 205/3/3 209/3/3
f 212/3/3 207/3/3 206/3/3
f 213/3/3 207/3/3 212/3/3
f 214/3/3 210/3/3 209/3/3
f 214/3/3 211/3/3 210/3/3
f 215/3/3 211/3/3 214/3/3
f 220/3/3 217/3/3 216/3/3
f 221/3/3 217/3/3 220/3/3
f 222/3/3 217/3/3 221/3/3
f 225/3/3 219/3/3 218/3/3
f 226/3/3 219/3/3 225/3/3
f 228/3/3 223/3/3 222/3/3
f 228/3/3 222/3/3 221/3/3
f 229/3/3 223/3/3 228/3/3
f 230/3/3 223/3/3 229/3/3
f 231/3/3 227/3/3 226/3/3
f 231/3/3 226/3/3 225/3/3
f 231/3/3 225/3/3 224/3/3
f 232/3/3 227/3/3 231/3/3
f 233/3/3 230/3/3 229/3/3
f 233/3/3 231/3/3 230/3/3
f 234/3/3 231/3/3 233/3/3
f 235/3/3 231/3/3 234/3/3
f 237/3/3 236/3/3 235/3/3
f 237/3/3 235/3/3 234/3/3
f 238/3/3 236/3/3 237/3/3
f 239/3/3 236/3/3 238/3/3
f 241/3/3 240/3/3 239/3/3
f 241/3/3 239/3/3 238/3/3
f 242/3/3 240/3/3 241/3/3
f 246/3/3 244/3/3 243/3/3
f 247/3/3 244/3/3 246/3/3
f 248/3/3 244/3/3 247/3/3
f 249/3/3 246/3/3 245/3/3
f 249/3/3 247/3/3 246/3/3
f 250/3/3 247/3/3 249/3/3
f 253/3/3 252/3/3 251/3/3
f 254/3/3 252/3/3 253/3/3
f 257/3/3 256/3/3 255/3/3
f 258/3/3 256/3/3 257/3/3
f 259/3/4 260/3/4 261/3/4
f 261/3/4 260/3/4 262/3/4
f 262/3/4 260/3/4 263/3/4
f 264/3/4 265/3/4 266/3/4
f 266/3/4 265/3/4 267/3/4
f 268/3/4 269/3/4 270/3/4
f 270/3/4 269/3/4 271/3/4
f 272/3/4 273/3/4 275/3/4
f 274/3/4 275/3/4 276/3/4
f 275/3/4 273/3/4 277/3/4
f 276/3/4 275/3/4 277/3/4
f 274/3/4 276/3/4 279/3/4
f 278/3/4 279/3/4 281/3/4
f 279/3/4 276/3/4 282/3/4
f 281/3/4 279/3/4 282/3/4
f 280/3/4 281/3/4 285/3/4
f 282/3/4 283/3/4 285/3/4
f 281/3/4 282/3/4 285/3/4
f 285/3/4 283/3/4 286/3/4
f 286/3/4 283/3/4 287/3/4
f 287/3/4 283/3/4 288/3/4
f 284/3/4 285/3/4 290/3/4
f 290/3/4 285/3/4 291/3/4
f 287/3/4 288/3/4 292/3/4
f 288/3/4 289/3/4 292/3/4
f 292/3/4 289/3/4 293/3/4
f 294/3/4 295/3/4 298/3/4
f 298/3/4 295/3/4 299/3/4
f 299/3/4 295/3/4 300/3/4
f 296/3/4 297/3/4 303/3/4
f 303/3/4 297/3/4 304/3/4
f 300/3/4 301/3/4 306/3/4
f 299/3/4 300/3/4 306/3/4
f 306/3/4 301/3/4 307/3/4
f 307/3/4 301/3/4 308/3/4
f 304/3/4 305/3/4 309/3/4
f 303/3/4 304/3/4 309/3/4
f 302/3/4 303/3/4 309/3/4
f 309/3/4 305/3/4 310/3/4
f 307/3/4 308/3/4 311/3/4
f 308/3/4 309/3/4 311/3/4
f 311/3/4 309/3/4 312/3/4
f 312/3/4 309/3/4 313/3/4
f 313/3/4 314/3/4 315/3/4
f 312/3/4 313/3/4 315/3/4
f 315/3/4 314/3/4 316/3/4
f 316/3/4 314/3/4 317/3/4
f 317/3/4 318/3/4 319/3/4
f 316/3/4 317/3/4 319/3/4
f 319/3/4 318/3/4 320/3/4
f 321/2/4 322/2/4 323/2/4
f 323/2/4 322/2/4 324/2/4
f 325/3/4 326/3/4 328/3/4
f 328/3/4 326/3/4 329/3/4
f 329/3/4 326/3/4 330/3/4
f 327/3/4 328/3/4 331/3/4
f 331/3/4 328/3/4 332/3/4
f 333/3/4 334/3/4 335/3/4
f 335/3/4 334/3/4 336/3/4
f 337/3/4 338/3/4 339/3/4
f 339/3/4 338/3/4 340/3/4
f 341/3/4 342/3/4 343/3/4
f 343/3/4 342/3/4 344/3/4
f 345/3/4 346/3/4 347/3/4
f 347/3/4 346/3/4 348/3/4
f 351/2/5 350/2/5 349/2/5
f 352/2/5 350/2/5 351/2/5
f 353/2/5 351/2/5 349/2/5
f 353/1/5 352/1/5 351/1/5
f 354/2/5 350/2/5 352/2/5
f 354/1/5 352/1/5 353/1/5
f 355/2/5 353/2/5 349/2/5
f 355/2/5 354/2/5 353/2/5
f 356/2/5 350/2/5 354/2/5
f 356/2/5 354/2/5 355/2/5
f 360/3/5 358/3/5 357/3/5
f 361/3/5 358/3/5 360/3/5
f 364/3/5 360/3/5 359/3/5
f 365/3/5 360/3/5 364/3/5
f 367/3/5 363/3/5 362/3/5
f 368/3/5 363/3/5 367/3/5
f 369/3/5 366/3/5 365/3/5
f 370/3/5 366/3/5 369/3/5
f 373/3/5 372/3/5 371/3/5
f 374/3/5 372/3/5 373/3/5
f 379/3/5 376/3/5 375/3/5
f 380/3/5 376/3/5 379/3/5
f 381/3/5 378/3/5 377/3/5
f 382/3/5 378/3/5 381/3/5
f 387/3/5 384/3/5 383/3/5
f 388/3/5 384/3/5 387/3/5
f 391/3/5 386/3/5 385/3/5
f 392/3/5 386/3/5 391/3/5
f 395/3/5 390/3/5 389/3/5
f 396/3/5 390/3/5 395/3/5
f 399/3/5 394/3/5 393/3/5
f 400/3/5 394/3/5 399/3/5
f 403/3/5 402/3/5 401/3/5
f 404/3/5 402/3/5 403/3/5
f 406/3/5 398/3/5 397/3/5
f 407/3/5 398/3/5 406/3/5
f 408/3/5 405/3/5 404/3/5
f 409/3/5 405/3/5 408/3/5
f 412/3/5 411/3/5 410/3/5
f 413/3/5 411/3/5 412/3/5
f 420/3/5 415/3/5 414/3/5
f 421/3/5 415/3/5 420/3/5
f 422/3/5 417/3/5 416/3/5
f 423/3/5 417/3/5 422/3/5
f 424/3/5 419/3/5 418/3/5
f 425/3/5 419/3/5 424/3/5
f 428/3/5 427/3/5 426/3/5
f 429/3/5 427/3/5 428/3/5
f 432/3/5 431/3/5 430/3/5
f 433/3/5 431/3/5 432/3/5
f 434/2/6 435/2/6 436/2/6
f 436/2/6 435/2/6 437/2/6
f 437/2/6 435/2/6 438/2/6
f 438/2/6 435/2/6 439/2/6
f 434/2/6 436/2/6 440/2/6
f 437/3/6 438/3/6 441/3/6
f 441/3/6 438/3/6 442/3/6
f 439/2/6 435/2/6 443/2/6
f 441/2/6 442/2/6 444/2/6
f 442/2/6 443/2/6 444/2/6
f 434/2/6 440/2/6 444/2/6
f 440/2/6 441/2/6 444/2/6
f 443/2/6 435/2/6 445/2/6
f 444/2/6 443/2/6 445/2/6
f 446/3/6 447/3/6 450/3/6
f 448/3/6 449/3/6 451/3/6
f 451/3/6 449/3/6 452/3/6
f 450/3/6 447/3/6 453/3/6
f 453/3/6 447/3/6 454/3/6
f 455/3/6 456/3/6 457/3/6
f 457/3/6 456/3/6 458/3/6
f 459/3/6 460/3/6 461/3/6
f 461/3/6 460/3/6 462/3/6
f 463/3/6 464/3/6 467/3/6
f 467/3/6 464/3/6 468/3/6
f 465/3/6 466/3/6 470/3/6
f 470/3/6 466/3/6 471/3/6
f 468/3/6 469/3/6 473/3/6
f 473/3/6 469/3/6 474/3/6
f 472/3/6 473/3/6 477/3/6
f 477/3/6 473/3/6 478/3/6
f 475/3/6 476/3/6 479/3/6
f 479/3/6 476/3/6 480/3/6
f 480/3/6 476/3/6 481/3/6
f 482/3/6 483/3/6 484/3/6
f 484/3/6 483/3/6 485/3/6
f 486/3/6 487/3/6 488/3/6
f 488/3/6 487/3/6 489/3/6
f 490/3/6 491/3/6 492/3/6
f 492/3/6 491/3/6 493/3/6
f 494/3/6 495/3/6 502/3/6
f 502/3/6 495/3/6 503/3/6
f 496/3/6 497/3/6 504/3/6
f 504/3/6 497/3/6 505/3/6
f 498/3/6 499/3/6 506/3/6
f 506/3/6 499/3/6 507/3/6
f 500/3/6 501/3/6 508/3/6
f 508/3/6 501/3/6 509/3/6
f 510/3/6 511/3/6 512/3/6
f 512/3/6 511/3/6 513/3/6
f 514/3/6 515/3/6 516/3/6
f 516/3/6 515/3/6 517/3/6
f 518/3/6 519/3/6 522/3/6
f 522/3/6 519/3/6 523/3/6
f 520/3/6 521/3/6 524/3/6
f 524/3/6 521/3/6 525/3/6
