# MagicaVoxel @ Ephtracy

# group
g kitchen_counter

# material
mtllib kitchen_counter.mtl
usemtl palette

# normals
vn -1 0 0
vn 1 0 0
vn 0 0 1
vn 0 0 -1
vn 0 -1 0
vn 0 1 0

# texcoords
vt 0.232422 0.5
vt 0.537109 0.5
vt 0.958984 0.5
vt 0.986328 0.5

# verts
v -4 0 4
v -4 0 -2
v -4 6 5
v -4 6 4
v -4 6 -2
v -4 7 5
v -4 7 -2
v -3 1 5
v -3 1 4
v -3 2 5
v -3 2 4
v -3 3 5
v -3 3 4
v -3 5 5
v -3 5 4
v 1 1 5
v 1 1 4
v 1 5 5
v 1 5 4
v 2 0 4
v 2 0 -2
v 2 6 5
v 2 6 4
v 2 6 -2
v 2 7 5
v 2 7 -2
v -4 6 5
v -4 7 5
v -3 1 5
v -3 2 5
v -3 3 5
v -3 5 5
v -2 2 5
v -2 3 5
v 1 1 5
v 1 5 5
v 2 6 5
v 2 7 5
v -4 0 4
v -4 6 4
v -3 1 4
v -3 2 4
v -3 3 4
v -3 5 4
v 1 1 4
v 1 5 4
v 2 0 4
v 2 6 4
v -4 0 -2
v -4 6 -2
v -4 7 -2
v 2 0 -2
v 2 6 -2
v 2 7 -2
v -4 0 4
v 2 0 4
v -4 0 -2
v 2 0 -2
v -3 1 5
v 1 1 5
v -3 1 4
v 1 1 4
v -4 6 5
v 2 6 5
v -4 6 4
v 2 6 4
v -3 5 5
v 1 5 5
v -3 5 4
v 1 5 4
v -4 7 5
v 2 7 5
v -4 7 -2
v 2 7 -2

# faces
f 4/2/1 2/2/1 1/2/1
f 5/2/1 2/2/1 4/2/1
f 6/4/1 4/4/1 3/4/1
f 6/4/1 5/4/1 4/4/1
f 7/4/1 5/4/1 6/4/1
f 10/1/1 9/1/1 8/1/1
f 11/1/1 9/1/1 10/1/1
f 12/4/1 11/4/1 10/4/1
f 13/4/1 11/4/1 12/4/1
f 14/1/1 13/1/1 12/1/1
f 15/1/1 13/1/1 14/1/1
f 16/1/2 17/1/2 18/1/2
f 18/1/2 17/1/2 19/1/2
f 20/2/2 21/2/2 23/2/2
f 23/2/2 21/2/2 24/2/2
f 22/4/2 23/4/2 25/4/2
f 23/4/2 24/4/2 25/4/2
f 25/4/2 24/4/2 26/4/2
f 33/1/3 30/1/3 29/1/3
f 33/4/3 31/4/3 30/4/3
f 34/1/3 32/1/3 31/1/3
f 34/4/3 31/4/3 33/4/3
f 35/1/3 33/1/3 29/1/3
f 35/1/3 34/1/3 33/1/3
f 36/1/3 32/1/3 34/1/3
f 36/1/3 34/1/3 35/1/3
f 37/4/3 28/4/3 27/4/3
f 38/4/3 28/4/3 37/4/3
f 41/2/3 40/2/3 39/2/3
f 42/2/3 40/2/3 41/2/3
f 43/2/3 40/2/3 42/2/3
f 44/2/3 40/2/3 43/2/3
f 45/2/3 41/2/3 39/2/3
f 46/2/3 40/2/3 44/2/3
f 47/2/3 45/2/3 39/2/3
f 47/2/3 46/2/3 45/2/3
f 48/2/3 40/2/3 46/2/3
f 48/2/3 46/2/3 47/2/3
f 49/2/4 50/2/4 52/2/4
f 50/4/4 51/4/4 53/4/4
f 52/2/4 50/2/4 53/2/4
f 53/4/4 51/4/4 54/4/4
f 57/2/5 56/2/5 55/2/5
f 58/2/5 56/2/5 57/2/5
f 61/1/5 60/1/5 59/1/5
f 62/1/5 60/1/5 61/1/5
f 65/4/5 64/4/5 63/4/5
f 66/4/5 64/4/5 65/4/5
f 67/1/6 68/1/6 69/1/6
f 69/1/6 68/1/6 70/1/6
f 71/4/6 72/4/6 73/4/6
f 73/4/6 72/4/6 74/4/6
