# MagicaVoxel @ Ephtracy

# group
g Lamp_Standing_Red

# material
mtllib Lamp_Standing_Red.mtl
usemtl palette

# normals
vn -1 0 0
vn 1 0 0
vn 0 0 1
vn 0 0 -1
vn 0 -1 0
vn 0 1 0

# texcoords
vt 0.373047 0.5
vt 0.861328 0.5

# verts
v -6 17 1
v -6 17 -0
v -6 18 -0
v -6 18 -3
v -6 25 1
v -6 25 -3
v -5 18 2
v -5 18 1
v -5 18 -3
v -5 18 -4
v -5 25 2
v -5 25 1
v -5 25 -0
v -5 25 -2
v -5 25 -3
v -5 25 -4
v -5 26 -0
v -5 26 -2
v -4 17 3
v -4 17 2
v -4 17 -4
v -4 17 -5
v -4 18 2
v -4 18 -4
v -4 25 3
v -4 25 2
v -4 25 1
v -4 25 -0
v -4 25 -2
v -4 25 -3
v -4 25 -4
v -4 25 -5
v -4 26 1
v -4 26 -0
v -4 26 -2
v -4 26 -3
v -3 0 -0
v -3 0 -2
v -3 21 -0
v -3 21 -2
v -3 25 2
v -3 25 1
v -3 25 -3
v -3 25 -4
v -3 26 2
v -3 26 1
v -3 26 -0
v -3 26 -2
v -3 26 -3
v -3 26 -4
v -3 27 -0
v -3 27 -2
v -1 17 3
v -1 17 2
v -1 17 -4
v -1 17 -5
v -1 18 3
v -1 18 2
v -1 18 -4
v -1 18 -5
v -1 20 -2
v -1 20 -3
v -1 21 -2
v -1 21 -3
v 0 18 2
v 0 18 1
v 0 18 -3
v 0 18 -4
v 0 20 -3
v 0 21 2
v 0 21 1
v 0 21 -3
v 0 21 -4
v 1 17 1
v 1 17 -0
v 1 17 -2
v 1 17 -3
v 1 18 1
v 1 18 -0
v 1 18 -2
v 1 18 -3
v 1 21 1
v 1 21 -3
v -5 17 1
v -5 17 -0
v -5 18 1
v -5 18 -0
v -5 18 -3
v -5 21 1
v -5 21 -3
v -4 18 2
v -4 18 1
v -4 18 -3
v -4 18 -4
v -4 20 -3
v -4 20 -4
v -4 21 2
v -4 21 1
v -3 17 3
v -3 17 2
v -3 17 -4
v -3 17 -5
v -3 18 3
v -3 18 2
v -3 18 -4
v -3 18 -5
v -3 20 -3
v -3 20 -4
v -3 21 -3
v -3 21 -4
v -1 0 -0
v -1 0 -2
v -1 20 -2
v -1 21 -0
v -1 21 -2
v -1 25 2
v -1 25 1
v -1 25 -3
v -1 25 -4
v -1 26 2
v -1 26 1
v -1 26 -0
v -1 26 -2
v -1 26 -3
v -1 26 -4
v -1 27 -0
v -1 27 -2
v 0 17 3
v 0 17 2
v 0 17 -4
v 0 17 -5
v 0 18 2
v 0 18 -4
v 0 20 -2
v 0 20 -3
v 0 21 -2
v 0 21 -3
v 0 25 3
v 0 25 2
v 0 25 1
v 0 25 -0
v 0 25 -2
v 0 25 -3
v 0 25 -4
v 0 25 -5
v 0 26 1
v 0 26 -0
v 0 26 -2
v 0 26 -3
v 1 18 2
v 1 18 1
v 1 18 -3
v 1 18 -4
v 1 25 2
v 1 25 1
v 1 25 -0
v 1 25 -2
v 1 25 -3
v 1 25 -4
v 1 26 -0
v 1 26 -2
v 2 17 1
v 2 17 -0
v 2 17 -2
v 2 17 -3
v 2 18 -0
v 2 18 -2
v 2 25 1
v 2 25 -3
v -4 17 3
v -4 25 3
v -3 17 3
v -3 18 3
v -1 17 3
v -1 18 3
v 0 17 3
v 0 25 3
v -5 18 2
v -5 25 2
v -4 18 2
v -4 25 2
v -3 25 2
v -3 26 2
v -1 25 2
v -1 26 2
v 0 18 2
v 0 25 2
v 1 18 2
v 1 25 2
v -6 17 1
v -6 25 1
v -5 17 1
v -5 18 1
v -5 25 1
v -4 25 1
v -4 26 1
v -3 25 1
v -3 26 1
v -1 25 1
v -1 26 1
v 0 25 1
v 0 26 1
v 1 17 1
v 1 18 1
v 1 25 1
v 2 17 1
v 2 25 1
v -5 25 -0
v -5 26 -0
v -4 25 -0
v -4 26 -0
v -3 0 -0
v -3 21 -0
v -3 26 -0
v -3 27 -0
v -1 0 -0
v -1 21 -0
v -1 26 -0
v -1 27 -0
v 0 25 -0
v 0 26 -0
v 1 25 -0
v 1 26 -0
v -1 20 -2
v -1 21 -2
v 0 20 -2
v 0 21 -2
v 1 17 -2
v 1 18 -2
v 2 17 -2
v 2 18 -2
v -5 18 -3
v -5 21 -3
v -4 18 -3
v -4 20 -3
v -3 20 -3
v -3 21 -3
v 0 18 -3
v 0 20 -3
v 0 21 -3
v 1 18 -3
v 1 21 -3
v -4 17 -4
v -4 18 -4
v -4 20 -4
v -3 17 -4
v -3 18 -4
v -3 20 -4
v -3 21 -4
v -1 17 -4
v -1 18 -4
v 0 17 -4
v 0 18 -4
v 0 21 -4
v -4 17 2
v -4 18 2
v -4 21 2
v -3 17 2
v -3 18 2
v -1 17 2
v -1 18 2
v 0 17 2
v 0 18 2
v 0 21 2
v -5 18 1
v -5 21 1
v -4 18 1
v -4 21 1
v 0 18 1
v 0 21 1
v 1 18 1
v 1 21 1
v -6 17 -0
v -6 18 -0
v -5 17 -0
v -5 18 -0
v 1 17 -0
v 1 18 -0
v 2 17 -0
v 2 18 -0
v -5 25 -2
v -5 26 -2
v -4 25 -2
v -4 26 -2
v -3 0 -2
v -3 21 -2
v -3 26 -2
v -3 27 -2
v -1 0 -2
v -1 20 -2
v -1 21 -2
v -1 26 -2
v -1 27 -2
v 0 25 -2
v 0 26 -2
v 1 25 -2
v 1 26 -2
v -6 18 -3
v -6 25 -3
v -5 18 -3
v -5 25 -3
v -4 25 -3
v -4 26 -3
v -3 25 -3
v -3 26 -3
v -1 20 -3
v -1 21 -3
v -1 25 -3
v -1 26 -3
v 0 20 -3
v 0 21 -3
v 0 25 -3
v 0 26 -3
v 1 17 -3
v 1 18 -3
v 1 25 -3
v 2 17 -3
v 2 25 -3
v -5 18 -4
v -5 25 -4
v -4 18 -4
v -4 25 -4
v -3 25 -4
v -3 26 -4
v -1 25 -4
v -1 26 -4
v 0 18 -4
v 0 25 -4
v 1 18 -4
v 1 25 -4
v -4 17 -5
v -4 25 -5
v -3 17 -5
v -3 18 -5
v -1 17 -5
v -1 18 -5
v 0 17 -5
v 0 25 -5
v -3 0 -0
v -1 0 -0
v -3 0 -2
v -1 0 -2
v -4 17 3
v -3 17 3
v -1 17 3
v 0 17 3
v -4 17 2
v -3 17 2
v -1 17 2
v 0 17 2
v -6 17 1
v -5 17 1
v 1 17 1
v 2 17 1
v -6 17 -0
v -5 17 -0
v 1 17 -0
v 2 17 -0
v 1 17 -2
v 2 17 -2
v 1 17 -3
v 2 17 -3
v -4 17 -4
v -3 17 -4
v -1 17 -4
v 0 17 -4
v -4 17 -5
v -3 17 -5
v -1 17 -5
v 0 17 -5
v -3 18 3
v -1 18 3
v -5 18 2
v -4 18 2
v -3 18 2
v -1 18 2
v 0 18 2
v 1 18 2
v -5 18 1
v -4 18 1
v 0 18 1
v 1 18 1
v -6 18 -0
v -5 18 -0
v 1 18 -0
v 2 18 -0
v 1 18 -2
v 2 18 -2
v -6 18 -3
v -5 18 -3
v -4 18 -3
v 0 18 -3
v 1 18 -3
v -5 18 -4
v -4 18 -4
v -3 18 -4
v -1 18 -4
v 0 18 -4
v 1 18 -4
v -3 18 -5
v -1 18 -5
v -1 20 -2
v 0 20 -2
v -4 20 -3
v -3 20 -3
v -1 20 -3
v 0 20 -3
v -4 20 -4
v -3 20 -4
v -4 21 2
v 0 21 2
v -5 21 1
v -4 21 1
v 0 21 1
v 1 21 1
v -3 21 -0
v -1 21 -0
v -3 21 -2
v -1 21 -2
v 0 21 -2
v -5 21 -3
v -3 21 -3
v -1 21 -3
v 0 21 -3
v 1 21 -3
v -3 21 -4
v 0 21 -4
v -4 25 3
v 0 25 3
v -5 25 2
v -4 25 2
v -3 25 2
v -1 25 2
v 0 25 2
v 1 25 2
v -6 25 1
v -5 25 1
v -4 25 1
v -3 25 1
v -1 25 1
v 0 25 1
v 1 25 1
v 2 25 1
v -5 25 -0
v -4 25 -0
v 0 25 -0
v 1 25 -0
v -5 25 -2
v -4 25 -2
v 0 25 -2
v 1 25 -2
v -6 25 -3
v -5 25 -3
v -4 25 -3
v -3 25 -3
v -1 25 -3
v 0 25 -3
v 1 25 -3
v 2 25 -3
v -5 25 -4
v -4 25 -4
v -3 25 -4
v -1 25 -4
v 0 25 -4
v 1 25 -4
v -4 25 -5
v 0 25 -5
v -3 26 2
v -1 26 2
v -4 26 1
v -3 26 1
v -1 26 1
v 0 26 1
v -5 26 -0
v -4 26 -0
v -3 26 -0
v -1 26 -0
v 0 26 -0
v 1 26 -0
v -5 26 -2
v -4 26 -2
v -3 26 -2
v -1 26 -2
v 0 26 -2
v 1 26 -2
v -4 26 -3
v -3 26 -3
v -1 26 -3
v 0 26 -3
v -3 26 -4
v -1 26 -4
v -3 27 -0
v -1 27 -0
v -3 27 -2
v -1 27 -2

# faces
f 3/2/1 2/2/1 1/2/1
f 5/2/1 3/2/1 1/2/1
f 5/2/1 4/2/1 3/2/1
f 6/2/1 4/2/1 5/2/1
f 11/2/1 8/2/1 7/2/1
f 12/2/1 8/2/1 11/2/1
f 15/2/1 10/2/1 9/2/1
f 16/2/1 10/2/1 15/2/1
f 17/2/1 14/2/1 13/2/1
f 18/2/1 14/2/1 17/2/1
f 23/2/1 20/2/1 19/2/1
f 24/2/1 22/2/1 21/2/1
f 25/2/1 23/2/1 19/2/1
f 26/2/1 23/2/1 25/2/1
f 31/2/1 22/2/1 24/2/1
f 32/2/1 22/2/1 31/2/1
f 33/2/1 28/2/1 27/2/1
f 34/2/1 28/2/1 33/2/1
f 35/2/1 30/2/1 29/2/1
f 36/2/1 30/2/1 35/2/1
f 39/1/1 38/1/1 37/1/1
f 40/1/1 38/1/1 39/1/1
f 45/2/1 42/2/1 41/2/1
f 46/2/1 42/2/1 45/2/1
f 49/2/1 44/2/1 43/2/1
f 50/2/1 44/2/1 49/2/1
f 51/2/1 48/2/1 47/2/1
f 52/2/1 48/2/1 51/2/1
f 57/2/1 54/2/1 53/2/1
f 58/2/1 54/2/1 57/2/1
f 59/2/1 56/2/1 55/2/1
f 60/2/1 56/2/1 59/2/1
f 63/2/1 62/2/1 61/2/1
f 64/2/1 62/2/1 63/2/1
f 69/2/1 68/2/1 67/2/1
f 70/2/1 66/2/1 65/2/1
f 71/2/1 66/2/1 70/2/1
f 72/2/1 68/2/1 69/2/1
f 73/2/1 68/2/1 72/2/1
f 78/2/1 75/2/1 74/2/1
f 79/2/1 75/2/1 78/2/1
f 80/2/1 77/2/1 76/2/1
f 81/2/1 77/2/1 80/2/1
f 82/2/1 79/2/1 78/2/1
f 82/2/1 80/2/1 79/2/1
f 82/2/1 81/2/1 80/2/1
f 83/2/1 81/2/1 82/2/1
f 84/2/2 85/2/2 86/2/2
f 86/2/2 85/2/2 87/2/2
f 86/2/2 87/2/2 89/2/2
f 87/2/2 88/2/2 89/2/2
f 89/2/2 88/2/2 90/2/2
f 93/2/2 94/2/2 95/2/2
f 95/2/2 94/2/2 96/2/2
f 91/2/2 92/2/2 97/2/2
f 97/2/2 92/2/2 98/2/2
f 99/2/2 100/2/2 103/2/2
f 103/2/2 100/2/2 104/2/2
f 101/2/2 102/2/2 105/2/2
f 105/2/2 102/2/2 106/2/2
f 107/2/2 108/2/2 109/2/2
f 109/2/2 108/2/2 110/2/2
f 111/1/2 112/1/2 113/1/2
f 111/1/2 113/1/2 114/1/2
f 114/1/2 113/1/2 115/1/2
f 116/2/2 117/2/2 120/2/2
f 120/2/2 117/2/2 121/2/2
f 118/2/2 119/2/2 124/2/2
f 124/2/2 119/2/2 125/2/2
f 122/2/2 123/2/2 126/2/2
f 126/2/2 123/2/2 127/2/2
f 128/2/2 129/2/2 132/2/2
f 130/2/2 131/2/2 133/2/2
f 134/2/2 135/2/2 136/2/2
f 136/2/2 135/2/2 137/2/2
f 128/2/2 132/2/2 138/2/2
f 138/2/2 132/2/2 139/2/2
f 133/2/2 131/2/2 144/2/2
f 144/2/2 131/2/2 145/2/2
f 140/2/2 141/2/2 146/2/2
f 146/2/2 141/2/2 147/2/2
f 142/2/2 143/2/2 148/2/2
f 148/2/2 143/2/2 149/2/2
f 150/2/2 151/2/2 154/2/2
f 154/2/2 151/2/2 155/2/2
f 152/2/2 153/2/2 158/2/2
f 158/2/2 153/2/2 159/2/2
f 156/2/2 157/2/2 160/2/2
f 160/2/2 157/2/2 161/2/2
f 162/2/2 163/2/2 166/2/2
f 164/2/2 165/2/2 167/2/2
f 162/2/2 166/2/2 168/2/2
f 166/2/2 167/2/2 168/2/2
f 167/2/2 165/2/2 169/2/2
f 168/2/2 167/2/2 169/2/2
f 172/2/3 171/2/3 170/2/3
f 173/2/3 171/2/3 172/2/3
f 175/2/3 171/2/3 173/2/3
f 176/2/3 175/2/3 174/2/3
f 177/2/3 171/2/3 175/2/3
f 177/2/3 175/2/3 176/2/3
f 180/2/3 179/2/3 178/2/3
f 181/2/3 179/2/3 180/2/3
f 184/2/3 183/2/3 182/2/3
f 185/2/3 183/2/3 184/2/3
f 188/2/3 187/2/3 186/2/3
f 189/2/3 187/2/3 188/2/3
f 192/2/3 191/2/3 190/2/3
f 193/2/3 191/2/3 192/2/3
f 194/2/3 191/2/3 193/2/3
f 197/2/3 196/2/3 195/2/3
f 198/2/3 196/2/3 197/2/3
f 201/2/3 200/2/3 199/2/3
f 202/2/3 200/2/3 201/2/3
f 206/2/3 204/2/3 203/2/3
f 206/2/3 205/2/3 204/2/3
f 207/2/3 205/2/3 206/2/3
f 210/2/3 209/2/3 208/2/3
f 211/2/3 209/2/3 210/2/3
f 216/1/3 213/1/3 212/1/3
f 217/1/3 213/1/3 216/1/3
f 218/2/3 215/2/3 214/2/3
f 219/2/3 215/2/3 218/2/3
f 222/2/3 221/2/3 220/2/3
f 223/2/3 221/2/3 222/2/3
f 226/2/3 225/2/3 224/2/3
f 227/2/3 225/2/3 226/2/3
f 230/2/3 229/2/3 228/2/3
f 231/2/3 229/2/3 230/2/3
f 234/2/3 233/2/3 232/2/3
f 235/2/3 233/2/3 234/2/3
f 236/2/3 233/2/3 235/2/3
f 237/2/3 233/2/3 236/2/3
f 241/2/3 239/2/3 238/2/3
f 241/2/3 240/2/3 239/2/3
f 242/2/3 240/2/3 241/2/3
f 246/2/3 244/2/3 243/2/3
f 246/2/3 245/2/3 244/2/3
f 247/2/3 245/2/3 246/2/3
f 248/2/3 245/2/3 247/2/3
f 251/2/3 249/2/3 248/2/3
f 251/2/3 248/2/3 247/2/3
f 252/2/3 251/2/3 250/2/3
f 253/2/3 249/2/3 251/2/3
f 253/2/3 251/2/3 252/2/3
f 254/2/3 249/2/3 253/2/3
f 255/2/4 256/2/4 258/2/4
f 256/2/4 257/2/4 258/2/4
f 258/2/4 257/2/4 259/2/4
f 259/2/4 257/2/4 261/2/4
f 260/2/4 261/2/4 262/2/4
f 261/2/4 257/2/4 263/2/4
f 262/2/4 261/2/4 263/2/4
f 263/2/4 257/2/4 264/2/4
f 265/2/4 266/2/4 267/2/4
f 267/2/4 266/2/4 268/2/4
f 269/2/4 270/2/4 271/2/4
f 271/2/4 270/2/4 272/2/4
f 273/2/4 274/2/4 275/2/4
f 275/2/4 274/2/4 276/2/4
f 277/2/4 278/2/4 279/2/4
f 279/2/4 278/2/4 280/2/4
f 281/2/4 282/2/4 283/2/4
f 283/2/4 282/2/4 284/2/4
f 285/1/4 286/1/4 289/1/4
f 289/1/4 286/1/4 290/1/4
f 290/1/4 286/1/4 291/1/4
f 287/2/4 288/2/4 292/2/4
f 292/2/4 288/2/4 293/2/4
f 294/2/4 295/2/4 296/2/4
f 296/2/4 295/2/4 297/2/4
f 298/2/4 299/2/4 300/2/4
f 300/2/4 299/2/4 301/2/4
f 302/2/4 303/2/4 304/2/4
f 304/2/4 303/2/4 305/2/4
f 306/2/4 307/2/4 310/2/4
f 310/2/4 307/2/4 311/2/4
f 308/2/4 309/2/4 312/2/4
f 312/2/4 309/2/4 313/2/4
f 314/2/4 315/2/4 317/2/4
f 315/2/4 316/2/4 317/2/4
f 317/2/4 316/2/4 318/2/4
f 319/2/4 320/2/4 321/2/4
f 321/2/4 320/2/4 322/2/4
f 323/2/4 324/2/4 325/2/4
f 325/2/4 324/2/4 326/2/4
f 327/2/4 328/2/4 329/2/4
f 329/2/4 328/2/4 330/2/4
f 331/2/4 332/2/4 333/2/4
f 333/2/4 332/2/4 334/2/4
f 334/2/4 332/2/4 336/2/4
f 335/2/4 336/2/4 337/2/4
f 336/2/4 332/2/4 338/2/4
f 337/2/4 336/2/4 338/2/4
f 341/1/5 340/1/5 339/1/5
f 342/1/5 340/1/5 341/1/5
f 347/2/5 344/2/5 343/2/5
f 348/2/5 344/2/5 347/2/5
f 349/2/5 346/2/5 345/2/5
f 350/2/5 346/2/5 349/2/5
f 355/2/5 352/2/5 351/2/5
f 356/2/5 352/2/5 355/2/5
f 357/2/5 354/2/5 353/2/5
f 358/2/5 354/2/5 357/2/5
f 361/2/5 360/2/5 359/2/5
f 362/2/5 360/2/5 361/2/5
f 367/2/5 364/2/5 363/2/5
f 368/2/5 364/2/5 367/2/5
f 369/2/5 366/2/5 365/2/5
f 370/2/5 366/2/5 369/2/5
f 375/2/5 372/2/5 371/2/5
f 376/2/5 372/2/5 375/2/5
f 379/2/5 374/2/5 373/2/5
f 380/2/5 374/2/5 379/2/5
f 381/2/5 378/2/5 377/2/5
f 382/2/5 378/2/5 381/2/5
f 387/2/5 386/2/5 385/2/5
f 388/2/5 386/2/5 387/2/5
f 389/2/5 384/2/5 383/2/5
f 390/2/5 384/2/5 389/2/5
f 394/2/5 391/2/5 390/2/5
f 395/2/5 391/2/5 394/2/5
f 398/2/5 393/2/5 392/2/5
f 399/2/5 393/2/5 398/2/5
f 400/2/5 397/2/5 396/2/5
f 401/2/5 397/2/5 400/2/5
f 406/2/5 403/2/5 402/2/5
f 407/2/5 403/2/5 406/2/5
f 408/2/5 405/2/5 404/2/5
f 409/2/5 405/2/5 408/2/5
f 413/2/5 411/2/5 410/2/5
f 414/2/5 411/2/5 413/2/5
f 416/2/5 413/2/5 412/2/5
f 416/2/5 415/2/5 414/2/5
f 416/2/5 414/2/5 413/2/5
f 417/2/5 415/2/5 416/2/5
f 418/2/5 416/2/5 412/2/5
f 419/2/5 415/2/5 417/2/5
f 420/2/5 415/2/5 419/2/5
f 421/2/5 418/2/5 412/2/5
f 421/2/5 419/2/5 418/2/5
f 422/2/5 419/2/5 421/2/5
f 423/2/5 419/2/5 422/2/5
f 424/2/5 415/2/5 420/2/5
f 425/2/5 415/2/5 424/2/5
f 426/2/5 423/2/5 422/2/5
f 426/2/5 424/2/5 423/2/5
f 427/2/5 424/2/5 426/2/5
f 428/2/6 429/2/6 431/2/6
f 431/2/6 429/2/6 432/2/6
f 432/2/6 429/2/6 433/2/6
f 433/2/6 429/2/6 434/2/6
f 430/2/6 431/2/6 437/2/6
f 431/2/6 432/2/6 437/2/6
f 437/2/6 432/2/6 438/2/6
f 438/2/6 432/2/6 439/2/6
f 433/2/6 434/2/6 440/2/6
f 434/2/6 435/2/6 440/2/6
f 440/2/6 435/2/6 441/2/6
f 441/2/6 435/2/6 442/2/6
f 437/2/6 438/2/6 444/2/6
f 436/2/6 437/2/6 444/2/6
f 444/2/6 438/2/6 445/2/6
f 442/2/6 443/2/6 446/2/6
f 441/2/6 442/2/6 446/2/6
f 446/2/6 443/2/6 447/2/6
f 436/2/6 444/2/6 448/2/6
f 447/2/6 443/2/6 451/2/6
f 448/2/6 449/2/6 452/2/6
f 436/2/6 448/2/6 452/2/6
f 452/2/6 449/2/6 453/2/6
f 453/2/6 449/2/6 454/2/6
f 450/2/6 451/2/6 457/2/6
f 451/2/6 443/2/6 458/2/6
f 457/2/6 451/2/6 458/2/6
f 458/2/6 443/2/6 459/2/6
f 454/2/6 455/2/6 460/2/6
f 453/2/6 454/2/6 460/2/6
f 460/2/6 455/2/6 461/2/6
f 461/2/6 455/2/6 462/2/6
f 456/2/6 457/2/6 463/2/6
f 457/2/6 458/2/6 463/2/6
f 463/2/6 458/2/6 464/2/6
f 464/2/6 458/2/6 465/2/6
f 461/2/6 462/2/6 466/2/6
f 463/2/6 464/2/6 466/2/6
f 462/2/6 463/2/6 466/2/6
f 466/2/6 464/2/6 467/2/6
f 468/2/6 469/2/6 471/2/6
f 471/2/6 469/2/6 472/2/6
f 470/2/6 471/2/6 475/2/6
f 472/2/6 473/2/6 475/2/6
f 471/2/6 472/2/6 475/2/6
f 475/2/6 473/2/6 476/2/6
f 476/2/6 473/2/6 477/2/6
f 477/2/6 473/2/6 478/2/6
f 474/2/6 475/2/6 480/2/6
f 475/2/6 476/2/6 480/2/6
f 480/2/6 476/2/6 481/2/6
f 481/2/6 476/2/6 482/2/6
f 478/2/6 479/2/6 483/2/6
f 477/2/6 478/2/6 483/2/6
f 483/2/6 479/2/6 484/2/6
f 484/2/6 479/2/6 485/2/6
f 481/2/6 482/2/6 486/2/6
f 483/2/6 484/2/6 486/2/6
f 482/2/6 483/2/6 486/2/6
f 486/2/6 484/2/6 487/2/6
f 487/2/6 484/2/6 488/2/6
f 488/2/6 484/2/6 489/2/6
f 487/2/6 488/2/6 490/2/6
f 490/2/6 488/2/6 491/2/6
f 492/2/6 493/2/6 494/2/6
f 494/2/6 493/2/6 495/2/6
