# MagicaVoxel @ Ephtracy

# group
g Luggage_old_fashion

# material
mtllib Luggage_old_fashion.mtl
usemtl palette

# normals
vn -1 0 0
vn 1 0 0
vn 0 0 1
vn 0 0 -1
vn 0 -1 0
vn 0 1 0

# texcoords
vt 0.232422 0.5
vt 0.392578 0.5
vt 0.396484 0.5
vt 0.533203 0.5

# verts
v -7 0 4
v -7 0 -2
v -7 3 4
v -7 3 -2
v -7 4 4
v -7 4 -2
v -7 6 4
v -7 6 -2
v -7 7 4
v -7 7 -2
v -7 9 4
v -7 9 -2
v 7 0 4
v 7 0 -2
v 7 3 4
v 7 3 -2
v 7 4 4
v 7 4 -2
v 7 6 4
v 7 6 -2
v 7 7 4
v 7 7 -2
v 7 9 4
v 7 9 -2
v -7 0 4
v -7 3 4
v -7 4 4
v -7 6 4
v -7 7 4
v -7 9 4
v -5 0 4
v -5 3 4
v -5 4 4
v -5 6 4
v -5 7 4
v -5 9 4
v -3 0 4
v -3 3 4
v -3 4 4
v -3 6 4
v -3 7 4
v -3 9 4
v 3 0 4
v 3 3 4
v 3 4 4
v 3 6 4
v 3 7 4
v 3 9 4
v 5 0 4
v 5 3 4
v 5 4 4
v 5 6 4
v 5 7 4
v 5 9 4
v 7 0 4
v 7 3 4
v 7 4 4
v 7 6 4
v 7 7 4
v 7 9 4
v -7 0 -2
v -7 3 -2
v -7 4 -2
v -7 6 -2
v -7 7 -2
v -7 9 -2
v -5 0 -2
v -5 3 -2
v -5 4 -2
v -5 6 -2
v -5 7 -2
v -5 9 -2
v -3 0 -2
v -3 3 -2
v -3 4 -2
v -3 6 -2
v -3 7 -2
v -3 9 -2
v 3 0 -2
v 3 3 -2
v 3 4 -2
v 3 6 -2
v 3 7 -2
v 3 9 -2
v 5 0 -2
v 5 3 -2
v 5 4 -2
v 5 6 -2
v 5 7 -2
v 5 9 -2
v 7 0 -2
v 7 3 -2
v 7 4 -2
v 7 6 -2
v 7 7 -2
v 7 9 -2
v -7 0 4
v -5 0 4
v -3 0 4
v 3 0 4
v 5 0 4
v 7 0 4
v -5 0 3
v -3 0 3
v 3 0 3
v 5 0 3
v -5 0 -1
v -3 0 -1
v 3 0 -1
v 5 0 -1
v -7 0 -2
v -5 0 -2
v -3 0 -2
v 3 0 -2
v 5 0 -2
v 7 0 -2
v -7 9 4
v -5 9 4
v -3 9 4
v 3 9 4
v 5 9 4
v 7 9 4
v -5 9 1
v -3 9 1
v 3 9 1
v 5 9 1
v -5 9 -0
v -3 9 -0
v 3 9 -0
v 5 9 -0
v -7 9 -2
v -5 9 -2
v -3 9 -2
v 3 9 -2
v 5 9 -2
v 7 9 -2

# faces
f 3/2/1 2/2/1 1/2/1
f 4/2/1 2/2/1 3/2/1
f 5/3/1 4/3/1 3/3/1
f 6/3/1 4/3/1 5/3/1
f 7/2/1 6/2/1 5/2/1
f 8/2/1 6/2/1 7/2/1
f 9/4/1 8/4/1 7/4/1
f 10/4/1 8/4/1 9/4/1
f 11/2/1 10/2/1 9/2/1
f 12/2/1 10/2/1 11/2/1
f 13/2/2 14/2/2 15/2/2
f 15/2/2 14/2/2 16/2/2
f 15/3/2 16/3/2 17/3/2
f 17/3/2 16/3/2 18/3/2
f 17/2/2 18/2/2 19/2/2
f 19/2/2 18/2/2 20/2/2
f 19/4/2 20/4/2 21/4/2
f 21/4/2 20/4/2 22/4/2
f 21/2/2 22/2/2 23/2/2
f 23/2/2 22/2/2 24/2/2
f 31/2/3 26/2/3 25/2/3
f 32/3/3 27/3/3 26/3/3
f 32/2/3 26/2/3 31/2/3
f 33/2/3 28/2/3 27/2/3
f 33/3/3 27/3/3 32/3/3
f 34/4/3 29/4/3 28/4/3
f 34/2/3 28/2/3 33/2/3
f 35/2/3 30/2/3 29/2/3
f 35/4/3 29/4/3 34/4/3
f 36/2/3 30/2/3 35/2/3
f 37/3/3 34/3/3 33/3/3
f 37/3/3 32/3/3 31/3/3
f 37/3/3 36/3/3 35/3/3
f 37/3/3 35/3/3 34/3/3
f 37/3/3 33/3/3 32/3/3
f 38/3/3 36/3/3 37/3/3
f 39/3/3 36/3/3 38/3/3
f 40/3/3 36/3/3 39/3/3
f 41/3/3 36/3/3 40/3/3
f 42/3/3 36/3/3 41/3/3
f 43/2/3 38/2/3 37/2/3
f 44/3/3 39/3/3 38/3/3
f 44/2/3 38/2/3 43/2/3
f 45/2/3 40/2/3 39/2/3
f 45/3/3 39/3/3 44/3/3
f 46/4/3 41/4/3 40/4/3
f 46/2/3 40/2/3 45/2/3
f 47/2/3 42/2/3 41/2/3
f 47/4/3 41/4/3 46/4/3
f 48/2/3 42/2/3 47/2/3
f 49/3/3 44/3/3 43/3/3
f 49/3/3 45/3/3 44/3/3
f 49/3/3 48/3/3 47/3/3
f 49/3/3 47/3/3 46/3/3
f 49/3/3 46/3/3 45/3/3
f 50/3/3 48/3/3 49/3/3
f 51/3/3 48/3/3 50/3/3
f 52/3/3 48/3/3 51/3/3
f 53/3/3 48/3/3 52/3/3
f 54/3/3 48/3/3 53/3/3
f 55/2/3 50/2/3 49/2/3
f 56/3/3 51/3/3 50/3/3
f 56/2/3 50/2/3 55/2/3
f 57/2/3 52/2/3 51/2/3
f 57/3/3 51/3/3 56/3/3
f 58/4/3 53/4/3 52/4/3
f 58/2/3 52/2/3 57/2/3
f 59/2/3 54/2/3 53/2/3
f 59/4/3 53/4/3 58/4/3
f 60/2/3 54/2/3 59/2/3
f 61/2/4 62/2/4 67/2/4
f 62/3/4 63/3/4 68/3/4
f 67/2/4 62/2/4 68/2/4
f 63/2/4 64/2/4 69/2/4
f 68/3/4 63/3/4 69/3/4
f 64/4/4 65/4/4 70/4/4
f 69/2/4 64/2/4 70/2/4
f 65/2/4 66/2/4 71/2/4
f 70/4/4 65/4/4 71/4/4
f 71/2/4 66/2/4 72/2/4
f 69/3/4 70/3/4 73/3/4
f 67/3/4 68/3/4 73/3/4
f 71/3/4 72/3/4 73/3/4
f 70/3/4 71/3/4 73/3/4
f 68/3/4 69/3/4 73/3/4
f 73/3/4 72/3/4 74/3/4
f 74/3/4 72/3/4 75/3/4
f 75/3/4 72/3/4 76/3/4
f 76/3/4 72/3/4 77/3/4
f 77/3/4 72/3/4 78/3/4
f 73/2/4 74/2/4 79/2/4
f 74/3/4 75/3/4 80/3/4
f 79/2/4 74/2/4 80/2/4
f 75/2/4 76/2/4 81/2/4
f 80/3/4 75/3/4 81/3/4
f 76/4/4 77/4/4 82/4/4
f 81/2/4 76/2/4 82/2/4
f 77/2/4 78/2/4 83/2/4
f 82/4/4 77/4/4 83/4/4
f 83/2/4 78/2/4 84/2/4
f 79/3/4 80/3/4 85/3/4
f 80/3/4 81/3/4 85/3/4
f 83/3/4 84/3/4 85/3/4
f 82/3/4 83/3/4 85/3/4
f 81/3/4 82/3/4 85/3/4
f 85/3/4 84/3/4 86/3/4
f 86/3/4 84/3/4 87/3/4
f 87/3/4 84/3/4 88/3/4
f 88/3/4 84/3/4 89/3/4
f 89/3/4 84/3/4 90/3/4
f 85/2/4 86/2/4 91/2/4
f 86/3/4 87/3/4 92/3/4
f 91/2/4 86/2/4 92/2/4
f 87/2/4 88/2/4 93/2/4
f 92/3/4 87/3/4 93/3/4
f 88/4/4 89/4/4 94/4/4
f 93/2/4 88/2/4 94/2/4
f 89/2/4 90/2/4 95/2/4
f 94/4/4 89/4/4 95/4/4
f 95/2/4 90/2/4 96/2/4
f 103/2/5 98/2/5 97/2/5
f 103/3/5 99/3/5 98/3/5
f 104/2/5 100/2/5 99/2/5
f 104/3/5 99/3/5 103/3/5
f 105/3/5 101/3/5 100/3/5
f 105/2/5 100/2/5 104/2/5
f 106/2/5 102/2/5 101/2/5
f 106/3/5 101/3/5 105/3/5
f 107/2/5 105/2/5 104/2/5
f 107/2/5 104/2/5 103/2/5
f 107/2/5 106/2/5 105/2/5
f 107/2/5 103/2/5 97/2/5
f 108/2/5 106/2/5 107/2/5
f 109/2/5 106/2/5 108/2/5
f 110/2/5 102/2/5 106/2/5
f 110/2/5 106/2/5 109/2/5
f 111/2/5 107/2/5 97/2/5
f 112/3/5 108/3/5 107/3/5
f 112/2/5 107/2/5 111/2/5
f 113/2/5 109/2/5 108/2/5
f 113/3/5 108/3/5 112/3/5
f 114/3/5 110/3/5 109/3/5
f 114/2/5 109/2/5 113/2/5
f 115/2/5 102/2/5 110/2/5
f 115/3/5 110/3/5 114/3/5
f 116/2/5 102/2/5 115/2/5
f 117/2/6 118/2/6 123/2/6
f 118/3/6 119/3/6 123/3/6
f 119/2/6 120/2/6 124/2/6
f 123/3/6 119/3/6 124/3/6
f 120/3/6 121/3/6 125/3/6
f 124/2/6 120/2/6 125/2/6
f 121/2/6 122/2/6 126/2/6
f 125/3/6 121/3/6 126/3/6
f 123/1/6 124/1/6 127/1/6
f 117/2/6 123/2/6 127/2/6
f 124/2/6 125/2/6 128/2/6
f 127/1/6 124/1/6 128/1/6
f 125/1/6 126/1/6 129/1/6
f 128/2/6 125/2/6 129/2/6
f 126/2/6 122/2/6 130/2/6
f 129/1/6 126/1/6 130/1/6
f 117/2/6 127/2/6 131/2/6
f 127/3/6 128/3/6 132/3/6
f 131/2/6 127/2/6 132/2/6
f 128/2/6 129/2/6 133/2/6
f 132/3/6 128/3/6 133/3/6
f 129/3/6 130/3/6 134/3/6
f 133/2/6 129/2/6 134/2/6
f 130/2/6 122/2/6 135/2/6
f 134/3/6 130/3/6 135/3/6
f 135/2/6 122/2/6 136/2/6
