# MagicaVoxel @ Ephtracy

# group
g luggage_green

# material
mtllib luggage_green.mtl
usemtl palette

# normals
vn -1 0 0
vn 1 0 0
vn 0 0 1
vn 0 0 -1
vn 0 -1 0
vn 0 1 0

# texcoords
vt 0.208984 0.5
vt 0.537109 0.5
vt 0.818359 0.5
vt 0.912109 0.5
vt 0.958984 0.5

# verts
v -9 0 5
v -9 0 1
v -9 1 5
v -9 1 1
v -9 1 -0
v -9 2 1
v -9 2 -0
v -9 2 -1
v -9 3 -0
v -9 3 -1
v -8 0 6
v -8 0 5
v -8 1 6
v -8 1 5
v -8 3 -0
v -8 3 -1
v -8 4 -0
v -8 4 -1
v -7 0 7
v -7 0 6
v -7 0 2
v -7 0 -2
v -7 1 7
v -7 1 6
v -7 1 3
v -7 1 2
v -7 1 -2
v -7 1 -3
v -7 3 -0
v -7 3 -1
v -7 4 -0
v -7 4 -1
v -7 5 3
v -7 5 2
v -7 5 -2
v -7 5 -3
v -7 6 2
v -7 6 -2
v -6 0 8
v -6 0 7
v -6 1 8
v -6 1 7
v -3 0 3
v -3 0 2
v -3 1 3
v -3 1 2
v 1 0 7
v 1 0 6
v 1 1 7
v 1 1 6
v 2 0 6
v 2 0 5
v 2 1 6
v 2 1 5
v 4 0 5
v 4 0 4
v 4 1 5
v 4 1 4
v 5 0 4
v 5 0 3
v 5 1 4
v 5 1 3
v 5 2 -0
v 5 2 -1
v 5 3 -0
v 5 3 -1
v 6 0 3
v 6 0 1
v 6 1 3
v 6 1 1
v 6 1 -0
v 6 2 1
v 6 2 -0
v -8 0 5
v -8 0 1
v -8 1 5
v -8 1 1
v -8 1 -0
v -8 2 1
v -8 2 -0
v -8 2 -1
v -8 3 -0
v -8 3 -1
v -7 0 6
v -7 0 5
v -7 1 6
v -7 1 5
v -6 0 7
v -6 0 6
v -6 1 7
v -6 1 6
v -1 0 3
v -1 0 2
v -1 1 3
v -1 1 2
v 1 0 8
v 1 0 7
v 1 1 8
v 1 1 7
v 2 0 7
v 2 0 6
v 2 1 7
v 2 1 6
v 4 0 6
v 4 0 5
v 4 0 2
v 4 0 -2
v 4 1 6
v 4 1 5
v 4 1 3
v 4 1 2
v 4 1 -2
v 4 1 -3
v 4 3 -0
v 4 3 -1
v 4 4 -0
v 4 4 -1
v 4 5 3
v 4 5 2
v 4 5 -2
v 4 5 -3
v 4 6 2
v 4 6 -2
v 5 0 5
v 5 0 4
v 5 1 5
v 5 1 4
v 5 3 -0
v 5 3 -1
v 5 4 -0
v 5 4 -1
v 6 0 4
v 6 0 3
v 6 1 4
v 6 1 3
v 7 0 3
v 7 0 1
v 7 1 3
v 7 1 1
v 7 1 -0
v 7 2 1
v 7 2 -0
v 7 2 -1
v 7 3 -0
v 7 3 -1
v -6 0 8
v -6 1 8
v 1 0 8
v 1 1 8
v -7 0 7
v -7 1 7
v -6 0 7
v -6 1 7
v 1 0 7
v 1 1 7
v 2 0 7
v 2 1 7
v -8 0 6
v -8 1 6
v -7 0 6
v -7 1 6
v 2 0 6
v 2 1 6
v 4 0 6
v 4 1 6
v -9 0 5
v -9 1 5
v -8 0 5
v -8 1 5
v 4 0 5
v 4 1 5
v 5 0 5
v 5 1 5
v 5 0 4
v 5 1 4
v 6 0 4
v 6 1 4
v -7 1 3
v -7 5 3
v -6 1 3
v -6 5 3
v -5 1 3
v -5 5 3
v -3 0 3
v -3 1 3
v -1 0 3
v -1 1 3
v 2 1 3
v 2 5 3
v 3 1 3
v 3 5 3
v 4 1 3
v 4 5 3
v 6 0 3
v 6 1 3
v 7 0 3
v 7 1 3
v -7 0 2
v -7 1 2
v -7 5 2
v -7 6 2
v -6 0 2
v -6 1 2
v -6 5 2
v -6 6 2
v -5 0 2
v -5 1 2
v -5 5 2
v -5 6 2
v -3 0 2
v -3 1 2
v -1 0 2
v -1 1 2
v 2 0 2
v 2 1 2
v 2 5 2
v 2 6 2
v 3 0 2
v 3 1 2
v 3 5 2
v 3 6 2
v 4 0 2
v 4 1 2
v 4 5 2
v 4 6 2
v -9 1 1
v -9 2 1
v -8 1 1
v -8 2 1
v 6 1 1
v 6 2 1
v 7 1 1
v 7 2 1
v -9 2 -0
v -9 3 -0
v -8 2 -0
v -8 3 -0
v -8 4 -0
v -7 3 -0
v -7 4 -0
v 4 3 -0
v 4 4 -0
v 5 2 -0
v 5 3 -0
v 5 4 -0
v 6 2 -0
v 7 2 -0
v 7 3 -0
v -6 0 7
v -6 1 7
v 1 0 7
v 1 1 7
v -7 0 6
v -7 1 6
v -6 0 6
v -6 1 6
v 1 0 6
v 1 1 6
v 2 0 6
v 2 1 6
v -8 0 5
v -8 1 5
v -7 0 5
v -7 1 5
v 2 0 5
v 2 1 5
v 4 0 5
v 4 1 5
v 4 0 4
v 4 1 4
v 5 0 4
v 5 1 4
v 5 0 3
v 5 1 3
v 6 0 3
v 6 1 3
v -9 0 1
v -9 1 1
v -8 0 1
v -8 1 1
v 6 0 1
v 6 1 1
v 7 0 1
v 7 1 1
v -9 1 -0
v -9 2 -0
v -8 1 -0
v -8 2 -0
v 6 1 -0
v 6 2 -0
v 7 1 -0
v 7 2 -0
v -9 2 -1
v -9 3 -1
v -8 2 -1
v -8 3 -1
v -8 4 -1
v -7 3 -1
v -7 4 -1
v 4 3 -1
v 4 4 -1
v 5 2 -1
v 5 3 -1
v 5 4 -1
v 7 2 -1
v 7 3 -1
v -7 0 -2
v -7 1 -2
v -7 5 -2
v -7 6 -2
v -6 0 -2
v -6 1 -2
v -6 5 -2
v -6 6 -2
v -5 0 -2
v -5 1 -2
v -5 5 -2
v -5 6 -2
v 2 0 -2
v 2 1 -2
v 2 5 -2
v 2 6 -2
v 3 0 -2
v 3 1 -2
v 3 5 -2
v 3 6 -2
v 4 0 -2
v 4 1 -2
v 4 5 -2
v 4 6 -2
v -7 1 -3
v -7 5 -3
v -6 1 -3
v -6 5 -3
v -5 1 -3
v -5 5 -3
v 2 1 -3
v 2 5 -3
v 3 1 -3
v 3 5 -3
v 4 1 -3
v 4 5 -3
v -6 0 8
v 1 0 8
v -7 0 7
v -6 0 7
v 1 0 7
v 2 0 7
v -8 0 6
v -7 0 6
v -6 0 6
v 1 0 6
v 2 0 6
v 4 0 6
v -9 0 5
v -8 0 5
v -7 0 5
v 2 0 5
v 4 0 5
v 5 0 5
v 4 0 4
v 5 0 4
v 6 0 4
v -3 0 3
v -1 0 3
v 5 0 3
v 6 0 3
v 7 0 3
v -7 0 2
v -6 0 2
v -5 0 2
v -3 0 2
v -1 0 2
v 2 0 2
v 3 0 2
v 4 0 2
v -9 0 1
v -8 0 1
v 6 0 1
v 7 0 1
v -7 0 -2
v -6 0 -2
v -5 0 -2
v 2 0 -2
v 3 0 -2
v 4 0 -2
v -7 1 3
v -6 1 3
v -5 1 3
v -3 1 3
v -1 1 3
v 2 1 3
v 3 1 3
v 4 1 3
v -7 1 2
v -6 1 2
v -5 1 2
v -3 1 2
v -1 1 2
v 2 1 2
v 3 1 2
v 4 1 2
v -9 1 1
v -8 1 1
v 6 1 1
v 7 1 1
v -9 1 -0
v -8 1 -0
v 6 1 -0
v 7 1 -0
v -7 1 -2
v -6 1 -2
v -5 1 -2
v 2 1 -2
v 3 1 -2
v 4 1 -2
v -7 1 -3
v -6 1 -3
v -5 1 -3
v 2 1 -3
v 3 1 -3
v 4 1 -3
v -9 2 -0
v -8 2 -0
v 5 2 -0
v 6 2 -0
v 7 2 -0
v -9 2 -1
v -8 2 -1
v 5 2 -1
v 7 2 -1
v -8 3 -0
v -7 3 -0
v 4 3 -0
v 5 3 -0
v -8 3 -1
v -7 3 -1
v 4 3 -1
v 5 3 -1
v -6 1 8
v 1 1 8
v -7 1 7
v -6 1 7
v 1 1 7
v 2 1 7
v -8 1 6
v -7 1 6
v -6 1 6
v 1 1 6
v 2 1 6
v 4 1 6
v -9 1 5
v -8 1 5
v -7 1 5
v 2 1 5
v 4 1 5
v 5 1 5
v 4 1 4
v 5 1 4
v 6 1 4
v 5 1 3
v 6 1 3
v 7 1 3
v -9 1 1
v -8 1 1
v 6 1 1
v 7 1 1
v -9 2 1
v -8 2 1
v 6 2 1
v 7 2 1
v -9 2 -0
v -8 2 -0
v 6 2 -0
v 7 2 -0
v -9 3 -0
v -8 3 -0
v 5 3 -0
v 7 3 -0
v -9 3 -1
v -8 3 -1
v 5 3 -1
v 7 3 -1
v -8 4 -0
v -7 4 -0
v 4 4 -0
v 5 4 -0
v -8 4 -1
v -7 4 -1
v 4 4 -1
v 5 4 -1
v -7 5 3
v -6 5 3
v -5 5 3
v 2 5 3
v 3 5 3
v 4 5 3
v -7 5 2
v -6 5 2
v -5 5 2
v 2 5 2
v 3 5 2
v 4 5 2
v -7 5 -2
v -6 5 -2
v -5 5 -2
v 2 5 -2
v 3 5 -2
v 4 5 -2
v -7 5 -3
v -6 5 -3
v -5 5 -3
v 2 5 -3
v 3 5 -3
v 4 5 -3
v -7 6 2
v -6 6 2
v -5 6 2
v 2 6 2
v 3 6 2
v 4 6 2
v -7 6 -2
v -6 6 -2
v -5 6 -2
v 2 6 -2
v 3 6 -2
v 4 6 -2

# faces
f 3/2/1 2/2/1 1/2/1
f 4/2/1 2/2/1 3/2/1
f 6/2/1 5/2/1 4/2/1
f 7/2/1 5/2/1 6/2/1
f 9/2/1 8/2/1 7/2/1
f 10/2/1 8/2/1 9/2/1
f 13/2/1 12/2/1 11/2/1
f 14/2/1 12/2/1 13/2/1
f 17/2/1 16/2/1 15/2/1
f 18/2/1 16/2/1 17/2/1
f 23/2/1 20/2/1 19/2/1
f 24/2/1 20/2/1 23/2/1
f 26/3/1 22/3/1 21/3/1
f 27/3/1 22/3/1 26/3/1
f 29/3/1 28/3/1 27/3/1
f 29/3/1 27/3/1 26/3/1
f 29/3/1 26/3/1 25/3/1
f 30/3/1 28/3/1 29/3/1
f 31/3/1 29/3/1 25/3/1
f 32/3/1 28/3/1 30/3/1
f 33/3/1 31/3/1 25/3/1
f 33/3/1 32/3/1 31/3/1
f 34/3/1 32/3/1 33/3/1
f 35/3/1 28/3/1 32/3/1
f 35/3/1 32/3/1 34/3/1
f 36/3/1 28/3/1 35/3/1
f 37/3/1 35/3/1 34/3/1
f 38/3/1 35/3/1 37/3/1
f 41/2/1 40/2/1 39/2/1
f 42/2/1 40/2/1 41/2/1
f 45/1/1 44/1/1 43/1/1
f 46/1/1 44/1/1 45/1/1
f 49/2/1 48/2/1 47/2/1
f 50/2/1 48/2/1 49/2/1
f 53/2/1 52/2/1 51/2/1
f 54/2/1 52/2/1 53/2/1
f 57/2/1 56/2/1 55/2/1
f 58/2/1 56/2/1 57/2/1
f 61/2/1 60/2/1 59/2/1
f 62/2/1 60/2/1 61/2/1
f 65/2/1 64/2/1 63/2/1
f 66/2/1 64/2/1 65/2/1
f 69/2/1 68/2/1 67/2/1
f 70/2/1 68/2/1 69/2/1
f 72/2/1 71/2/1 70/2/1
f 73/2/1 71/2/1 72/2/1
f 74/2/2 75/2/2 76/2/2
f 76/2/2 75/2/2 77/2/2
f 77/2/2 78/2/2 79/2/2
f 79/2/2 78/2/2 80/2/2
f 80/2/2 81/2/2 82/2/2
f 82/2/2 81/2/2 83/2/2
f 84/2/2 85/2/2 86/2/2
f 86/2/2 85/2/2 87/2/2
f 88/2/2 89/2/2 90/2/2
f 90/2/2 89/2/2 91/2/2
f 92/1/2 93/1/2 94/1/2
f 94/1/2 93/1/2 95/1/2
f 96/2/2 97/2/2 98/2/2
f 98/2/2 97/2/2 99/2/2
f 100/2/2 101/2/2 102/2/2
f 102/2/2 101/2/2 103/2/2
f 104/2/2 105/2/2 108/2/2
f 108/2/2 105/2/2 109/2/2
f 106/3/2 107/3/2 111/3/2
f 111/3/2 107/3/2 112/3/2
f 112/3/2 113/3/2 114/3/2
f 111/3/2 112/3/2 114/3/2
f 110/3/2 111/3/2 114/3/2
f 114/3/2 113/3/2 115/3/2
f 110/3/2 114/3/2 116/3/2
f 115/3/2 113/3/2 117/3/2
f 110/3/2 116/3/2 118/3/2
f 116/3/2 117/3/2 118/3/2
f 118/3/2 117/3/2 119/3/2
f 117/3/2 113/3/2 120/3/2
f 119/3/2 117/3/2 120/3/2
f 120/3/2 113/3/2 121/3/2
f 119/3/2 120/3/2 122/3/2
f 122/3/2 120/3/2 123/3/2
f 124/2/2 125/2/2 126/2/2
f 126/2/2 125/2/2 127/2/2
f 128/2/2 129/2/2 130/2/2
f 130/2/2 129/2/2 131/2/2
f 132/2/2 133/2/2 134/2/2
f 134/2/2 133/2/2 135/2/2
f 136/2/2 137/2/2 138/2/2
f 138/2/2 137/2/2 139/2/2
f 139/2/2 140/2/2 141/2/2
f 141/2/2 140/2/2 142/2/2
f 142/2/2 143/2/2 144/2/2
f 144/2/2 143/2/2 145/2/2
f 148/2/3 147/2/3 146/2/3
f 149/2/3 147/2/3 148/2/3
f 152/2/3 151/2/3 150/2/3
f 153/2/3 151/2/3 152/2/3
f 156/2/3 155/2/3 154/2/3
f 157/2/3 155/2/3 156/2/3
f 160/2/3 159/2/3 158/2/3
f 161/2/3 159/2/3 160/2/3
f 164/2/3 163/2/3 162/2/3
f 165/2/3 163/2/3 164/2/3
f 168/2/3 167/2/3 166/2/3
f 169/2/3 167/2/3 168/2/3
f 172/2/3 171/2/3 170/2/3
f 173/2/3 171/2/3 172/2/3
f 176/2/3 175/2/3 174/2/3
f 177/2/3 175/2/3 176/2/3
f 180/3/3 179/3/3 178/3/3
f 181/3/3 179/3/3 180/3/3
f 182/4/3 181/4/3 180/4/3
f 183/4/3 181/4/3 182/4/3
f 185/3/3 183/3/3 182/3/3
f 186/1/3 185/1/3 184/1/3
f 187/3/3 183/3/3 185/3/3
f 187/1/3 185/1/3 186/1/3
f 188/3/3 183/3/3 187/3/3
f 189/3/3 183/3/3 188/3/3
f 190/4/3 189/4/3 188/4/3
f 191/4/3 189/4/3 190/4/3
f 192/3/3 191/3/3 190/3/3
f 193/3/3 191/3/3 192/3/3
f 196/2/3 195/2/3 194/2/3
f 197/2/3 195/2/3 196/2/3
f 202/3/3 199/3/3 198/3/3
f 203/3/3 199/3/3 202/3/3
f 204/3/3 201/3/3 200/3/3
f 205/3/3 201/3/3 204/3/3
f 206/4/3 203/4/3 202/4/3
f 207/4/3 203/4/3 206/4/3
f 208/4/3 205/4/3 204/4/3
f 209/4/3 205/4/3 208/4/3
f 210/3/3 207/3/3 206/3/3
f 211/3/3 207/3/3 210/3/3
f 214/3/3 213/3/3 212/3/3
f 215/3/3 213/3/3 214/3/3
f 216/3/3 209/3/3 208/3/3
f 217/3/3 209/3/3 216/3/3
f 218/4/3 215/4/3 214/4/3
f 219/4/3 215/4/3 218/4/3
f 220/4/3 217/4/3 216/4/3
f 221/4/3 217/4/3 220/4/3
f 222/3/3 219/3/3 218/3/3
f 223/3/3 219/3/3 222/3/3
f 224/3/3 221/3/3 220/3/3
f 225/3/3 221/3/3 224/3/3
f 228/2/3 227/2/3 226/2/3
f 229/2/3 227/2/3 228/2/3
f 232/2/3 231/2/3 230/2/3
f 233/2/3 231/2/3 232/2/3
f 236/2/3 235/2/3 234/2/3
f 237/2/3 235/2/3 236/2/3
f 239/2/3 238/2/3 237/2/3
f 240/2/3 238/2/3 239/2/3
f 244/2/3 242/2/3 241/2/3
f 245/2/3 242/2/3 244/2/3
f 246/2/3 244/2/3 243/2/3
f 247/2/3 244/2/3 246/2/3
f 248/2/3 244/2/3 247/2/3
f 249/2/4 250/2/4 251/2/4
f 251/2/4 250/2/4 252/2/4
f 253/2/4 254/2/4 255/2/4
f 255/2/4 254/2/4 256/2/4
f 257/2/4 258/2/4 259/2/4
f 259/2/4 258/2/4 260/2/4
f 261/2/4 262/2/4 263/2/4
f 263/2/4 262/2/4 264/2/4
f 265/2/4 266/2/4 267/2/4
f 267/2/4 266/2/4 268/2/4
f 269/2/4 270/2/4 271/2/4
f 271/2/4 270/2/4 272/2/4
f 273/2/4 274/2/4 275/2/4
f 275/2/4 274/2/4 276/2/4
f 277/2/4 278/2/4 279/2/4
f 279/2/4 278/2/4 280/2/4
f 281/2/4 282/2/4 283/2/4
f 283/2/4 282/2/4 284/2/4
f 285/2/4 286/2/4 287/2/4
f 287/2/4 286/2/4 288/2/4
f 289/2/4 290/2/4 291/2/4
f 291/2/4 290/2/4 292/2/4
f 293/2/4 294/2/4 295/2/4
f 295/2/4 294/2/4 296/2/4
f 296/2/4 297/2/4 298/2/4
f 298/2/4 297/2/4 299/2/4
f 300/2/4 301/2/4 303/2/4
f 303/2/4 301/2/4 304/2/4
f 302/2/4 303/2/4 305/2/4
f 305/2/4 303/2/4 306/2/4
f 307/3/4 308/3/4 311/3/4
f 311/3/4 308/3/4 312/3/4
f 309/3/4 310/3/4 313/3/4
f 313/3/4 310/3/4 314/3/4
f 311/4/4 312/4/4 315/4/4
f 315/4/4 312/4/4 316/4/4
f 313/4/4 314/4/4 317/4/4
f 317/4/4 314/4/4 318/4/4
f 315/3/4 316/3/4 319/3/4
f 319/3/4 316/3/4 320/3/4
f 317/3/4 318/3/4 321/3/4
f 321/3/4 318/3/4 322/3/4
f 319/4/4 320/4/4 323/4/4
f 323/4/4 320/4/4 324/4/4
f 321/4/4 322/4/4 325/4/4
f 325/4/4 322/4/4 326/4/4
f 323/3/4 324/3/4 327/3/4
f 327/3/4 324/3/4 328/3/4
f 325/3/4 326/3/4 329/3/4
f 329/3/4 326/3/4 330/3/4
f 331/3/4 332/3/4 333/3/4
f 333/3/4 332/3/4 334/3/4
f 333/4/4 334/4/4 335/4/4
f 335/4/4 334/4/4 336/4/4
f 335/3/4 336/3/4 337/3/4
f 337/3/4 336/3/4 338/3/4
f 337/4/4 338/4/4 339/4/4
f 339/4/4 338/4/4 340/4/4
f 339/3/4 340/3/4 341/3/4
f 341/3/4 340/3/4 342/3/4
f 346/2/5 344/2/5 343/2/5
f 347/2/5 344/2/5 346/2/5
f 350/2/5 346/2/5 345/2/5
f 351/2/5 346/2/5 350/2/5
f 352/2/5 348/2/5 347/2/5
f 353/2/5 348/2/5 352/2/5
f 356/2/5 350/2/5 349/2/5
f 357/2/5 350/2/5 356/2/5
f 358/2/5 354/2/5 353/2/5
f 359/2/5 354/2/5 358/2/5
f 361/2/5 360/2/5 359/2/5
f 362/2/5 360/2/5 361/2/5
f 366/2/5 363/2/5 362/2/5
f 367/2/5 363/2/5 366/2/5
f 372/1/5 365/1/5 364/1/5
f 373/1/5 365/1/5 372/1/5
f 377/2/5 356/2/5 355/2/5
f 378/2/5 356/2/5 377/2/5
f 379/2/5 368/2/5 367/2/5
f 380/2/5 368/2/5 379/2/5
f 381/3/5 370/3/5 369/3/5
f 382/4/5 371/4/5 370/4/5
f 382/3/5 370/3/5 381/3/5
f 383/3/5 372/3/5 371/3/5
f 383/4/5 371/4/5 382/4/5
f 383/3/5 373/3/5 372/3/5
f 383/3/5 374/3/5 373/3/5
f 384/4/5 375/4/5 374/4/5
f 384/3/5 374/3/5 383/3/5
f 385/3/5 376/3/5 375/3/5
f 385/4/5 375/4/5 384/4/5
f 386/3/5 376/3/5 385/3/5
f 395/3/5 388/3/5 387/3/5
f 396/4/5 389/4/5 388/4/5
f 396/3/5 388/3/5 395/3/5
f 397/3/5 390/3/5 389/3/5
f 397/4/5 389/4/5 396/4/5
f 398/3/5 390/3/5 397/3/5
f 399/3/5 392/3/5 391/3/5
f 400/4/5 393/4/5 392/4/5
f 400/3/5 392/3/5 399/3/5
f 401/3/5 394/3/5 393/3/5
f 401/4/5 393/4/5 400/4/5
f 402/3/5 394/3/5 401/3/5
f 407/2/5 404/2/5 403/2/5
f 408/2/5 404/2/5 407/2/5
f 409/2/5 406/2/5 405/2/5
f 410/2/5 406/2/5 409/2/5
f 417/3/5 412/3/5 411/3/5
f 418/4/5 413/4/5 412/4/5
f 418/3/5 412/3/5 417/3/5
f 419/3/5 414/3/5 413/3/5
f 419/4/5 413/4/5 418/4/5
f 420/4/5 415/4/5 414/4/5
f 420/3/5 414/3/5 419/3/5
f 421/3/5 416/3/5 415/3/5
f 421/4/5 415/4/5 420/4/5
f 422/3/5 416/3/5 421/3/5
f 428/2/5 424/2/5 423/2/5
f 429/2/5 424/2/5 428/2/5
f 430/2/5 427/2/5 426/2/5
f 430/2/5 426/2/5 425/2/5
f 431/2/5 427/2/5 430/2/5
f 436/2/5 433/2/5 432/2/5
f 437/2/5 433/2/5 436/2/5
f 438/2/5 435/2/5 434/2/5
f 439/2/5 435/2/5 438/2/5
f 440/2/6 441/2/6 443/2/6
f 443/2/6 441/2/6 444/2/6
f 442/2/6 443/2/6 447/2/6
f 447/2/6 443/2/6 448/2/6
f 444/2/6 445/2/6 449/2/6
f 449/2/6 445/2/6 450/2/6
f 446/2/6 447/2/6 453/2/6
f 453/2/6 447/2/6 454/2/6
f 450/2/6 451/2/6 455/2/6
f 455/2/6 451/2/6 456/2/6
f 456/2/6 457/2/6 458/2/6
f 458/2/6 457/2/6 459/2/6
f 459/2/6 460/2/6 461/2/6
f 461/2/6 460/2/6 462/2/6
f 452/2/6 453/2/6 464/2/6
f 464/2/6 453/2/6 465/2/6
f 462/2/6 463/2/6 466/2/6
f 466/2/6 463/2/6 467/2/6
f 468/2/6 469/2/6 472/2/6
f 472/2/6 469/2/6 473/2/6
f 470/2/6 471/2/6 474/2/6
f 474/2/6 471/2/6 475/2/6
f 476/2/6 477/2/6 480/2/6
f 480/2/6 477/2/6 481/2/6
f 478/2/6 479/2/6 482/2/6
f 482/2/6 479/2/6 483/2/6
f 484/2/6 485/2/6 488/2/6
f 488/2/6 485/2/6 489/2/6
f 486/2/6 487/2/6 490/2/6
f 490/2/6 487/2/6 491/2/6
f 492/3/6 493/3/6 498/3/6
f 493/4/6 494/4/6 499/4/6
f 498/3/6 493/3/6 499/3/6
f 494/3/6 495/3/6 500/3/6
f 499/4/6 494/4/6 500/4/6
f 495/4/6 496/4/6 501/4/6
f 500/3/6 495/3/6 501/3/6
f 496/3/6 497/3/6 502/3/6
f 501/4/6 496/4/6 502/4/6
f 502/3/6 497/3/6 503/3/6
f 504/3/6 505/3/6 510/3/6
f 505/4/6 506/4/6 511/4/6
f 510/3/6 505/3/6 511/3/6
f 506/3/6 507/3/6 512/3/6
f 511/4/6 506/4/6 512/4/6
f 507/4/6 508/4/6 513/4/6
f 512/3/6 507/3/6 513/3/6
f 508/3/6 509/3/6 514/3/6
f 513/4/6 508/4/6 514/4/6
f 514/3/6 509/3/6 515/3/6
f 516/3/6 517/3/6 522/3/6
f 517/4/6 518/4/6 523/4/6
f 522/3/6 517/3/6 523/3/6
f 518/3/6 519/3/6 524/3/6
f 523/4/6 518/4/6 524/4/6
f 519/4/6 520/4/6 525/4/6
f 524/3/6 519/3/6 525/3/6
f 520/3/6 521/3/6 526/3/6
f 525/4/6 520/4/6 526/4/6
f 526/3/6 521/3/6 527/3/6
