# MagicaVoxel @ Ephtracy

# group
g Maid_Prototype

# material
mtllib Maid_Prototype.mtl
usemtl palette

# normals
vn -1 0 0
vn 1 0 0
vn 0 0 1
vn 0 0 -1
vn 0 -1 0
vn 0 1 0

# texcoords
vt 0.0332031 0.5
vt 0.958984 0.5
vt 0.994141 0.5

# verts
v -6 5 1
v -6 5 -1
v -6 6 1
v -6 6 -1
v -5 6 1
v -5 6 -1
v -5 7 1
v -5 7 -1
v -4 4 3
v -4 4 -3
v -4 5 3
v -4 5 -3
v -4 7 1
v -4 7 -1
v -4 8 1
v -4 8 -1
v -4 12 1
v -4 12 -2
v -4 13 2
v -4 13 1
v -4 13 -2
v -4 13 -3
v -4 14 2
v -4 14 -3
v -3 1 3
v -3 1 2
v -3 2 2
v -3 2 -2
v -3 3 -2
v -3 3 -3
v -3 4 3
v -3 4 2
v -3 4 -2
v -3 4 -3
v -3 5 2
v -3 5 -2
v -3 5 -3
v -3 6 -2
v -3 6 -3
v -3 7 1
v -3 7 -1
v -3 8 1
v -3 8 -1
v -3 9 2
v -3 9 -2
v -3 11 1
v -3 11 -2
v -3 12 2
v -3 12 1
v -3 12 -2
v -3 12 -3
v -3 13 3
v -3 13 2
v -3 13 1
v -3 13 -2
v -3 13 -3
v -3 13 -4
v -3 14 3
v -3 14 2
v -3 14 1
v -3 14 -2
v -3 14 -3
v -3 14 -4
v -3 15 1
v -3 15 -2
v -2 0 1
v -2 0 -0
v -2 1 1
v -2 1 -0
v -2 2 1
v -2 2 -0
v -2 2 -2
v -2 2 -3
v -2 3 -2
v -2 3 -3
v -2 10 2
v -2 10 -2
v -2 11 2
v -2 11 1
v -2 11 -2
v -2 11 -3
v -2 12 3
v -2 12 2
v -2 12 1
v -2 12 -2
v -2 12 -3
v -2 13 3
v -2 13 2
v -2 14 2
v -2 14 1
v -2 14 -2
v -2 14 -3
v -2 15 2
v -2 15 1
v -2 15 -0
v -2 15 -1
v -2 15 -2
v -2 15 -3
v -2 16 -0
v -2 16 -1
v -1 4 -2
v -1 4 -3
v -1 5 -2
v -1 5 -3
v -1 9 1
v -1 9 -1
v -1 10 1
v -1 10 -1
v -1 15 1
v -1 15 -0
v -1 15 -1
v -1 15 -2
v -1 16 1
v -1 16 -0
v -1 16 -1
v -1 16 -2
v 1 0 1
v 1 0 -0
v 1 1 1
v 1 1 -0
v 1 2 1
v 1 2 -0
v 1 2 -2
v 1 2 -3
v 1 3 -2
v 1 3 -3
v 1 12 3
v 1 12 2
v 1 13 3
v 1 13 2
v 2 4 -2
v 2 4 -3
v 2 5 -2
v 2 5 -3
v 4 6 1
v 4 6 -1
v 4 7 1
v 4 7 -1
v 5 5 1
v 5 5 -1
v 5 6 1
v 5 6 -1
v -5 5 1
v -5 5 -1
v -5 6 1
v -5 6 -1
v -4 6 1
v -4 6 -1
v -4 7 1
v -4 7 -1
v -2 4 -2
v -2 4 -3
v -2 5 -2
v -2 5 -3
v -1 0 1
v -1 0 -0
v -1 1 1
v -1 1 -0
v -1 2 1
v -1 2 -0
v -1 2 -2
v -1 2 -3
v -1 3 -2
v -1 3 -3
v -1 12 3
v -1 12 2
v -1 13 3
v -1 13 2
v 1 4 -2
v 1 4 -3
v 1 5 -2
v 1 5 -3
v 1 9 1
v 1 9 -1
v 1 10 1
v 1 10 -1
v 1 15 1
v 1 15 -0
v 1 15 -1
v 1 15 -2
v 1 16 1
v 1 16 -0
v 1 16 -1
v 1 16 -2
v 2 0 1
v 2 0 -0
v 2 1 1
v 2 1 -0
v 2 2 1
v 2 2 -0
v 2 2 -2
v 2 2 -3
v 2 3 -2
v 2 3 -3
v 2 10 2
v 2 10 -2
v 2 11 2
v 2 11 1
v 2 11 -2
v 2 11 -3
v 2 12 3
v 2 12 2
v 2 12 1
v 2 12 -2
v 2 12 -3
v 2 13 3
v 2 13 2
v 2 14 2
v 2 14 1
v 2 14 -2
v 2 14 -3
v 2 15 2
v 2 15 1
v 2 15 -0
v 2 15 -1
v 2 15 -2
v 2 15 -3
v 2 16 -0
v 2 16 -1
v 3 1 3
v 3 1 2
v 3 2 2
v 3 2 -2
v 3 3 -2
v 3 3 -3
v 3 4 3
v 3 4 2
v 3 4 -2
v 3 4 -3
v 3 5 2
v 3 5 -2
v 3 5 -3
v 3 6 -2
v 3 6 -3
v 3 7 1
v 3 7 -1
v 3 8 1
v 3 8 -1
v 3 9 2
v 3 9 -2
v 3 11 1
v 3 11 -2
v 3 12 2
v 3 12 1
v 3 12 -2
v 3 12 -3
v 3 13 3
v 3 13 2
v 3 13 1
v 3 13 -2
v 3 13 -3
v 3 13 -4
v 3 14 3
v 3 14 2
v 3 14 1
v 3 14 -2
v 3 14 -3
v 3 14 -4
v 3 15 1
v 3 15 -2
v 4 4 3
v 4 4 -3
v 4 5 3
v 4 5 -3
v 4 7 1
v 4 7 -1
v 4 8 1
v 4 8 -1
v 4 12 1
v 4 12 -2
v 4 13 2
v 4 13 1
v 4 13 -2
v 4 13 -3
v 4 14 2
v 4 14 -3
v 5 6 1
v 5 6 -1
v 5 7 1
v 5 7 -1
v 6 5 1
v 6 5 -1
v 6 6 1
v 6 6 -1
v -4 4 3
v -4 5 3
v -3 1 3
v -3 4 3
v -3 13 3
v -3 14 3
v -2 12 3
v -2 13 3
v -1 12 3
v -1 13 3
v 1 12 3
v 1 13 3
v 2 12 3
v 2 13 3
v 3 1 3
v 3 4 3
v 3 13 3
v 3 14 3
v 4 4 3
v 4 5 3
v -4 13 2
v -4 14 2
v -3 5 2
v -3 9 2
v -3 12 2
v -3 13 2
v -3 14 2
v -2 5 2
v -2 9 2
v -2 10 2
v -2 11 2
v -2 12 2
v -2 13 2
v -2 14 2
v -2 15 2
v -1 8 2
v -1 9 2
v -1 11 2
v -1 12 2
v -1 13 2
v 1 8 2
v 1 9 2
v 1 11 2
v 1 12 2
v 1 13 2
v 2 5 2
v 2 9 2
v 2 10 2
v 2 11 2
v 2 12 2
v 2 13 2
v 2 14 2
v 2 15 2
v 3 5 2
v 3 9 2
v 3 12 2
v 3 13 2
v 3 14 2
v 4 13 2
v 4 14 2
v -6 5 1
v -6 6 1
v -5 5 1
v -5 6 1
v -5 7 1
v -4 6 1
v -4 7 1
v -4 8 1
v -4 12 1
v -4 13 1
v -3 7 1
v -3 8 1
v -3 11 1
v -3 12 1
v -3 13 1
v -3 14 1
v -3 15 1
v -2 0 1
v -2 1 1
v -2 2 1
v -2 11 1
v -2 12 1
v -2 14 1
v -2 15 1
v -1 0 1
v -1 1 1
v -1 2 1
v -1 9 1
v -1 10 1
v -1 15 1
v -1 16 1
v 1 0 1
v 1 1 1
v 1 2 1
v 1 9 1
v 1 10 1
v 1 15 1
v 1 16 1
v 2 0 1
v 2 1 1
v 2 2 1
v 2 11 1
v 2 12 1
v 2 14 1
v 2 15 1
v 3 7 1
v 3 8 1
v 3 11 1
v 3 12 1
v 3 13 1
v 3 14 1
v 3 15 1
v 4 6 1
v 4 7 1
v 4 8 1
v 4 12 1
v 4 13 1
v 5 5 1
v 5 6 1
v 5 7 1
v 6 5 1
v 6 6 1
v -2 15 -0
v -2 16 -0
v -1 15 -0
v -1 16 -0
v 1 15 -0
v 1 16 -0
v 2 15 -0
v 2 16 -0
v -3 1 2
v -3 2 2
v -2 2 2
v 2 2 2
v 3 1 2
v 3 2 2
v -2 0 -0
v -2 1 -0
v -2 2 -0
v -1 0 -0
v -1 1 -0
v -1 2 -0
v 1 0 -0
v 1 1 -0
v 1 2 -0
v 2 0 -0
v 2 1 -0
v 2 2 -0
v -6 5 -1
v -6 6 -1
v -5 5 -1
v -5 6 -1
v -5 7 -1
v -4 6 -1
v -4 7 -1
v -4 8 -1
v -3 7 -1
v -3 8 -1
v -2 15 -1
v -2 16 -1
v -1 9 -1
v -1 10 -1
v -1 15 -1
v -1 16 -1
v 1 9 -1
v 1 10 -1
v 1 15 -1
v 1 16 -1
v 2 15 -1
v 2 16 -1
v 3 7 -1
v 3 8 -1
v 4 6 -1
v 4 7 -1
v 4 8 -1
v 5 5 -1
v 5 6 -1
v 5 7 -1
v 6 5 -1
v 6 6 -1
v -4 12 -2
v -4 13 -2
v -3 2 -2
v -3 3 -2
v -3 6 -2
v -3 9 -2
v -3 11 -2
v -3 12 -2
v -3 13 -2
v -3 14 -2
v -3 15 -2
v -2 2 -2
v -2 3 -2
v -2 4 -2
v -2 5 -2
v -2 6 -2
v -2 9 -2
v -2 10 -2
v -2 11 -2
v -2 12 -2
v -2 14 -2
v -2 15 -2
v -1 2 -2
v -1 3 -2
v -1 4 -2
v -1 5 -2
v -1 6 -2
v -1 7 -2
v -1 8 -2
v -1 9 -2
v -1 15 -2
v -1 16 -2
v 1 2 -2
v 1 3 -2
v 1 4 -2
v 1 5 -2
v 1 6 -2
v 1 7 -2
v 1 8 -2
v 1 9 -2
v 1 15 -2
v 1 16 -2
v 2 2 -2
v 2 3 -2
v 2 4 -2
v 2 5 -2
v 2 6 -2
v 2 9 -2
v 2 10 -2
v 2 11 -2
v 2 12 -2
v 2 14 -2
v 2 15 -2
v 3 2 -2
v 3 3 -2
v 3 6 -2
v 3 9 -2
v 3 11 -2
v 3 12 -2
v 3 13 -2
v 3 14 -2
v 3 15 -2
v 4 12 -2
v 4 13 -2
v -4 4 -3
v -4 5 -3
v -4 13 -3
v -4 14 -3
v -3 3 -3
v -3 4 -3
v -3 5 -3
v -3 6 -3
v -3 12 -3
v -3 13 -3
v -3 14 -3
v -2 2 -3
v -2 3 -3
v -2 4 -3
v -2 5 -3
v -2 11 -3
v -2 12 -3
v -2 14 -3
v -2 15 -3
v -1 2 -3
v -1 3 -3
v -1 4 -3
v -1 5 -3
v 1 2 -3
v 1 3 -3
v 1 4 -3
v 1 5 -3
v 2 2 -3
v 2 3 -3
v 2 4 -3
v 2 5 -3
v 2 11 -3
v 2 12 -3
v 2 14 -3
v 2 15 -3
v 3 3 -3
v 3 4 -3
v 3 5 -3
v 3 6 -3
v 3 12 -3
v 3 13 -3
v 3 14 -3
v 4 4 -3
v 4 5 -3
v 4 13 -3
v 4 14 -3
v -3 13 -4
v -3 14 -4
v 3 13 -4
v 3 14 -4
v -2 0 1
v -1 0 1
v 1 0 1
v 2 0 1
v -2 0 -0
v -1 0 -0
v 1 0 -0
v 2 0 -0
v -3 1 3
v 3 1 3
v -3 1 2
v 3 1 2
v -3 2 2
v -2 2 2
v 2 2 2
v 3 2 2
v -2 2 1
v -1 2 1
v 1 2 1
v 2 2 1
v -2 2 -0
v -1 2 -0
v 1 2 -0
v 2 2 -0
v -1 2 -1
v 1 2 -1
v -3 2 -2
v -2 2 -2
v -1 2 -2
v 1 2 -2
v 2 2 -2
v 3 2 -2
v -2 2 -3
v -1 2 -3
v 1 2 -3
v 2 2 -3
v -3 3 -2
v -2 3 -2
v -1 3 -2
v 1 3 -2
v 2 3 -2
v 3 3 -2
v -3 3 -3
v -2 3 -3
v -1 3 -3
v 1 3 -3
v 2 3 -3
v 3 3 -3
v -4 4 3
v -3 4 3
v 3 4 3
v 4 4 3
v -3 4 2
v 3 4 2
v -3 4 -2
v 3 4 -2
v -4 4 -3
v -3 4 -3
v 3 4 -3
v 4 4 -3
v -6 5 1
v -5 5 1
v 5 5 1
v 6 5 1
v -6 5 -1
v -5 5 -1
v 5 5 -1
v 6 5 -1
v -2 5 -2
v -1 5 -2
v 1 5 -2
v 2 5 -2
v -2 5 -3
v -1 5 -3
v 1 5 -3
v 2 5 -3
v -5 6 1
v -4 6 1
v 4 6 1
v 5 6 1
v -5 6 -1
v -4 6 -1
v 4 6 -1
v 5 6 -1
v -4 7 1
v -3 7 1
v 3 7 1
v 4 7 1
v -4 7 -1
v -3 7 -1
v 3 7 -1
v 4 7 -1
v -2 10 2
v 2 10 2
v -1 10 1
v 1 10 1
v -1 10 -1
v 1 10 -1
v -2 10 -2
v 2 10 -2
v -3 11 1
v -2 11 1
v 2 11 1
v 3 11 1
v -3 11 -2
v -2 11 -2
v 2 11 -2
v 3 11 -2
v -2 11 -3
v 2 11 -3
v -2 12 3
v -1 12 3
v 1 12 3
v 2 12 3
v -3 12 2
v -2 12 2
v -1 12 2
v 1 12 2
v 2 12 2
v 3 12 2
v -4 12 1
v -3 12 1
v -2 12 1
v 2 12 1
v 3 12 1
v 4 12 1
v -4 12 -2
v -3 12 -2
v -2 12 -2
v 2 12 -2
v 3 12 -2
v 4 12 -2
v -3 12 -3
v -2 12 -3
v 2 12 -3
v 3 12 -3
v -3 13 3
v -2 13 3
v -1 13 3
v 1 13 3
v 2 13 3
v 3 13 3
v -4 13 2
v -3 13 2
v -2 13 2
v -1 13 2
v 1 13 2
v 2 13 2
v 3 13 2
v 4 13 2
v -4 13 1
v -3 13 1
v 3 13 1
v 4 13 1
v -4 13 -2
v -3 13 -2
v 3 13 -2
v 4 13 -2
v -4 13 -3
v -3 13 -3
v 3 13 -3
v 4 13 -3
v -3 13 -4
v 3 13 -4
v -2 4 -2
v -1 4 -2
v 1 4 -2
v 2 4 -2
v -2 4 -3
v -1 4 -3
v 1 4 -3
v 2 4 -3
v -4 5 3
v 4 5 3
v -3 5 2
v -2 5 2
v 2 5 2
v 3 5 2
v -3 5 -2
v 3 5 -2
v -4 5 -3
v -3 5 -3
v 3 5 -3
v 4 5 -3
v -6 6 1
v -5 6 1
v 5 6 1
v 6 6 1
v -6 6 -1
v -5 6 -1
v 5 6 -1
v 6 6 -1
v -3 6 -2
v -2 6 -2
v -1 6 -2
v 1 6 -2
v 2 6 -2
v 3 6 -2
v -3 6 -3
v 3 6 -3
v -5 7 1
v -4 7 1
v 4 7 1
v 5 7 1
v -5 7 -1
v -4 7 -1
v 4 7 -1
v 5 7 -1
v -4 8 1
v -3 8 1
v 3 8 1
v 4 8 1
v -4 8 -1
v -3 8 -1
v 3 8 -1
v 4 8 -1
v -3 9 2
v -2 9 2
v -1 9 2
v 1 9 2
v 2 9 2
v 3 9 2
v -1 9 1
v 1 9 1
v -1 9 -1
v 1 9 -1
v -3 9 -2
v -2 9 -2
v -1 9 -2
v 1 9 -2
v 2 9 -2
v 3 9 -2
v -3 14 3
v 3 14 3
v -4 14 2
v -3 14 2
v -2 14 2
v 2 14 2
v 3 14 2
v 4 14 2
v -3 14 1
v -2 14 1
v 2 14 1
v 3 14 1
v -3 14 -2
v -2 14 -2
v 2 14 -2
v 3 14 -2
v -4 14 -3
v -3 14 -3
v -2 14 -3
v 2 14 -3
v 3 14 -3
v 4 14 -3
v -3 14 -4
v 3 14 -4
v -2 15 2
v 2 15 2
v -3 15 1
v -2 15 1
v -1 15 1
v 1 15 1
v 2 15 1
v 3 15 1
v -2 15 -0
v -1 15 -0
v 1 15 -0
v 2 15 -0
v -2 15 -1
v -1 15 -1
v 1 15 -1
v 2 15 -1
v -3 15 -2
v -2 15 -2
v -1 15 -2
v 1 15 -2
v 2 15 -2
v 3 15 -2
v -2 15 -3
v 2 15 -3
v -1 16 1
v 1 16 1
v -2 16 -0
v -1 16 -0
v 1 16 -0
v 2 16 -0
v -2 16 -1
v -1 16 -1
v 1 16 -1
v 2 16 -1
v -1 16 -2
v 1 16 -2

# faces
f 3/1/1 2/1/1 1/1/1
f 4/1/1 2/1/1 3/1/1
f 7/1/1 6/1/1 5/1/1
f 8/1/1 6/1/1 7/1/1
f 11/2/1 10/2/1 9/2/1
f 12/2/1 10/2/1 11/2/1
f 15/1/1 14/1/1 13/1/1
f 16/1/1 14/1/1 15/1/1
f 20/2/1 18/2/1 17/2/1
f 21/2/1 18/2/1 20/2/1
f 23/2/1 20/2/1 19/2/1
f 23/2/1 22/2/1 21/2/1
f 23/2/1 21/2/1 20/2/1
f 24/2/1 22/2/1 23/2/1
f 27/2/1 26/2/1 25/2/1
f 29/3/1 28/3/1 27/3/1
f 31/2/1 27/2/1 25/2/1
f 32/3/1 29/3/1 27/3/1
f 32/2/1 27/2/1 31/2/1
f 33/2/1 30/2/1 29/2/1
f 33/3/1 29/3/1 32/3/1
f 34/2/1 30/2/1 33/2/1
f 38/3/1 36/3/1 35/3/1
f 38/2/1 37/2/1 36/2/1
f 39/2/1 37/2/1 38/2/1
f 40/3/1 38/3/1 35/3/1
f 41/3/1 38/3/1 40/3/1
f 42/3/1 40/3/1 35/3/1
f 43/3/1 38/3/1 41/3/1
f 44/3/1 42/3/1 35/3/1
f 44/3/1 43/3/1 42/3/1
f 45/3/1 38/3/1 43/3/1
f 45/3/1 43/3/1 44/3/1
f 49/2/1 47/2/1 46/2/1
f 50/2/1 47/2/1 49/2/1
f 53/2/1 49/2/1 48/2/1
f 54/2/1 49/2/1 53/2/1
f 55/2/1 51/2/1 50/2/1
f 56/2/1 51/2/1 55/2/1
f 58/2/1 53/2/1 52/2/1
f 59/2/1 53/2/1 58/2/1
f 62/2/1 57/2/1 56/2/1
f 63/2/1 57/2/1 62/2/1
f 64/2/1 61/2/1 60/2/1
f 65/2/1 61/2/1 64/2/1
f 68/3/1 67/3/1 66/3/1
f 69/3/1 67/3/1 68/3/1
f 70/2/1 69/2/1 68/2/1
f 71/2/1 69/2/1 70/2/1
f 74/2/1 73/2/1 72/2/1
f 75/2/1 73/2/1 74/2/1
f 78/1/1 77/1/1 76/1/1
f 79/1/1 77/1/1 78/1/1
f 80/1/1 77/1/1 79/1/1
f 83/3/1 79/3/1 78/3/1
f 84/3/1 79/3/1 83/3/1
f 85/2/1 81/2/1 80/2/1
f 86/2/1 81/2/1 85/2/1
f 87/2/1 83/2/1 82/2/1
f 88/2/1 83/2/1 87/2/1
f 93/2/1 90/2/1 89/2/1
f 94/2/1 90/2/1 93/2/1
f 97/2/1 92/2/1 91/2/1
f 98/2/1 92/2/1 97/2/1
f 99/2/1 96/2/1 95/2/1
f 100/2/1 96/2/1 99/2/1
f 103/2/1 102/2/1 101/2/1
f 104/2/1 102/2/1 103/2/1
f 107/1/1 106/1/1 105/1/1
f 108/1/1 106/1/1 107/1/1
f 113/2/1 110/2/1 109/2/1
f 114/2/1 110/2/1 113/2/1
f 115/2/1 112/2/1 111/2/1
f 116/2/1 112/2/1 115/2/1
f 119/3/1 118/3/1 117/3/1
f 120/3/1 118/3/1 119/3/1
f 121/2/1 120/2/1 119/2/1
f 122/2/1 120/2/1 121/2/1
f 125/2/1 124/2/1 123/2/1
f 126/2/1 124/2/1 125/2/1
f 129/2/1 128/2/1 127/2/1
f 130/2/1 128/2/1 129/2/1
f 133/2/1 132/2/1 131/2/1
f 134/2/1 132/2/1 133/2/1
f 137/1/1 136/1/1 135/1/1
f 138/1/1 136/1/1 137/1/1
f 141/1/1 140/1/1 139/1/1
f 142/1/1 140/1/1 141/1/1
f 143/1/2 144/1/2 145/1/2
f 145/1/2 144/1/2 146/1/2
f 147/1/2 148/1/2 149/1/2
f 149/1/2 148/1/2 150/1/2
f 151/2/2 152/2/2 153/2/2
f 153/2/2 152/2/2 154/2/2
f 155/3/2 156/3/2 157/3/2
f 157/3/2 156/3/2 158/3/2
f 157/2/2 158/2/2 159/2/2
f 159/2/2 158/2/2 160/2/2
f 161/2/2 162/2/2 163/2/2
f 163/2/2 162/2/2 164/2/2
f 165/2/2 166/2/2 167/2/2
f 167/2/2 166/2/2 168/2/2
f 169/2/2 170/2/2 171/2/2
f 171/2/2 170/2/2 172/2/2
f 173/1/2 174/1/2 175/1/2
f 175/1/2 174/1/2 176/1/2
f 177/2/2 178/2/2 181/2/2
f 181/2/2 178/2/2 182/2/2
f 179/2/2 180/2/2 183/2/2
f 183/2/2 180/2/2 184/2/2
f 185/3/2 186/3/2 187/3/2
f 187/3/2 186/3/2 188/3/2
f 187/2/2 188/2/2 189/2/2
f 189/2/2 188/2/2 190/2/2
f 191/2/2 192/2/2 193/2/2
f 193/2/2 192/2/2 194/2/2
f 195/1/2 196/1/2 197/1/2
f 197/1/2 196/1/2 198/1/2
f 198/1/2 196/1/2 199/1/2
f 197/3/2 198/3/2 202/3/2
f 202/3/2 198/3/2 203/3/2
f 199/2/2 200/2/2 204/2/2
f 204/2/2 200/2/2 205/2/2
f 201/2/2 202/2/2 206/2/2
f 206/2/2 202/2/2 207/2/2
f 208/2/2 209/2/2 212/2/2
f 212/2/2 209/2/2 213/2/2
f 210/2/2 211/2/2 216/2/2
f 216/2/2 211/2/2 217/2/2
f 214/2/2 215/2/2 218/2/2
f 218/2/2 215/2/2 219/2/2
f 220/2/2 221/2/2 222/2/2
f 222/3/2 223/3/2 224/3/2
f 220/2/2 222/2/2 226/2/2
f 222/3/2 224/3/2 227/3/2
f 226/2/2 222/2/2 227/2/2
f 224/2/2 225/2/2 228/2/2
f 227/3/2 224/3/2 228/3/2
f 228/2/2 225/2/2 229/2/2
f 230/3/2 231/3/2 233/3/2
f 231/2/2 232/2/2 233/2/2
f 233/2/2 232/2/2 234/2/2
f 230/3/2 233/3/2 235/3/2
f 235/3/2 233/3/2 236/3/2
f 230/3/2 235/3/2 237/3/2
f 236/3/2 233/3/2 238/3/2
f 230/3/2 237/3/2 239/3/2
f 237/3/2 238/3/2 239/3/2
f 238/3/2 233/3/2 240/3/2
f 239/3/2 238/3/2 240/3/2
f 241/2/2 242/2/2 244/2/2
f 244/2/2 242/2/2 245/2/2
f 243/2/2 244/2/2 248/2/2
f 248/2/2 244/2/2 249/2/2
f 245/2/2 246/2/2 250/2/2
f 250/2/2 246/2/2 251/2/2
f 247/2/2 248/2/2 253/2/2
f 253/2/2 248/2/2 254/2/2
f 251/2/2 252/2/2 257/2/2
f 257/2/2 252/2/2 258/2/2
f 255/2/2 256/2/2 259/2/2
f 259/2/2 256/2/2 260/2/2
f 261/2/2 262/2/2 263/2/2
f 263/2/2 262/2/2 264/2/2
f 265/1/2 266/1/2 267/1/2
f 267/1/2 266/1/2 268/1/2
f 269/2/2 270/2/2 272/2/2
f 272/2/2 270/2/2 273/2/2
f 271/2/2 272/2/2 275/2/2
f 273/2/2 274/2/2 275/2/2
f 272/2/2 273/2/2 275/2/2
f 275/2/2 274/2/2 276/2/2
f 277/1/2 278/1/2 279/1/2
f 279/1/2 278/1/2 280/1/2
f 281/1/2 282/1/2 283/1/2
f 283/1/2 282/1/2 284/1/2
f 288/2/3 286/2/3 285/2/3
f 292/2/3 290/2/3 289/2/3
f 293/2/3 292/2/3 291/2/3
f 294/2/3 290/2/3 292/2/3
f 294/2/3 292/2/3 293/2/3
f 296/2/3 290/2/3 294/2/3
f 297/2/3 296/2/3 295/2/3
f 298/2/3 290/2/3 296/2/3
f 298/2/3 296/2/3 297/2/3
f 299/2/3 288/2/3 287/2/3
f 300/2/3 286/2/3 288/2/3
f 300/2/3 288/2/3 299/2/3
f 301/2/3 290/2/3 298/2/3
f 302/2/3 290/2/3 301/2/3
f 303/2/3 286/2/3 300/2/3
f 304/2/3 286/2/3 303/2/3
f 310/2/3 306/2/3 305/2/3
f 311/2/3 306/2/3 310/2/3
f 312/3/3 308/3/3 307/3/3
f 313/3/3 308/3/3 312/3/3
f 316/2/3 310/2/3 309/2/3
f 317/2/3 310/2/3 316/2/3
f 320/2/3 313/2/3 312/2/3
f 321/2/3 313/2/3 320/2/3
f 322/1/3 315/1/3 314/1/3
f 322/3/3 316/3/3 315/3/3
f 323/3/3 316/3/3 322/3/3
f 325/3/3 321/3/3 320/3/3
f 325/2/3 320/2/3 312/2/3
f 326/3/3 321/3/3 325/3/3
f 327/1/3 324/1/3 323/1/3
f 327/1/3 323/1/3 322/1/3
f 327/1/3 322/1/3 314/1/3
f 328/1/3 324/1/3 327/1/3
f 329/1/3 324/1/3 328/1/3
f 330/2/3 326/2/3 325/2/3
f 330/2/3 325/2/3 312/2/3
f 331/2/3 326/2/3 330/2/3
f 332/1/3 327/1/3 314/1/3
f 333/3/3 328/3/3 327/3/3
f 333/1/3 327/1/3 332/1/3
f 334/3/3 328/3/3 333/3/3
f 336/2/3 319/2/3 318/2/3
f 337/2/3 319/2/3 336/2/3
f 338/3/3 331/3/3 330/3/3
f 339/3/3 331/3/3 338/3/3
f 340/2/3 335/2/3 334/2/3
f 341/2/3 335/2/3 340/2/3
f 343/2/3 342/2/3 341/2/3
f 344/2/3 342/2/3 343/2/3
f 347/1/3 346/1/3 345/1/3
f 348/1/3 346/1/3 347/1/3
f 350/1/3 349/1/3 348/1/3
f 351/1/3 349/1/3 350/1/3
f 355/1/3 352/1/3 351/1/3
f 356/1/3 352/1/3 355/1/3
f 358/2/3 354/2/3 353/2/3
f 359/2/3 354/2/3 358/2/3
f 365/2/3 358/2/3 357/2/3
f 366/2/3 358/2/3 365/2/3
f 367/2/3 361/2/3 360/2/3
f 368/2/3 361/2/3 367/2/3
f 369/3/3 363/3/3 362/3/3
f 370/2/3 364/2/3 363/2/3
f 370/3/3 363/3/3 369/3/3
f 371/2/3 364/2/3 370/2/3
f 379/1/3 373/1/3 372/1/3
f 380/1/3 373/1/3 379/1/3
f 381/2/3 375/2/3 374/2/3
f 382/2/3 375/2/3 381/2/3
f 383/3/3 377/3/3 376/3/3
f 384/2/3 378/2/3 377/2/3
f 384/3/3 377/3/3 383/3/3
f 385/2/3 378/2/3 384/2/3
f 392/2/3 387/2/3 386/2/3
f 393/2/3 387/2/3 392/2/3
f 395/2/3 389/2/3 388/2/3
f 396/2/3 389/2/3 395/2/3
f 398/1/3 391/1/3 390/1/3
f 399/1/3 391/1/3 398/1/3
f 400/2/3 394/2/3 393/2/3
f 401/2/3 394/2/3 400/2/3
f 403/1/3 398/1/3 397/1/3
f 404/1/3 398/1/3 403/1/3
f 405/1/3 403/1/3 402/1/3
f 406/1/3 403/1/3 405/1/3
f 409/2/3 408/2/3 407/2/3
f 410/2/3 408/2/3 409/2/3
f 413/2/3 412/2/3 411/2/3
f 414/2/3 412/2/3 413/2/3
f 415/2/4 416/2/4 417/2/4
f 415/2/4 417/2/4 418/2/4
f 415/2/4 418/2/4 419/2/4
f 419/2/4 418/2/4 420/2/4
f 421/3/4 422/3/4 424/3/4
f 422/2/4 423/2/4 425/2/4
f 424/3/4 422/3/4 425/3/4
f 425/2/4 423/2/4 426/2/4
f 427/3/4 428/3/4 430/3/4
f 428/2/4 429/2/4 431/2/4
f 430/3/4 428/3/4 431/3/4
f 431/2/4 429/2/4 432/2/4
f 433/1/4 434/1/4 435/1/4
f 435/1/4 434/1/4 436/1/4
f 436/1/4 437/1/4 438/1/4
f 438/1/4 437/1/4 439/1/4
f 439/1/4 440/1/4 441/1/4
f 441/1/4 440/1/4 442/1/4
f 443/2/4 444/2/4 447/2/4
f 447/2/4 444/2/4 448/2/4
f 445/1/4 446/1/4 449/1/4
f 449/1/4 446/1/4 450/1/4
f 451/2/4 452/2/4 453/2/4
f 453/2/4 452/2/4 454/2/4
f 455/1/4 456/1/4 458/1/4
f 458/1/4 456/1/4 459/1/4
f 457/1/4 458/1/4 461/1/4
f 461/1/4 458/1/4 462/1/4
f 460/1/4 461/1/4 463/1/4
f 463/1/4 461/1/4 464/1/4
f 465/2/4 466/2/4 472/2/4
f 472/2/4 466/2/4 473/2/4
f 467/3/4 468/3/4 476/3/4
f 476/3/4 468/3/4 477/3/4
f 469/3/4 470/3/4 480/3/4
f 480/3/4 470/3/4 481/3/4
f 471/2/4 472/2/4 483/2/4
f 483/2/4 472/2/4 484/2/4
f 474/2/4 475/2/4 485/2/4
f 485/2/4 475/2/4 486/2/4
f 478/3/4 479/3/4 489/3/4
f 489/3/4 479/3/4 490/3/4
f 480/2/4 481/2/4 491/2/4
f 491/2/4 481/2/4 492/2/4
f 492/2/4 481/2/4 493/2/4
f 493/2/4 481/2/4 494/2/4
f 487/3/4 488/3/4 497/3/4
f 497/3/4 488/3/4 498/3/4
f 491/3/4 492/3/4 501/3/4
f 492/2/4 493/2/4 502/2/4
f 501/3/4 492/3/4 502/3/4
f 493/3/4 494/3/4 503/3/4
f 502/2/4 493/2/4 503/2/4
f 503/3/4 494/3/4 504/3/4
f 495/2/4 496/2/4 505/2/4
f 505/2/4 496/2/4 506/2/4
f 499/3/4 500/3/4 509/3/4
f 509/3/4 500/3/4 510/3/4
f 503/2/4 504/2/4 511/2/4
f 501/2/4 502/2/4 511/2/4
f 502/2/4 503/2/4 511/2/4
f 511/2/4 504/2/4 512/2/4
f 482/1/4 483/1/4 513/1/4
f 513/1/4 483/1/4 514/1/4
f 507/3/4 508/3/4 518/3/4
f 518/3/4 508/3/4 519/3/4
f 511/3/4 512/3/4 520/3/4
f 520/3/4 512/3/4 521/3/4
f 514/2/4 515/2/4 522/2/4
f 522/2/4 515/2/4 523/2/4
f 516/2/4 517/2/4 525/2/4
f 525/2/4 517/2/4 526/2/4
f 523/2/4 524/2/4 527/2/4
f 527/2/4 524/2/4 528/2/4
f 529/2/4 530/2/4 534/2/4
f 534/2/4 530/2/4 535/2/4
f 531/2/4 532/2/4 538/2/4
f 538/2/4 532/2/4 539/2/4
f 535/2/4 536/2/4 541/2/4
f 533/2/4 534/2/4 541/2/4
f 534/2/4 535/2/4 541/2/4
f 541/2/4 536/2/4 542/2/4
f 542/2/4 536/2/4 543/2/4
f 537/2/4 538/2/4 545/2/4
f 540/2/4 541/2/4 548/2/4
f 541/2/4 542/2/4 548/2/4
f 548/2/4 542/2/4 549/2/4
f 549/2/4 542/2/4 550/2/4
f 543/2/4 536/2/4 551/2/4
f 549/2/4 550/2/4 553/2/4
f 550/2/4 551/2/4 553/2/4
f 553/2/4 551/2/4 554/2/4
f 551/2/4 536/2/4 555/2/4
f 554/2/4 551/2/4 555/2/4
f 553/2/4 554/2/4 556/2/4
f 552/2/4 553/2/4 556/2/4
f 556/2/4 554/2/4 557/2/4
f 557/2/4 554/2/4 558/2/4
f 555/2/4 536/2/4 559/2/4
f 544/2/4 545/2/4 560/2/4
f 545/2/4 538/2/4 561/2/4
f 560/2/4 545/2/4 561/2/4
f 546/2/4 547/2/4 562/2/4
f 562/2/4 547/2/4 563/2/4
f 558/2/4 559/2/4 564/2/4
f 557/2/4 558/2/4 564/2/4
f 564/2/4 559/2/4 565/2/4
f 559/2/4 536/2/4 566/2/4
f 565/2/4 559/2/4 566/2/4
f 566/2/4 536/2/4 567/2/4
f 561/2/4 538/2/4 568/2/4
f 568/2/4 538/2/4 569/2/4
f 565/2/4 566/2/4 571/2/4
f 571/2/4 566/2/4 572/2/4
f 569/2/4 570/2/4 573/2/4
f 573/2/4 570/2/4 574/2/4
f 575/2/4 576/2/4 577/2/4
f 577/2/4 576/2/4 578/2/4
f 583/3/5 580/3/5 579/3/5
f 584/3/5 580/3/5 583/3/5
f 585/3/5 582/3/5 581/3/5
f 586/3/5 582/3/5 585/3/5
f 589/2/5 588/2/5 587/2/5
f 590/2/5 588/2/5 589/2/5
f 595/3/5 592/3/5 591/3/5
f 595/2/5 593/2/5 592/2/5
f 596/2/5 593/2/5 595/2/5
f 597/2/5 593/2/5 596/2/5
f 598/3/5 594/3/5 593/3/5
f 598/2/5 593/2/5 597/2/5
f 599/3/5 595/3/5 591/3/5
f 600/2/5 597/2/5 596/2/5
f 601/2/5 597/2/5 600/2/5
f 602/3/5 594/3/5 598/3/5
f 603/2/5 601/2/5 600/2/5
f 603/2/5 602/2/5 601/2/5
f 603/2/5 600/2/5 599/2/5
f 604/2/5 602/2/5 603/2/5
f 605/3/5 599/3/5 591/3/5
f 606/2/5 603/2/5 599/2/5
f 606/3/5 599/3/5 605/3/5
f 607/3/5 604/3/5 603/3/5
f 607/2/5 603/2/5 606/2/5
f 608/2/5 602/2/5 604/2/5
f 608/3/5 604/3/5 607/3/5
f 609/3/5 594/3/5 602/3/5
f 609/2/5 602/2/5 608/2/5
f 610/3/5 594/3/5 609/3/5
f 611/2/5 607/2/5 606/2/5
f 612/2/5 607/2/5 611/2/5
f 613/2/5 609/2/5 608/2/5
f 614/2/5 609/2/5 613/2/5
f 621/2/5 616/2/5 615/2/5
f 622/2/5 616/2/5 621/2/5
f 623/2/5 618/2/5 617/2/5
f 624/2/5 618/2/5 623/2/5
f 625/2/5 620/2/5 619/2/5
f 626/2/5 620/2/5 625/2/5
f 631/2/5 628/2/5 627/2/5
f 632/2/5 630/2/5 629/2/5
f 633/2/5 631/2/5 627/2/5
f 634/2/5 630/2/5 632/2/5
f 635/2/5 633/2/5 627/2/5
f 636/2/5 633/2/5 635/2/5
f 637/2/5 630/2/5 634/2/5
f 638/2/5 630/2/5 637/2/5
f 643/1/5 640/1/5 639/1/5
f 644/1/5 640/1/5 643/1/5
f 645/1/5 642/1/5 641/1/5
f 646/1/5 642/1/5 645/1/5
f 651/2/5 648/2/5 647/2/5
f 652/2/5 648/2/5 651/2/5
f 653/2/5 650/2/5 649/2/5
f 654/2/5 650/2/5 653/2/5
f 659/1/5 656/1/5 655/1/5
f 660/1/5 656/1/5 659/1/5
f 661/1/5 658/1/5 657/1/5
f 662/1/5 658/1/5 661/1/5
f 667/1/5 664/1/5 663/1/5
f 668/1/5 664/1/5 667/1/5
f 669/1/5 666/1/5 665/1/5
f 670/1/5 666/1/5 669/1/5
f 673/1/5 672/1/5 671/1/5
f 674/1/5 672/1/5 673/1/5
f 675/1/5 673/1/5 671/1/5
f 676/1/5 672/1/5 674/1/5
f 677/1/5 675/1/5 671/1/5
f 677/1/5 676/1/5 675/1/5
f 678/1/5 672/1/5 676/1/5
f 678/1/5 676/1/5 677/1/5
f 683/2/5 680/2/5 679/2/5
f 684/2/5 680/2/5 683/2/5
f 685/2/5 682/2/5 681/2/5
f 686/2/5 682/2/5 685/2/5
f 687/2/5 685/2/5 684/2/5
f 688/2/5 685/2/5 687/2/5
f 694/2/5 690/2/5 689/2/5
f 695/2/5 690/2/5 694/2/5
f 696/2/5 692/2/5 691/2/5
f 697/2/5 692/2/5 696/2/5
f 700/2/5 694/2/5 693/2/5
f 701/2/5 694/2/5 700/2/5
f 702/2/5 698/2/5 697/2/5
f 703/2/5 698/2/5 702/2/5
f 705/2/5 700/2/5 699/2/5
f 706/2/5 700/2/5 705/2/5
f 709/2/5 704/2/5 703/2/5
f 710/2/5 704/2/5 709/2/5
f 711/2/5 707/2/5 706/2/5
f 712/2/5 707/2/5 711/2/5
f 713/2/5 709/2/5 708/2/5
f 714/2/5 709/2/5 713/2/5
f 722/2/5 716/2/5 715/2/5
f 723/2/5 716/2/5 722/2/5
f 724/2/5 718/2/5 717/2/5
f 725/2/5 718/2/5 724/2/5
f 726/2/5 720/2/5 719/2/5
f 727/2/5 720/2/5 726/2/5
f 729/2/5 722/2/5 721/2/5
f 730/2/5 722/2/5 729/2/5
f 731/2/5 728/2/5 727/2/5
f 732/2/5 728/2/5 731/2/5
f 737/2/5 734/2/5 733/2/5
f 738/2/5 734/2/5 737/2/5
f 739/2/5 736/2/5 735/2/5
f 740/2/5 736/2/5 739/2/5
f 741/2/5 739/2/5 738/2/5
f 742/2/5 739/2/5 741/2/5
f 743/2/6 744/2/6 747/2/6
f 747/2/6 744/2/6 748/2/6
f 745/2/6 746/2/6 749/2/6
f 749/2/6 746/2/6 750/2/6
f 751/2/6 752/2/6 753/2/6
f 753/2/6 752/2/6 754/2/6
f 754/2/6 752/2/6 755/2/6
f 755/2/6 752/2/6 756/2/6
f 751/2/6 753/2/6 757/2/6
f 756/2/6 752/2/6 758/2/6
f 751/2/6 757/2/6 759/2/6
f 759/2/6 757/2/6 760/2/6
f 758/2/6 752/2/6 761/2/6
f 761/2/6 752/2/6 762/2/6
f 763/1/6 764/1/6 767/1/6
f 767/1/6 764/1/6 768/1/6
f 765/1/6 766/1/6 769/1/6
f 769/1/6 766/1/6 770/1/6
f 771/2/6 772/2/6 777/2/6
f 775/2/6 776/2/6 777/2/6
f 774/2/6 775/2/6 777/2/6
f 773/2/6 774/2/6 777/2/6
f 772/2/6 773/2/6 777/2/6
f 777/2/6 776/2/6 778/2/6
f 779/1/6 780/1/6 783/1/6
f 783/1/6 780/1/6 784/1/6
f 781/1/6 782/1/6 785/1/6
f 785/1/6 782/1/6 786/1/6
f 787/1/6 788/1/6 791/1/6
f 791/1/6 788/1/6 792/1/6
f 789/1/6 790/1/6 793/1/6
f 793/1/6 790/1/6 794/1/6
f 796/2/6 797/2/6 801/2/6
f 797/3/6 798/3/6 801/3/6
f 798/2/6 799/2/6 802/2/6
f 801/3/6 798/3/6 802/3/6
f 796/2/6 801/2/6 803/2/6
f 802/2/6 799/2/6 804/2/6
f 795/3/6 796/3/6 805/3/6
f 796/2/6 803/2/6 806/2/6
f 805/3/6 796/3/6 806/3/6
f 803/3/6 804/3/6 807/3/6
f 806/2/6 803/2/6 807/2/6
f 804/2/6 799/2/6 808/2/6
f 807/3/6 804/3/6 808/3/6
f 799/3/6 800/3/6 809/3/6
f 808/2/6 799/2/6 809/2/6
f 809/3/6 800/3/6 810/3/6
f 811/2/6 812/2/6 814/2/6
f 814/2/6 812/2/6 815/2/6
f 815/2/6 812/2/6 816/2/6
f 816/2/6 812/2/6 817/2/6
f 813/2/6 814/2/6 819/2/6
f 814/2/6 815/2/6 819/2/6
f 819/2/6 815/2/6 820/2/6
f 817/2/6 818/2/6 821/2/6
f 816/2/6 817/2/6 821/2/6
f 821/2/6 818/2/6 822/2/6
f 813/2/6 819/2/6 823/2/6
f 822/2/6 818/2/6 826/2/6
f 823/2/6 824/2/6 827/2/6
f 813/2/6 823/2/6 827/2/6
f 827/2/6 824/2/6 828/2/6
f 828/2/6 824/2/6 829/2/6
f 825/2/6 826/2/6 830/2/6
f 826/2/6 818/2/6 831/2/6
f 830/2/6 826/2/6 831/2/6
f 831/2/6 818/2/6 832/2/6
f 828/2/6 829/2/6 833/2/6
f 829/2/6 830/2/6 833/2/6
f 830/2/6 831/2/6 833/2/6
f 833/2/6 831/2/6 834/2/6
f 835/2/6 836/2/6 838/2/6
f 838/2/6 836/2/6 839/2/6
f 839/2/6 836/2/6 840/2/6
f 840/2/6 836/2/6 841/2/6
f 837/2/6 838/2/6 843/2/6
f 838/2/6 839/2/6 843/2/6
f 843/2/6 839/2/6 844/2/6
f 841/2/6 842/2/6 845/2/6
f 840/2/6 841/2/6 845/2/6
f 845/2/6 842/2/6 846/2/6
f 837/2/6 843/2/6 847/2/6
f 846/2/6 842/2/6 850/2/6
f 847/2/6 848/2/6 851/2/6
f 837/2/6 847/2/6 851/2/6
f 851/2/6 848/2/6 852/2/6
f 852/2/6 848/2/6 853/2/6
f 849/2/6 850/2/6 854/2/6
f 850/2/6 842/2/6 855/2/6
f 854/2/6 850/2/6 855/2/6
f 855/2/6 842/2/6 856/2/6
f 852/2/6 853/2/6 857/2/6
f 853/2/6 854/2/6 857/2/6
f 854/2/6 855/2/6 857/2/6
f 857/2/6 855/2/6 858/2/6
f 859/2/6 860/2/6 862/2/6
f 862/2/6 860/2/6 863/2/6
f 861/2/6 862/2/6 865/2/6
f 863/2/6 864/2/6 865/2/6
f 862/2/6 863/2/6 865/2/6
f 865/2/6 864/2/6 866/2/6
f 866/2/6 864/2/6 867/2/6
f 867/2/6 864/2/6 868/2/6
f 866/2/6 867/2/6 869/2/6
f 869/2/6 867/2/6 870/2/6
