# MagicaVoxel @ Ephtracy

# group
g Picture_1

# material
mtllib Picture_1.mtl
usemtl palette

# normals
vn -1 0 0
vn 1 0 0
vn 0 0 1
vn 0 0 -1
vn 0 -1 0
vn 0 1 0

# texcoords
vt 0.0332031 0.5
vt 0.0410156 0.5
vt 0.462891 0.5
vt 0.611328 0.5
vt 0.849609 0.5
vt 0.908203 0.5
vt 0.962891 0.5
vt 0.990234 0.5

# verts
v -7 3 -8
v -7 3 -10
v -7 4 -8
v -7 4 -10
v -7 16 -8
v -7 16 -10
v -7 17 -8
v -7 17 -10
v -6 2 -8
v -6 2 -10
v -6 3 -8
v -6 3 -10
v -6 4 -8
v -6 4 -10
v -6 16 -8
v -6 16 -10
v -6 17 -8
v -6 17 -10
v -6 18 -8
v -6 18 -10
v 5 2 -8
v 5 2 -10
v 5 3 -8
v 5 3 -10
v 5 4 -8
v 5 4 -9
v 5 6 -9
v 5 7 -9
v 5 8 -9
v 5 10 -9
v 5 12 -9
v 5 16 -8
v 5 16 -9
v 5 17 -8
v 5 17 -10
v 5 18 -8
v 5 18 -10
v -5 2 -8
v -5 2 -10
v -5 3 -8
v -5 3 -10
v -5 4 -8
v -5 4 -9
v -5 5 -9
v -5 6 -9
v -5 7 -9
v -5 12 -9
v -5 14 -9
v -5 16 -8
v -5 16 -9
v -5 17 -8
v -5 17 -10
v -5 18 -8
v -5 18 -10
v 6 2 -8
v 6 2 -10
v 6 3 -8
v 6 3 -10
v 6 4 -8
v 6 4 -10
v 6 16 -8
v 6 16 -10
v 6 17 -8
v 6 17 -10
v 6 18 -8
v 6 18 -10
v 7 3 -8
v 7 3 -10
v 7 4 -8
v 7 4 -10
v 7 16 -8
v 7 16 -10
v 7 17 -8
v 7 17 -10
v -7 3 -8
v -7 4 -8
v -7 16 -8
v -7 17 -8
v -6 2 -8
v -6 3 -8
v -6 4 -8
v -6 16 -8
v -6 17 -8
v -6 18 -8
v -5 2 -8
v -5 3 -8
v -5 4 -8
v -5 16 -8
v -5 17 -8
v -5 18 -8
v 5 2 -8
v 5 3 -8
v 5 4 -8
v 5 16 -8
v 5 17 -8
v 5 18 -8
v 6 2 -8
v 6 3 -8
v 6 4 -8
v 6 16 -8
v 6 17 -8
v 6 18 -8
v 7 3 -8
v 7 4 -8
v 7 16 -8
v 7 17 -8
v -5 4 -9
v -5 5 -9
v -5 6 -9
v -5 7 -9
v -5 12 -9
v -5 14 -9
v -5 16 -9
v -4 5 -9
v -4 6 -9
v -4 7 -9
v -4 8 -9
v -4 11 -9
v -4 12 -9
v -4 14 -9
v -4 15 -9
v -3 7 -9
v -3 8 -9
v -2 4 -9
v -2 5 -9
v -2 6 -9
v -2 7 -9
v -2 8 -9
v -2 11 -9
v -2 12 -9
v -2 14 -9
v -2 15 -9
v -1 4 -9
v -1 5 -9
v -1 6 -9
v -1 7 -9
v -1 12 -9
v -1 14 -9
v 0 6 -9
v 0 7 -9
v 0 8 -9
v 1 5 -9
v 1 6 -9
v 1 7 -9
v 1 8 -9
v 1 9 -9
v 1 10 -9
v 1 12 -9
v 2 5 -9
v 2 6 -9
v 2 9 -9
v 2 10 -9
v 2 12 -9
v 2 13 -9
v 3 5 -9
v 3 6 -9
v 3 9 -9
v 3 10 -9
v 4 5 -9
v 4 6 -9
v 4 7 -9
v 4 8 -9
v 4 9 -9
v 4 10 -9
v 4 12 -9
v 4 13 -9
v 5 4 -9
v 5 6 -9
v 5 7 -9
v 5 8 -9
v 5 10 -9
v 5 12 -9
v 5 16 -9
v -7 3 -10
v -7 4 -10
v -7 16 -10
v -7 17 -10
v -6 2 -10
v -6 3 -10
v -6 4 -10
v -6 16 -10
v -6 17 -10
v -6 18 -10
v -5 2 -10
v -5 3 -10
v -5 4 -10
v -5 5 -10
v -5 6 -10
v -5 7 -10
v -5 12 -10
v -5 14 -10
v -5 16 -10
v -5 17 -10
v -5 18 -10
v -4 5 -10
v -4 6 -10
v -4 7 -10
v -4 8 -10
v -4 11 -10
v -4 12 -10
v -4 14 -10
v -4 15 -10
v -3 7 -10
v -3 8 -10
v -2 4 -10
v -2 5 -10
v -2 6 -10
v -2 7 -10
v -2 8 -10
v -2 11 -10
v -2 12 -10
v -2 14 -10
v -2 15 -10
v -1 4 -10
v -1 5 -10
v -1 6 -10
v -1 7 -10
v -1 12 -10
v -1 14 -10
v 0 6 -10
v 0 7 -10
v 0 8 -10
v 1 5 -10
v 1 6 -10
v 1 7 -10
v 1 8 -10
v 1 9 -10
v 1 10 -10
v 1 12 -10
v 2 5 -10
v 2 6 -10
v 2 9 -10
v 2 10 -10
v 2 12 -10
v 2 13 -10
v 3 5 -10
v 3 6 -10
v 3 9 -10
v 3 10 -10
v 4 5 -10
v 4 6 -10
v 4 7 -10
v 4 8 -10
v 4 9 -10
v 4 10 -10
v 4 12 -10
v 4 13 -10
v 5 2 -10
v 5 3 -10
v 5 4 -10
v 5 6 -10
v 5 7 -10
v 5 8 -10
v 5 10 -10
v 5 12 -10
v 5 16 -10
v 5 17 -10
v 5 18 -10
v 6 2 -10
v 6 3 -10
v 6 4 -10
v 6 16 -10
v 6 17 -10
v 6 18 -10
v 7 3 -10
v 7 4 -10
v 7 16 -10
v 7 17 -10
v -6 2 -8
v -5 2 -8
v 5 2 -8
v 6 2 -8
v -6 2 -10
v -5 2 -10
v 5 2 -10
v 6 2 -10
v -7 3 -8
v -6 3 -8
v -5 3 -8
v 5 3 -8
v 6 3 -8
v 7 3 -8
v -7 3 -10
v -6 3 -10
v -5 3 -10
v 5 3 -10
v 6 3 -10
v 7 3 -10
v -7 16 -8
v -6 16 -8
v -5 16 -8
v 5 16 -8
v 6 16 -8
v 7 16 -8
v -5 16 -9
v 5 16 -9
v -7 16 -10
v -6 16 -10
v 6 16 -10
v 7 16 -10
v -7 4 -8
v -6 4 -8
v -5 4 -8
v 5 4 -8
v 6 4 -8
v 7 4 -8
v -5 4 -9
v -2 4 -9
v -1 4 -9
v 5 4 -9
v -7 4 -10
v -6 4 -10
v 6 4 -10
v 7 4 -10
v -7 17 -8
v -6 17 -8
v -5 17 -8
v 5 17 -8
v 6 17 -8
v 7 17 -8
v -7 17 -10
v -6 17 -10
v -5 17 -10
v 5 17 -10
v 6 17 -10
v 7 17 -10
v -6 18 -8
v -5 18 -8
v 5 18 -8
v 6 18 -8
v -6 18 -10
v -5 18 -10
v 5 18 -10
v 6 18 -10

# faces
f 3/2/1 2/2/1 1/2/1
f 4/2/1 2/2/1 3/2/1
f 7/2/1 6/2/1 5/2/1
f 8/2/1 6/2/1 7/2/1
f 11/2/1 10/2/1 9/2/1
f 12/2/1 10/2/1 11/2/1
f 15/2/1 14/2/1 13/2/1
f 16/2/1 14/2/1 15/2/1
f 19/2/1 18/2/1 17/2/1
f 20/2/1 18/2/1 19/2/1
f 23/2/1 22/2/1 21/2/1
f 24/2/1 22/2/1 23/2/1
f 27/2/1 26/2/1 25/2/1
f 28/2/1 27/2/1 25/2/1
f 29/2/1 28/2/1 25/2/1
f 30/2/1 29/2/1 25/2/1
f 31/2/1 30/2/1 25/2/1
f 32/2/1 31/2/1 25/2/1
f 33/2/1 31/2/1 32/2/1
f 36/2/1 35/2/1 34/2/1
f 37/2/1 35/2/1 36/2/1
f 38/2/2 39/2/2 40/2/2
f 40/2/2 39/2/2 41/2/2
f 42/2/2 43/2/2 44/2/2
f 42/2/2 44/2/2 45/2/2
f 42/2/2 45/2/2 46/2/2
f 42/2/2 46/2/2 47/2/2
f 42/2/2 47/2/2 48/2/2
f 42/2/2 48/2/2 49/2/2
f 49/2/2 48/2/2 50/2/2
f 51/2/2 52/2/2 53/2/2
f 53/2/2 52/2/2 54/2/2
f 55/2/2 56/2/2 57/2/2
f 57/2/2 56/2/2 58/2/2
f 59/2/2 60/2/2 61/2/2
f 61/2/2 60/2/2 62/2/2
f 63/2/2 64/2/2 65/2/2
f 65/2/2 64/2/2 66/2/2
f 67/2/2 68/2/2 69/2/2
f 69/2/2 68/2/2 70/2/2
f 71/2/2 72/2/2 73/2/2
f 73/2/2 72/2/2 74/2/2
f 80/2/3 76/2/3 75/2/3
f 81/2/3 76/2/3 80/2/3
f 82/2/3 78/2/3 77/2/3
f 83/2/3 78/2/3 82/2/3
f 85/2/3 81/2/3 80/2/3
f 85/2/3 84/2/3 83/2/3
f 85/2/3 83/2/3 82/2/3
f 85/2/3 82/2/3 81/2/3
f 85/2/3 80/2/3 79/2/3
f 86/2/3 84/2/3 85/2/3
f 87/2/3 84/2/3 86/2/3
f 88/2/3 84/2/3 87/2/3
f 89/2/3 84/2/3 88/2/3
f 90/2/3 84/2/3 89/2/3
f 92/2/3 87/2/3 86/2/3
f 93/2/3 87/2/3 92/2/3
f 94/2/3 89/2/3 88/2/3
f 95/2/3 89/2/3 94/2/3
f 97/2/3 93/2/3 92/2/3
f 97/2/3 96/2/3 95/2/3
f 97/2/3 95/2/3 94/2/3
f 97/2/3 94/2/3 93/2/3
f 97/2/3 92/2/3 91/2/3
f 98/2/3 96/2/3 97/2/3
f 99/2/3 96/2/3 98/2/3
f 100/2/3 96/2/3 99/2/3
f 101/2/3 96/2/3 100/2/3
f 102/2/3 96/2/3 101/2/3
f 103/2/3 99/2/3 98/2/3
f 104/2/3 99/2/3 103/2/3
f 105/2/3 101/2/3 100/2/3
f 106/2/3 101/2/3 105/2/3
f 114/3/3 108/3/3 107/3/3
f 114/6/3 109/6/3 108/6/3
f 115/3/3 110/3/3 109/3/3
f 115/6/3 109/6/3 114/6/3
f 116/4/3 111/4/3 110/4/3
f 116/3/3 110/3/3 115/3/3
f 117/4/3 111/4/3 116/4/3
f 118/4/3 111/4/3 117/4/3
f 119/7/3 112/7/3 111/7/3
f 119/4/3 111/4/3 118/4/3
f 120/4/3 113/4/3 112/4/3
f 120/7/3 112/7/3 119/7/3
f 121/4/3 113/4/3 120/4/3
f 122/3/3 115/3/3 114/3/3
f 122/3/3 116/3/3 115/3/3
f 122/6/3 117/6/3 116/6/3
f 123/4/3 118/4/3 117/4/3
f 123/6/3 117/6/3 122/6/3
f 124/3/3 122/3/3 114/3/3
f 124/3/3 114/3/3 107/3/3
f 124/3/3 123/3/3 122/3/3
f 125/3/3 123/3/3 124/3/3
f 126/3/3 123/3/3 125/3/3
f 127/3/3 123/3/3 126/3/3
f 128/4/3 118/4/3 123/4/3
f 128/3/3 123/3/3 127/3/3
f 129/7/3 119/7/3 118/7/3
f 129/4/3 118/4/3 128/4/3
f 129/7/3 120/7/3 119/7/3
f 129/7/3 121/7/3 120/7/3
f 130/7/3 121/7/3 129/7/3
f 131/7/3 121/7/3 130/7/3
f 132/4/3 113/4/3 121/4/3
f 132/7/3 121/7/3 131/7/3
f 133/6/3 125/6/3 124/6/3
f 134/3/3 126/3/3 125/3/3
f 134/6/3 125/6/3 133/6/3
f 135/6/3 127/6/3 126/6/3
f 135/3/3 126/3/3 134/3/3
f 136/4/3 128/4/3 127/4/3
f 136/6/3 127/6/3 135/6/3
f 136/4/3 129/4/3 128/4/3
f 136/4/3 130/4/3 129/4/3
f 137/7/3 131/7/3 130/7/3
f 137/4/3 130/4/3 136/4/3
f 138/4/3 132/4/3 131/4/3
f 138/7/3 131/7/3 137/7/3
f 139/3/3 135/3/3 134/3/3
f 139/3/3 134/3/3 133/3/3
f 139/4/3 138/4/3 137/4/3
f 139/4/3 137/4/3 136/4/3
f 139/4/3 136/4/3 135/4/3
f 140/4/3 138/4/3 139/4/3
f 141/4/3 138/4/3 140/4/3
f 142/3/3 139/3/3 133/3/3
f 143/6/3 140/6/3 139/6/3
f 143/3/3 139/3/3 142/3/3
f 144/5/3 141/5/3 140/5/3
f 144/6/3 140/6/3 143/6/3
f 145/4/3 138/4/3 141/4/3
f 145/5/3 141/5/3 144/5/3
f 146/4/3 138/4/3 145/4/3
f 147/4/3 138/4/3 146/4/3
f 148/4/3 138/4/3 147/4/3
f 149/1/3 144/1/3 143/1/3
f 149/3/3 142/3/3 133/3/3
f 149/1/3 143/1/3 142/1/3
f 150/1/3 144/1/3 149/1/3
f 151/4/3 147/4/3 146/4/3
f 151/5/3 145/5/3 144/5/3
f 151/5/3 146/5/3 145/5/3
f 152/7/3 148/7/3 147/7/3
f 152/4/3 147/4/3 151/4/3
f 153/4/3 138/4/3 148/4/3
f 153/7/3 148/7/3 152/7/3
f 154/4/3 138/4/3 153/4/3
f 155/8/3 150/8/3 149/8/3
f 155/3/3 149/3/3 133/3/3
f 156/1/3 144/1/3 150/1/3
f 156/8/3 150/8/3 155/8/3
f 157/5/3 152/5/3 151/5/3
f 157/5/3 151/5/3 144/5/3
f 158/7/3 154/7/3 153/7/3
f 158/5/3 152/5/3 157/5/3
f 158/7/3 153/7/3 152/7/3
f 159/1/3 156/1/3 155/1/3
f 159/3/3 155/3/3 133/3/3
f 160/1/3 144/1/3 156/1/3
f 160/1/3 156/1/3 159/1/3
f 161/5/3 157/5/3 144/5/3
f 161/1/3 144/1/3 160/1/3
f 162/5/3 157/5/3 161/5/3
f 163/7/3 158/7/3 157/7/3
f 163/5/3 157/5/3 162/5/3
f 164/7/3 154/7/3 158/7/3
f 164/7/3 158/7/3 163/7/3
f 165/7/3 154/7/3 164/7/3
f 166/4/3 138/4/3 154/4/3
f 166/7/3 154/7/3 165/7/3
f 167/3/3 159/3/3 133/3/3
f 167/3/3 160/3/3 159/3/3
f 168/4/3 161/4/3 160/4/3
f 168/3/3 160/3/3 167/3/3
f 169/5/3 162/5/3 161/5/3
f 169/4/3 161/4/3 168/4/3
f 170/4/3 163/4/3 162/4/3
f 170/5/3 162/5/3 169/5/3
f 170/4/3 164/4/3 163/4/3
f 171/7/3 165/7/3 164/7/3
f 171/4/3 164/4/3 170/4/3
f 172/4/3 166/4/3 165/4/3
f 172/7/3 165/7/3 171/7/3
f 173/4/3 132/4/3 138/4/3
f 173/4/3 166/4/3 172/4/3
f 173/4/3 113/4/3 132/4/3
f 173/4/3 138/4/3 166/4/3
f 174/2/4 175/2/4 179/2/4
f 179/2/4 175/2/4 180/2/4
f 176/2/4 177/2/4 181/2/4
f 181/2/4 177/2/4 182/2/4
f 179/2/4 180/2/4 184/2/4
f 182/2/4 183/2/4 184/2/4
f 181/2/4 182/2/4 184/2/4
f 180/2/4 181/2/4 184/2/4
f 178/2/4 179/2/4 184/2/4
f 184/2/4 183/2/4 185/2/4
f 185/2/4 183/2/4 186/2/4
f 186/2/4 183/2/4 187/2/4
f 187/2/4 183/2/4 188/2/4
f 188/2/4 183/2/4 189/2/4
f 189/2/4 183/2/4 190/2/4
f 190/2/4 183/2/4 191/2/4
f 191/2/4 183/2/4 192/2/4
f 192/2/4 183/2/4 193/2/4
f 193/2/4 183/2/4 194/2/4
f 186/3/4 187/3/4 195/3/4
f 187/6/4 188/6/4 195/6/4
f 188/3/4 189/3/4 196/3/4
f 195/6/4 188/6/4 196/6/4
f 189/4/4 190/4/4 197/4/4
f 196/3/4 189/3/4 197/3/4
f 197/4/4 190/4/4 198/4/4
f 198/4/4 190/4/4 199/4/4
f 190/7/4 191/7/4 200/7/4
f 199/4/4 190/4/4 200/4/4
f 191/4/4 192/4/4 201/4/4
f 200/7/4 191/7/4 201/7/4
f 201/4/4 192/4/4 202/4/4
f 195/3/4 196/3/4 203/3/4
f 196/3/4 197/3/4 203/3/4
f 197/6/4 198/6/4 203/6/4
f 198/4/4 199/4/4 204/4/4
f 203/6/4 198/6/4 204/6/4
f 185/2/4 186/2/4 205/2/4
f 186/3/4 195/3/4 205/3/4
f 203/3/4 204/3/4 205/3/4
f 195/3/4 203/3/4 205/3/4
f 205/3/4 204/3/4 206/3/4
f 206/3/4 204/3/4 207/3/4
f 207/3/4 204/3/4 208/3/4
f 204/4/4 199/4/4 209/4/4
f 208/3/4 204/3/4 209/3/4
f 199/7/4 200/7/4 210/7/4
f 209/4/4 199/4/4 210/4/4
f 200/7/4 201/7/4 210/7/4
f 201/7/4 202/7/4 210/7/4
f 210/7/4 202/7/4 211/7/4
f 211/7/4 202/7/4 212/7/4
f 202/4/4 192/4/4 213/4/4
f 212/7/4 202/7/4 213/7/4
f 205/6/4 206/6/4 214/6/4
f 185/2/4 205/2/4 214/2/4
f 206/3/4 207/3/4 215/3/4
f 214/6/4 206/6/4 215/6/4
f 207/6/4 208/6/4 216/6/4
f 215/3/4 207/3/4 216/3/4
f 208/4/4 209/4/4 217/4/4
f 216/6/4 208/6/4 217/6/4
f 209/4/4 210/4/4 217/4/4
f 210/4/4 211/4/4 217/4/4
f 211/7/4 212/7/4 218/7/4
f 217/4/4 211/4/4 218/4/4
f 212/4/4 213/4/4 219/4/4
f 218/7/4 212/7/4 219/7/4
f 214/3/4 215/3/4 220/3/4
f 215/3/4 216/3/4 220/3/4
f 218/4/4 219/4/4 220/4/4
f 217/4/4 218/4/4 220/4/4
f 216/4/4 217/4/4 220/4/4
f 220/4/4 219/4/4 221/4/4
f 221/4/4 219/4/4 222/4/4
f 214/3/4 220/3/4 223/3/4
f 220/6/4 221/6/4 224/6/4
f 223/3/4 220/3/4 224/3/4
f 221/5/4 222/5/4 225/5/4
f 224/6/4 221/6/4 225/6/4
f 222/4/4 219/4/4 226/4/4
f 225/5/4 222/5/4 226/5/4
f 226/4/4 219/4/4 227/4/4
f 227/4/4 219/4/4 228/4/4
f 228/4/4 219/4/4 229/4/4
f 224/1/4 225/1/4 230/1/4
f 214/3/4 223/3/4 230/3/4
f 223/1/4 224/1/4 230/1/4
f 230/1/4 225/1/4 231/1/4
f 227/4/4 228/4/4 232/4/4
f 225/5/4 226/5/4 232/5/4
f 226/5/4 227/5/4 232/5/4
f 228/7/4 229/7/4 233/7/4
f 232/4/4 228/4/4 233/4/4
f 229/4/4 219/4/4 234/4/4
f 233/7/4 229/7/4 234/7/4
f 234/4/4 219/4/4 235/4/4
f 230/8/4 231/8/4 236/8/4
f 214/3/4 230/3/4 236/3/4
f 231/1/4 225/1/4 237/1/4
f 236/8/4 231/8/4 237/8/4
f 232/5/4 233/5/4 238/5/4
f 225/5/4 232/5/4 238/5/4
f 234/7/4 235/7/4 239/7/4
f 238/5/4 233/5/4 239/5/4
f 233/7/4 234/7/4 239/7/4
f 236/1/4 237/1/4 240/1/4
f 214/3/4 236/3/4 240/3/4
f 237/1/4 225/1/4 241/1/4
f 240/1/4 237/1/4 241/1/4
f 225/5/4 238/5/4 242/5/4
f 241/1/4 225/1/4 242/1/4
f 242/5/4 238/5/4 243/5/4
f 238/7/4 239/7/4 244/7/4
f 243/5/4 238/5/4 244/5/4
f 239/7/4 235/7/4 245/7/4
f 244/7/4 239/7/4 245/7/4
f 245/7/4 235/7/4 246/7/4
f 235/4/4 219/4/4 247/4/4
f 246/7/4 235/7/4 247/7/4
f 185/2/4 214/2/4 249/2/4
f 214/3/4 240/3/4 250/3/4
f 240/3/4 241/3/4 250/3/4
f 249/2/4 214/2/4 250/2/4
f 241/4/4 242/4/4 251/4/4
f 250/3/4 241/3/4 251/3/4
f 242/5/4 243/5/4 252/5/4
f 251/4/4 242/4/4 252/4/4
f 243/4/4 244/4/4 253/4/4
f 252/5/4 243/5/4 253/5/4
f 244/4/4 245/4/4 253/4/4
f 245/7/4 246/7/4 254/7/4
f 253/4/4 245/4/4 254/4/4
f 246/4/4 247/4/4 255/4/4
f 254/7/4 246/7/4 255/7/4
f 219/4/4 213/4/4 256/4/4
f 255/4/4 247/4/4 256/4/4
f 192/2/4 193/2/4 256/2/4
f 213/4/4 192/4/4 256/4/4
f 247/4/4 219/4/4 256/4/4
f 256/2/4 193/2/4 257/2/4
f 254/2/4 255/2/4 259/2/4
f 257/2/4 258/2/4 259/2/4
f 256/2/4 257/2/4 259/2/4
f 255/2/4 256/2/4 259/2/4
f 252/2/4 253/2/4 259/2/4
f 250/2/4 251/2/4 259/2/4
f 251/2/4 252/2/4 259/2/4
f 248/2/4 249/2/4 259/2/4
f 253/2/4 254/2/4 259/2/4
f 249/2/4 250/2/4 259/2/4
f 259/2/4 258/2/4 260/2/4
f 260/2/4 258/2/4 261/2/4
f 261/2/4 258/2/4 262/2/4
f 262/2/4 258/2/4 263/2/4
f 263/2/4 258/2/4 264/2/4
f 260/2/4 261/2/4 265/2/4
f 265/2/4 261/2/4 266/2/4
f 262/2/4 263/2/4 267/2/4
f 267/2/4 263/2/4 268/2/4
f 273/2/5 270/2/5 269/2/5
f 274/2/5 270/2/5 273/2/5
f 275/2/5 272/2/5 271/2/5
f 276/2/5 272/2/5 275/2/5
f 283/2/5 278/2/5 277/2/5
f 284/2/5 278/2/5 283/2/5
f 285/2/5 280/2/5 279/2/5
f 286/2/5 280/2/5 285/2/5
f 287/2/5 282/2/5 281/2/5
f 288/2/5 282/2/5 287/2/5
f 295/2/5 292/2/5 291/2/5
f 296/2/5 292/2/5 295/2/5
f 297/2/5 290/2/5 289/2/5
f 298/2/5 290/2/5 297/2/5
f 299/2/5 294/2/5 293/2/5
f 300/2/5 294/2/5 299/2/5
f 303/2/6 304/2/6 307/2/6
f 307/2/6 304/2/6 308/2/6
f 308/2/6 304/2/6 309/2/6
f 309/2/6 304/2/6 310/2/6
f 301/2/6 302/2/6 311/2/6
f 311/2/6 302/2/6 312/2/6
f 305/2/6 306/2/6 313/2/6
f 313/2/6 306/2/6 314/2/6
f 315/2/6 316/2/6 321/2/6
f 321/2/6 316/2/6 322/2/6
f 317/2/6 318/2/6 323/2/6
f 323/2/6 318/2/6 324/2/6
f 319/2/6 320/2/6 325/2/6
f 325/2/6 320/2/6 326/2/6
f 327/2/6 328/2/6 331/2/6
f 331/2/6 328/2/6 332/2/6
f 329/2/6 330/2/6 333/2/6
f 333/2/6 330/2/6 334/2/6
