# MagicaVoxel @ Ephtracy

# group
g Receptionist

# material
mtllib Receptionist.mtl
usemtl palette

# normals
vn -1 0 0
vn 1 0 0
vn 0 0 1
vn 0 0 -1
vn 0 -1 0
vn 0 1 0

# texcoords
vt 0.0605469 0.5
vt 0.392578 0.5
vt 0.833984 0.5
vt 0.958984 0.5
vt 0.994141 0.5

# verts
v -5 7 2
v -5 7 -2
v -5 8 3
v -5 8 2
v -5 8 -2
v -5 8 -3
v -5 10 3
v -5 10 -3
v -5 16 2
v -5 16 -2
v -5 17 2
v -5 17 -2
v -4 3 3
v -4 3 -3
v -4 6 6
v -4 6 5
v -4 6 3
v -4 6 2
v -4 6 -2
v -4 6 -3
v -4 6 -5
v -4 6 -6
v -4 7 6
v -4 7 5
v -4 7 3
v -4 7 2
v -4 7 -2
v -4 7 -3
v -4 7 -5
v -4 7 -6
v -4 8 3
v -4 8 2
v -4 8 -2
v -4 8 -3
v -4 10 3
v -4 10 -3
v -4 11 3
v -4 11 -3
v -4 12 2
v -4 12 -2
v -4 14 2
v -4 14 1
v -4 14 -1
v -4 14 -2
v -4 15 2
v -4 15 1
v -4 15 -1
v -4 15 -2
v -4 16 3
v -4 16 2
v -4 16 -2
v -4 16 -3
v -4 17 3
v -4 17 2
v -4 17 1
v -4 17 -1
v -4 17 -2
v -4 17 -3
v -4 18 1
v -4 18 -1
v -3 6 7
v -3 6 6
v -3 6 -6
v -3 6 -7
v -3 7 7
v -3 7 6
v -3 7 5
v -3 7 4
v -3 7 -4
v -3 7 -5
v -3 7 -6
v -3 7 -7
v -3 8 6
v -3 8 5
v -3 8 4
v -3 8 3
v -3 8 -3
v -3 8 -4
v -3 8 -5
v -3 8 -6
v -3 9 5
v -3 9 4
v -3 9 -4
v -3 9 -5
v -3 10 4
v -3 10 3
v -3 10 -3
v -3 10 -4
v -3 11 1
v -3 11 -1
v -3 12 1
v -3 12 -1
v -3 17 2
v -3 17 1
v -3 17 -1
v -3 17 -2
v -3 18 2
v -3 18 1
v -3 18 -1
v -3 18 -2
v -3 19 1
v -3 19 -1
v -2 0 2
v -2 0 1
v -2 0 -1
v -2 0 -2
v -2 1 2
v -2 1 1
v -2 1 -1
v -2 1 -2
v -2 2 2
v -2 2 1
v -2 2 -1
v -2 2 -2
v -2 3 2
v -2 3 1
v -2 3 -1
v -2 3 -2
v -2 15 3
v -2 15 2
v -2 15 -2
v -2 15 -3
v -2 16 3
v -2 16 2
v -2 16 -2
v -2 16 -3
v -1 14 3
v -1 14 2
v -1 14 -2
v -1 14 -3
v -1 15 3
v -1 15 2
v -1 15 -2
v -1 15 -3
v -1 0 2
v -1 0 1
v -1 0 -1
v -1 0 -2
v -1 1 2
v -1 1 1
v -1 1 -1
v -1 1 -2
v -1 2 2
v -1 2 1
v -1 2 -1
v -1 2 -2
v -1 3 2
v -1 3 1
v -1 3 -1
v -1 3 -2
v -1 6 7
v -1 6 5
v -1 6 -5
v -1 6 -7
v -1 7 7
v -1 7 6
v -1 7 5
v -1 7 4
v -1 7 -4
v -1 7 -5
v -1 7 -6
v -1 7 -7
v -1 8 6
v -1 8 5
v -1 8 4
v -1 8 3
v -1 8 -3
v -1 8 -4
v -1 8 -5
v -1 8 -6
v -1 9 5
v -1 9 4
v -1 9 -4
v -1 9 -5
v -1 10 4
v -1 10 3
v -1 10 -3
v -1 10 -4
v -1 11 1
v -1 11 -1
v -1 12 1
v -1 12 -1
v 0 3 3
v 0 3 -3
v 0 6 3
v 0 6 2
v 0 6 -2
v 0 6 -3
v 0 7 3
v 0 7 2
v 0 7 -2
v 0 7 -3
v 0 11 3
v 0 11 -3
v 0 12 2
v 0 12 1
v 0 12 -1
v 0 12 -2
v 0 13 2
v 0 13 1
v 0 13 -1
v 0 13 -2
v 0 14 3
v 0 14 2
v 0 14 -2
v 0 14 -3
v 0 17 3
v 0 17 2
v 0 17 1
v 0 17 -1
v 0 17 -2
v 0 17 -3
v 0 18 2
v 0 18 1
v 0 18 -1
v 0 18 -2
v 0 19 1
v 0 19 -1
v 1 12 1
v 1 12 -1
v 1 13 2
v 1 13 1
v 1 13 -1
v 1 13 -2
v 1 14 1
v 1 14 -1
v 1 17 2
v 1 17 1
v 1 17 -1
v 1 17 -2
v 1 18 1
v 1 18 -1
v 3 14 1
v 3 14 -1
v 3 17 1
v 3 17 -1
v -3 6 7
v -3 7 7
v -1 6 7
v -1 7 7
v -4 6 6
v -4 7 6
v -3 6 6
v -3 7 6
v -3 8 6
v -1 7 6
v -1 8 6
v -3 8 5
v -3 9 5
v -1 8 5
v -1 9 5
v -3 9 4
v -3 10 4
v -1 9 4
v -1 10 4
v -5 8 3
v -5 10 3
v -4 3 3
v -4 6 3
v -4 7 3
v -4 8 3
v -4 10 3
v -4 11 3
v -4 16 3
v -4 17 3
v -3 8 3
v -3 10 3
v -2 15 3
v -2 16 3
v -1 8 3
v -1 10 3
v -1 14 3
v -1 15 3
v 0 3 3
v 0 6 3
v 0 7 3
v 0 11 3
v 0 14 3
v 0 17 3
v -5 7 2
v -5 8 2
v -5 16 2
v -5 17 2
v -4 6 2
v -4 7 2
v -4 8 2
v -4 12 2
v -4 14 2
v -4 15 2
v -4 16 2
v -4 17 2
v -3 14 2
v -3 15 2
v -3 17 2
v -3 18 2
v -2 0 2
v -2 1 2
v -2 2 2
v -2 3 2
v -2 15 2
v -2 16 2
v -1 0 2
v -1 1 2
v -1 2 2
v -1 3 2
v -1 12 2
v -1 14 2
v -1 15 2
v 0 6 2
v 0 7 2
v 0 12 2
v 0 13 2
v 0 14 2
v 0 17 2
v 0 18 2
v 1 13 2
v 1 17 2
v -4 17 1
v -4 18 1
v -3 11 1
v -3 12 1
v -3 17 1
v -3 18 1
v -3 19 1
v -1 11 1
v -1 12 1
v 0 12 1
v 0 13 1
v 0 17 1
v 0 18 1
v 0 19 1
v 1 12 1
v 1 13 1
v 1 14 1
v 1 17 1
v 1 18 1
v 3 14 1
v 3 17 1
v -2 0 -1
v -2 1 -1
v -2 2 -1
v -2 3 -1
v -1 0 -1
v -1 1 -1
v -1 2 -1
v -1 3 -1
v -3 7 -4
v -3 8 -4
v -1 7 -4
v -1 8 -4
v -4 6 -5
v -4 7 -5
v -3 7 -5
v -1 6 -5
v -1 7 -5
v -4 6 5
v -4 7 5
v -3 7 5
v -1 6 5
v -1 7 5
v -3 7 4
v -3 8 4
v -1 7 4
v -1 8 4
v -2 0 1
v -2 1 1
v -2 2 1
v -2 3 1
v -1 0 1
v -1 1 1
v -1 2 1
v -1 3 1
v -4 17 -1
v -4 18 -1
v -3 11 -1
v -3 12 -1
v -3 17 -1
v -3 18 -1
v -3 19 -1
v -1 11 -1
v -1 12 -1
v 0 12 -1
v 0 13 -1
v 0 17 -1
v 0 18 -1
v 0 19 -1
v 1 12 -1
v 1 13 -1
v 1 14 -1
v 1 17 -1
v 1 18 -1
v 3 14 -1
v 3 17 -1
v -5 7 -2
v -5 8 -2
v -5 16 -2
v -5 17 -2
v -4 6 -2
v -4 7 -2
v -4 8 -2
v -4 12 -2
v -4 14 -2
v -4 15 -2
v -4 16 -2
v -4 17 -2
v -3 14 -2
v -3 15 -2
v -3 17 -2
v -3 18 -2
v -2 0 -2
v -2 1 -2
v -2 2 -2
v -2 3 -2
v -2 15 -2
v -2 16 -2
v -1 0 -2
v -1 1 -2
v -1 2 -2
v -1 3 -2
v -1 12 -2
v -1 14 -2
v -1 15 -2
v 0 6 -2
v 0 7 -2
v 0 12 -2
v 0 13 -2
v 0 14 -2
v 0 17 -2
v 0 18 -2
v 1 13 -2
v 1 17 -2
v -5 8 -3
v -5 10 -3
v -4 3 -3
v -4 6 -3
v -4 7 -3
v -4 8 -3
v -4 10 -3
v -4 11 -3
v -4 16 -3
v -4 17 -3
v -3 8 -3
v -3 10 -3
v -2 15 -3
v -2 16 -3
v -1 8 -3
v -1 10 -3
v -1 14 -3
v -1 15 -3
v 0 3 -3
v 0 6 -3
v 0 7 -3
v 0 11 -3
v 0 14 -3
v 0 17 -3
v -3 9 -4
v -3 10 -4
v -1 9 -4
v -1 10 -4
v -3 8 -5
v -3 9 -5
v -1 8 -5
v -1 9 -5
v -4 6 -6
v -4 7 -6
v -3 6 -6
v -3 7 -6
v -3 8 -6
v -1 7 -6
v -1 8 -6
v -3 6 -7
v -3 7 -7
v -1 6 -7
v -1 7 -7
v -2 0 2
v -1 0 2
v -2 0 1
v -1 0 1
v -2 0 -1
v -1 0 -1
v -2 0 -2
v -1 0 -2
v -4 3 3
v 0 3 3
v -2 3 2
v -1 3 2
v -2 3 1
v -1 3 1
v -2 3 -1
v -1 3 -1
v -2 3 -2
v -1 3 -2
v -4 3 -3
v 0 3 -3
v -3 6 7
v -1 6 7
v -4 6 6
v -3 6 6
v -4 6 5
v -1 6 5
v -4 6 -5
v -1 6 -5
v -4 6 -6
v -3 6 -6
v -3 6 -7
v -1 6 -7
v -3 7 5
v -1 7 5
v -3 7 4
v -1 7 4
v -4 7 3
v 0 7 3
v -5 7 2
v -4 7 2
v 0 7 2
v -5 7 -2
v -4 7 -2
v 0 7 -2
v -4 7 -3
v 0 7 -3
v -3 7 -4
v -1 7 -4
v -3 7 -5
v -1 7 -5
v -3 8 4
v -1 8 4
v -5 8 3
v -4 8 3
v -3 8 3
v -1 8 3
v -5 8 2
v -4 8 2
v -5 8 -2
v -4 8 -2
v -5 8 -3
v -4 8 -3
v -3 8 -3
v -1 8 -3
v -3 8 -4
v -1 8 -4
v -4 12 2
v -1 12 2
v 0 12 2
v -3 12 1
v -1 12 1
v 0 12 1
v 1 12 1
v -3 12 -1
v -1 12 -1
v 0 12 -1
v 1 12 -1
v -4 12 -2
v -1 12 -2
v 0 12 -2
v 0 13 2
v 1 13 2
v 0 13 1
v 1 13 1
v 0 13 -1
v 1 13 -1
v 0 13 -2
v 1 13 -2
v -1 14 3
v 0 14 3
v -1 14 2
v 0 14 2
v 1 14 1
v 3 14 1
v 1 14 -1
v 3 14 -1
v -1 14 -2
v 0 14 -2
v -1 14 -3
v 0 14 -3
v -2 15 3
v -1 15 3
v -2 15 2
v -1 15 2
v -2 15 -2
v -1 15 -2
v -2 15 -3
v -1 15 -3
v -4 16 3
v -2 16 3
v -5 16 2
v -4 16 2
v -2 16 2
v -5 16 -2
v -4 16 -2
v -2 16 -2
v -4 16 -3
v -2 16 -3
v -4 6 3
v 0 6 3
v -4 6 2
v 0 6 2
v -4 6 -2
v 0 6 -2
v -4 6 -3
v 0 6 -3
v -3 7 7
v -1 7 7
v -4 7 6
v -3 7 6
v -1 7 6
v -4 7 5
v -3 7 5
v -4 7 -5
v -3 7 -5
v -4 7 -6
v -3 7 -6
v -1 7 -6
v -3 7 -7
v -1 7 -7
v -3 8 6
v -1 8 6
v -3 8 5
v -1 8 5
v -3 8 -5
v -1 8 -5
v -3 8 -6
v -1 8 -6
v -3 9 5
v -1 9 5
v -3 9 4
v -1 9 4
v -3 9 -4
v -1 9 -4
v -3 9 -5
v -1 9 -5
v -3 10 4
v -1 10 4
v -5 10 3
v -4 10 3
v -3 10 3
v -1 10 3
v -5 10 -3
v -4 10 -3
v -3 10 -3
v -1 10 -3
v -3 10 -4
v -1 10 -4
v -4 11 3
v 0 11 3
v -3 11 1
v -1 11 1
v -3 11 -1
v -1 11 -1
v -4 11 -3
v 0 11 -3
v -4 17 3
v 0 17 3
v -5 17 2
v -4 17 2
v -3 17 2
v 0 17 2
v 1 17 2
v -4 17 1
v -3 17 1
v 0 17 1
v 1 17 1
v 3 17 1
v -4 17 -1
v -3 17 -1
v 0 17 -1
v 1 17 -1
v 3 17 -1
v -5 17 -2
v -4 17 -2
v -3 17 -2
v 0 17 -2
v 1 17 -2
v -4 17 -3
v 0 17 -3
v -3 18 2
v 0 18 2
v -4 18 1
v -3 18 1
v 0 18 1
v 1 18 1
v -4 18 -1
v -3 18 -1
v 0 18 -1
v 1 18 -1
v -3 18 -2
v 0 18 -2
v -3 19 1
v 0 19 1
v -3 19 -1
v 0 19 -1

# faces
f 4/4/1 2/4/1 1/4/1
f 5/4/1 2/4/1 4/4/1
f 7/4/1 4/4/1 3/4/1
f 7/4/1 6/4/1 5/4/1
f 7/4/1 5/4/1 4/4/1
f 8/4/1 6/4/1 7/4/1
f 11/2/1 10/2/1 9/2/1
f 12/2/1 10/2/1 11/2/1
f 17/5/1 14/5/1 13/5/1
f 18/5/1 14/5/1 17/5/1
f 19/5/1 14/5/1 18/5/1
f 20/5/1 14/5/1 19/5/1
f 23/1/1 16/1/1 15/1/1
f 24/1/1 16/1/1 23/1/1
f 26/5/1 19/5/1 18/5/1
f 27/5/1 19/5/1 26/5/1
f 29/1/1 22/1/1 21/1/1
f 30/1/1 22/1/1 29/1/1
f 31/4/1 26/4/1 25/4/1
f 32/4/1 26/4/1 31/4/1
f 33/4/1 28/4/1 27/4/1
f 34/4/1 28/4/1 33/4/1
f 37/4/1 36/4/1 35/4/1
f 38/4/1 36/4/1 37/4/1
f 41/1/1 40/1/1 39/1/1
f 42/1/1 40/1/1 41/1/1
f 43/1/1 40/1/1 42/1/1
f 44/1/1 40/1/1 43/1/1
f 45/3/1 42/3/1 41/3/1
f 46/1/1 43/1/1 42/1/1
f 46/3/1 42/3/1 45/3/1
f 47/3/1 44/3/1 43/3/1
f 47/1/1 43/1/1 46/1/1
f 48/3/1 44/3/1 47/3/1
f 50/1/1 46/1/1 45/1/1
f 50/1/1 47/1/1 46/1/1
f 50/1/1 48/1/1 47/1/1
f 51/1/1 48/1/1 50/1/1
f 53/2/1 50/2/1 49/2/1
f 54/2/1 50/2/1 53/2/1
f 57/2/1 52/2/1 51/2/1
f 58/2/1 52/2/1 57/2/1
f 59/2/1 56/2/1 55/2/1
f 60/2/1 56/2/1 59/2/1
f 65/1/1 62/1/1 61/1/1
f 66/1/1 62/1/1 65/1/1
f 71/1/1 64/1/1 63/1/1
f 72/1/1 64/1/1 71/1/1
f 73/4/1 67/4/1 66/4/1
f 73/4/1 68/4/1 67/4/1
f 74/4/1 68/4/1 73/4/1
f 75/4/1 68/4/1 74/4/1
f 78/4/1 70/4/1 69/4/1
f 78/4/1 71/4/1 70/4/1
f 79/4/1 71/4/1 78/4/1
f 80/4/1 71/4/1 79/4/1
f 81/4/1 76/4/1 75/4/1
f 81/4/1 75/4/1 74/4/1
f 82/4/1 76/4/1 81/4/1
f 83/4/1 79/4/1 78/4/1
f 83/4/1 78/4/1 77/4/1
f 84/4/1 79/4/1 83/4/1
f 85/4/1 76/4/1 82/4/1
f 86/4/1 76/4/1 85/4/1
f 87/4/1 83/4/1 77/4/1
f 88/4/1 83/4/1 87/4/1
f 91/1/1 90/1/1 89/1/1
f 92/1/1 90/1/1 91/1/1
f 97/2/1 94/2/1 93/2/1
f 98/2/1 94/2/1 97/2/1
f 99/2/1 96/2/1 95/2/1
f 100/2/1 96/2/1 99/2/1
f 101/2/1 99/2/1 98/2/1
f 102/2/1 99/2/1 101/2/1
f 107/5/1 104/5/1 103/5/1
f 108/5/1 104/5/1 107/5/1
f 109/5/1 106/5/1 105/5/1
f 110/5/1 106/5/1 109/5/1
f 111/4/1 108/4/1 107/4/1
f 112/4/1 108/4/1 111/4/1
f 113/4/1 110/4/1 109/4/1
f 114/4/1 110/4/1 113/4/1
f 115/5/1 112/5/1 111/5/1
f 116/5/1 112/5/1 115/5/1
f 117/5/1 114/5/1 113/5/1
f 118/5/1 114/5/1 117/5/1
f 123/2/1 120/2/1 119/2/1
f 124/2/1 120/2/1 123/2/1
f 125/2/1 122/2/1 121/2/1
f 126/2/1 122/2/1 125/2/1
f 131/2/1 128/2/1 127/2/1
f 132/2/1 128/2/1 131/2/1
f 133/2/1 130/2/1 129/2/1
f 134/2/1 130/2/1 133/2/1
f 135/5/2 136/5/2 139/5/2
f 139/5/2 136/5/2 140/5/2
f 137/5/2 138/5/2 141/5/2
f 141/5/2 138/5/2 142/5/2
f 139/4/2 140/4/2 143/4/2
f 143/4/2 140/4/2 144/4/2
f 141/4/2 142/4/2 145/4/2
f 145/4/2 142/4/2 146/4/2
f 143/5/2 144/5/2 147/5/2
f 147/5/2 144/5/2 148/5/2
f 145/5/2 146/5/2 149/5/2
f 149/5/2 146/5/2 150/5/2
f 151/1/2 152/1/2 155/1/2
f 155/1/2 152/1/2 156/1/2
f 156/1/2 152/1/2 157/1/2
f 153/1/2 154/1/2 160/1/2
f 160/1/2 154/1/2 161/1/2
f 161/1/2 154/1/2 162/1/2
f 157/4/2 158/4/2 163/4/2
f 156/4/2 157/4/2 163/4/2
f 163/4/2 158/4/2 164/4/2
f 164/4/2 158/4/2 165/4/2
f 160/4/2 161/4/2 168/4/2
f 159/4/2 160/4/2 168/4/2
f 168/4/2 161/4/2 169/4/2
f 169/4/2 161/4/2 170/4/2
f 165/4/2 166/4/2 171/4/2
f 164/4/2 165/4/2 171/4/2
f 171/4/2 166/4/2 172/4/2
f 168/4/2 169/4/2 173/4/2
f 167/4/2 168/4/2 173/4/2
f 173/4/2 169/4/2 174/4/2
f 172/4/2 166/4/2 175/4/2
f 175/4/2 166/4/2 176/4/2
f 167/4/2 173/4/2 177/4/2
f 177/4/2 173/4/2 178/4/2
f 179/1/2 180/1/2 181/1/2
f 181/1/2 180/1/2 182/1/2
f 183/5/2 184/5/2 185/5/2
f 185/5/2 184/5/2 186/5/2
f 186/5/2 184/5/2 187/5/2
f 187/5/2 184/5/2 188/5/2
f 186/5/2 187/5/2 190/5/2
f 190/5/2 187/5/2 191/5/2
f 189/4/2 190/4/2 193/4/2
f 191/4/2 192/4/2 193/4/2
f 190/4/2 191/4/2 193/4/2
f 193/4/2 192/4/2 194/4/2
f 195/2/2 196/2/2 199/2/2
f 199/2/2 196/2/2 200/2/2
f 197/2/2 198/2/2 201/2/2
f 201/2/2 198/2/2 202/2/2
f 203/2/2 204/2/2 207/2/2
f 207/2/2 204/2/2 208/2/2
f 205/2/2 206/2/2 211/2/2
f 211/2/2 206/2/2 212/2/2
f 208/2/2 209/2/2 213/2/2
f 213/2/2 209/2/2 214/2/2
f 210/2/2 211/2/2 215/2/2
f 215/2/2 211/2/2 216/2/2
f 214/2/2 215/2/2 217/2/2
f 217/2/2 215/2/2 218/2/2
f 219/2/2 220/2/2 222/2/2
f 222/2/2 220/2/2 223/2/2
f 221/2/2 222/2/2 225/2/2
f 223/2/2 224/2/2 225/2/2
f 222/2/2 223/2/2 225/2/2
f 225/2/2 224/2/2 226/2/2
f 221/2/2 225/2/2 227/2/2
f 227/2/2 225/2/2 228/2/2
f 226/2/2 224/2/2 229/2/2
f 229/2/2 224/2/2 230/2/2
f 228/2/2 229/2/2 231/2/2
f 231/2/2 229/2/2 232/2/2
f 233/2/2 234/2/2 235/2/2
f 235/2/2 234/2/2 236/2/2
f 239/1/3 238/1/3 237/1/3
f 240/1/3 238/1/3 239/1/3
f 243/1/3 242/1/3 241/1/3
f 244/1/3 242/1/3 243/1/3
f 246/4/3 245/4/3 244/4/3
f 247/4/3 245/4/3 246/4/3
f 250/4/3 249/4/3 248/4/3
f 251/4/3 249/4/3 250/4/3
f 254/4/3 253/4/3 252/4/3
f 255/4/3 253/4/3 254/4/3
f 261/4/3 257/4/3 256/4/3
f 262/4/3 257/4/3 261/4/3
f 266/4/3 261/4/3 260/4/3
f 266/4/3 262/4/3 261/4/3
f 266/4/3 263/4/3 262/4/3
f 267/4/3 263/4/3 266/4/3
f 269/2/3 265/2/3 264/2/3
f 270/4/3 266/4/3 260/4/3
f 271/4/3 263/4/3 267/4/3
f 273/2/3 269/2/3 268/2/3
f 274/5/3 259/5/3 258/5/3
f 275/5/3 259/5/3 274/5/3
f 276/4/3 270/4/3 260/4/3
f 276/4/3 271/4/3 270/4/3
f 277/4/3 263/4/3 271/4/3
f 277/4/3 271/4/3 276/4/3
f 278/2/3 273/2/3 272/2/3
f 279/2/3 265/2/3 269/2/3
f 279/2/3 273/2/3 278/2/3
f 279/2/3 269/2/3 273/2/3
f 285/4/3 281/4/3 280/4/3
f 286/4/3 281/4/3 285/4/3
f 290/2/3 283/2/3 282/2/3
f 291/2/3 283/2/3 290/2/3
f 292/3/3 289/3/3 288/3/3
f 292/1/3 288/1/3 287/1/3
f 293/1/3 290/1/3 289/1/3
f 293/3/3 289/3/3 292/3/3
f 300/1/3 290/1/3 293/1/3
f 300/1/3 293/1/3 292/1/3
f 301/1/3 290/1/3 300/1/3
f 302/5/3 297/5/3 296/5/3
f 303/4/3 298/4/3 297/4/3
f 303/5/3 297/5/3 302/5/3
f 304/5/3 299/5/3 298/5/3
f 304/4/3 298/4/3 303/4/3
f 305/5/3 299/5/3 304/5/3
f 306/1/3 292/1/3 287/1/3
f 306/1/3 300/1/3 292/1/3
f 307/1/3 300/1/3 306/1/3
f 308/1/3 300/1/3 307/1/3
f 309/5/3 285/5/3 284/5/3
f 310/5/3 285/5/3 309/5/3
f 311/2/3 307/2/3 306/2/3
f 312/2/3 307/2/3 311/2/3
f 313/2/3 307/2/3 312/2/3
f 314/2/3 295/2/3 294/2/3
f 315/2/3 295/2/3 314/2/3
f 316/2/3 313/2/3 312/2/3
f 316/2/3 314/2/3 313/2/3
f 317/2/3 314/2/3 316/2/3
f 322/2/3 319/2/3 318/2/3
f 323/2/3 319/2/3 322/2/3
f 325/1/3 321/1/3 320/1/3
f 326/1/3 321/1/3 325/1/3
f 330/2/3 324/2/3 323/2/3
f 331/2/3 324/2/3 330/2/3
f 332/2/3 328/2/3 327/2/3
f 333/2/3 328/2/3 332/2/3
f 335/2/3 330/2/3 329/2/3
f 336/2/3 330/2/3 335/2/3
f 337/2/3 335/2/3 334/2/3
f 338/2/3 335/2/3 337/2/3
f 343/5/3 340/5/3 339/5/3
f 344/4/3 341/4/3 340/4/3
f 344/5/3 340/5/3 343/5/3
f 345/5/3 342/5/3 341/5/3
f 345/4/3 341/4/3 344/4/3
f 346/5/3 342/5/3 345/5/3
f 349/4/3 348/4/3 347/4/3
f 350/4/3 348/4/3 349/4/3
f 353/1/3 352/1/3 351/1/3
f 354/1/3 353/1/3 351/1/3
f 355/1/3 353/1/3 354/1/3
f 356/1/4 357/1/4 358/1/4
f 356/1/4 358/1/4 359/1/4
f 359/1/4 358/1/4 360/1/4
f 361/4/4 362/4/4 363/4/4
f 363/4/4 362/4/4 364/4/4
f 365/5/4 366/5/4 369/5/4
f 366/4/4 367/4/4 370/4/4
f 369/5/4 366/5/4 370/5/4
f 367/5/4 368/5/4 371/5/4
f 370/4/4 367/4/4 371/4/4
f 371/5/4 368/5/4 372/5/4
f 373/2/4 374/2/4 377/2/4
f 377/2/4 374/2/4 378/2/4
f 375/1/4 376/1/4 380/1/4
f 380/1/4 376/1/4 381/1/4
f 378/2/4 379/2/4 385/2/4
f 385/2/4 379/2/4 386/2/4
f 382/2/4 383/2/4 387/2/4
f 387/2/4 383/2/4 388/2/4
f 384/2/4 385/2/4 390/2/4
f 390/2/4 385/2/4 391/2/4
f 389/2/4 390/2/4 392/2/4
f 392/2/4 390/2/4 393/2/4
f 394/4/4 395/4/4 399/4/4
f 399/4/4 395/4/4 400/4/4
f 396/2/4 397/2/4 404/2/4
f 404/2/4 397/2/4 405/2/4
f 402/3/4 403/3/4 406/3/4
f 401/1/4 402/1/4 406/1/4
f 403/1/4 404/1/4 407/1/4
f 406/3/4 403/3/4 407/3/4
f 407/1/4 404/1/4 414/1/4
f 406/1/4 407/1/4 414/1/4
f 414/1/4 404/1/4 415/1/4
f 410/5/4 411/5/4 416/5/4
f 411/4/4 412/4/4 417/4/4
f 416/5/4 411/5/4 417/5/4
f 412/5/4 413/5/4 418/5/4
f 417/4/4 412/4/4 418/4/4
f 418/5/4 413/5/4 419/5/4
f 401/1/4 406/1/4 420/1/4
f 406/1/4 414/1/4 420/1/4
f 420/1/4 414/1/4 421/1/4
f 421/1/4 414/1/4 422/1/4
f 398/5/4 399/5/4 423/5/4
f 423/5/4 399/5/4 424/5/4
f 420/2/4 421/2/4 425/2/4
f 425/2/4 421/2/4 426/2/4
f 426/2/4 421/2/4 427/2/4
f 408/2/4 409/2/4 428/2/4
f 428/2/4 409/2/4 429/2/4
f 426/2/4 427/2/4 430/2/4
f 427/2/4 428/2/4 430/2/4
f 430/2/4 428/2/4 431/2/4
f 432/4/4 433/4/4 437/4/4
f 437/4/4 433/4/4 438/4/4
f 436/4/4 437/4/4 442/4/4
f 437/4/4 438/4/4 442/4/4
f 438/4/4 439/4/4 442/4/4
f 442/4/4 439/4/4 443/4/4
f 440/2/4 441/2/4 445/2/4
f 436/4/4 442/4/4 446/4/4
f 443/4/4 439/4/4 447/4/4
f 444/2/4 445/2/4 449/2/4
f 434/5/4 435/5/4 450/5/4
f 450/5/4 435/5/4 451/5/4
f 436/4/4 446/4/4 452/4/4
f 446/4/4 447/4/4 452/4/4
f 447/4/4 439/4/4 453/4/4
f 452/4/4 447/4/4 453/4/4
f 448/2/4 449/2/4 454/2/4
f 445/2/4 441/2/4 455/2/4
f 454/2/4 449/2/4 455/2/4
f 449/2/4 445/2/4 455/2/4
f 456/4/4 457/4/4 458/4/4
f 458/4/4 457/4/4 459/4/4
f 460/4/4 461/4/4 462/4/4
f 462/4/4 461/4/4 463/4/4
f 464/1/4 465/1/4 466/1/4
f 466/1/4 465/1/4 467/1/4
f 467/4/4 468/4/4 469/4/4
f 469/4/4 468/4/4 470/4/4
f 471/1/4 472/1/4 473/1/4
f 473/1/4 472/1/4 474/1/4
f 477/5/5 476/5/5 475/5/5
f 478/5/5 476/5/5 477/5/5
f 481/5/5 480/5/5 479/5/5
f 482/5/5 480/5/5 481/5/5
f 485/5/5 484/5/5 483/5/5
f 486/5/5 484/5/5 485/5/5
f 487/5/5 485/5/5 483/5/5
f 488/5/5 484/5/5 486/5/5
f 489/5/5 487/5/5 483/5/5
f 489/5/5 488/5/5 487/5/5
f 490/5/5 484/5/5 488/5/5
f 490/5/5 488/5/5 489/5/5
f 491/5/5 489/5/5 483/5/5
f 492/5/5 484/5/5 490/5/5
f 493/5/5 491/5/5 483/5/5
f 493/5/5 492/5/5 491/5/5
f 494/5/5 484/5/5 492/5/5
f 494/5/5 492/5/5 493/5/5
f 498/1/5 496/1/5 495/1/5
f 499/1/5 498/1/5 497/1/5
f 500/1/5 496/1/5 498/1/5
f 500/1/5 498/1/5 499/1/5
f 503/1/5 502/1/5 501/1/5
f 504/1/5 502/1/5 503/1/5
f 505/1/5 502/1/5 504/1/5
f 506/1/5 502/1/5 505/1/5
f 509/4/5 508/4/5 507/4/5
f 510/4/5 508/4/5 509/4/5
f 514/4/5 512/4/5 511/4/5
f 515/4/5 512/4/5 514/4/5
f 516/4/5 514/4/5 513/4/5
f 517/4/5 514/4/5 516/4/5
f 519/4/5 518/4/5 517/4/5
f 520/4/5 518/4/5 519/4/5
f 523/4/5 522/4/5 521/4/5
f 524/4/5 522/4/5 523/4/5
f 529/4/5 526/4/5 525/4/5
f 530/4/5 526/4/5 529/4/5
f 531/4/5 528/4/5 527/4/5
f 532/4/5 528/4/5 531/4/5
f 535/4/5 534/4/5 533/4/5
f 536/4/5 534/4/5 535/4/5
f 539/4/5 538/4/5 537/4/5
f 540/4/5 538/4/5 539/4/5
f 544/1/5 542/1/5 541/1/5
f 545/2/5 543/2/5 542/2/5
f 545/1/5 542/1/5 544/1/5
f 546/2/5 543/2/5 545/2/5
f 548/1/5 544/1/5 541/1/5
f 549/4/5 546/4/5 545/4/5
f 550/2/5 547/2/5 546/2/5
f 550/4/5 546/4/5 549/4/5
f 551/2/5 547/2/5 550/2/5
f 552/1/5 549/1/5 548/1/5
f 552/1/5 548/1/5 541/1/5
f 553/2/5 550/2/5 549/2/5
f 553/1/5 549/1/5 552/1/5
f 554/2/5 550/2/5 553/2/5
f 557/2/5 556/2/5 555/2/5
f 558/2/5 556/2/5 557/2/5
f 561/2/5 560/2/5 559/2/5
f 562/2/5 560/2/5 561/2/5
f 565/2/5 564/2/5 563/2/5
f 566/2/5 564/2/5 565/2/5
f 569/2/5 568/2/5 567/2/5
f 570/2/5 568/2/5 569/2/5
f 573/2/5 572/2/5 571/2/5
f 574/2/5 572/2/5 573/2/5
f 577/2/5 576/2/5 575/2/5
f 578/2/5 576/2/5 577/2/5
f 581/2/5 580/2/5 579/2/5
f 582/2/5 580/2/5 581/2/5
f 586/2/5 584/2/5 583/2/5
f 587/2/5 584/2/5 586/2/5
f 588/2/5 586/2/5 585/2/5
f 589/2/5 586/2/5 588/2/5
f 591/2/5 590/2/5 589/2/5
f 592/2/5 590/2/5 591/2/5
f 593/5/6 594/5/6 595/5/6
f 595/5/6 594/5/6 596/5/6
f 597/5/6 598/5/6 599/5/6
f 599/5/6 598/5/6 600/5/6
f 601/1/6 602/1/6 604/1/6
f 604/1/6 602/1/6 605/1/6
f 603/1/6 604/1/6 606/1/6
f 606/1/6 604/1/6 607/1/6
f 608/1/6 609/1/6 610/1/6
f 610/1/6 609/1/6 611/1/6
f 611/1/6 612/1/6 613/1/6
f 613/1/6 612/1/6 614/1/6
f 615/4/6 616/4/6 617/4/6
f 617/4/6 616/4/6 618/4/6
f 619/4/6 620/4/6 621/4/6
f 621/4/6 620/4/6 622/4/6
f 623/4/6 624/4/6 625/4/6
f 625/4/6 624/4/6 626/4/6
f 627/4/6 628/4/6 629/4/6
f 629/4/6 628/4/6 630/4/6
f 631/4/6 632/4/6 635/4/6
f 635/4/6 632/4/6 636/4/6
f 633/4/6 634/4/6 637/4/6
f 637/4/6 634/4/6 638/4/6
f 639/4/6 640/4/6 641/4/6
f 641/4/6 640/4/6 642/4/6
f 643/4/6 644/4/6 645/4/6
f 645/4/6 644/4/6 646/4/6
f 643/4/6 645/4/6 647/4/6
f 646/4/6 644/4/6 648/4/6
f 643/4/6 647/4/6 649/4/6
f 647/4/6 648/4/6 649/4/6
f 648/4/6 644/4/6 650/4/6
f 649/4/6 648/4/6 650/4/6
f 651/2/6 652/2/6 654/2/6
f 654/2/6 652/2/6 655/2/6
f 655/2/6 652/2/6 656/2/6
f 653/2/6 654/2/6 658/2/6
f 654/2/6 655/2/6 658/2/6
f 658/2/6 655/2/6 659/2/6
f 656/2/6 657/2/6 660/2/6
f 660/2/6 657/2/6 661/2/6
f 653/2/6 658/2/6 663/2/6
f 661/2/6 662/2/6 666/2/6
f 666/2/6 662/2/6 667/2/6
f 663/2/6 664/2/6 668/2/6
f 653/2/6 663/2/6 668/2/6
f 668/2/6 664/2/6 669/2/6
f 669/2/6 664/2/6 670/2/6
f 665/2/6 666/2/6 671/2/6
f 671/2/6 666/2/6 672/2/6
f 669/2/6 670/2/6 673/2/6
f 670/2/6 671/2/6 673/2/6
f 673/2/6 671/2/6 674/2/6
f 675/2/6 676/2/6 678/2/6
f 678/2/6 676/2/6 679/2/6
f 677/2/6 678/2/6 681/2/6
f 681/2/6 678/2/6 682/2/6
f 679/2/6 680/2/6 683/2/6
f 683/2/6 680/2/6 684/2/6
f 682/2/6 683/2/6 685/2/6
f 685/2/6 683/2/6 686/2/6
f 687/2/6 688/2/6 689/2/6
f 689/2/6 688/2/6 690/2/6
