# MagicaVoxel @ Ephtracy

# group
g shelf_1

# material
mtllib shelf_1.mtl
usemtl palette

# normals
vn -1 0 0
vn 1 0 0
vn 0 0 1
vn 0 0 -1
vn 0 -1 0
vn 0 1 0

# texcoords
vt 0.0644531 0.5
vt 0.0917969 0.5
vt 0.185547 0.5
vt 0.255859 0.5
vt 0.341797 0.5
vt 0.396484 0.5
vt 0.537109 0.5
vt 0.556641 0.5
vt 0.783203 0.5
vt 0.818359 0.5
vt 0.837891 0.5
vt 0.849609 0.5
vt 0.888672 0.5
vt 0.904297 0.5
vt 0.986328 0.5
vt 0.990234 0.5

# verts
v -6 0 7
v -6 0 -8
v -6 17 7
v -6 17 -8
v -4 2 5
v -4 2 1
v -4 2 -2
v -4 2 -6
v -4 5 5
v -4 5 1
v -4 5 -2
v -4 5 -6
v -4 12 -3
v -4 12 -6
v -4 13 -3
v -4 13 -6
v -3 7 5
v -3 7 -0
v -3 8 4
v -3 8 1
v -3 9 4
v -3 9 1
v -3 10 4
v -3 10 1
v -3 11 5
v -3 11 -0
v -3 13 -4
v -3 13 -5
v -3 14 -3
v -3 14 -4
v -3 14 -5
v -3 14 -6
v -3 15 -4
v -3 15 -5
v -3 16 -3
v -3 16 -6
v -5 2 6
v -5 2 -7
v -5 6 6
v -5 6 -7
v -5 7 6
v -5 7 -3
v -5 11 6
v -5 11 -3
v -5 12 2
v -5 12 -7
v -5 16 2
v -5 16 -7
v -2 7 5
v -2 7 -0
v -2 8 4
v -2 8 1
v -2 9 4
v -2 9 1
v -2 10 4
v -2 10 1
v -2 11 5
v -2 11 -0
v -2 12 6
v -2 12 5
v -2 12 4
v -2 12 3
v -2 13 -4
v -2 13 -5
v -2 14 -3
v -2 14 -4
v -2 14 -5
v -2 14 -6
v -2 15 -4
v -2 15 -5
v -2 16 6
v -2 16 5
v -2 16 4
v -2 16 3
v -2 16 -3
v -2 16 -6
v -1 2 5
v -1 2 1
v -1 2 -2
v -1 2 -6
v -1 3 4
v -1 3 2
v -1 3 -3
v -1 3 -5
v -1 4 4
v -1 4 2
v -1 4 -3
v -1 4 -5
v -1 5 5
v -1 5 1
v -1 5 -2
v -1 5 -6
v -1 7 -3
v -1 7 -4
v -1 7 -5
v -1 7 -6
v -1 7 -7
v -1 11 -3
v -1 11 -4
v -1 11 -5
v -1 11 -6
v -1 11 -7
v -1 12 5
v -1 12 4
v -1 12 3
v -1 12 2
v -1 12 -3
v -1 12 -6
v -1 13 -3
v -1 13 -6
v -1 16 5
v -1 16 4
v -1 16 3
v -1 16 2
v 0 0 7
v 0 0 -8
v 0 2 6
v 0 2 -7
v 0 6 6
v 0 6 -7
v 0 7 6
v 0 7 -7
v 0 11 6
v 0 11 -7
v 0 12 6
v 0 12 -7
v 0 16 6
v 0 16 -7
v 0 17 7
v 0 17 -8
v -6 0 7
v -6 17 7
v 0 0 7
v 0 17 7
v -4 2 5
v -4 5 5
v -3 7 5
v -3 11 5
v -2 7 5
v -2 11 5
v -2 12 5
v -2 16 5
v -1 2 5
v -1 5 5
v -1 12 5
v -1 16 5
v -2 12 3
v -2 16 3
v -1 12 3
v -1 16 3
v -4 2 -2
v -4 5 -2
v -1 2 -2
v -1 5 -2
v -5 7 -3
v -5 11 -3
v -4 12 -3
v -4 13 -3
v -3 14 -3
v -3 16 -3
v -2 14 -3
v -2 16 -3
v -1 7 -3
v -1 11 -3
v -1 12 -3
v -1 13 -3
v -3 13 -4
v -3 14 -4
v -2 13 -4
v -2 14 -4
v -5 2 -7
v -5 6 -7
v -5 12 -7
v -5 16 -7
v -1 7 -7
v -1 11 -7
v 0 2 -7
v 0 6 -7
v 0 7 -7
v 0 11 -7
v 0 12 -7
v 0 16 -7
v -5 2 6
v -5 6 6
v -5 7 6
v -5 11 6
v -2 12 6
v -2 16 6
v 0 2 6
v 0 6 6
v 0 7 6
v 0 11 6
v 0 12 6
v 0 16 6
v -2 12 4
v -2 16 4
v -1 12 4
v -1 16 4
v -5 12 2
v -5 16 2
v -1 12 2
v -1 16 2
v -4 2 1
v -4 5 1
v -1 2 1
v -1 5 1
v -3 7 -0
v -3 11 -0
v -2 7 -0
v -2 11 -0
v -3 13 -5
v -3 14 -5
v -2 13 -5
v -2 14 -5
v -4 2 -6
v -4 5 -6
v -4 12 -6
v -4 13 -6
v -3 14 -6
v -3 16 -6
v -2 14 -6
v -2 16 -6
v -1 2 -6
v -1 5 -6
v -1 12 -6
v -1 13 -6
v -6 0 -8
v -6 17 -8
v 0 0 -8
v 0 17 -8
v -6 0 7
v 0 0 7
v -6 0 -8
v 0 0 -8
v -5 6 6
v 0 6 6
v -5 6 -7
v 0 6 -7
v -5 11 6
v 0 11 6
v -3 11 5
v -2 11 5
v -3 11 -0
v -2 11 -0
v -5 11 -3
v -1 11 -3
v -1 11 -4
v -1 11 -5
v -1 11 -6
v -1 11 -7
v 0 11 -7
v -3 14 -3
v -2 14 -3
v -3 14 -4
v -2 14 -4
v -3 14 -5
v -2 14 -5
v -3 14 -6
v -2 14 -6
v -2 16 6
v 0 16 6
v -2 16 5
v -1 16 5
v -2 16 4
v -1 16 4
v -2 16 3
v -1 16 3
v -5 16 2
v -1 16 2
v -3 16 -3
v -2 16 -3
v -3 16 -6
v -2 16 -6
v -5 16 -7
v 0 16 -7
v -5 2 6
v 0 2 6
v -4 2 5
v -1 2 5
v -4 2 1
v -1 2 1
v -4 2 -2
v -1 2 -2
v -4 2 -6
v -1 2 -6
v -5 2 -7
v 0 2 -7
v -4 5 5
v -1 5 5
v -4 5 1
v -1 5 1
v -4 5 -2
v -1 5 -2
v -4 5 -6
v -1 5 -6
v -5 7 6
v 0 7 6
v -3 7 5
v -2 7 5
v -3 7 -0
v -2 7 -0
v -5 7 -3
v -1 7 -3
v -1 7 -4
v -1 7 -5
v -1 7 -6
v -1 7 -7
v 0 7 -7
v -2 12 6
v 0 12 6
v -2 12 5
v -1 12 5
v -2 12 4
v -1 12 4
v -2 12 3
v -1 12 3
v -5 12 2
v -1 12 2
v -4 12 -3
v -1 12 -3
v -4 12 -6
v -1 12 -6
v -5 12 -7
v 0 12 -7
v -4 13 -3
v -1 13 -3
v -3 13 -4
v -2 13 -4
v -3 13 -5
v -2 13 -5
v -4 13 -6
v -1 13 -6
v -6 17 7
v 0 17 7
v -6 17 -8
v 0 17 -8

# faces
f 3/6/1 2/6/1 1/6/1
f 4/6/1 2/6/1 3/6/1
f 9/2/1 6/2/1 5/2/1
f 10/2/1 6/2/1 9/2/1
f 11/7/1 8/7/1 7/7/1
f 12/7/1 8/7/1 11/7/1
f 15/12/1 14/12/1 13/12/1
f 16/12/1 14/12/1 15/12/1
f 19/5/1 18/5/1 17/5/1
f 20/5/1 18/5/1 19/5/1
f 21/5/1 19/5/1 17/5/1
f 21/13/1 20/13/1 19/13/1
f 22/5/1 18/5/1 20/5/1
f 22/13/1 20/13/1 21/13/1
f 23/5/1 21/5/1 17/5/1
f 23/9/1 22/9/1 21/9/1
f 24/5/1 18/5/1 22/5/1
f 24/9/1 22/9/1 23/9/1
f 25/5/1 23/5/1 17/5/1
f 25/5/1 24/5/1 23/5/1
f 26/5/1 18/5/1 24/5/1
f 26/5/1 24/5/1 25/5/1
f 30/14/1 28/14/1 27/14/1
f 31/14/1 28/14/1 30/14/1
f 33/4/1 30/4/1 29/4/1
f 33/3/1 31/3/1 30/3/1
f 34/4/1 32/4/1 31/4/1
f 34/3/1 31/3/1 33/3/1
f 35/4/1 33/4/1 29/4/1
f 35/4/1 34/4/1 33/4/1
f 36/4/1 32/4/1 34/4/1
f 36/4/1 34/4/1 35/4/1
f 37/6/2 38/6/2 39/6/2
f 39/6/2 38/6/2 40/6/2
f 41/6/2 42/6/2 43/6/2
f 43/6/2 42/6/2 44/6/2
f 45/6/2 46/6/2 47/6/2
f 47/6/2 46/6/2 48/6/2
f 49/5/2 50/5/2 51/5/2
f 51/5/2 50/5/2 52/5/2
f 49/5/2 51/5/2 53/5/2
f 51/13/2 52/13/2 53/13/2
f 52/5/2 50/5/2 54/5/2
f 53/13/2 52/13/2 54/13/2
f 49/5/2 53/5/2 55/5/2
f 53/9/2 54/9/2 55/9/2
f 54/5/2 50/5/2 56/5/2
f 55/9/2 54/9/2 56/9/2
f 49/5/2 55/5/2 57/5/2
f 55/5/2 56/5/2 57/5/2
f 56/5/2 50/5/2 58/5/2
f 57/5/2 56/5/2 58/5/2
f 63/14/2 64/14/2 66/14/2
f 66/14/2 64/14/2 67/14/2
f 65/4/2 66/4/2 69/4/2
f 66/3/2 67/3/2 69/3/2
f 67/4/2 68/4/2 70/4/2
f 69/3/2 67/3/2 70/3/2
f 59/8/2 60/8/2 71/8/2
f 71/8/2 60/8/2 72/8/2
f 61/4/2 62/4/2 73/4/2
f 73/4/2 62/4/2 74/4/2
f 65/4/2 69/4/2 75/4/2
f 69/4/2 70/4/2 75/4/2
f 70/4/2 68/4/2 76/4/2
f 75/4/2 70/4/2 76/4/2
f 77/2/2 78/2/2 81/2/2
f 81/2/2 78/2/2 82/2/2
f 79/7/2 80/7/2 83/7/2
f 83/7/2 80/7/2 84/7/2
f 77/2/2 81/2/2 85/2/2
f 81/15/2 82/15/2 85/15/2
f 82/2/2 78/2/2 86/2/2
f 85/15/2 82/15/2 86/15/2
f 83/1/2 84/1/2 87/1/2
f 79/7/2 83/7/2 87/7/2
f 84/7/2 80/7/2 88/7/2
f 87/1/2 84/1/2 88/1/2
f 77/2/2 85/2/2 89/2/2
f 85/2/2 86/2/2 89/2/2
f 86/2/2 78/2/2 90/2/2
f 89/2/2 86/2/2 90/2/2
f 79/7/2 87/7/2 91/7/2
f 87/7/2 88/7/2 91/7/2
f 88/7/2 80/7/2 92/7/2
f 91/7/2 88/7/2 92/7/2
f 93/16/2 94/16/2 98/16/2
f 94/15/2 95/15/2 99/15/2
f 98/16/2 94/16/2 99/16/2
f 95/16/2 96/16/2 100/16/2
f 99/15/2 95/15/2 100/15/2
f 96/15/2 97/15/2 101/15/2
f 100/16/2 96/16/2 101/16/2
f 101/15/2 97/15/2 102/15/2
f 107/12/2 108/12/2 109/12/2
f 109/12/2 108/12/2 110/12/2
f 103/10/2 104/10/2 111/10/2
f 111/10/2 104/10/2 112/10/2
f 105/11/2 106/11/2 113/11/2
f 113/11/2 106/11/2 114/11/2
f 115/6/2 116/6/2 117/6/2
f 117/6/2 116/6/2 118/6/2
f 115/6/2 117/6/2 119/6/2
f 118/6/2 116/6/2 120/6/2
f 115/6/2 119/6/2 121/6/2
f 119/6/2 120/6/2 121/6/2
f 120/6/2 116/6/2 122/6/2
f 121/6/2 120/6/2 122/6/2
f 115/6/2 121/6/2 123/6/2
f 122/6/2 116/6/2 124/6/2
f 115/6/2 123/6/2 125/6/2
f 123/6/2 124/6/2 125/6/2
f 124/6/2 116/6/2 126/6/2
f 125/6/2 124/6/2 126/6/2
f 115/6/2 125/6/2 127/6/2
f 126/6/2 116/6/2 128/6/2
f 115/6/2 127/6/2 129/6/2
f 127/6/2 128/6/2 129/6/2
f 128/6/2 116/6/2 130/6/2
f 129/6/2 128/6/2 130/6/2
f 133/6/3 132/6/3 131/6/3
f 134/6/3 132/6/3 133/6/3
f 139/5/3 138/5/3 137/5/3
f 140/5/3 138/5/3 139/5/3
f 143/2/3 136/2/3 135/2/3
f 144/2/3 136/2/3 143/2/3
f 145/10/3 142/10/3 141/10/3
f 146/10/3 142/10/3 145/10/3
f 149/11/3 148/11/3 147/11/3
f 150/11/3 148/11/3 149/11/3
f 153/7/3 152/7/3 151/7/3
f 154/7/3 152/7/3 153/7/3
f 161/4/3 160/4/3 159/4/3
f 162/4/3 160/4/3 161/4/3
f 163/16/3 156/16/3 155/16/3
f 164/16/3 156/16/3 163/16/3
f 165/12/3 158/12/3 157/12/3
f 166/12/3 158/12/3 165/12/3
f 169/14/3 168/14/3 167/14/3
f 170/14/3 168/14/3 169/14/3
f 177/6/3 172/6/3 171/6/3
f 178/6/3 172/6/3 177/6/3
f 179/6/3 176/6/3 175/6/3
f 180/6/3 176/6/3 179/6/3
f 181/6/3 174/6/3 173/6/3
f 182/6/3 174/6/3 181/6/3
f 183/6/4 184/6/4 189/6/4
f 189/6/4 184/6/4 190/6/4
f 185/6/4 186/6/4 191/6/4
f 191/6/4 186/6/4 192/6/4
f 187/6/4 188/6/4 193/6/4
f 193/6/4 188/6/4 194/6/4
f 195/10/4 196/10/4 197/10/4
f 197/10/4 196/10/4 198/10/4
f 199/11/4 200/11/4 201/11/4
f 201/11/4 200/11/4 202/11/4
f 203/2/4 204/2/4 205/2/4
f 205/2/4 204/2/4 206/2/4
f 207/5/4 208/5/4 209/5/4
f 209/5/4 208/5/4 210/5/4
f 211/14/4 212/14/4 213/14/4
f 213/14/4 212/14/4 214/14/4
f 219/4/4 220/4/4 221/4/4
f 221/4/4 220/4/4 222/4/4
f 215/7/4 216/7/4 223/7/4
f 223/7/4 216/7/4 224/7/4
f 217/12/4 218/12/4 225/12/4
f 225/12/4 218/12/4 226/12/4
f 227/6/4 228/6/4 229/6/4
f 229/6/4 228/6/4 230/6/4
f 233/6/5 232/6/5 231/6/5
f 234/6/5 232/6/5 233/6/5
f 237/6/5 236/6/5 235/6/5
f 238/6/5 236/6/5 237/6/5
f 241/6/5 240/6/5 239/6/5
f 242/6/5 240/6/5 241/6/5
f 243/6/5 241/6/5 239/6/5
f 244/6/5 240/6/5 242/6/5
f 245/6/5 243/6/5 239/6/5
f 245/6/5 244/6/5 243/6/5
f 246/6/5 240/6/5 244/6/5
f 246/6/5 244/6/5 245/6/5
f 247/6/5 240/6/5 246/6/5
f 248/6/5 240/6/5 247/6/5
f 249/6/5 240/6/5 248/6/5
f 250/6/5 240/6/5 249/6/5
f 251/6/5 240/6/5 250/6/5
f 254/4/5 253/4/5 252/4/5
f 255/4/5 253/4/5 254/4/5
f 258/4/5 257/4/5 256/4/5
f 259/4/5 257/4/5 258/4/5
f 262/6/5 261/6/5 260/6/5
f 263/6/5 261/6/5 262/6/5
f 265/6/5 261/6/5 263/6/5
f 266/6/5 265/6/5 264/6/5
f 267/6/5 261/6/5 265/6/5
f 267/6/5 265/6/5 266/6/5
f 269/6/5 261/6/5 267/6/5
f 270/6/5 269/6/5 268/6/5
f 271/6/5 269/6/5 270/6/5
f 272/6/5 270/6/5 268/6/5
f 273/6/5 269/6/5 271/6/5
f 274/6/5 272/6/5 268/6/5
f 274/6/5 273/6/5 272/6/5
f 275/6/5 261/6/5 269/6/5
f 275/6/5 273/6/5 274/6/5
f 275/6/5 269/6/5 273/6/5
f 276/6/6 277/6/6 278/6/6
f 278/6/6 277/6/6 279/6/6
f 276/6/6 278/6/6 280/6/6
f 279/6/6 277/6/6 281/6/6
f 276/6/6 280/6/6 282/6/6
f 280/6/6 281/6/6 282/6/6
f 281/6/6 277/6/6 283/6/6
f 282/6/6 281/6/6 283/6/6
f 276/6/6 282/6/6 284/6/6
f 283/6/6 277/6/6 285/6/6
f 276/6/6 284/6/6 286/6/6
f 284/6/6 285/6/6 286/6/6
f 285/6/6 277/6/6 287/6/6
f 286/6/6 285/6/6 287/6/6
f 288/2/6 289/2/6 290/2/6
f 290/2/6 289/2/6 291/2/6
f 292/7/6 293/7/6 294/7/6
f 294/7/6 293/7/6 295/7/6
f 296/6/6 297/6/6 298/6/6
f 298/6/6 297/6/6 299/6/6
f 296/6/6 298/6/6 300/6/6
f 299/6/6 297/6/6 301/6/6
f 296/6/6 300/6/6 302/6/6
f 300/6/6 301/6/6 302/6/6
f 301/6/6 297/6/6 303/6/6
f 302/6/6 301/6/6 303/6/6
f 303/6/6 297/6/6 304/6/6
f 304/6/6 297/6/6 305/6/6
f 305/6/6 297/6/6 306/6/6
f 306/6/6 297/6/6 307/6/6
f 307/6/6 297/6/6 308/6/6
f 309/6/6 310/6/6 311/6/6
f 311/6/6 310/6/6 312/6/6
f 312/6/6 310/6/6 314/6/6
f 313/6/6 314/6/6 315/6/6
f 314/6/6 310/6/6 316/6/6
f 315/6/6 314/6/6 316/6/6
f 316/6/6 310/6/6 318/6/6
f 317/6/6 318/6/6 319/6/6
f 318/6/6 310/6/6 320/6/6
f 319/6/6 318/6/6 320/6/6
f 317/6/6 319/6/6 321/6/6
f 320/6/6 310/6/6 322/6/6
f 317/6/6 321/6/6 323/6/6
f 321/6/6 322/6/6 323/6/6
f 322/6/6 310/6/6 324/6/6
f 323/6/6 322/6/6 324/6/6
f 325/12/6 326/12/6 327/12/6
f 327/12/6 326/12/6 328/12/6
f 325/12/6 327/12/6 329/12/6
f 328/12/6 326/12/6 330/12/6
f 325/12/6 329/12/6 331/12/6
f 329/12/6 330/12/6 331/12/6
f 330/12/6 326/12/6 332/12/6
f 331/12/6 330/12/6 332/12/6
f 333/6/6 334/6/6 335/6/6
f 335/6/6 334/6/6 336/6/6
