# MagicaVoxel @ Ephtracy

# group
g shelf_2

# material
mtllib shelf_2.mtl
usemtl palette

# normals
vn -1 0 0
vn 1 0 0
vn 0 0 1
vn 0 0 -1
vn 0 -1 0
vn 0 1 0

# texcoords
vt 0.0371094 0.5
vt 0.111328 0.5
vt 0.115234 0.5
vt 0.208984 0.5
vt 0.255859 0.5
vt 0.279297 0.5
vt 0.302734 0.5
vt 0.310547 0.5
vt 0.392578 0.5
vt 0.396484 0.5
vt 0.416016 0.5
vt 0.509766 0.5
vt 0.529297 0.5
vt 0.533203 0.5
vt 0.556641 0.5
vt 0.560547 0.5
vt 0.673828 0.5
vt 0.693359 0.5
vt 0.716797 0.5
vt 0.794922 0.5
vt 0.814453 0.5
vt 0.818359 0.5
vt 0.837891 0.5
vt 0.841797 0.5
vt 0.869141 0.5
vt 0.888672 0.5
vt 0.904297 0.5
vt 0.912109 0.5
vt 0.916016 0.5
vt 0.951172 0.5

# verts
v -6 0 7
v -6 0 -8
v -6 17 7
v -6 17 -8
v -4 7 5
v -4 7 2
v -4 8 6
v -4 8 5
v -4 8 2
v -4 8 1
v -4 9 6
v -4 9 5
v -4 9 2
v -4 9 1
v -3 7 -2
v -3 7 -6
v -3 8 -3
v -3 8 -5
v -3 9 -3
v -3 9 -5
v -3 10 -2
v -3 10 -6
v -2 8 4
v -2 8 3
v -2 9 4
v -2 9 3
v -5 5 5
v -5 5 4
v -5 5 2
v -5 5 1
v -5 5 -1
v -5 5 -2
v -5 5 -4
v -5 5 -5
v -5 6 5
v -5 6 4
v -5 6 2
v -5 6 1
v -5 6 -1
v -5 6 -2
v -5 6 -4
v -5 6 -5
v -5 7 6
v -5 7 -7
v -5 8 5
v -5 8 2
v -5 9 5
v -5 9 2
v -5 11 6
v -5 11 -7
v -5 15 6
v -5 15 5
v -5 15 -3
v -5 15 -4
v -5 15 -6
v -5 15 -7
v -5 16 6
v -5 16 5
v -5 16 -3
v -5 16 -4
v -5 16 -6
v -5 16 -7
v -3 8 4
v -3 8 3
v -3 9 4
v -3 9 3
v -2 2 5
v -2 2 4
v -2 2 -1
v -2 2 -2
v -2 2 -5
v -2 2 -6
v -2 5 5
v -2 5 4
v -2 5 -1
v -2 5 -2
v -2 5 -5
v -2 6 -5
v -2 6 -6
v -2 7 -2
v -2 7 -6
v -2 8 -3
v -2 8 -5
v -2 9 -3
v -2 9 -5
v -2 10 -2
v -2 10 -6
v -2 12 6
v -2 12 5
v -2 12 4
v -2 12 3
v -2 12 1
v -2 12 -0
v -2 12 -2
v -2 12 -3
v -2 12 -4
v -2 12 -6
v -2 12 -7
v -2 15 6
v -2 15 5
v -2 15 -3
v -2 15 -4
v -2 15 -6
v -2 15 -7
v -2 16 4
v -2 16 3
v -2 16 1
v -2 16 -0
v -2 16 -2
v -2 16 -3
v -1 2 6
v -1 2 5
v -1 2 4
v -1 2 3
v -1 2 2
v -1 2 1
v -1 2 -0
v -1 2 -1
v -1 2 -2
v -1 2 -3
v -1 2 -4
v -1 5 2
v -1 5 1
v -1 5 -4
v -1 6 6
v -1 6 5
v -1 6 4
v -1 6 3
v -1 6 -0
v -1 6 -1
v -1 6 -2
v -1 6 -3
v -1 6 -4
v -1 7 5
v -1 7 2
v -1 8 6
v -1 8 5
v -1 8 2
v -1 8 1
v -1 9 6
v -1 9 5
v -1 9 2
v -1 9 1
v -1 12 5
v -1 12 4
v -1 12 3
v -1 12 2
v -1 12 1
v -1 12 -0
v -1 12 -1
v -1 12 -2
v -1 12 -4
v -1 12 -5
v -1 12 -6
v -1 16 5
v -1 16 4
v -1 16 3
v -1 16 2
v -1 16 1
v -1 16 -0
v -1 16 -1
v -1 16 -2
v -1 16 -4
v -1 16 -5
v -1 16 -6
v 0 0 7
v 0 0 -8
v 0 2 6
v 0 2 3
v 0 2 2
v 0 2 1
v 0 2 -0
v 0 2 -4
v 0 2 -5
v 0 2 -6
v 0 2 -7
v 0 5 -4
v 0 5 -5
v 0 6 6
v 0 6 3
v 0 6 2
v 0 6 1
v 0 6 -0
v 0 6 -6
v 0 6 -7
v 0 7 6
v 0 7 -7
v 0 8 5
v 0 8 2
v 0 9 5
v 0 9 2
v 0 11 6
v 0 11 -7
v 0 12 6
v 0 12 -7
v 0 16 6
v 0 16 -7
v 0 17 7
v 0 17 -8
v -6 0 7
v -6 17 7
v 0 0 7
v 0 17 7
v -5 8 5
v -5 9 5
v -5 15 5
v -5 16 5
v -4 7 5
v -4 8 5
v -4 9 5
v -2 12 5
v -2 15 5
v -2 16 5
v -1 7 5
v -1 8 5
v -1 9 5
v -1 12 5
v -1 16 5
v 0 8 5
v 0 9 5
v -5 5 4
v -5 6 4
v -2 2 4
v -2 5 4
v -1 2 4
v -1 6 4
v -3 8 3
v -3 9 3
v -2 8 3
v -2 9 3
v -2 12 3
v -2 16 3
v -1 2 3
v -1 6 3
v -1 12 3
v -1 16 3
v 0 2 3
v 0 6 3
v -5 5 1
v -5 6 1
v -1 2 1
v -1 5 1
v 0 2 1
v 0 6 1
v -2 12 -0
v -2 16 -0
v -1 12 -0
v -1 16 -0
v -5 5 -2
v -5 6 -2
v -3 7 -2
v -3 10 -2
v -2 2 -2
v -2 5 -2
v -2 7 -2
v -2 10 -2
v -1 2 -2
v -1 6 -2
v -5 15 -4
v -5 16 -4
v -2 12 -4
v -2 15 -4
v -1 2 -4
v -1 5 -4
v -1 12 -4
v -1 16 -4
v 0 2 -4
v 0 5 -4
v -5 5 -5
v -5 6 -5
v -2 5 -5
v -2 6 -5
v -2 2 -6
v -2 6 -6
v 0 2 -6
v 0 6 -6
v -5 7 -7
v -5 11 -7
v -5 15 -7
v -5 16 -7
v -2 12 -7
v -2 15 -7
v 0 7 -7
v 0 11 -7
v 0 12 -7
v 0 16 -7
v -5 7 6
v -5 11 6
v -5 15 6
v -5 16 6
v -4 8 6
v -4 9 6
v -2 12 6
v -2 15 6
v -1 2 6
v -1 6 6
v -1 8 6
v -1 9 6
v 0 2 6
v 0 6 6
v 0 7 6
v 0 11 6
v 0 12 6
v 0 16 6
v -5 5 5
v -5 6 5
v -2 2 5
v -2 5 5
v -1 2 5
v -1 6 5
v -3 8 4
v -3 9 4
v -2 8 4
v -2 9 4
v -2 12 4
v -2 16 4
v -1 12 4
v -1 16 4
v -5 5 2
v -5 6 2
v -5 8 2
v -5 9 2
v -4 7 2
v -4 8 2
v -4 9 2
v -1 2 2
v -1 5 2
v -1 7 2
v -1 8 2
v -1 9 2
v 0 2 2
v 0 6 2
v 0 8 2
v 0 9 2
v -4 8 1
v -4 9 1
v -2 12 1
v -2 16 1
v -1 8 1
v -1 9 1
v -1 12 1
v -1 16 1
v -1 2 -0
v -1 6 -0
v 0 2 -0
v 0 6 -0
v -5 5 -1
v -5 6 -1
v -2 2 -1
v -2 5 -1
v -1 2 -1
v -1 6 -1
v -2 12 -2
v -2 16 -2
v -1 12 -2
v -1 16 -2
v -5 15 -3
v -5 16 -3
v -2 15 -3
v -2 16 -3
v -5 5 -4
v -5 6 -4
v -1 5 -4
v -1 6 -4
v -2 2 -5
v -2 5 -5
v 0 2 -5
v 0 5 -5
v -5 15 -6
v -5 16 -6
v -3 7 -6
v -3 10 -6
v -2 7 -6
v -2 10 -6
v -2 12 -6
v -2 15 -6
v -1 12 -6
v -1 16 -6
v -6 0 -8
v -6 17 -8
v 0 0 -8
v 0 17 -8
v -6 0 7
v 0 0 7
v -6 0 -8
v 0 0 -8
v -1 6 6
v 0 6 6
v -5 6 5
v -1 6 5
v -5 6 4
v -1 6 4
v -1 6 3
v 0 6 3
v -5 6 2
v 0 6 2
v -5 6 1
v 0 6 1
v -1 6 -0
v 0 6 -0
v -5 6 -1
v -1 6 -1
v -5 6 -2
v -1 6 -2
v -1 6 -3
v -5 6 -4
v -1 6 -4
v -5 6 -5
v -2 6 -5
v -2 6 -6
v 0 6 -6
v -4 8 6
v -1 8 6
v -5 8 5
v -4 8 5
v -1 8 5
v 0 8 5
v -5 8 2
v -4 8 2
v -1 8 2
v 0 8 2
v -4 8 1
v -1 8 1
v -5 11 6
v 0 11 6
v -5 11 -7
v 0 11 -7
v -5 16 6
v 0 16 6
v -5 16 5
v -2 16 5
v -1 16 5
v -2 16 4
v -1 16 4
v -2 16 3
v -1 16 3
v -1 16 2
v -2 16 1
v -1 16 1
v -2 16 -0
v -1 16 -0
v -1 16 -1
v -2 16 -2
v -1 16 -2
v -5 16 -3
v -2 16 -3
v -5 16 -4
v -1 16 -4
v -1 16 -5
v -5 16 -6
v -1 16 -6
v -5 16 -7
v 0 16 -7
v -1 2 6
v 0 2 6
v -2 2 5
v -1 2 5
v -2 2 4
v -1 2 4
v -1 2 3
v 0 2 3
v -1 2 2
v 0 2 2
v -1 2 1
v 0 2 1
v -1 2 -0
v 0 2 -0
v -2 2 -1
v -1 2 -1
v -2 2 -2
v -1 2 -2
v -1 2 -3
v -1 2 -4
v 0 2 -4
v -2 2 -5
v 0 2 -5
v -2 2 -6
v 0 2 -6
v -5 5 5
v -2 5 5
v -5 5 4
v -2 5 4
v -5 5 2
v -1 5 2
v -5 5 1
v -1 5 1
v -5 5 -1
v -2 5 -1
v -5 5 -2
v -2 5 -2
v -5 5 -4
v -1 5 -4
v 0 5 -4
v -5 5 -5
v -2 5 -5
v 0 5 -5
v -5 7 6
v 0 7 6
v -4 7 5
v -1 7 5
v -4 7 2
v -1 7 2
v -3 7 -2
v -2 7 -2
v -3 7 -6
v -2 7 -6
v -5 7 -7
v 0 7 -7
v -3 8 4
v -2 8 4
v -3 8 3
v -2 8 3
v -4 9 6
v -1 9 6
v -5 9 5
v -4 9 5
v -1 9 5
v 0 9 5
v -3 9 4
v -2 9 4
v -3 9 3
v -2 9 3
v -5 9 2
v -4 9 2
v -1 9 2
v 0 9 2
v -4 9 1
v -1 9 1
v -3 10 -2
v -2 10 -2
v -3 10 -6
v -2 10 -6
v -2 12 6
v 0 12 6
v -2 12 5
v -1 12 5
v -2 12 4
v -1 12 4
v -2 12 3
v -1 12 3
v -1 12 2
v -2 12 1
v -1 12 1
v -2 12 -0
v -1 12 -0
v -1 12 -1
v -2 12 -2
v -1 12 -2
v -2 12 -3
v -2 12 -4
v -1 12 -4
v -1 12 -5
v -2 12 -6
v -1 12 -6
v -2 12 -7
v 0 12 -7
v -5 15 6
v -2 15 6
v -5 15 5
v -2 15 5
v -5 15 -3
v -2 15 -3
v -5 15 -4
v -2 15 -4
v -5 15 -6
v -2 15 -6
v -5 15 -7
v -2 15 -7
v -6 17 7
v 0 17 7
v -6 17 -8
v 0 17 -8

# faces
f 3/10/1 2/10/1 1/10/1
f 4/10/1 2/10/1 3/10/1
f 8/14/1 6/14/1 5/14/1
f 9/14/1 6/14/1 8/14/1
f 11/14/1 8/14/1 7/14/1
f 12/14/1 8/14/1 11/14/1
f 13/14/1 10/14/1 9/14/1
f 14/14/1 10/14/1 13/14/1
f 17/1/1 16/1/1 15/1/1
f 18/1/1 16/1/1 17/1/1
f 19/1/1 17/1/1 15/1/1
f 19/19/1 18/19/1 17/19/1
f 20/1/1 16/1/1 18/1/1
f 20/19/1 18/19/1 19/19/1
f 21/1/1 19/1/1 15/1/1
f 21/1/1 20/1/1 19/1/1
f 22/1/1 16/1/1 20/1/1
f 22/1/1 20/1/1 21/1/1
f 25/14/1 24/14/1 23/14/1
f 26/14/1 24/14/1 25/14/1
f 27/10/2 28/10/2 35/10/2
f 35/10/2 28/10/2 36/10/2
f 29/10/2 30/10/2 37/10/2
f 37/10/2 30/10/2 38/10/2
f 31/10/2 32/10/2 39/10/2
f 39/10/2 32/10/2 40/10/2
f 33/10/2 34/10/2 41/10/2
f 41/10/2 34/10/2 42/10/2
f 43/10/2 44/10/2 45/10/2
f 45/10/2 44/10/2 46/10/2
f 43/10/2 45/10/2 47/10/2
f 46/10/2 44/10/2 48/10/2
f 43/10/2 47/10/2 49/10/2
f 47/10/2 48/10/2 49/10/2
f 48/10/2 44/10/2 50/10/2
f 49/10/2 48/10/2 50/10/2
f 51/10/2 52/10/2 57/10/2
f 57/10/2 52/10/2 58/10/2
f 53/10/2 54/10/2 59/10/2
f 59/10/2 54/10/2 60/10/2
f 55/10/2 56/10/2 61/10/2
f 61/10/2 56/10/2 62/10/2
f 63/14/2 64/14/2 65/14/2
f 65/14/2 64/14/2 66/14/2
f 67/21/2 68/21/2 73/21/2
f 73/21/2 68/21/2 74/21/2
f 69/3/2 70/3/2 75/3/2
f 75/3/2 70/3/2 76/3/2
f 71/12/2 72/12/2 77/12/2
f 77/12/2 72/12/2 78/12/2
f 78/12/2 72/12/2 79/12/2
f 80/1/2 81/1/2 82/1/2
f 82/1/2 81/1/2 83/1/2
f 80/1/2 82/1/2 84/1/2
f 82/19/2 83/19/2 84/19/2
f 83/1/2 81/1/2 85/1/2
f 84/19/2 83/19/2 85/19/2
f 80/1/2 84/1/2 86/1/2
f 84/1/2 85/1/2 86/1/2
f 85/1/2 81/1/2 87/1/2
f 86/1/2 85/1/2 87/1/2
f 88/8/2 89/8/2 99/8/2
f 99/8/2 89/8/2 100/8/2
f 95/5/2 96/5/2 101/5/2
f 94/28/2 95/28/2 101/28/2
f 101/5/2 96/5/2 102/5/2
f 97/25/2 98/25/2 103/25/2
f 103/25/2 98/25/2 104/25/2
f 90/26/2 91/26/2 105/26/2
f 105/26/2 91/26/2 106/26/2
f 92/7/2 93/7/2 107/7/2
f 107/7/2 93/7/2 108/7/2
f 94/28/2 101/28/2 109/28/2
f 109/28/2 101/28/2 110/28/2
f 115/16/2 116/16/2 122/16/2
f 122/16/2 116/16/2 123/16/2
f 120/2/2 121/2/2 124/2/2
f 111/9/2 112/9/2 125/9/2
f 125/9/2 112/9/2 126/9/2
f 113/23/2 114/23/2 127/23/2
f 127/23/2 114/23/2 128/23/2
f 117/30/2 118/30/2 129/30/2
f 129/30/2 118/30/2 130/30/2
f 119/20/2 120/20/2 131/20/2
f 120/2/2 124/2/2 132/2/2
f 131/20/2 120/20/2 132/20/2
f 132/2/2 124/2/2 133/2/2
f 134/14/2 135/14/2 137/14/2
f 137/14/2 135/14/2 138/14/2
f 136/14/2 137/14/2 140/14/2
f 140/14/2 137/14/2 141/14/2
f 138/14/2 139/14/2 142/14/2
f 142/14/2 139/14/2 143/14/2
f 144/11/2 145/11/2 155/11/2
f 155/11/2 145/11/2 156/11/2
f 146/27/2 147/27/2 157/27/2
f 147/24/2 148/24/2 158/24/2
f 157/27/2 147/27/2 158/27/2
f 158/24/2 148/24/2 159/24/2
f 149/18/2 150/18/2 160/18/2
f 150/30/2 151/30/2 161/30/2
f 160/18/2 150/18/2 161/18/2
f 161/30/2 151/30/2 162/30/2
f 152/4/2 153/4/2 163/4/2
f 153/14/2 154/14/2 164/14/2
f 163/4/2 153/4/2 164/4/2
f 164/14/2 154/14/2 165/14/2
f 166/10/2 167/10/2 168/10/2
f 168/10/2 167/10/2 169/10/2
f 169/10/2 167/10/2 170/10/2
f 170/10/2 167/10/2 171/10/2
f 171/10/2 167/10/2 172/10/2
f 172/10/2 167/10/2 173/10/2
f 173/10/2 167/10/2 174/10/2
f 174/10/2 167/10/2 175/10/2
f 175/10/2 167/10/2 176/10/2
f 173/13/2 174/13/2 177/13/2
f 177/13/2 174/13/2 178/13/2
f 166/10/2 168/10/2 179/10/2
f 169/6/2 170/6/2 180/6/2
f 180/6/2 170/6/2 181/6/2
f 171/29/2 172/29/2 182/29/2
f 182/29/2 172/29/2 183/29/2
f 175/17/2 176/17/2 184/17/2
f 176/10/2 167/10/2 185/10/2
f 184/17/2 176/17/2 185/17/2
f 182/10/2 183/10/2 186/10/2
f 183/10/2 184/10/2 186/10/2
f 184/10/2 185/10/2 186/10/2
f 166/10/2 179/10/2 186/10/2
f 181/10/2 182/10/2 186/10/2
f 179/10/2 180/10/2 186/10/2
f 180/10/2 181/10/2 186/10/2
f 185/10/2 167/10/2 187/10/2
f 186/10/2 185/10/2 187/10/2
f 188/14/2 189/14/2 190/14/2
f 190/14/2 189/14/2 191/14/2
f 166/10/2 186/10/2 192/10/2
f 187/10/2 167/10/2 193/10/2
f 166/10/2 192/10/2 194/10/2
f 192/10/2 193/10/2 194/10/2
f 193/10/2 167/10/2 195/10/2
f 194/10/2 193/10/2 195/10/2
f 166/10/2 194/10/2 196/10/2
f 195/10/2 167/10/2 197/10/2
f 166/10/2 196/10/2 198/10/2
f 196/10/2 197/10/2 198/10/2
f 197/10/2 167/10/2 199/10/2
f 198/10/2 197/10/2 199/10/2
f 202/10/3 201/10/3 200/10/3
f 203/10/3 201/10/3 202/10/3
f 209/14/3 205/14/3 204/14/3
f 210/14/3 205/14/3 209/14/3
f 212/22/3 207/22/3 206/22/3
f 213/22/3 207/22/3 212/22/3
f 214/14/3 209/14/3 208/14/3
f 215/14/3 209/14/3 214/14/3
f 217/11/3 212/11/3 211/11/3
f 217/11/3 213/11/3 212/11/3
f 218/11/3 213/11/3 217/11/3
f 219/14/3 216/14/3 215/14/3
f 220/14/3 216/14/3 219/14/3
f 224/23/3 222/23/3 221/23/3
f 225/23/3 224/23/3 223/23/3
f 226/23/3 222/23/3 224/23/3
f 226/23/3 224/23/3 225/23/3
f 229/14/3 228/14/3 227/14/3
f 230/14/3 228/14/3 229/14/3
f 235/27/3 232/27/3 231/27/3
f 236/27/3 232/27/3 235/27/3
f 237/6/3 234/6/3 233/6/3
f 238/6/3 234/6/3 237/6/3
f 242/29/3 240/29/3 239/29/3
f 243/29/3 242/29/3 241/29/3
f 244/29/3 240/29/3 242/29/3
f 244/29/3 242/29/3 243/29/3
f 247/18/3 246/18/3 245/18/3
f 248/18/3 246/18/3 247/18/3
f 254/20/3 250/20/3 249/20/3
f 255/1/3 252/1/3 251/1/3
f 256/1/3 252/1/3 255/1/3
f 257/20/3 254/20/3 253/20/3
f 258/20/3 250/20/3 254/20/3
f 258/20/3 254/20/3 257/20/3
f 262/4/3 260/4/3 259/4/3
f 265/4/3 262/4/3 261/4/3
f 266/4/3 260/4/3 262/4/3
f 266/4/3 262/4/3 265/4/3
f 267/13/3 264/13/3 263/13/3
f 268/13/3 264/13/3 267/13/3
f 271/12/3 270/12/3 269/12/3
f 272/12/3 270/12/3 271/12/3
f 275/17/3 274/17/3 273/17/3
f 276/17/3 274/17/3 275/17/3
f 282/10/3 280/10/3 279/10/3
f 283/10/3 278/10/3 277/10/3
f 284/10/3 278/10/3 283/10/3
f 285/10/3 282/10/3 281/10/3
f 286/10/3 280/10/3 282/10/3
f 286/10/3 282/10/3 285/10/3
f 287/10/4 288/10/4 291/10/4
f 291/10/4 288/10/4 292/10/4
f 289/10/4 290/10/4 294/10/4
f 287/10/4 291/10/4 297/10/4
f 292/10/4 288/10/4 298/10/4
f 295/10/4 296/10/4 299/10/4
f 299/10/4 296/10/4 300/10/4
f 287/10/4 297/10/4 301/10/4
f 297/10/4 298/10/4 301/10/4
f 298/10/4 288/10/4 302/10/4
f 301/10/4 298/10/4 302/10/4
f 293/10/4 294/10/4 303/10/4
f 294/10/4 290/10/4 304/10/4
f 303/10/4 294/10/4 304/10/4
f 305/9/4 306/9/4 308/9/4
f 307/9/4 308/9/4 309/9/4
f 308/9/4 306/9/4 310/9/4
f 309/9/4 308/9/4 310/9/4
f 311/14/4 312/14/4 313/14/4
f 313/14/4 312/14/4 314/14/4
f 315/11/4 316/11/4 317/11/4
f 317/11/4 316/11/4 318/11/4
f 321/14/4 322/14/4 324/14/4
f 324/14/4 322/14/4 325/14/4
f 319/6/4 320/6/4 327/6/4
f 323/14/4 324/14/4 328/14/4
f 328/14/4 324/14/4 329/14/4
f 326/6/4 327/6/4 331/6/4
f 327/6/4 320/6/4 332/6/4
f 331/6/4 327/6/4 332/6/4
f 329/14/4 330/14/4 333/14/4
f 333/14/4 330/14/4 334/14/4
f 335/14/4 336/14/4 339/14/4
f 339/14/4 336/14/4 340/14/4
f 337/24/4 338/24/4 341/24/4
f 341/24/4 338/24/4 342/24/4
f 343/29/4 344/29/4 345/29/4
f 345/29/4 344/29/4 346/29/4
f 347/30/4 348/30/4 350/30/4
f 349/30/4 350/30/4 351/30/4
f 350/30/4 348/30/4 352/30/4
f 351/30/4 350/30/4 352/30/4
f 353/30/4 354/30/4 355/30/4
f 355/30/4 354/30/4 356/30/4
f 357/28/4 358/28/4 359/28/4
f 359/28/4 358/28/4 360/28/4
f 361/2/4 362/2/4 363/2/4
f 363/2/4 362/2/4 364/2/4
f 365/13/4 366/13/4 367/13/4
f 367/13/4 366/13/4 368/13/4
f 371/1/4 372/1/4 373/1/4
f 373/1/4 372/1/4 374/1/4
f 369/14/4 370/14/4 376/14/4
f 375/14/4 376/14/4 377/14/4
f 376/14/4 370/14/4 378/14/4
f 377/14/4 376/14/4 378/14/4
f 379/10/4 380/10/4 381/10/4
f 381/10/4 380/10/4 382/10/4
f 385/10/5 384/10/5 383/10/5
f 386/10/5 384/10/5 385/10/5
f 390/10/5 388/10/5 387/10/5
f 391/10/5 390/10/5 389/10/5
f 392/10/5 388/10/5 390/10/5
f 392/10/5 390/10/5 391/10/5
f 393/10/5 388/10/5 392/10/5
f 394/10/5 388/10/5 393/10/5
f 397/10/5 396/10/5 395/10/5
f 398/10/5 396/10/5 397/10/5
f 402/10/5 400/10/5 399/10/5
f 403/10/5 402/10/5 401/10/5
f 404/10/5 400/10/5 402/10/5
f 404/10/5 402/10/5 403/10/5
f 405/10/5 400/10/5 404/10/5
f 407/10/5 400/10/5 405/10/5
f 408/10/5 407/10/5 406/10/5
f 409/10/5 407/10/5 408/10/5
f 410/10/5 407/10/5 409/10/5
f 411/10/5 400/10/5 407/10/5
f 411/10/5 407/10/5 410/10/5
f 415/14/5 413/14/5 412/14/5
f 416/14/5 413/14/5 415/14/5
f 418/14/5 415/14/5 414/14/5
f 419/14/5 415/14/5 418/14/5
f 420/14/5 417/14/5 416/14/5
f 421/14/5 417/14/5 420/14/5
f 422/14/5 420/14/5 419/14/5
f 423/14/5 420/14/5 422/14/5
f 426/10/5 425/10/5 424/10/5
f 427/10/5 425/10/5 426/10/5
f 430/10/5 429/10/5 428/10/5
f 431/10/5 429/10/5 430/10/5
f 432/10/5 429/10/5 431/10/5
f 434/10/5 429/10/5 432/10/5
f 435/10/5 434/10/5 433/10/5
f 436/10/5 429/10/5 434/10/5
f 436/10/5 434/10/5 435/10/5
f 437/10/5 429/10/5 436/10/5
f 439/10/5 429/10/5 437/10/5
f 440/10/5 439/10/5 438/10/5
f 441/10/5 429/10/5 439/10/5
f 441/10/5 439/10/5 440/10/5
f 442/10/5 429/10/5 441/10/5
f 444/10/5 429/10/5 442/10/5
f 446/10/5 444/10/5 443/10/5
f 447/10/5 446/10/5 445/10/5
f 448/10/5 429/10/5 444/10/5
f 448/10/5 446/10/5 447/10/5
f 448/10/5 444/10/5 446/10/5
f 449/10/5 429/10/5 448/10/5
f 451/10/5 429/10/5 449/10/5
f 452/10/5 451/10/5 450/10/5
f 453/10/5 429/10/5 451/10/5
f 453/10/5 451/10/5 452/10/5
f 454/10/6 455/10/6 457/10/6
f 456/10/6 457/10/6 458/10/6
f 457/10/6 455/10/6 459/10/6
f 458/10/6 457/10/6 459/10/6
f 459/10/6 455/10/6 460/10/6
f 460/10/6 455/10/6 461/10/6
f 462/10/6 463/10/6 464/10/6
f 464/10/6 463/10/6 465/10/6
f 466/10/6 467/10/6 469/10/6
f 468/10/6 469/10/6 470/10/6
f 469/10/6 467/10/6 471/10/6
f 470/10/6 469/10/6 471/10/6
f 471/10/6 467/10/6 472/10/6
f 472/10/6 467/10/6 473/10/6
f 473/10/6 467/10/6 474/10/6
f 475/10/6 476/10/6 477/10/6
f 477/10/6 476/10/6 478/10/6
f 479/21/6 480/21/6 481/21/6
f 481/21/6 480/21/6 482/21/6
f 483/16/6 484/16/6 485/16/6
f 485/16/6 484/16/6 486/16/6
f 487/3/6 488/3/6 489/3/6
f 489/3/6 488/3/6 490/3/6
f 491/13/6 492/13/6 494/13/6
f 492/13/6 493/13/6 494/13/6
f 494/13/6 493/13/6 495/13/6
f 495/13/6 493/13/6 496/13/6
f 497/10/6 498/10/6 499/10/6
f 499/10/6 498/10/6 500/10/6
f 497/10/6 499/10/6 501/10/6
f 500/10/6 498/10/6 502/10/6
f 501/10/6 502/10/6 503/10/6
f 503/10/6 502/10/6 504/10/6
f 501/10/6 503/10/6 505/10/6
f 504/10/6 502/10/6 506/10/6
f 497/10/6 501/10/6 507/10/6
f 505/10/6 506/10/6 507/10/6
f 501/10/6 505/10/6 507/10/6
f 506/10/6 502/10/6 508/10/6
f 507/10/6 506/10/6 508/10/6
f 502/10/6 498/10/6 508/10/6
f 509/14/6 510/14/6 511/14/6
f 511/14/6 510/14/6 512/14/6
f 513/14/6 514/14/6 516/14/6
f 516/14/6 514/14/6 517/14/6
f 515/14/6 516/14/6 519/14/6
f 517/14/6 518/14/6 519/14/6
f 516/14/6 517/14/6 519/14/6
f 519/14/6 518/14/6 520/14/6
f 515/14/6 519/14/6 521/14/6
f 520/14/6 518/14/6 522/14/6
f 515/14/6 521/14/6 523/14/6
f 521/14/6 522/14/6 523/14/6
f 523/14/6 522/14/6 524/14/6
f 522/14/6 518/14/6 525/14/6
f 524/14/6 522/14/6 525/14/6
f 525/14/6 518/14/6 526/14/6
f 524/14/6 525/14/6 527/14/6
f 527/14/6 525/14/6 528/14/6
f 529/1/6 530/1/6 531/1/6
f 531/1/6 530/1/6 532/1/6
f 533/10/6 534/10/6 535/10/6
f 535/10/6 534/10/6 536/10/6
f 536/10/6 534/10/6 538/10/6
f 537/10/6 538/10/6 539/10/6
f 538/10/6 534/10/6 540/10/6
f 539/10/6 538/10/6 540/10/6
f 540/10/6 534/10/6 541/10/6
f 541/10/6 534/10/6 543/10/6
f 542/10/6 543/10/6 544/10/6
f 543/10/6 534/10/6 545/10/6
f 544/10/6 543/10/6 545/10/6
f 545/10/6 534/10/6 546/10/6
f 546/10/6 534/10/6 548/10/6
f 547/10/6 548/10/6 549/10/6
f 549/10/6 548/10/6 550/10/6
f 548/10/6 534/10/6 551/10/6
f 550/10/6 548/10/6 551/10/6
f 551/10/6 534/10/6 552/10/6
f 552/10/6 534/10/6 554/10/6
f 553/10/6 554/10/6 555/10/6
f 554/10/6 534/10/6 556/10/6
f 555/10/6 554/10/6 556/10/6
f 557/8/6 558/8/6 559/8/6
f 559/8/6 558/8/6 560/8/6
f 561/5/6 562/5/6 563/5/6
f 563/5/6 562/5/6 564/5/6
f 565/25/6 566/25/6 567/25/6
f 567/25/6 566/25/6 568/25/6
f 569/10/6 570/10/6 571/10/6
f 571/10/6 570/10/6 572/10/6
