# MagicaVoxel @ Ephtracy

# group
g shower_simple

# material
mtllib shower_simple.mtl
usemtl palette

# normals
vn -1 0 0
vn 1 0 0
vn 0 0 1
vn 0 0 -1
vn 0 -1 0
vn 0 1 0

# texcoords
vt 0.630859 0.5
vt 0.697266 0.5
vt 0.927734 0.5
vt 0.958984 0.5
vt 0.982422 0.5
vt 0.986328 0.5

# verts
v -6 0 4
v -6 0 -6
v -6 20 4
v -6 20 -6
v -4 7 -2
v -4 7 -3
v -4 8 -2
v -4 8 -3
v -3 7 -3
v -3 7 -4
v -3 8 -2
v -3 8 -3
v -3 8 -4
v -3 9 -2
v -3 9 -3
v -3 16 1
v -3 16 -2
v -3 17 1
v -3 17 -2
v -2 17 -0
v -2 17 -1
v -2 19 -0
v -2 19 -1
v 0 7 -2
v 0 7 -4
v 0 8 -3
v 0 8 -4
v 0 9 -2
v 0 9 -3
v 3 1 3
v 3 1 -4
v 3 2 4
v 3 2 3
v 3 19 4
v 3 19 -4
v -5 1 3
v -5 1 -4
v -5 2 4
v -5 2 3
v -5 11 -1
v -5 11 -4
v -5 12 -1
v -5 12 -2
v -5 13 -2
v -5 13 -3
v -5 14 -3
v -5 14 -4
v -5 19 4
v -5 19 -4
v -4 12 -2
v -4 12 -3
v -4 13 -2
v -4 13 -3
v -4 13 -4
v -4 14 -3
v -4 14 -4
v -3 11 -1
v -3 11 -4
v -3 12 -1
v -3 12 -3
v -3 12 -4
v -3 13 -3
v -3 13 -4
v -2 7 -2
v -2 7 -4
v -2 8 -3
v -2 8 -4
v -2 9 -2
v -2 9 -3
v 0 17 -0
v 0 17 -1
v 0 19 -0
v 0 19 -1
v 1 7 -3
v 1 7 -4
v 1 8 -2
v 1 8 -3
v 1 8 -4
v 1 9 -2
v 1 9 -3
v 1 16 1
v 1 16 -2
v 1 17 1
v 1 17 -2
v 2 7 -2
v 2 7 -3
v 2 8 -2
v 2 8 -3
v 4 0 4
v 4 0 -6
v 4 20 4
v 4 20 -6
v -6 0 4
v -6 20 4
v -5 2 4
v -5 19 4
v 3 2 4
v 3 19 4
v 4 0 4
v 4 20 4
v -3 16 1
v -3 17 1
v 1 16 1
v 1 17 1
v -2 17 -0
v -2 19 -0
v 0 17 -0
v 0 19 -0
v -5 11 -1
v -5 12 -1
v -3 11 -1
v -3 12 -1
v -5 12 -2
v -5 13 -2
v -4 7 -2
v -4 8 -2
v -4 12 -2
v -4 13 -2
v -3 8 -2
v -3 9 -2
v -2 7 -2
v -2 9 -2
v 0 7 -2
v 0 9 -2
v 1 8 -2
v 1 9 -2
v 2 7 -2
v 2 8 -2
v -5 13 -3
v -5 14 -3
v -4 12 -3
v -4 13 -3
v -4 14 -3
v -3 12 -3
v -3 13 -3
v -5 1 -4
v -5 11 -4
v -5 14 -4
v -5 19 -4
v -4 13 -4
v -4 14 -4
v -3 7 -4
v -3 8 -4
v -3 11 -4
v -3 12 -4
v -3 13 -4
v -2 7 -4
v -2 8 -4
v 0 7 -4
v 0 8 -4
v 1 7 -4
v 1 8 -4
v 3 1 -4
v 3 19 -4
v -5 1 3
v -5 2 3
v 3 1 3
v 3 2 3
v -2 17 -1
v -2 19 -1
v 0 17 -1
v 0 19 -1
v -3 16 -2
v -3 17 -2
v 1 16 -2
v 1 17 -2
v -4 7 -3
v -4 8 -3
v -3 7 -3
v -3 8 -3
v -3 9 -3
v -2 8 -3
v -2 9 -3
v 0 8 -3
v 0 9 -3
v 1 7 -3
v 1 8 -3
v 1 9 -3
v 2 7 -3
v 2 8 -3
v -6 0 -6
v -6 20 -6
v 4 0 -6
v 4 20 -6
v -6 0 4
v 4 0 4
v -2 0 -0
v 0 0 -0
v -2 0 -2
v 0 0 -2
v -6 0 -6
v 4 0 -6
v -4 7 -2
v -2 7 -2
v 0 7 -2
v 2 7 -2
v -4 7 -3
v -3 7 -3
v 1 7 -3
v 2 7 -3
v -3 7 -4
v -2 7 -4
v 0 7 -4
v 1 7 -4
v -5 11 -1
v -3 11 -1
v -5 11 -4
v -3 11 -4
v -3 16 1
v 1 16 1
v -3 16 -2
v 1 16 -2
v -5 19 4
v 3 19 4
v -2 19 -0
v 0 19 -0
v -2 19 -1
v 0 19 -1
v -5 19 -4
v 3 19 -4
v -5 1 3
v 3 1 3
v -2 1 -0
v 0 1 -0
v -2 1 -2
v 0 1 -2
v -5 1 -4
v 3 1 -4
v -5 2 4
v 3 2 4
v -5 2 3
v 3 2 3
v -4 8 -2
v -3 8 -2
v 1 8 -2
v 2 8 -2
v -4 8 -3
v -3 8 -3
v -2 8 -3
v 0 8 -3
v 1 8 -3
v 2 8 -3
v -3 8 -4
v -2 8 -4
v 0 8 -4
v 1 8 -4
v -3 9 -2
v -2 9 -2
v 0 9 -2
v 1 9 -2
v -3 9 -3
v -2 9 -3
v 0 9 -3
v 1 9 -3
v -5 12 -1
v -3 12 -1
v -5 12 -2
v -4 12 -2
v -4 12 -3
v -3 12 -3
v -5 13 -2
v -4 13 -2
v -5 13 -3
v -4 13 -3
v -3 13 -3
v -4 13 -4
v -3 13 -4
v -5 14 -3
v -4 14 -3
v -5 14 -4
v -4 14 -4
v -3 17 1
v 1 17 1
v -2 17 -0
v 0 17 -0
v -2 17 -1
v 0 17 -1
v -3 17 -2
v 1 17 -2
v -6 20 4
v 4 20 4
v -6 20 -6
v 4 20 -6

# faces
f 3/4/1 2/4/1 1/4/1
f 4/4/1 2/4/1 3/4/1
f 7/6/1 6/6/1 5/6/1
f 8/6/1 6/6/1 7/6/1
f 12/6/1 10/6/1 9/6/1
f 13/6/1 10/6/1 12/6/1
f 14/6/1 12/6/1 11/6/1
f 15/6/1 12/6/1 14/6/1
f 18/6/1 17/6/1 16/6/1
f 19/6/1 17/6/1 18/6/1
f 22/6/1 21/6/1 20/6/1
f 23/6/1 21/6/1 22/6/1
f 26/6/1 25/6/1 24/6/1
f 27/6/1 25/6/1 26/6/1
f 28/6/1 26/6/1 24/6/1
f 29/6/1 26/6/1 28/6/1
f 33/4/1 31/4/1 30/4/1
f 34/4/1 33/4/1 32/4/1
f 35/4/1 31/4/1 33/4/1
f 35/4/1 33/4/1 34/4/1
f 36/4/2 37/4/2 39/4/2
f 39/4/2 37/4/2 40/4/2
f 38/4/2 39/4/2 40/4/2
f 40/4/2 37/4/2 41/4/2
f 38/4/2 40/4/2 42/4/2
f 42/4/2 43/4/2 44/4/2
f 44/4/2 45/4/2 46/4/2
f 38/4/2 42/4/2 48/4/2
f 46/4/2 47/4/2 48/4/2
f 44/4/2 46/4/2 48/4/2
f 42/4/2 44/4/2 48/4/2
f 48/4/2 47/4/2 49/4/2
f 50/3/2 51/3/2 52/3/2
f 52/3/2 51/3/2 53/3/2
f 53/1/2 54/1/2 55/1/2
f 55/1/2 54/1/2 56/1/2
f 57/4/2 58/4/2 59/4/2
f 59/4/2 58/4/2 60/4/2
f 60/4/2 58/4/2 61/4/2
f 60/2/2 61/2/2 62/2/2
f 62/2/2 61/2/2 63/2/2
f 64/6/2 65/6/2 66/6/2
f 66/6/2 65/6/2 67/6/2
f 64/6/2 66/6/2 68/6/2
f 68/6/2 66/6/2 69/6/2
f 70/6/2 71/6/2 72/6/2
f 72/6/2 71/6/2 73/6/2
f 74/6/2 75/6/2 77/6/2
f 77/6/2 75/6/2 78/6/2
f 76/6/2 77/6/2 79/6/2
f 79/6/2 77/6/2 80/6/2
f 81/6/2 82/6/2 83/6/2
f 83/6/2 82/6/2 84/6/2
f 85/6/2 86/6/2 87/6/2
f 87/6/2 86/6/2 88/6/2
f 89/4/2 90/4/2 91/4/2
f 91/4/2 90/4/2 92/4/2
f 95/4/3 94/4/3 93/4/3
f 96/4/3 94/4/3 95/4/3
f 97/4/3 95/4/3 93/4/3
f 98/4/3 94/4/3 96/4/3
f 99/4/3 97/4/3 93/4/3
f 99/4/3 98/4/3 97/4/3
f 100/4/3 94/4/3 98/4/3
f 100/4/3 98/4/3 99/4/3
f 103/6/3 102/6/3 101/6/3
f 104/6/3 102/6/3 103/6/3
f 107/6/3 106/6/3 105/6/3
f 108/6/3 106/6/3 107/6/3
f 111/4/3 110/4/3 109/4/3
f 112/4/3 110/4/3 111/4/3
f 117/3/3 114/3/3 113/3/3
f 118/3/3 114/3/3 117/3/3
f 119/6/3 116/6/3 115/6/3
f 121/6/3 119/6/3 115/6/3
f 121/6/3 120/6/3 119/6/3
f 122/6/3 120/6/3 121/6/3
f 125/6/3 124/6/3 123/6/3
f 126/6/3 124/6/3 125/6/3
f 127/6/3 125/6/3 123/6/3
f 128/6/3 125/6/3 127/6/3
f 132/1/3 130/1/3 129/1/3
f 133/1/3 130/1/3 132/1/3
f 134/2/3 132/2/3 131/2/3
f 135/2/3 132/2/3 134/2/3
f 141/4/3 139/4/3 138/4/3
f 142/4/3 137/4/3 136/4/3
f 143/4/3 137/4/3 142/4/3
f 144/4/3 137/4/3 143/4/3
f 146/4/3 141/4/3 140/4/3
f 147/4/3 142/4/3 136/4/3
f 148/4/3 145/4/3 144/4/3
f 148/4/3 146/4/3 145/4/3
f 148/4/3 144/4/3 143/4/3
f 149/4/3 147/4/3 136/4/3
f 149/4/3 148/4/3 147/4/3
f 150/4/3 146/4/3 148/4/3
f 150/4/3 148/4/3 149/4/3
f 151/4/3 149/4/3 136/4/3
f 152/4/3 146/4/3 150/4/3
f 153/4/3 151/4/3 136/4/3
f 153/4/3 152/4/3 151/4/3
f 154/4/3 146/4/3 152/4/3
f 154/4/3 152/4/3 153/4/3
f 154/4/3 139/4/3 141/4/3
f 154/4/3 141/4/3 146/4/3
f 155/4/4 156/4/4 157/4/4
f 157/4/4 156/4/4 158/4/4
f 159/6/4 160/6/4 161/6/4
f 161/6/4 160/6/4 162/6/4
f 163/6/4 164/6/4 165/6/4
f 165/6/4 164/6/4 166/6/4
f 167/6/4 168/6/4 169/6/4
f 169/6/4 168/6/4 170/6/4
f 170/6/4 171/6/4 172/6/4
f 172/6/4 171/6/4 173/6/4
f 174/6/4 175/6/4 177/6/4
f 177/6/4 175/6/4 178/6/4
f 176/6/4 177/6/4 179/6/4
f 179/6/4 177/6/4 180/6/4
f 181/4/4 182/4/4 183/4/4
f 183/4/4 182/4/4 184/4/4
f 187/4/5 186/4/5 185/4/5
f 188/4/5 186/4/5 187/4/5
f 189/4/5 187/4/5 185/4/5
f 189/5/5 188/5/5 187/5/5
f 190/4/5 186/4/5 188/4/5
f 190/5/5 188/5/5 189/5/5
f 191/4/5 189/4/5 185/4/5
f 191/4/5 190/4/5 189/4/5
f 192/4/5 186/4/5 190/4/5
f 192/4/5 190/4/5 191/4/5
f 197/6/5 194/6/5 193/6/5
f 198/6/5 194/6/5 197/6/5
f 199/6/5 196/6/5 195/6/5
f 200/6/5 196/6/5 199/6/5
f 201/6/5 194/6/5 198/6/5
f 202/6/5 194/6/5 201/6/5
f 203/6/5 199/6/5 195/6/5
f 204/6/5 199/6/5 203/6/5
f 207/4/5 206/4/5 205/4/5
f 208/4/5 206/4/5 207/4/5
f 211/6/5 210/6/5 209/6/5
f 212/6/5 210/6/5 211/6/5
f 215/4/5 214/4/5 213/4/5
f 216/4/5 214/4/5 215/4/5
f 217/4/5 215/4/5 213/4/5
f 218/4/5 214/4/5 216/4/5
f 219/4/5 217/4/5 213/4/5
f 219/4/5 218/4/5 217/4/5
f 220/4/5 214/4/5 218/4/5
f 220/4/5 218/4/5 219/4/5
f 221/4/6 222/4/6 223/4/6
f 223/4/6 222/4/6 224/4/6
f 221/4/6 223/4/6 225/4/6
f 223/5/6 224/5/6 225/5/6
f 224/4/6 222/4/6 226/4/6
f 225/5/6 224/5/6 226/5/6
f 221/4/6 225/4/6 227/4/6
f 225/4/6 226/4/6 227/4/6
f 226/4/6 222/4/6 228/4/6
f 227/4/6 226/4/6 228/4/6
f 229/4/6 230/4/6 231/4/6
f 231/4/6 230/4/6 232/4/6
f 233/6/6 234/6/6 237/6/6
f 237/6/6 234/6/6 238/6/6
f 235/6/6 236/6/6 241/6/6
f 241/6/6 236/6/6 242/6/6
f 238/6/6 239/6/6 243/6/6
f 243/6/6 239/6/6 244/6/6
f 240/6/6 241/6/6 245/6/6
f 245/6/6 241/6/6 246/6/6
f 247/6/6 248/6/6 251/6/6
f 251/6/6 248/6/6 252/6/6
f 249/6/6 250/6/6 253/6/6
f 253/6/6 250/6/6 254/6/6
f 255/4/6 256/4/6 257/4/6
f 257/4/6 256/4/6 258/4/6
f 258/4/6 256/4/6 259/4/6
f 259/4/6 256/4/6 260/4/6
f 261/3/6 262/3/6 263/3/6
f 263/3/6 262/3/6 264/3/6
f 264/2/6 265/2/6 266/2/6
f 266/2/6 265/2/6 267/2/6
f 268/1/6 269/1/6 270/1/6
f 270/1/6 269/1/6 271/1/6
f 272/6/6 273/6/6 274/6/6
f 274/6/6 273/6/6 275/6/6
f 272/6/6 274/6/6 276/6/6
f 275/6/6 273/6/6 277/6/6
f 272/6/6 276/6/6 278/6/6
f 276/6/6 277/6/6 278/6/6
f 277/6/6 273/6/6 279/6/6
f 278/6/6 277/6/6 279/6/6
f 280/4/6 281/4/6 282/4/6
f 282/4/6 281/4/6 283/4/6
