# MagicaVoxel @ Ephtracy

# group
g Table_w_flowers

# material
mtllib Table_w_flowers.mtl
usemtl palette

# normals
vn -1 0 0
vn 1 0 0
vn 0 0 1
vn 0 0 -1
vn 0 -1 0
vn 0 1 0

# texcoords
vt 0.115234 0.5
vt 0.162109 0.5
vt 0.251953 0.5
vt 0.396484 0.5
vt 0.537109 0.5
vt 0.892578 0.5

# verts
v -6 6 3
v -6 6 -1
v -6 7 3
v -6 7 -1
v -5 6 5
v -5 6 3
v -5 6 -1
v -5 6 -3
v -5 7 5
v -5 7 3
v -5 7 -1
v -5 7 -3
v -4 0 4
v -4 0 3
v -4 0 -1
v -4 0 -2
v -4 6 4
v -4 6 3
v -4 6 -1
v -4 6 -2
v -4 10 1
v -4 10 -0
v -4 11 1
v -4 11 -0
v -3 6 6
v -3 6 5
v -3 6 -3
v -3 6 -4
v -3 7 6
v -3 7 5
v -3 7 3
v -3 7 -1
v -3 7 -3
v -3 7 -4
v -3 9 3
v -3 9 1
v -3 9 -0
v -3 9 -1
v -3 10 1
v -3 10 -0
v -3 12 1
v -3 12 -0
v -3 13 1
v -3 13 -0
v -2 10 1
v -2 10 -0
v -2 11 1
v -2 11 -0
v -2 12 2
v -2 12 1
v -2 12 -0
v -2 13 1
v -2 13 -0
v -2 14 2
v -2 14 1
v -2 14 -0
v -1 8 2
v -1 8 1
v -1 9 3
v -1 9 2
v -1 10 4
v -1 10 3
v -1 10 2
v -1 11 4
v -1 11 3
v -1 11 1
v -1 12 2
v -1 12 1
v -1 14 2
v -1 14 1
v -1 15 2
v -1 15 1
v 0 8 1
v 0 8 -0
v 0 9 1
v 0 9 -0
v 1 0 4
v 1 0 3
v 1 0 -1
v 1 0 -2
v 1 6 4
v 1 6 3
v 1 6 -1
v 1 6 -2
v -3 0 4
v -3 0 3
v -3 0 -1
v -3 0 -2
v -3 6 4
v -3 6 3
v -3 6 -1
v -3 6 -2
v -3 10 1
v -3 10 -0
v -3 11 1
v -3 11 -0
v -2 8 2
v -2 8 1
v -2 9 2
v -2 9 1
v -1 8 1
v -1 8 -0
v -1 9 -0
v -1 11 1
v -1 11 -0
v -1 12 1
v -1 12 -0
v -1 13 1
v -1 13 -0
v -1 14 1
v -1 14 -0
v 0 9 3
v 0 9 1
v 0 10 4
v 0 10 3
v 0 10 2
v 0 11 4
v 0 11 3
v 0 12 2
v 0 12 1
v 0 12 -0
v 0 13 1
v 0 13 -0
v 0 14 2
v 0 14 1
v 0 15 2
v 0 15 1
v 1 6 6
v 1 6 5
v 1 6 -3
v 1 6 -4
v 1 7 6
v 1 7 5
v 1 7 3
v 1 7 -1
v 1 7 -3
v 1 7 -4
v 1 9 3
v 1 9 -1
v 1 12 2
v 1 12 1
v 1 14 2
v 1 14 1
v 2 0 4
v 2 0 3
v 2 0 -1
v 2 0 -2
v 2 6 4
v 2 6 3
v 2 6 -1
v 2 6 -2
v 3 6 5
v 3 6 3
v 3 6 -1
v 3 6 -3
v 3 7 5
v 3 7 3
v 3 7 -1
v 3 7 -3
v 4 6 3
v 4 6 -1
v 4 7 3
v 4 7 -1
v -3 6 6
v -3 7 6
v 1 6 6
v 1 7 6
v -5 6 5
v -5 7 5
v -3 6 5
v -3 7 5
v 1 6 5
v 1 7 5
v 3 6 5
v 3 7 5
v -4 0 4
v -4 6 4
v -3 0 4
v -3 6 4
v -1 10 4
v -1 11 4
v 0 10 4
v 0 11 4
v 1 0 4
v 1 6 4
v 2 0 4
v 2 6 4
v -6 6 3
v -6 7 3
v -5 6 3
v -5 7 3
v -3 7 3
v -3 9 3
v -1 9 3
v -1 10 3
v 0 9 3
v 0 10 3
v 1 7 3
v 1 9 3
v 3 6 3
v 3 7 3
v 4 6 3
v 4 7 3
v -2 12 2
v -2 14 2
v -1 10 2
v -1 12 2
v -1 14 2
v -1 15 2
v 0 10 2
v 0 12 2
v 0 14 2
v 0 15 2
v 1 12 2
v 1 14 2
v -4 10 1
v -4 11 1
v -3 9 1
v -3 10 1
v -3 11 1
v -3 12 1
v -3 13 1
v -2 8 1
v -2 9 1
v -2 10 1
v -2 11 1
v -2 12 1
v -2 13 1
v -1 8 1
v -1 11 1
v -1 12 1
v -1 8 -0
v -1 9 -0
v 0 8 -0
v 0 9 -0
v -4 0 -1
v -4 6 -1
v -3 0 -1
v -3 6 -1
v 1 0 -1
v 1 6 -1
v 2 0 -1
v 2 6 -1
v -4 0 3
v -4 6 3
v -3 0 3
v -3 6 3
v -1 10 3
v -1 11 3
v 0 10 3
v 0 11 3
v 1 0 3
v 1 6 3
v 2 0 3
v 2 6 3
v -2 8 2
v -2 9 2
v -1 8 2
v -1 9 2
v -1 8 1
v -1 11 1
v -1 12 1
v -1 13 1
v -1 14 1
v -1 15 1
v 0 8 1
v 0 9 1
v 0 12 1
v 0 13 1
v 0 14 1
v 0 15 1
v 1 12 1
v 1 14 1
v -4 10 -0
v -4 11 -0
v -3 9 -0
v -3 10 -0
v -3 11 -0
v -3 12 -0
v -3 13 -0
v -2 10 -0
v -2 11 -0
v -2 12 -0
v -2 13 -0
v -2 14 -0
v -1 9 -0
v -1 11 -0
v -1 12 -0
v -1 13 -0
v -1 14 -0
v 0 12 -0
v 0 13 -0
v -6 6 -1
v -6 7 -1
v -5 6 -1
v -5 7 -1
v -3 7 -1
v -3 9 -1
v 1 7 -1
v 1 9 -1
v 3 6 -1
v 3 7 -1
v 4 6 -1
v 4 7 -1
v -4 0 -2
v -4 6 -2
v -3 0 -2
v -3 6 -2
v 1 0 -2
v 1 6 -2
v 2 0 -2
v 2 6 -2
v -5 6 -3
v -5 7 -3
v -3 6 -3
v -3 7 -3
v 1 6 -3
v 1 7 -3
v 3 6 -3
v 3 7 -3
v -3 6 -4
v -3 7 -4
v 1 6 -4
v 1 7 -4
v -4 0 4
v -3 0 4
v 1 0 4
v 2 0 4
v -4 0 3
v -3 0 3
v 1 0 3
v 2 0 3
v -4 0 -1
v -3 0 -1
v 1 0 -1
v 2 0 -1
v -4 0 -2
v -3 0 -2
v 1 0 -2
v 2 0 -2
v -3 6 6
v 1 6 6
v -5 6 5
v -3 6 5
v 1 6 5
v 3 6 5
v -4 6 4
v -3 6 4
v 1 6 4
v 2 6 4
v -6 6 3
v -5 6 3
v -4 6 3
v -3 6 3
v 1 6 3
v 2 6 3
v 3 6 3
v 4 6 3
v -6 6 -1
v -5 6 -1
v -4 6 -1
v -3 6 -1
v 1 6 -1
v 2 6 -1
v 3 6 -1
v 4 6 -1
v -4 6 -2
v -3 6 -2
v 1 6 -2
v 2 6 -2
v -5 6 -3
v -3 6 -3
v 1 6 -3
v 3 6 -3
v -3 6 -4
v 1 6 -4
v -1 10 4
v 0 10 4
v -1 10 3
v 0 10 3
v -4 10 1
v -3 10 1
v -4 10 -0
v -3 10 -0
v -2 12 2
v -1 12 2
v 0 12 2
v 1 12 2
v -3 12 1
v -2 12 1
v -1 12 1
v 0 12 1
v 1 12 1
v -3 12 -0
v -2 12 -0
v -1 12 -0
v 0 12 -0
v -3 7 6
v 1 7 6
v -5 7 5
v -3 7 5
v 1 7 5
v 3 7 5
v -6 7 3
v -5 7 3
v -3 7 3
v 1 7 3
v 3 7 3
v 4 7 3
v -6 7 -1
v -5 7 -1
v -3 7 -1
v 1 7 -1
v 3 7 -1
v 4 7 -1
v -5 7 -3
v -3 7 -3
v 1 7 -3
v 3 7 -3
v -3 7 -4
v 1 7 -4
v -2 8 2
v -1 8 2
v -2 8 1
v -1 8 1
v 0 8 1
v -1 8 -0
v 0 8 -0
v -3 9 3
v -1 9 3
v 0 9 3
v 1 9 3
v -2 9 2
v -1 9 2
v -3 9 1
v -2 9 1
v 0 9 1
v -3 9 -0
v -1 9 -0
v 0 9 -0
v -3 9 -1
v 1 9 -1
v -1 10 3
v 0 10 3
v -1 10 2
v 0 10 2
v -3 10 1
v -2 10 1
v -3 10 -0
v -2 10 -0
v -1 11 4
v 0 11 4
v -1 11 3
v 0 11 3
v -4 11 1
v -3 11 1
v -4 11 -0
v -3 11 -0
v -3 13 1
v -2 13 1
v -1 13 1
v 0 13 1
v -3 13 -0
v -2 13 -0
v -1 13 -0
v 0 13 -0
v -2 14 2
v -1 14 2
v 0 14 2
v 1 14 2
v -2 14 1
v -1 14 1
v 0 14 1
v 1 14 1
v -2 14 -0
v -1 14 -0
v -1 15 2
v 0 15 2
v -1 15 1
v 0 15 1

# faces
f 3/5/1 2/5/1 1/5/1
f 4/5/1 2/5/1 3/5/1
f 9/5/1 6/5/1 5/5/1
f 10/5/1 6/5/1 9/5/1
f 11/5/1 8/5/1 7/5/1
f 12/5/1 8/5/1 11/5/1
f 17/5/1 14/5/1 13/5/1
f 18/5/1 14/5/1 17/5/1
f 19/5/1 16/5/1 15/5/1
f 20/5/1 16/5/1 19/5/1
f 23/6/1 22/6/1 21/6/1
f 24/6/1 22/6/1 23/6/1
f 29/5/1 26/5/1 25/5/1
f 30/5/1 26/5/1 29/5/1
f 33/5/1 28/5/1 27/5/1
f 34/5/1 28/5/1 33/5/1
f 35/3/1 32/3/1 31/3/1
f 36/3/1 32/3/1 35/3/1
f 37/3/1 32/3/1 36/3/1
f 38/3/1 32/3/1 37/3/1
f 39/6/1 37/6/1 36/6/1
f 40/6/1 37/6/1 39/6/1
f 43/2/1 42/2/1 41/2/1
f 44/2/1 42/2/1 43/2/1
f 47/6/1 46/6/1 45/6/1
f 48/6/1 46/6/1 47/6/1
f 50/2/1 48/2/1 47/2/1
f 51/2/1 48/2/1 50/2/1
f 52/1/1 50/1/1 49/1/1
f 54/1/1 52/1/1 49/1/1
f 55/2/1 53/2/1 52/2/1
f 55/1/1 52/1/1 54/1/1
f 56/2/1 53/2/1 55/2/1
f 60/6/1 58/6/1 57/6/1
f 62/6/1 60/6/1 59/6/1
f 63/6/1 58/6/1 60/6/1
f 63/6/1 60/6/1 62/6/1
f 64/6/1 62/6/1 61/6/1
f 65/6/1 62/6/1 64/6/1
f 66/6/1 58/6/1 63/6/1
f 67/6/1 66/6/1 63/6/1
f 68/6/1 66/6/1 67/6/1
f 71/1/1 70/1/1 69/1/1
f 72/1/1 70/1/1 71/1/1
f 75/3/1 74/3/1 73/3/1
f 76/3/1 74/3/1 75/3/1
f 81/5/1 78/5/1 77/5/1
f 82/5/1 78/5/1 81/5/1
f 83/5/1 80/5/1 79/5/1
f 84/5/1 80/5/1 83/5/1
f 85/5/2 86/5/2 89/5/2
f 89/5/2 86/5/2 90/5/2
f 87/5/2 88/5/2 91/5/2
f 91/5/2 88/5/2 92/5/2
f 93/6/2 94/6/2 95/6/2
f 95/6/2 94/6/2 96/6/2
f 97/3/2 98/3/2 99/3/2
f 99/3/2 98/3/2 100/3/2
f 101/6/2 102/6/2 103/6/2
f 101/6/2 103/6/2 104/6/2
f 104/6/2 103/6/2 105/6/2
f 104/2/2 105/2/2 106/2/2
f 106/2/2 105/2/2 107/2/2
f 108/2/2 109/2/2 110/2/2
f 110/2/2 109/2/2 111/2/2
f 112/6/2 113/6/2 115/6/2
f 115/6/2 113/6/2 116/6/2
f 114/6/2 115/6/2 117/6/2
f 117/6/2 115/6/2 118/6/2
f 116/6/2 113/6/2 119/6/2
f 119/6/2 113/6/2 120/6/2
f 120/2/2 121/2/2 122/2/2
f 122/2/2 121/2/2 123/2/2
f 124/1/2 125/1/2 126/1/2
f 126/1/2 125/1/2 127/1/2
f 128/5/2 129/5/2 132/5/2
f 132/5/2 129/5/2 133/5/2
f 130/5/2 131/5/2 136/5/2
f 136/5/2 131/5/2 137/5/2
f 134/3/2 135/3/2 138/3/2
f 138/3/2 135/3/2 139/3/2
f 140/1/2 141/1/2 142/1/2
f 142/1/2 141/1/2 143/1/2
f 144/5/2 145/5/2 148/5/2
f 148/5/2 145/5/2 149/5/2
f 146/5/2 147/5/2 150/5/2
f 150/5/2 147/5/2 151/5/2
f 152/5/2 153/5/2 156/5/2
f 156/5/2 153/5/2 157/5/2
f 154/5/2 155/5/2 158/5/2
f 158/5/2 155/5/2 159/5/2
f 160/5/2 161/5/2 162/5/2
f 162/5/2 161/5/2 163/5/2
f 166/5/3 165/5/3 164/5/3
f 167/5/3 165/5/3 166/5/3
f 170/5/3 169/5/3 168/5/3
f 171/5/3 169/5/3 170/5/3
f 174/5/3 173/5/3 172/5/3
f 175/5/3 173/5/3 174/5/3
f 178/5/3 177/5/3 176/5/3
f 179/5/3 177/5/3 178/5/3
f 182/6/3 181/6/3 180/6/3
f 183/6/3 181/6/3 182/6/3
f 186/5/3 185/5/3 184/5/3
f 187/5/3 185/5/3 186/5/3
f 190/5/3 189/5/3 188/5/3
f 191/5/3 189/5/3 190/5/3
f 194/3/3 193/3/3 192/3/3
f 196/3/3 194/3/3 192/3/3
f 196/6/3 195/6/3 194/6/3
f 197/6/3 195/6/3 196/6/3
f 198/3/3 196/3/3 192/3/3
f 199/3/3 196/3/3 198/3/3
f 202/5/3 201/5/3 200/5/3
f 203/5/3 201/5/3 202/5/3
f 207/1/3 205/1/3 204/1/3
f 208/1/3 205/1/3 207/1/3
f 210/6/3 207/6/3 206/6/3
f 211/1/3 209/1/3 208/1/3
f 211/6/3 207/6/3 210/6/3
f 211/1/3 208/1/3 207/1/3
f 212/1/3 209/1/3 211/1/3
f 213/1/3 209/1/3 212/1/3
f 214/1/3 212/1/3 211/1/3
f 215/1/3 212/1/3 214/1/3
f 219/6/3 217/6/3 216/6/3
f 220/6/3 217/6/3 219/6/3
f 224/6/3 219/6/3 218/6/3
f 225/6/3 219/6/3 224/6/3
f 227/2/3 222/2/3 221/2/3
f 228/2/3 222/2/3 227/2/3
f 229/6/3 226/6/3 225/6/3
f 229/6/3 224/6/3 223/6/3
f 229/6/3 225/6/3 224/6/3
f 230/2/3 227/2/3 226/2/3
f 230/6/3 226/6/3 229/6/3
f 231/2/3 227/2/3 230/2/3
f 234/3/3 233/3/3 232/3/3
f 235/3/3 233/3/3 234/3/3
f 238/5/3 237/5/3 236/5/3
f 239/5/3 237/5/3 238/5/3
f 242/5/3 241/5/3 240/5/3
f 243/5/3 241/5/3 242/5/3
f 244/5/4 245/5/4 246/5/4
f 246/5/4 245/5/4 247/5/4
f 248/6/4 249/6/4 250/6/4
f 250/6/4 249/6/4 251/6/4
f 252/5/4 253/5/4 254/5/4
f 254/5/4 253/5/4 255/5/4
f 256/3/4 257/3/4 258/3/4
f 258/3/4 257/3/4 259/3/4
f 260/6/4 261/6/4 266/6/4
f 261/6/4 262/6/4 266/6/4
f 266/6/4 262/6/4 267/6/4
f 267/6/4 262/6/4 268/6/4
f 264/1/4 265/1/4 269/1/4
f 263/1/4 264/1/4 269/1/4
f 269/1/4 265/1/4 270/1/4
f 270/1/4 265/1/4 271/1/4
f 269/1/4 270/1/4 272/1/4
f 268/1/4 269/1/4 272/1/4
f 272/1/4 270/1/4 273/1/4
f 274/6/4 275/6/4 277/6/4
f 277/6/4 275/6/4 278/6/4
f 276/6/4 277/6/4 281/6/4
f 279/2/4 280/2/4 283/2/4
f 283/2/4 280/2/4 284/2/4
f 281/6/4 282/6/4 286/6/4
f 276/6/4 281/6/4 286/6/4
f 284/2/4 285/2/4 287/2/4
f 286/6/4 282/6/4 287/6/4
f 283/2/4 284/2/4 287/2/4
f 282/2/4 283/2/4 287/2/4
f 287/2/4 285/2/4 288/2/4
f 288/2/4 285/2/4 289/2/4
f 289/2/4 285/2/4 290/2/4
f 288/2/4 289/2/4 291/2/4
f 291/2/4 289/2/4 292/2/4
f 293/5/4 294/5/4 295/5/4
f 295/5/4 294/5/4 296/5/4
f 297/3/4 298/3/4 299/3/4
f 299/3/4 298/3/4 300/3/4
f 301/5/4 302/5/4 303/5/4
f 303/5/4 302/5/4 304/5/4
f 305/5/4 306/5/4 307/5/4
f 307/5/4 306/5/4 308/5/4
f 309/5/4 310/5/4 311/5/4
f 311/5/4 310/5/4 312/5/4
f 313/5/4 314/5/4 315/5/4
f 315/5/4 314/5/4 316/5/4
f 317/5/4 318/5/4 319/5/4
f 319/5/4 318/5/4 320/5/4
f 321/5/4 322/5/4 323/5/4
f 323/5/4 322/5/4 324/5/4
f 329/5/5 326/5/5 325/5/5
f 330/5/5 326/5/5 329/5/5
f 331/5/5 328/5/5 327/5/5
f 332/5/5 328/5/5 331/5/5
f 337/5/5 334/5/5 333/5/5
f 338/5/5 334/5/5 337/5/5
f 339/5/5 336/5/5 335/5/5
f 340/5/5 336/5/5 339/5/5
f 344/5/5 342/5/5 341/5/5
f 345/5/5 342/5/5 344/5/5
f 347/5/5 344/5/5 343/5/5
f 347/5/5 346/5/5 345/5/5
f 347/5/5 345/5/5 344/5/5
f 348/5/5 346/5/5 347/5/5
f 349/5/5 346/5/5 348/5/5
f 350/5/5 346/5/5 349/5/5
f 352/5/5 347/5/5 343/5/5
f 353/5/5 347/5/5 352/5/5
f 354/5/5 349/5/5 348/5/5
f 355/5/5 349/5/5 354/5/5
f 356/5/5 346/5/5 350/5/5
f 357/5/5 346/5/5 356/5/5
f 359/5/5 353/5/5 352/5/5
f 359/5/5 358/5/5 357/5/5
f 359/5/5 357/5/5 356/5/5
f 359/5/5 356/5/5 355/5/5
f 359/5/5 355/5/5 354/5/5
f 359/5/5 354/5/5 353/5/5
f 359/5/5 352/5/5 351/5/5
f 360/5/5 358/5/5 359/5/5
f 361/5/5 358/5/5 360/5/5
f 362/5/5 358/5/5 361/5/5
f 363/5/5 358/5/5 362/5/5
f 364/5/5 358/5/5 363/5/5
f 365/5/5 358/5/5 364/5/5
f 366/5/5 358/5/5 365/5/5
f 367/5/5 361/5/5 360/5/5
f 368/5/5 363/5/5 362/5/5
f 369/5/5 363/5/5 368/5/5
f 370/5/5 365/5/5 364/5/5
f 371/5/5 369/5/5 368/5/5
f 371/5/5 370/5/5 369/5/5
f 371/5/5 367/5/5 360/5/5
f 371/5/5 368/5/5 367/5/5
f 372/5/5 370/5/5 371/5/5
f 373/5/5 370/5/5 372/5/5
f 374/5/5 365/5/5 370/5/5
f 374/5/5 370/5/5 373/5/5
f 375/5/5 373/5/5 372/5/5
f 376/5/5 373/5/5 375/5/5
f 379/6/5 378/6/5 377/6/5
f 380/6/5 378/6/5 379/6/5
f 383/6/5 382/6/5 381/6/5
f 384/6/5 382/6/5 383/6/5
f 390/1/5 386/1/5 385/1/5
f 391/1/5 386/1/5 390/1/5
f 392/1/5 388/1/5 387/1/5
f 393/1/5 388/1/5 392/1/5
f 394/2/5 390/2/5 389/2/5
f 395/2/5 390/2/5 394/2/5
f 396/2/5 392/2/5 391/2/5
f 397/2/5 392/2/5 396/2/5
f 398/5/6 399/5/6 401/5/6
f 401/5/6 399/5/6 402/5/6
f 400/5/6 401/5/6 405/5/6
f 402/5/6 403/5/6 405/5/6
f 401/5/6 402/5/6 405/5/6
f 405/5/6 403/5/6 406/5/6
f 406/5/6 403/5/6 407/5/6
f 407/5/6 403/5/6 408/5/6
f 404/5/6 405/5/6 410/5/6
f 405/5/6 406/5/6 410/5/6
f 410/5/6 406/5/6 411/5/6
f 411/5/6 406/5/6 412/5/6
f 408/5/6 409/5/6 413/5/6
f 407/5/6 408/5/6 413/5/6
f 413/5/6 409/5/6 414/5/6
f 414/5/6 409/5/6 415/5/6
f 411/5/6 412/5/6 416/5/6
f 413/5/6 414/5/6 416/5/6
f 412/5/6 413/5/6 416/5/6
f 416/5/6 414/5/6 417/5/6
f 417/5/6 414/5/6 418/5/6
f 418/5/6 414/5/6 419/5/6
f 417/5/6 418/5/6 420/5/6
f 420/5/6 418/5/6 421/5/6
f 422/4/6 423/4/6 424/4/6
f 424/4/6 423/4/6 425/4/6
f 425/4/6 426/4/6 427/4/6
f 427/4/6 426/4/6 428/4/6
f 429/3/6 430/3/6 433/3/6
f 433/3/6 430/3/6 434/3/6
f 429/3/6 433/3/6 435/3/6
f 435/3/6 433/3/6 436/3/6
f 431/3/6 432/3/6 437/3/6
f 437/3/6 432/3/6 440/3/6
f 438/3/6 439/3/6 441/3/6
f 439/3/6 440/3/6 441/3/6
f 440/3/6 432/3/6 442/3/6
f 441/3/6 440/3/6 442/3/6
f 443/6/6 444/6/6 445/6/6
f 445/6/6 444/6/6 446/6/6
f 447/6/6 448/6/6 449/6/6
f 449/6/6 448/6/6 450/6/6
f 451/6/6 452/6/6 453/6/6
f 453/6/6 452/6/6 454/6/6
f 455/6/6 456/6/6 457/6/6
f 457/6/6 456/6/6 458/6/6
f 459/2/6 460/2/6 463/2/6
f 463/2/6 460/2/6 464/2/6
f 461/2/6 462/2/6 465/2/6
f 465/2/6 462/2/6 466/2/6
f 467/1/6 468/1/6 471/1/6
f 471/1/6 468/1/6 472/1/6
f 469/1/6 470/1/6 473/1/6
f 473/1/6 470/1/6 474/1/6
f 471/2/6 472/2/6 475/2/6
f 475/2/6 472/2/6 476/2/6
f 477/1/6 478/1/6 479/1/6
f 479/1/6 478/1/6 480/1/6
