# MagicaVoxel @ Ephtracy

# group
g Trash_clothes_pile

# material
mtllib Trash_clothes_pile.mtl
usemtl palette

# normals
vn -1 0 0
vn 1 0 0
vn 0 0 1
vn 0 0 -1
vn 0 -1 0
vn 0 1 0

# texcoords
vt 0.130859 0.5
vt 0.232422 0.5
vt 0.701172 0.5
vt 0.810547 0.5
vt 0.818359 0.5
vt 0.837891 0.5
vt 0.958984 0.5

# verts
v -9 0 6
v -9 0 2
v -9 0 -1
v -9 0 -3
v -9 1 6
v -9 1 2
v -9 1 -1
v -9 1 -3
v -8 0 -3
v -8 0 -4
v -8 1 -3
v -8 1 -4
v -7 0 -4
v -7 0 -5
v -7 1 -4
v -7 1 -5
v -5 0 2
v -5 0 1
v -5 0 -5
v -5 0 -7
v -5 1 4
v -5 1 2
v -5 1 1
v -5 1 -5
v -5 1 -7
v -5 2 4
v -5 2 2
v -4 0 1
v -4 0 -0
v -4 0 -2
v -4 1 1
v -4 1 -0
v -4 1 -2
v -3 0 5
v -3 0 4
v -3 0 -7
v -3 0 -8
v -3 1 3
v -3 1 2
v -3 1 -7
v -3 1 -8
v -3 2 5
v -3 2 4
v -3 2 3
v -3 2 2
v -2 0 6
v -2 0 5
v -2 1 6
v -2 1 5
v -2 1 2
v -2 1 1
v -2 2 2
v -2 2 1
v -1 0 7
v -1 0 6
v -1 1 7
v -1 1 6
v 1 0 -4
v 1 0 -5
v 1 1 -4
v 1 1 -5
v 4 0 -3
v 4 0 -4
v 4 1 -3
v 4 1 -4
v 5 0 2
v 5 0 1
v 5 1 2
v 5 1 1
v 6 0 -3
v 6 0 -6
v 6 1 -3
v 6 1 -6
v -8 0 6
v -8 0 5
v -8 1 6
v -8 1 5
v -7 0 5
v -7 0 4
v -7 0 -1
v -7 0 -2
v -7 1 5
v -7 1 4
v -7 1 -1
v -7 1 -2
v -4 1 3
v -4 1 2
v -4 2 3
v -4 2 2
v -2 0 -4
v -2 0 -6
v -2 1 -4
v -2 1 -6
v -1 1 5
v -1 1 4
v -1 2 5
v -1 2 4
v 0 0 -6
v 0 0 -8
v 0 1 4
v 0 1 3
v 0 1 1
v 0 1 -6
v 0 1 -8
v 0 2 4
v 0 2 1
v 2 0 7
v 2 0 6
v 2 1 7
v 2 1 6
v 3 0 6
v 3 0 4
v 3 0 2
v 3 0 1
v 3 0 -3
v 3 0 -4
v 3 1 6
v 3 1 4
v 3 1 2
v 3 1 1
v 3 1 -3
v 3 1 -4
v 4 0 4
v 4 0 2
v 4 1 4
v 4 1 2
v 5 0 -0
v 5 0 -1
v 5 0 -3
v 5 0 -5
v 5 1 -0
v 5 1 -1
v 5 1 -3
v 5 1 -5
v 7 0 2
v 7 0 -0
v 7 0 -1
v 7 0 -2
v 7 1 2
v 7 1 -0
v 7 1 -1
v 7 1 -2
v 8 0 -2
v 8 0 -6
v 8 1 -2
v 8 1 -6
v -1 0 7
v -1 1 7
v 2 0 7
v 2 1 7
v -9 0 6
v -9 1 6
v -8 0 6
v -8 1 6
v -2 0 6
v -2 1 6
v -1 0 6
v -1 1 6
v 2 0 6
v 2 1 6
v 3 0 6
v 3 1 6
v -8 0 5
v -8 1 5
v -7 0 5
v -7 1 5
v -3 0 5
v -3 2 5
v -2 0 5
v -2 1 5
v -1 1 5
v -1 2 5
v -7 0 4
v -7 1 4
v -6 0 4
v -6 1 4
v -5 0 4
v -5 1 4
v -5 2 4
v -3 0 4
v -3 2 4
v -1 1 4
v -1 2 4
v 0 1 4
v 0 2 4
v 3 0 4
v 3 1 4
v 4 0 4
v 4 1 4
v 5 0 2
v 5 1 2
v 7 0 2
v 7 1 2
v 3 0 1
v 3 1 1
v 5 0 1
v 5 1 1
v -9 0 -1
v -9 1 -1
v -7 0 -1
v -7 1 -1
v 5 0 -1
v 5 1 -1
v 7 0 -1
v 7 1 -1
v -7 0 -2
v -7 1 -2
v -4 0 -2
v -4 1 -2
v 7 0 -2
v 7 1 -2
v 8 0 -2
v 8 1 -2
v 3 0 -4
v 3 1 -4
v 4 0 -4
v 4 1 -4
v -2 0 -6
v -2 1 -6
v 0 0 -6
v 0 1 -6
v -4 1 3
v -4 2 3
v -3 1 3
v -3 2 3
v -9 0 2
v -9 1 2
v -7 0 2
v -7 1 2
v -6 0 2
v -6 1 2
v -5 0 2
v -5 1 2
v -5 2 2
v -4 1 2
v -4 2 2
v -3 1 2
v -3 2 2
v -2 1 2
v -2 2 2
v 3 0 2
v 3 1 2
v 4 0 2
v 4 1 2
v -5 0 1
v -5 1 1
v -4 0 1
v -4 1 1
v -2 1 1
v -2 2 1
v -1 1 1
v 0 1 1
v 0 2 1
v 5 0 -0
v 5 1 -0
v 7 0 -0
v 7 1 -0
v -9 0 -3
v -9 1 -3
v -8 0 -3
v -8 1 -3
v 3 0 -3
v 3 1 -3
v 4 0 -3
v 4 1 -3
v 5 0 -3
v 5 1 -3
v 6 0 -3
v 6 1 -3
v -8 0 -4
v -8 1 -4
v -7 0 -4
v -7 1 -4
v -2 0 -4
v -2 1 -4
v 0 0 -4
v 0 1 -4
v 1 0 -4
v 1 1 -4
v -7 0 -5
v -7 1 -5
v -5 0 -5
v -5 1 -5
v 1 0 -5
v 1 1 -5
v 2 0 -5
v 2 1 -5
v 5 0 -5
v 5 1 -5
v 6 0 -6
v 6 1 -6
v 8 0 -6
v 8 1 -6
v -5 0 -7
v -5 1 -7
v -4 0 -7
v -4 1 -7
v -3 0 -7
v -3 1 -7
v -3 0 -8
v -3 1 -8
v 0 0 -8
v 0 1 -8
v -1 0 7
v 2 0 7
v -9 0 6
v -8 0 6
v -2 0 6
v -1 0 6
v 2 0 6
v 3 0 6
v -8 0 5
v -7 0 5
v -3 0 5
v -2 0 5
v -7 0 4
v -6 0 4
v -5 0 4
v -3 0 4
v 3 0 4
v 4 0 4
v -4 0 3
v -3 0 3
v 0 0 3
v 3 0 3
v -9 0 2
v -7 0 2
v -6 0 2
v -5 0 2
v -4 0 2
v -3 0 2
v -2 0 2
v 3 0 2
v 4 0 2
v 5 0 2
v 7 0 2
v -5 0 1
v -4 0 1
v -2 0 1
v -1 0 1
v 0 0 1
v 1 0 1
v 3 0 1
v 5 0 1
v -4 0 -0
v -3 0 -0
v -1 0 -0
v 0 0 -0
v 5 0 -0
v 7 0 -0
v -9 0 -1
v -7 0 -1
v -3 0 -1
v -2 0 -1
v 0 0 -1
v 1 0 -1
v 3 0 -1
v 4 0 -1
v 5 0 -1
v 7 0 -1
v -7 0 -2
v -4 0 -2
v -2 0 -2
v -1 0 -2
v 7 0 -2
v 8 0 -2
v -9 0 -3
v -8 0 -3
v -1 0 -3
v 0 0 -3
v 2 0 -3
v 3 0 -3
v 4 0 -3
v 5 0 -3
v 6 0 -3
v -8 0 -4
v -7 0 -4
v -5 0 -4
v -2 0 -4
v 0 0 -4
v 1 0 -4
v 2 0 -4
v 3 0 -4
v 4 0 -4
v -7 0 -5
v -5 0 -5
v -4 0 -5
v 1 0 -5
v 2 0 -5
v 5 0 -5
v -2 0 -6
v 0 0 -6
v 6 0 -6
v 8 0 -6
v -5 0 -7
v -4 0 -7
v -3 0 -7
v -3 0 -8
v 0 0 -8
v -1 1 7
v 2 1 7
v -9 1 6
v -8 1 6
v -2 1 6
v -1 1 6
v 2 1 6
v 3 1 6
v -8 1 5
v -7 1 5
v -2 1 5
v -1 1 5
v -7 1 4
v -6 1 4
v -5 1 4
v -1 1 4
v 0 1 4
v 3 1 4
v 4 1 4
v -4 1 3
v -3 1 3
v 0 1 3
v 3 1 3
v -9 1 2
v -7 1 2
v -6 1 2
v -5 1 2
v -4 1 2
v -3 1 2
v -2 1 2
v 3 1 2
v 4 1 2
v 5 1 2
v 7 1 2
v -5 1 1
v -4 1 1
v -2 1 1
v -1 1 1
v 0 1 1
v 1 1 1
v 3 1 1
v 5 1 1
v -4 1 -0
v -3 1 -0
v -1 1 -0
v 0 1 -0
v 5 1 -0
v 7 1 -0
v -9 1 -1
v -7 1 -1
v -3 1 -1
v -2 1 -1
v 0 1 -1
v 1 1 -1
v 3 1 -1
v 4 1 -1
v 5 1 -1
v 7 1 -1
v -7 1 -2
v -4 1 -2
v -2 1 -2
v -1 1 -2
v 7 1 -2
v 8 1 -2
v -9 1 -3
v -8 1 -3
v -1 1 -3
v 0 1 -3
v 2 1 -3
v 3 1 -3
v 4 1 -3
v 5 1 -3
v 6 1 -3
v -8 1 -4
v -7 1 -4
v -5 1 -4
v -2 1 -4
v 0 1 -4
v 1 1 -4
v 2 1 -4
v 3 1 -4
v 4 1 -4
v -7 1 -5
v -5 1 -5
v -4 1 -5
v 1 1 -5
v 2 1 -5
v 5 1 -5
v -2 1 -6
v 0 1 -6
v 6 1 -6
v 8 1 -6
v -5 1 -7
v -4 1 -7
v -3 1 -7
v -3 1 -8
v 0 1 -8
v -3 2 5
v -1 2 5
v -5 2 4
v -3 2 4
v -1 2 4
v 0 2 4
v -4 2 3
v -3 2 3
v -5 2 2
v -4 2 2
v -3 2 2
v -2 2 2
v -2 2 1
v 0 2 1

# faces
f 5/7/1 2/7/1 1/7/1
f 6/7/1 2/7/1 5/7/1
f 7/1/1 4/1/1 3/1/1
f 8/1/1 4/1/1 7/1/1
f 11/1/1 10/1/1 9/1/1
f 12/1/1 10/1/1 11/1/1
f 15/7/1 14/7/1 13/7/1
f 16/7/1 14/7/1 15/7/1
f 22/6/1 18/6/1 17/6/1
f 23/6/1 18/6/1 22/6/1
f 24/7/1 20/7/1 19/7/1
f 25/7/1 20/7/1 24/7/1
f 26/5/1 22/5/1 21/5/1
f 27/5/1 22/5/1 26/5/1
f 31/6/1 29/6/1 28/6/1
f 32/1/1 30/1/1 29/1/1
f 32/6/1 29/6/1 31/6/1
f 33/1/1 30/1/1 32/1/1
f 40/1/1 37/1/1 36/1/1
f 41/1/1 37/1/1 40/1/1
f 42/5/1 35/5/1 34/5/1
f 43/5/1 35/5/1 42/5/1
f 44/5/1 39/5/1 38/5/1
f 45/5/1 39/5/1 44/5/1
f 48/5/1 47/5/1 46/5/1
f 49/5/1 47/5/1 48/5/1
f 52/5/1 51/5/1 50/5/1
f 53/5/1 51/5/1 52/5/1
f 56/5/1 55/5/1 54/5/1
f 57/5/1 55/5/1 56/5/1
f 60/2/1 59/2/1 58/2/1
f 61/2/1 59/2/1 60/2/1
f 64/3/1 63/3/1 62/3/1
f 65/3/1 63/3/1 64/3/1
f 68/5/1 67/5/1 66/5/1
f 69/5/1 67/5/1 68/5/1
f 72/7/1 71/7/1 70/7/1
f 73/7/1 71/7/1 72/7/1
f 74/7/2 75/7/2 76/7/2
f 76/7/2 75/7/2 77/7/2
f 78/7/2 79/7/2 82/7/2
f 82/7/2 79/7/2 83/7/2
f 80/1/2 81/1/2 84/1/2
f 84/1/2 81/1/2 85/1/2
f 86/5/2 87/5/2 88/5/2
f 88/5/2 87/5/2 89/5/2
f 90/1/2 91/1/2 92/1/2
f 92/1/2 91/1/2 93/1/2
f 94/5/2 95/5/2 96/5/2
f 96/5/2 95/5/2 97/5/2
f 98/1/2 99/1/2 103/1/2
f 103/1/2 99/1/2 104/1/2
f 101/5/2 102/5/2 105/5/2
f 100/5/2 101/5/2 105/5/2
f 105/5/2 102/5/2 106/5/2
f 107/5/2 108/5/2 109/5/2
f 109/5/2 108/5/2 110/5/2
f 111/5/2 112/5/2 117/5/2
f 117/5/2 112/5/2 118/5/2
f 113/6/2 114/6/2 119/6/2
f 119/6/2 114/6/2 120/6/2
f 115/3/2 116/3/2 121/3/2
f 121/3/2 116/3/2 122/3/2
f 123/5/2 124/5/2 125/5/2
f 125/5/2 124/5/2 126/5/2
f 127/5/2 128/5/2 131/5/2
f 131/5/2 128/5/2 132/5/2
f 129/3/2 130/3/2 133/3/2
f 133/3/2 130/3/2 134/3/2
f 135/5/2 136/5/2 139/5/2
f 139/5/2 136/5/2 140/5/2
f 137/7/2 138/7/2 141/7/2
f 141/7/2 138/7/2 142/7/2
f 143/7/2 144/7/2 145/7/2
f 145/7/2 144/7/2 146/7/2
f 149/5/3 148/5/3 147/5/3
f 150/5/3 148/5/3 149/5/3
f 153/7/3 152/7/3 151/7/3
f 154/7/3 152/7/3 153/7/3
f 157/5/3 156/5/3 155/5/3
f 158/5/3 156/5/3 157/5/3
f 161/5/3 160/5/3 159/5/3
f 162/5/3 160/5/3 161/5/3
f 165/7/3 164/7/3 163/7/3
f 166/7/3 164/7/3 165/7/3
f 169/5/3 168/5/3 167/5/3
f 170/5/3 168/5/3 169/5/3
f 171/5/3 168/5/3 170/5/3
f 172/5/3 168/5/3 171/5/3
f 175/4/3 174/4/3 173/4/3
f 176/4/3 174/4/3 175/4/3
f 177/7/3 176/7/3 175/7/3
f 178/7/3 176/7/3 177/7/3
f 180/5/3 178/5/3 177/5/3
f 180/5/3 179/5/3 178/5/3
f 181/5/3 179/5/3 180/5/3
f 184/5/3 183/5/3 182/5/3
f 185/5/3 183/5/3 184/5/3
f 188/5/3 187/5/3 186/5/3
f 189/5/3 187/5/3 188/5/3
f 192/5/3 191/5/3 190/5/3
f 193/5/3 191/5/3 192/5/3
f 196/5/3 195/5/3 194/5/3
f 197/5/3 195/5/3 196/5/3
f 200/1/3 199/1/3 198/1/3
f 201/1/3 199/1/3 200/1/3
f 204/7/3 203/7/3 202/7/3
f 205/7/3 203/7/3 204/7/3
f 208/1/3 207/1/3 206/1/3
f 209/1/3 207/1/3 208/1/3
f 212/7/3 211/7/3 210/7/3
f 213/7/3 211/7/3 212/7/3
f 216/3/3 215/3/3 214/3/3
f 217/3/3 215/3/3 216/3/3
f 220/1/3 219/1/3 218/1/3
f 221/1/3 219/1/3 220/1/3
f 222/5/4 223/5/4 224/5/4
f 224/5/4 223/5/4 225/5/4
f 226/7/4 227/7/4 228/7/4
f 228/7/4 227/7/4 229/7/4
f 228/4/4 229/4/4 230/4/4
f 230/4/4 229/4/4 231/4/4
f 230/7/4 231/7/4 232/7/4
f 232/7/4 231/7/4 233/7/4
f 233/5/4 234/5/4 235/5/4
f 235/5/4 234/5/4 236/5/4
f 237/5/4 238/5/4 239/5/4
f 239/5/4 238/5/4 240/5/4
f 241/5/4 242/5/4 243/5/4
f 243/5/4 242/5/4 244/5/4
f 245/6/4 246/6/4 247/6/4
f 247/6/4 246/6/4 248/6/4
f 249/5/4 250/5/4 251/5/4
f 251/5/4 250/5/4 252/5/4
f 252/5/4 250/5/4 253/5/4
f 254/5/4 255/5/4 256/5/4
f 256/5/4 255/5/4 257/5/4
f 258/1/4 259/1/4 260/1/4
f 260/1/4 259/1/4 261/1/4
f 262/7/4 263/7/4 264/7/4
f 264/7/4 263/7/4 265/7/4
f 266/7/4 267/7/4 268/7/4
f 268/7/4 267/7/4 269/7/4
f 270/1/4 271/1/4 272/1/4
f 272/1/4 271/1/4 273/1/4
f 274/1/4 275/1/4 276/1/4
f 276/1/4 275/1/4 277/1/4
f 276/6/4 277/6/4 278/6/4
f 278/6/4 277/6/4 279/6/4
f 280/7/4 281/7/4 282/7/4
f 282/7/4 281/7/4 283/7/4
f 284/2/4 285/2/4 286/2/4
f 286/2/4 285/2/4 287/2/4
f 286/3/4 287/3/4 288/3/4
f 288/3/4 287/3/4 289/3/4
f 290/7/4 291/7/4 292/7/4
f 292/7/4 291/7/4 293/7/4
f 294/7/4 295/7/4 296/7/4
f 296/7/4 295/7/4 297/7/4
f 296/1/4 297/1/4 298/1/4
f 298/1/4 297/1/4 299/1/4
f 300/1/4 301/1/4 302/1/4
f 302/1/4 301/1/4 303/1/4
f 309/5/5 305/5/5 304/5/5
f 310/5/5 305/5/5 309/5/5
f 312/7/5 307/7/5 306/7/5
f 315/5/5 311/5/5 310/5/5
f 315/5/5 309/5/5 308/5/5
f 315/5/5 310/5/5 309/5/5
f 316/7/5 313/7/5 312/7/5
f 319/5/5 315/5/5 314/5/5
f 320/5/5 311/5/5 315/5/5
f 320/5/5 315/5/5 319/5/5
f 322/5/5 319/5/5 318/5/5
f 322/5/5 321/5/5 320/5/5
f 322/5/5 320/5/5 319/5/5
f 323/5/5 321/5/5 322/5/5
f 324/5/5 321/5/5 323/5/5
f 325/5/5 321/5/5 324/5/5
f 326/7/5 312/7/5 306/7/5
f 326/7/5 316/7/5 312/7/5
f 327/4/5 317/4/5 316/4/5
f 327/7/5 316/7/5 326/7/5
f 328/7/5 318/7/5 317/7/5
f 328/4/5 317/4/5 327/4/5
f 329/5/5 322/5/5 318/5/5
f 329/7/5 318/7/5 328/7/5
f 330/6/5 323/6/5 322/6/5
f 330/5/5 322/5/5 329/5/5
f 331/5/5 324/5/5 323/5/5
f 331/6/5 323/6/5 330/6/5
f 332/5/5 324/5/5 331/5/5
f 333/5/5 321/5/5 325/5/5
f 333/6/5 325/6/5 324/6/5
f 334/5/5 321/5/5 333/5/5
f 337/6/5 332/6/5 331/6/5
f 337/6/5 331/6/5 330/6/5
f 337/6/5 330/6/5 329/6/5
f 338/6/5 332/6/5 337/6/5
f 339/5/5 324/5/5 332/5/5
f 339/6/5 332/6/5 338/6/5
f 340/5/5 324/5/5 339/5/5
f 341/6/5 333/6/5 324/6/5
f 341/5/5 324/5/5 340/5/5
f 342/6/5 333/6/5 341/6/5
f 343/6/5 333/6/5 342/6/5
f 344/5/5 336/5/5 335/5/5
f 345/6/5 340/6/5 339/6/5
f 345/6/5 339/6/5 338/6/5
f 346/6/5 340/6/5 345/6/5
f 347/5/5 341/5/5 340/5/5
f 347/6/5 340/6/5 346/6/5
f 347/5/5 342/5/5 341/5/5
f 348/5/5 342/5/5 347/5/5
f 349/5/5 344/5/5 343/5/5
f 349/5/5 336/5/5 344/5/5
f 350/5/5 336/5/5 349/5/5
f 353/6/5 348/6/5 347/6/5
f 353/1/5 346/1/5 345/1/5
f 353/6/5 347/6/5 346/6/5
f 354/6/5 348/6/5 353/6/5
f 355/5/5 342/5/5 348/5/5
f 355/6/5 348/6/5 354/6/5
f 356/6/5 343/6/5 342/6/5
f 356/5/5 342/5/5 355/5/5
f 357/5/5 349/5/5 343/5/5
f 357/6/5 343/6/5 356/6/5
f 358/5/5 349/5/5 357/5/5
f 359/5/5 349/5/5 358/5/5
f 361/1/5 352/1/5 351/1/5
f 362/1/5 354/1/5 353/1/5
f 362/1/5 353/1/5 345/1/5
f 363/6/5 355/6/5 354/6/5
f 363/6/5 356/6/5 355/6/5
f 363/1/5 354/1/5 362/1/5
f 363/6/5 357/6/5 356/6/5
f 364/6/5 357/6/5 363/6/5
f 365/7/5 360/7/5 359/7/5
f 367/1/5 362/1/5 361/1/5
f 367/1/5 361/1/5 351/1/5
f 367/1/5 364/1/5 363/1/5
f 367/1/5 363/1/5 362/1/5
f 368/1/5 364/1/5 367/1/5
f 369/6/5 357/6/5 364/6/5
f 369/1/5 364/1/5 368/1/5
f 370/6/5 357/6/5 369/6/5
f 371/6/5 357/6/5 370/6/5
f 372/7/5 358/7/5 357/7/5
f 372/6/5 357/6/5 371/6/5
f 373/4/5 359/4/5 358/4/5
f 373/7/5 358/7/5 372/7/5
f 374/7/5 366/7/5 365/7/5
f 374/4/5 359/4/5 373/4/5
f 374/7/5 365/7/5 359/7/5
f 375/7/5 366/7/5 374/7/5
f 376/1/5 370/1/5 369/1/5
f 376/1/5 369/1/5 368/1/5
f 377/1/5 370/1/5 376/1/5
f 378/1/5 370/1/5 377/1/5
f 379/1/5 370/1/5 378/1/5
f 380/6/5 371/6/5 370/6/5
f 380/1/5 370/1/5 379/1/5
f 381/6/5 371/6/5 380/6/5
f 382/3/5 372/3/5 371/3/5
f 382/6/5 371/6/5 381/6/5
f 383/3/5 372/3/5 382/3/5
f 384/3/5 374/3/5 373/3/5
f 385/7/5 378/7/5 377/7/5
f 386/1/5 379/1/5 378/1/5
f 386/7/5 378/7/5 385/7/5
f 387/1/5 379/1/5 386/1/5
f 388/2/5 382/2/5 381/2/5
f 389/3/5 383/3/5 382/3/5
f 389/2/5 382/2/5 388/2/5
f 389/3/5 384/3/5 383/3/5
f 390/3/5 374/3/5 384/3/5
f 390/3/5 384/3/5 389/3/5
f 391/1/5 379/1/5 387/1/5
f 393/7/5 366/7/5 375/7/5
f 394/7/5 366/7/5 393/7/5
f 395/7/5 387/7/5 386/7/5
f 396/1/5 392/1/5 391/1/5
f 396/7/5 387/7/5 395/7/5
f 396/1/5 391/1/5 387/1/5
f 397/1/5 392/1/5 396/1/5
f 398/1/5 392/1/5 397/1/5
f 399/1/5 392/1/5 398/1/5
f 400/5/6 401/5/6 405/5/6
f 405/5/6 401/5/6 406/5/6
f 402/7/6 403/7/6 408/7/6
f 406/5/6 407/5/6 410/5/6
f 404/5/6 405/5/6 410/5/6
f 405/5/6 406/5/6 410/5/6
f 410/5/6 407/5/6 411/5/6
f 408/7/6 409/7/6 412/7/6
f 411/5/6 407/5/6 415/5/6
f 415/5/6 407/5/6 416/5/6
f 416/5/6 407/5/6 417/5/6
f 417/5/6 418/5/6 421/5/6
f 416/5/6 417/5/6 421/5/6
f 421/5/6 418/5/6 422/5/6
f 402/7/6 408/7/6 423/7/6
f 408/7/6 412/7/6 423/7/6
f 412/4/6 413/4/6 424/4/6
f 423/7/6 412/7/6 424/7/6
f 413/7/6 414/7/6 425/7/6
f 424/4/6 413/4/6 425/4/6
f 425/7/6 414/7/6 426/7/6
f 419/6/6 420/6/6 427/6/6
f 427/6/6 420/6/6 428/6/6
f 422/5/6 418/5/6 430/5/6
f 421/6/6 422/6/6 430/6/6
f 430/5/6 418/5/6 431/5/6
f 428/6/6 429/6/6 434/6/6
f 427/6/6 428/6/6 434/6/6
f 426/6/6 427/6/6 434/6/6
f 434/6/6 429/6/6 435/6/6
f 435/6/6 429/6/6 436/6/6
f 421/6/6 430/6/6 438/6/6
f 438/6/6 430/6/6 439/6/6
f 439/6/6 430/6/6 440/6/6
f 432/5/6 433/5/6 441/5/6
f 436/6/6 437/6/6 442/6/6
f 435/6/6 436/6/6 442/6/6
f 442/6/6 437/6/6 443/6/6
f 437/5/6 438/5/6 444/5/6
f 443/6/6 437/6/6 444/6/6
f 438/5/6 439/5/6 444/5/6
f 444/5/6 439/5/6 445/5/6
f 440/5/6 441/5/6 446/5/6
f 441/5/6 433/5/6 446/5/6
f 446/5/6 433/5/6 447/5/6
f 444/6/6 445/6/6 450/6/6
f 442/1/6 443/1/6 450/1/6
f 443/6/6 444/6/6 450/6/6
f 450/6/6 445/6/6 451/6/6
f 445/5/6 439/5/6 452/5/6
f 451/6/6 445/6/6 452/6/6
f 439/6/6 440/6/6 453/6/6
f 452/5/6 439/5/6 453/5/6
f 440/5/6 446/5/6 454/5/6
f 453/6/6 440/6/6 454/6/6
f 454/5/6 446/5/6 455/5/6
f 455/5/6 446/5/6 456/5/6
f 448/1/6 449/1/6 458/1/6
f 450/1/6 451/1/6 459/1/6
f 442/1/6 450/1/6 459/1/6
f 451/6/6 452/6/6 460/6/6
f 452/6/6 453/6/6 460/6/6
f 459/1/6 451/1/6 460/1/6
f 453/6/6 454/6/6 460/6/6
f 460/6/6 454/6/6 461/6/6
f 456/7/6 457/7/6 462/7/6
f 458/1/6 459/1/6 464/1/6
f 448/1/6 458/1/6 464/1/6
f 460/1/6 461/1/6 464/1/6
f 459/1/6 460/1/6 464/1/6
f 464/1/6 461/1/6 465/1/6
f 461/6/6 454/6/6 466/6/6
f 465/1/6 461/1/6 466/1/6
f 466/6/6 454/6/6 467/6/6
f 467/6/6 454/6/6 468/6/6
f 454/7/6 455/7/6 469/7/6
f 468/6/6 454/6/6 469/6/6
f 455/4/6 456/4/6 470/4/6
f 469/7/6 455/7/6 470/7/6
f 462/7/6 463/7/6 471/7/6
f 470/4/6 456/4/6 471/4/6
f 456/7/6 462/7/6 471/7/6
f 471/7/6 463/7/6 472/7/6
f 466/1/6 467/1/6 473/1/6
f 465/1/6 466/1/6 473/1/6
f 473/1/6 467/1/6 474/1/6
f 474/1/6 467/1/6 475/1/6
f 475/1/6 467/1/6 476/1/6
f 467/6/6 468/6/6 477/6/6
f 476/1/6 467/1/6 477/1/6
f 477/6/6 468/6/6 478/6/6
f 468/3/6 469/3/6 479/3/6
f 478/6/6 468/6/6 479/6/6
f 479/3/6 469/3/6 480/3/6
f 470/3/6 471/3/6 481/3/6
f 474/7/6 475/7/6 482/7/6
f 475/1/6 476/1/6 483/1/6
f 482/7/6 475/7/6 483/7/6
f 483/1/6 476/1/6 484/1/6
f 478/2/6 479/2/6 485/2/6
f 479/3/6 480/3/6 486/3/6
f 485/2/6 479/2/6 486/2/6
f 480/3/6 481/3/6 486/3/6
f 481/3/6 471/3/6 487/3/6
f 486/3/6 481/3/6 487/3/6
f 484/1/6 476/1/6 488/1/6
f 472/7/6 463/7/6 490/7/6
f 490/7/6 463/7/6 491/7/6
f 483/7/6 484/7/6 492/7/6
f 488/1/6 489/1/6 493/1/6
f 492/7/6 484/7/6 493/7/6
f 484/1/6 488/1/6 493/1/6
f 493/1/6 489/1/6 494/1/6
f 494/1/6 489/1/6 495/1/6
f 495/1/6 489/1/6 496/1/6
f 497/5/6 498/5/6 500/5/6
f 500/5/6 498/5/6 501/5/6
f 499/5/6 500/5/6 503/5/6
f 501/5/6 502/5/6 503/5/6
f 500/5/6 501/5/6 503/5/6
f 503/5/6 502/5/6 504/5/6
f 499/5/6 503/5/6 505/5/6
f 505/5/6 503/5/6 506/5/6
f 504/5/6 502/5/6 507/5/6
f 507/5/6 502/5/6 508/5/6
f 508/5/6 502/5/6 509/5/6
f 509/5/6 502/5/6 510/5/6
