# MagicaVoxel @ Ephtracy

# group
g Trash_big

# material
mtllib Trash_big.mtl
usemtl palette

# normals
vn -1 0 0
vn 1 0 0
vn 0 0 1
vn 0 0 -1
vn 0 -1 0
vn 0 1 0

# texcoords
vt 0.837891 0.5
vt 0.908203 0.5
vt 0.916016 0.5
vt 0.974609 0.5
vt 0.986328 0.5

# verts
v -8 4 3
v -8 4 -1
v -8 5 3
v -8 5 -1
v -6 0 4
v -6 0 -2
v -6 4 3
v -6 4 2
v -6 4 -0
v -6 4 -1
v -6 5 3
v -6 5 2
v -6 5 -0
v -6 5 -1
v -6 5 -2
v -6 5 -3
v -6 6 4
v -6 6 -2
v -6 6 -3
v -6 7 4
v -6 7 -2
v -5 7 3
v -5 7 -2
v -5 8 3
v -5 8 -2
v 0 7 3
v 0 7 -2
v 0 8 3
v 0 8 -2
v 6 4 2
v 6 4 -0
v 6 5 2
v 6 5 -0
v -7 4 2
v -7 4 -0
v -7 5 2
v -7 5 -0
v -1 7 3
v -1 7 -2
v -1 8 3
v -1 8 -2
v 4 7 3
v 4 7 -2
v 4 8 3
v 4 8 -2
v 5 0 4
v 5 0 -2
v 5 4 3
v 5 4 2
v 5 4 -0
v 5 4 -1
v 5 5 3
v 5 5 2
v 5 5 -0
v 5 5 -1
v 5 5 -2
v 5 5 -3
v 5 6 4
v 5 6 -2
v 5 6 -3
v 5 7 4
v 5 7 -2
v 7 4 3
v 7 4 -1
v 7 5 3
v 7 5 -1
v -6 0 4
v -6 6 4
v -6 7 4
v -4 1 4
v -4 5 4
v -3 2 4
v -3 4 4
v -2 3 4
v -2 4 4
v -1 3 4
v -1 4 4
v 0 3 4
v 0 4 4
v 1 2 4
v 1 3 4
v 1 4 4
v 2 2 4
v 2 3 4
v 2 4 4
v 3 1 4
v 3 5 4
v 5 0 4
v 5 6 4
v 5 7 4
v -8 4 3
v -8 5 3
v -6 4 3
v -6 5 3
v -5 7 3
v -5 8 3
v -1 7 3
v -1 8 3
v 0 7 3
v 0 8 3
v 4 7 3
v 4 8 3
v 5 4 3
v 5 5 3
v 7 4 3
v 7 5 3
v -7 4 -0
v -7 5 -0
v -6 4 -0
v -6 5 -0
v 5 4 -0
v 5 5 -0
v 6 4 -0
v 6 5 -0
v -7 4 2
v -7 5 2
v -6 4 2
v -6 5 2
v 5 4 2
v 5 5 2
v 6 4 2
v 6 5 2
v -8 4 -1
v -8 5 -1
v -6 4 -1
v -6 5 -1
v 5 4 -1
v 5 5 -1
v 7 4 -1
v 7 5 -1
v -6 0 -2
v -6 5 -2
v -6 6 -2
v -6 7 -2
v -5 7 -2
v -5 8 -2
v -1 7 -2
v -1 8 -2
v 0 7 -2
v 0 8 -2
v 4 7 -2
v 4 8 -2
v 5 0 -2
v 5 5 -2
v 5 6 -2
v 5 7 -2
v -6 5 -3
v -6 6 -3
v 5 5 -3
v 5 6 -3
v -6 0 4
v 5 0 4
v -6 0 -2
v 5 0 -2
v -8 4 3
v -6 4 3
v 5 4 3
v 7 4 3
v -7 4 2
v -6 4 2
v 5 4 2
v 6 4 2
v -7 4 -0
v -6 4 -0
v 5 4 -0
v 6 4 -0
v -8 4 -1
v -6 4 -1
v 5 4 -1
v 7 4 -1
v -6 5 -2
v 5 5 -2
v -6 5 -3
v 5 5 -3
v -8 5 3
v -6 5 3
v 5 5 3
v 7 5 3
v -7 5 2
v -6 5 2
v 5 5 2
v 6 5 2
v -7 5 -0
v -6 5 -0
v 5 5 -0
v 6 5 -0
v -8 5 -1
v -6 5 -1
v 5 5 -1
v 7 5 -1
v -6 6 -2
v 5 6 -2
v -6 6 -3
v 5 6 -3
v -6 7 4
v 5 7 4
v -5 7 3
v -1 7 3
v 0 7 3
v 4 7 3
v -6 7 -2
v -5 7 -2
v -1 7 -2
v 0 7 -2
v 4 7 -2
v 5 7 -2
v -5 8 3
v -1 8 3
v 0 8 3
v 4 8 3
v -5 8 -2
v -1 8 -2
v 0 8 -2
v 4 8 -2

# faces
f 3/3/1 2/3/1 1/3/1
f 4/3/1 2/3/1 3/3/1
f 7/2/1 6/2/1 5/2/1
f 8/2/1 6/2/1 7/2/1
f 9/2/1 6/2/1 8/2/1
f 10/2/1 6/2/1 9/2/1
f 11/2/1 7/2/1 5/2/1
f 12/2/1 9/2/1 8/2/1
f 13/2/1 9/2/1 12/2/1
f 14/2/1 6/2/1 10/2/1
f 15/2/1 6/2/1 14/2/1
f 17/2/1 13/2/1 12/2/1
f 17/2/1 11/2/1 5/2/1
f 17/2/1 15/2/1 14/2/1
f 17/2/1 14/2/1 13/2/1
f 17/2/1 12/2/1 11/2/1
f 18/3/1 16/3/1 15/3/1
f 18/2/1 15/2/1 17/2/1
f 19/3/1 16/3/1 18/3/1
f 20/3/1 18/3/1 17/3/1
f 21/3/1 18/3/1 20/3/1
f 24/3/1 23/3/1 22/3/1
f 25/3/1 23/3/1 24/3/1
f 28/3/1 27/3/1 26/3/1
f 29/3/1 27/3/1 28/3/1
f 32/3/1 31/3/1 30/3/1
f 33/3/1 31/3/1 32/3/1
f 34/3/2 35/3/2 36/3/2
f 36/3/2 35/3/2 37/3/2
f 38/3/2 39/3/2 40/3/2
f 40/3/2 39/3/2 41/3/2
f 42/3/2 43/3/2 44/3/2
f 44/3/2 43/3/2 45/3/2
f 46/2/2 47/2/2 48/2/2
f 48/2/2 47/2/2 49/2/2
f 49/2/2 47/2/2 50/2/2
f 50/2/2 47/2/2 51/2/2
f 46/2/2 48/2/2 52/2/2
f 49/2/2 50/2/2 53/2/2
f 53/2/2 50/2/2 54/2/2
f 51/2/2 47/2/2 55/2/2
f 55/2/2 47/2/2 56/2/2
f 53/2/2 54/2/2 58/2/2
f 46/2/2 52/2/2 58/2/2
f 55/2/2 56/2/2 58/2/2
f 54/2/2 55/2/2 58/2/2
f 52/2/2 53/2/2 58/2/2
f 56/3/2 57/3/2 59/3/2
f 58/2/2 56/2/2 59/2/2
f 59/3/2 57/3/2 60/3/2
f 58/3/2 59/3/2 61/3/2
f 61/3/2 59/3/2 62/3/2
f 63/3/2 64/3/2 65/3/2
f 65/3/2 64/3/2 66/3/2
f 70/2/3 68/2/3 67/2/3
f 71/2/3 68/2/3 70/2/3
f 72/1/3 71/1/3 70/1/3
f 73/1/3 71/1/3 72/1/3
f 74/4/3 73/4/3 72/4/3
f 75/1/3 71/1/3 73/1/3
f 75/4/3 73/4/3 74/4/3
f 76/4/3 74/4/3 72/4/3
f 76/5/3 75/5/3 74/5/3
f 77/1/3 71/1/3 75/1/3
f 77/5/3 75/5/3 76/5/3
f 78/4/3 76/4/3 72/4/3
f 78/4/3 77/4/3 76/4/3
f 79/1/3 71/1/3 77/1/3
f 79/4/3 77/4/3 78/4/3
f 80/1/3 72/1/3 70/1/3
f 80/4/3 78/4/3 72/4/3
f 81/5/3 79/5/3 78/5/3
f 81/4/3 78/4/3 80/4/3
f 82/1/3 71/1/3 79/1/3
f 82/5/3 79/5/3 81/5/3
f 83/5/3 81/5/3 80/5/3
f 83/1/3 80/1/3 70/1/3
f 84/4/3 82/4/3 81/4/3
f 84/5/3 81/5/3 83/5/3
f 85/1/3 71/1/3 82/1/3
f 85/4/3 82/4/3 84/4/3
f 86/2/3 70/2/3 67/2/3
f 86/1/3 84/1/3 83/1/3
f 86/1/3 85/1/3 84/1/3
f 86/1/3 83/1/3 70/1/3
f 87/1/3 71/1/3 85/1/3
f 87/1/3 85/1/3 86/1/3
f 87/2/3 68/2/3 71/2/3
f 88/2/3 86/2/3 67/2/3
f 88/2/3 87/2/3 86/2/3
f 89/3/3 69/3/3 68/3/3
f 89/2/3 87/2/3 88/2/3
f 89/2/3 68/2/3 87/2/3
f 90/3/3 69/3/3 89/3/3
f 93/3/3 92/3/3 91/3/3
f 94/3/3 92/3/3 93/3/3
f 97/3/3 96/3/3 95/3/3
f 98/3/3 96/3/3 97/3/3
f 101/3/3 100/3/3 99/3/3
f 102/3/3 100/3/3 101/3/3
f 105/3/3 104/3/3 103/3/3
f 106/3/3 104/3/3 105/3/3
f 109/3/3 108/3/3 107/3/3
f 110/3/3 108/3/3 109/3/3
f 113/3/3 112/3/3 111/3/3
f 114/3/3 112/3/3 113/3/3
f 115/3/4 116/3/4 117/3/4
f 117/3/4 116/3/4 118/3/4
f 119/3/4 120/3/4 121/3/4
f 121/3/4 120/3/4 122/3/4
f 123/3/4 124/3/4 125/3/4
f 125/3/4 124/3/4 126/3/4
f 127/3/4 128/3/4 129/3/4
f 129/3/4 128/3/4 130/3/4
f 133/3/4 134/3/4 135/3/4
f 133/3/4 135/3/4 137/3/4
f 135/3/4 136/3/4 137/3/4
f 137/3/4 136/3/4 138/3/4
f 133/3/4 137/3/4 139/3/4
f 133/3/4 139/3/4 141/3/4
f 139/3/4 140/3/4 141/3/4
f 141/3/4 140/3/4 142/3/4
f 131/2/4 132/2/4 143/2/4
f 143/2/4 132/2/4 144/2/4
f 133/3/4 141/3/4 145/3/4
f 145/3/4 141/3/4 146/3/4
f 147/3/4 148/3/4 149/3/4
f 149/3/4 148/3/4 150/3/4
f 153/2/5 152/2/5 151/2/5
f 154/2/5 152/2/5 153/2/5
f 159/3/5 156/3/5 155/3/5
f 160/3/5 156/3/5 159/3/5
f 161/3/5 158/3/5 157/3/5
f 162/3/5 158/3/5 161/3/5
f 163/3/5 159/3/5 155/3/5
f 166/3/5 158/3/5 162/3/5
f 167/3/5 164/3/5 163/3/5
f 167/3/5 163/3/5 155/3/5
f 168/3/5 164/3/5 167/3/5
f 169/3/5 166/3/5 165/3/5
f 170/3/5 158/3/5 166/3/5
f 170/3/5 166/3/5 169/3/5
f 173/3/5 172/3/5 171/3/5
f 174/3/5 172/3/5 173/3/5
f 175/3/6 176/3/6 179/3/6
f 179/3/6 176/3/6 180/3/6
f 177/3/6 178/3/6 181/3/6
f 181/3/6 178/3/6 182/3/6
f 175/3/6 179/3/6 183/3/6
f 182/3/6 178/3/6 186/3/6
f 183/3/6 184/3/6 187/3/6
f 175/3/6 183/3/6 187/3/6
f 187/3/6 184/3/6 188/3/6
f 185/3/6 186/3/6 189/3/6
f 186/3/6 178/3/6 190/3/6
f 189/3/6 186/3/6 190/3/6
f 191/3/6 192/3/6 193/3/6
f 193/3/6 192/3/6 194/3/6
f 195/3/6 196/3/6 197/3/6
f 197/3/6 196/3/6 198/3/6
f 198/3/6 196/3/6 199/3/6
f 199/3/6 196/3/6 200/3/6
f 195/3/6 197/3/6 201/3/6
f 201/3/6 197/3/6 202/3/6
f 198/3/6 199/3/6 203/3/6
f 203/3/6 199/3/6 204/3/6
f 200/3/6 196/3/6 205/3/6
f 205/3/6 196/3/6 206/3/6
f 207/3/6 208/3/6 211/3/6
f 211/3/6 208/3/6 212/3/6
f 209/3/6 210/3/6 213/3/6
f 213/3/6 210/3/6 214/3/6
